<svg xmlns="http://www.w3.org/2000/svg" xml:space="preserve" style="enable-background:new 0 0 197.67 83.41" viewBox="0 0 197.67 83.41">
    <style>
        .st1{fill:#191919}.st2{fill:#d72864}.st3{fill:#8c195f}
    </style>
    <path id="Schutzzone" d="M0 0h197.67v83.41H0z" style="fill:#fff"/>
    <g id="Logo">
        <path d="M81.73 31.58a7.56 7.56 0 0 0-7.69 7.58c0 4.44 3.31 7.8 7.69 7.8a7.58 7.58 0 0 0 7.69-7.8 7.56 7.56 0 0 0-7.69-7.58zm0 13.08c-2.85 0-5.08-2.42-5.08-5.5 0-2.97 2.23-5.29 5.08-5.29s5.08 2.32 5.08 5.29c-.01 3.09-2.24 5.5-5.08 5.5zm16.1-6.47c-1.52-.63-2.84-1.18-2.84-2.39 0-1.09 1.02-1.91 2.38-1.91a5.5 5.5 0 0 1 3.3 1.26l1.09-2.04a6.53 6.53 0 0 0-4.37-1.53c-2.82 0-4.95 1.84-4.95 4.27 0 2.56 2.23 3.52 4.21 4.37 1.56.67 2.91 1.25 2.91 2.49 0 1.34-1.15 1.93-2.29 1.93a6 6 0 0 1-3.74-1.54l-1.37 1.89a7.34 7.34 0 0 0 5.07 1.96c2.86 0 4.87-1.77 4.87-4.31-.02-2.69-2.28-3.62-4.27-4.45zm16.77-6.36h-9.65v2.08h3.64V46.7h2.36V33.91h3.65zm-58.03-9.32a24.04 24.04 0 0 0-17.1-7.13 24.12 24.12 0 0 0-24.09 24.09 24.12 24.12 0 0 0 24.09 24.09c6.64 0 12.67-2.7 17.03-7.06 4.36-4.36 11.97-10.39 11.97-17.03.01-6.6-7.57-12.6-11.9-16.96zm-1.21 30.64a19.21 19.21 0 0 1-16.28 5.47 17.11 17.11 0 0 1-2.66.18 19.3 19.3 0 0 1-19.28-19.28 19.3 19.3 0 0 1 19.28-19.28l.88.02c.6.03 1.19.08 1.77.16a20.59 20.59 0 0 1 2.65-.18 19.2 19.2 0 0 1 13.68 5.71c3.46 3.49 9.53 8.28 9.53 13.57.01 5.32-6.08 10.14-9.57 13.63z" class="st1"/>
        <path d="M22.46 39.52c0-9.73 7.01-17.59 16.62-19.09-11.85.28-20.16 8.76-20.16 19.09s9.96 19.37 20.16 19.09c0 0-.58.08 0 0a19.3 19.3 0 0 1-16.62-19.09z" class="st2"/>
        <path d="M51.82 53.15c-3.55 3.56-8.13 5.04-12.74 5.46a20.59 20.59 0 0 0 2.66.18c5.31 0 10.13-2.16 13.62-5.65 3.49-3.49 9.58-8.31 9.58-13.62 0-5.29-6.07-10.08-9.53-13.57a19.23 19.23 0 0 0-16.33-5.53c4.64.42 9.69 2.39 12.79 5.52 3.46 3.49 9.53 8.28 9.53 13.57 0 5.33-6.09 10.15-9.58 13.64z" class="st3"/>
        <path d="M18.92 39.52c0-10.33 8.31-18.8 20.16-19.09a17.11 17.11 0 0 0-2.65-.18 19.3 19.3 0 0 0-19.28 19.28 19.3 19.3 0 0 0 19.28 19.28l.89-.02c.6-.03 1.19-.08 1.77-.16-10.19.26-20.17-8.77-20.17-19.11z" class="st3"/>
        <path d="M50.05 53.15a19.22 19.22 0 0 1-10.97 5.46c4.61-.42 9.18-1.91 12.74-5.46 3.49-3.49 9.58-8.31 9.58-13.62 0-5.29-6.07-10.08-9.53-13.57-3.1-3.13-8.16-5.09-12.79-5.52 4.28.59 8.12 2.59 11.02 5.52 3.46 3.49 9.53 8.28 9.53 13.57 0 5.31-6.09 10.13-9.58 13.62z" class="st2"/>
        <path d="M75.92 58.33h2.81v.46h-3.35V53h3.27v.46h-2.73v2.15h2.56v.47h-2.56v2.25zm6.74-.2c0 .22.04.32.25.32.07 0 .14-.02.25-.05l.03.34a1 1 0 0 1-.49.11c-.38 0-.51-.23-.53-.51-.3.32-.78.54-1.36.54-1.04 0-1.21-.71-1.21-1.1 0-1.16 1.06-1.38 1.98-1.38l.54.02v-.41c0-.62-.18-.96-.89-.96-.65 0-.87.26-.96.74l-.5-.09c.13-.76.62-1.08 1.5-1.08.98 0 1.39.38 1.39 1.4v2.11zm-.53-1.27c-.13-.02-.27-.02-.5-.02-.56 0-1.46.04-1.46.87 0 .4.14.75.78.75.47 0 .94-.26 1.19-.56v-1.04zm4.66-1-.53.06c-.1-.54-.25-.84-.92-.84-.71 0-.88.31-.88.66 0 .48.36.59.98.74.75.18 1.42.34 1.42 1.23 0 .7-.53 1.17-1.51 1.17-.9 0-1.46-.34-1.58-1.24l.51-.09c.11.49.3.86 1.09.86.54 0 .94-.16.94-.68 0-.48-.33-.58-.93-.73-.68-.18-1.48-.28-1.48-1.21 0-.79.68-1.18 1.45-1.18.99.01 1.34.5 1.44 1.25zM90 58.63c-.2.14-.6.26-.93.26-.73 0-1.09-.33-1.09-1.09v-2.64h-.64v-.46h.64v-1.17l.54-.08v1.25h1.14v.45h-1.14v2.57c0 .46.1.73.63.73.25 0 .55-.1.73-.21l.12.39zm.46-1.88c0-1.5.86-2.13 1.9-2.13 1.12 0 1.58.76 1.58 1.74l-.04.5h-2.86c.03 1.22.6 1.55 1.31 1.55.64 0 .9-.26 1.03-.78l.5.1c-.18.81-.82 1.16-1.58 1.16-1.43 0-1.84-1.01-1.84-2.14zm2.91-.33c.02-.84-.3-1.33-1.06-1.33-.62 0-1.23.38-1.27 1.33h2.33zm3.74-1.24c-.5-.09-1.14.14-1.47.47v3.13h-.54V54.7h.44l.05.57c.39-.53.83-.66 1.39-.65h.13v.56zm4.09 3.61h-.54v-2.7c0-.62-.22-.99-.85-.99-.54 0-1.11.36-1.36.58v3.11h-.54V54.7h.47l.03.51c.44-.33.97-.59 1.54-.59.87 0 1.24.49 1.24 1.41v2.76zm3.61-4.38c0 1.67 3.2.77 3.2 2.84 0 1.18-.94 1.64-1.97 1.64-1.28 0-1.89-.56-2.05-1.61l.54-.08c.15.65.47 1.22 1.52 1.22.66 0 1.41-.23 1.41-1.1 0-1.76-3.2-.7-3.2-2.89 0-.94.79-1.54 1.89-1.54 1.01 0 1.71.43 1.85 1.61l-.51.06c-.11-.56-.34-1.19-1.31-1.19-1.03.01-1.37.46-1.37 1.04zm5.01 4.38-1.31-4.09h.55l1.09 3.54.97-3.54h.58l.95 3.53 1.08-3.53h.51l-1.29 4.09h-.65l-.92-3.49-.93 3.49h-.63zm5.5-5.08c-.27 0-.43-.15-.43-.42s.16-.42.43-.42.43.15.43.42-.16.42-.43.42zm.26 5.08h-.54V54.7h.54v4.09zm3.51-.16c-.2.14-.6.26-.93.26-.73 0-1.09-.33-1.09-1.09v-2.64h-.64v-.46h.64v-1.17l.54-.08v1.25h1.14v.45h-1.14v2.57c0 .46.1.73.63.73.25 0 .55-.1.73-.21l.12.39zm.97-.29h2.55v.45h-3.17v-.38l2.46-3.26h-2.42v-.45h3.05v.38l-2.47 3.26zm3.09-1.59c0-1.5.86-2.13 1.9-2.13 1.12 0 1.58.76 1.58 1.74l-.04.5h-2.86c.03 1.22.6 1.55 1.31 1.55.64 0 .9-.26 1.03-.78l.5.1c-.18.81-.82 1.16-1.58 1.16-1.42 0-1.84-1.01-1.84-2.14zm2.91-.33c.02-.84-.3-1.33-1.06-1.33-.62 0-1.23.38-1.27 1.33h2.33zm3.75-1.24c-.5-.09-1.14.14-1.47.47v3.13h-.54V54.7h.44l.05.57c.39-.53.83-.66 1.39-.65h.13v.56zm1.34 3.61h-.54v-6.04h.54v6.04zm4.22-.66c0 .22.04.32.25.32.07 0 .14-.02.25-.05l.03.34a1 1 0 0 1-.49.11c-.38 0-.51-.23-.53-.51-.3.32-.78.54-1.36.54-1.04 0-1.21-.71-1.21-1.1 0-1.16 1.06-1.38 1.98-1.38l.54.02v-.41c0-.62-.18-.96-.89-.96-.65 0-.87.26-.96.74l-.5-.09c.13-.76.62-1.08 1.5-1.08.98 0 1.39.38 1.39 1.4v2.11zm-.53-1.27c-.13-.02-.27-.02-.5-.02-.56 0-1.46.04-1.46.87 0 .4.14.75.78.75.47 0 .94-.26 1.19-.56v-1.04zm5.27 1.93h-.54v-2.7c0-.62-.22-.99-.85-.99-.54 0-1.11.36-1.36.58v3.11h-.54V54.7h.47l.03.51c.44-.33.97-.59 1.54-.59.87 0 1.24.49 1.24 1.41v2.76zm4.55 0h-.46l-.05-.46c-.38.31-.8.55-1.41.55-.92 0-1.54-.59-1.54-2.09 0-1.59.8-2.17 1.73-2.17.48 0 .89.16 1.19.38v-2.25h.54v6.04zm-.53-3.29c-.2-.15-.65-.42-1.19-.42-.87 0-1.18.68-1.18 1.74 0 1.12.34 1.62 1.13 1.62.5 0 .97-.3 1.25-.61V55.5zm-65.2 10.59V62.2h.54v3.91c0 1.33-.75 1.97-2.1 1.97-1.44 0-2.02-.7-2.02-1.98v-3.9h.54v3.87c0 1.14.58 1.54 1.54 1.54.96 0 1.5-.37 1.5-1.52zm5.34 1.9h-.54v-2.7c0-.62-.22-.99-.85-.99-.54 0-1.11.36-1.36.58v3.11h-.54V63.9h.47l.03.51c.44-.33.97-.59 1.54-.59.87 0 1.24.49 1.24 1.41v2.76zm1.66-5.08c-.27 0-.43-.15-.43-.42s.16-.42.43-.42.43.15.43.42-.16.42-.43.42zm.25 5.08h-.54V63.9h.54v4.09zm2.37 0-1.61-4.09h.58l1.33 3.56 1.32-3.56h.54l-1.57 4.09h-.59zm2.61-2.04c0-1.5.86-2.13 1.9-2.13 1.12 0 1.58.76 1.58 1.74l-.04.5h-2.86c.03 1.22.6 1.55 1.31 1.55.64 0 .9-.26 1.03-.78l.5.1c-.18.81-.82 1.16-1.58 1.16-1.42 0-1.84-1.01-1.84-2.14zm2.91-.33c.02-.84-.3-1.34-1.06-1.34-.62 0-1.23.38-1.27 1.34h2.33zm3.75-1.24c-.5-.09-1.14.14-1.47.47v3.13h-.54V63.9h.44l.05.57c.39-.53.83-.66 1.39-.65h.13v.56zm3.39.68-.53.06c-.1-.54-.25-.84-.92-.84-.71 0-.88.31-.88.66 0 .48.36.59.98.74.75.18 1.42.34 1.42 1.23 0 .7-.53 1.17-1.51 1.17-.9 0-1.46-.34-1.58-1.24l.51-.09c.11.49.3.86 1.09.86.54 0 .94-.16.94-.68 0-.48-.33-.58-.93-.73-.68-.18-1.48-.28-1.48-1.21 0-.79.68-1.18 1.45-1.18 1 .01 1.35.5 1.44 1.25zm1.46-2.15c-.27 0-.43-.15-.43-.42s.16-.42.43-.42.43.15.43.42-.16.42-.43.42zm.26 5.08h-.54V63.9h.54v4.09zm3.51-.16c-.2.14-.6.26-.93.26-.73 0-1.09-.33-1.09-1.09v-2.64h-.64v-.46h.64v-1.17l.54-.08v1.25h1.14v.45h-1.14v2.57c0 .46.1.73.63.73.25 0 .55-.1.73-.21l.12.39z" class="st1"/>
        <path d="M106.56 63.9h.58l1.2 3.45 1.25-3.45h.54l-1.65 4.33c-.43 1.17-.73 1.54-1.44 1.54-.3 0-.58-.08-.74-.14l.08-.42c.13.04.44.12.67.12.38 0 .71-.28 1.01-1.31l-1.5-4.12zm5.93 2.07c0-1.33.69-2.14 1.94-2.14s1.77.82 1.77 2.04c0 1.34-.54 2.22-1.87 2.22-1.39 0-1.84-.92-1.84-2.12zm3.15-.06c0-1.21-.46-1.62-1.24-1.62-.81 0-1.36.5-1.36 1.65 0 1.14.44 1.7 1.33 1.7.78-.01 1.27-.49 1.27-1.73zm3.46-3.47a1.8 1.8 0 0 0-.58-.1c-.38 0-.64.17-.64.74v.82h1.16v.45h-1.16v3.64h-.54v-3.64h-.62v-.45h.62v-.74c0-.85.38-1.28 1.1-1.28.3 0 .54.06.68.13l-.02.43zm4.85-.24 2 5.79h-.59l-.62-1.86h-2.33l-.62 1.86h-.53l1.97-5.79h.72zm-.38.44-1.02 3.01h2.02l-1-3.01zm3.46 1.26h.47l.03.5c.38-.31.84-.58 1.47-.58.86 0 1.48.53 1.48 2.02 0 1.59-.8 2.24-1.73 2.24-.48 0-.9-.22-1.21-.45v2.05h-.52V63.9zm.54 3.24c.2.15.65.49 1.19.49.87 0 1.18-.74 1.18-1.81 0-1.12-.34-1.56-1.07-1.56a2 2 0 0 0-1.3.61v2.27zm4.08-3.24h.47l.03.5c.38-.31.84-.58 1.47-.58.86 0 1.48.53 1.48 2.02 0 1.59-.8 2.24-1.73 2.24-.48 0-.9-.22-1.21-.45v2.05h-.52V63.9zm.53 3.24c.2.15.65.49 1.19.49.87 0 1.18-.74 1.18-1.81 0-1.12-.34-1.56-1.07-1.56a2 2 0 0 0-1.3.61v2.27zm4.62.85h-.54v-6.04h.54v6.04zm1.68-5.08c-.27 0-.43-.15-.43-.42s.16-.42.43-.42.43.15.43.42-.16.42-.43.42zm.25 5.08h-.54V63.9h.54v4.09zm1.13-2.04c0-1.5.86-2.13 1.9-2.13 1.12 0 1.58.76 1.58 1.74l-.04.5h-2.86c.03 1.22.6 1.55 1.31 1.55.64 0 .9-.26 1.03-.78l.5.1c-.18.81-.82 1.16-1.58 1.16-1.43 0-1.84-1.01-1.84-2.14zm2.91-.33c.02-.84-.3-1.34-1.06-1.34-.62 0-1.23.38-1.27 1.34h2.33zm4.91 2.37h-.46l-.05-.46c-.38.31-.8.55-1.41.55-.92 0-1.54-.59-1.54-2.09 0-1.59.8-2.17 1.73-2.17.48 0 .89.16 1.19.38v-2.25h.54v6.04zm-.54-3.29c-.2-.15-.65-.42-1.19-.42-.87 0-1.18.68-1.18 1.74 0 1.12.34 1.62 1.13 1.62.5 0 .97-.3 1.25-.61V64.7zm4.17-1.09c0 1.67 3.2.77 3.2 2.84 0 1.18-.94 1.64-1.97 1.64-1.28 0-1.89-.56-2.05-1.61l.54-.08c.15.65.47 1.22 1.52 1.22.66 0 1.41-.23 1.41-1.1 0-1.76-3.2-.7-3.2-2.89 0-.94.79-1.54 1.89-1.54 1.01 0 1.71.43 1.85 1.61l-.51.06c-.11-.56-.34-1.19-1.31-1.19-1.03.01-1.37.46-1.37 1.04zm4.06 2.37c0-1.43.72-2.15 1.94-2.15.81 0 1.44.46 1.49 1.37l-.54.07c-.07-.66-.38-.98-1-.98-.64 0-1.33.35-1.33 1.62 0 1.34.66 1.7 1.31 1.7.59 0 .97-.26 1.08-.9l.5.1c-.14.91-.86 1.28-1.62 1.28-1.34 0-1.83-.88-1.83-2.11zm4.84-3.07c-.27 0-.43-.15-.43-.42s.16-.42.43-.42.43.15.43.42-.15.42-.43.42zm.26 5.08h-.54V63.9h.54v4.09zm1.12-2.04c0-1.5.86-2.13 1.9-2.13 1.12 0 1.58.76 1.58 1.74l-.04.5h-2.86c.03 1.22.6 1.55 1.31 1.55.64 0 .9-.26 1.03-.78l.5.1c-.18.81-.82 1.16-1.58 1.16-1.42 0-1.84-1.01-1.84-2.14zm2.91-.33c.02-.84-.3-1.34-1.06-1.34-.62 0-1.23.38-1.27 1.34h2.33zm5.02 2.37h-.54v-2.7c0-.62-.22-.99-.85-.99-.54 0-1.11.36-1.36.58v3.11h-.54V63.9h.47l.03.51c.44-.33.97-.59 1.54-.59.87 0 1.24.49 1.24 1.41v2.76zm1.09-2.01c0-1.43.72-2.15 1.94-2.15.81 0 1.44.46 1.49 1.37l-.54.07c-.07-.66-.38-.98-1-.98-.64 0-1.33.35-1.33 1.62 0 1.34.66 1.7 1.31 1.7.59 0 .97-.26 1.08-.9l.5.1c-.14.91-.86 1.28-1.62 1.28-1.33 0-1.83-.88-1.83-2.11zm4.29-.03c0-1.5.86-2.13 1.9-2.13 1.12 0 1.58.76 1.58 1.74l-.04.5h-2.86c.03 1.22.6 1.55 1.31 1.55.64 0 .9-.26 1.03-.78l.5.1c-.18.81-.82 1.16-1.58 1.16-1.42 0-1.84-1.01-1.84-2.14zm2.91-.33c.02-.84-.3-1.34-1.06-1.34-.62 0-1.23.38-1.27 1.34h2.33zm4.4-.56-.53.06c-.1-.54-.25-.84-.92-.84-.71 0-.88.31-.88.66 0 .48.36.59.98.74.75.18 1.42.34 1.42 1.23 0 .7-.53 1.17-1.51 1.17-.9 0-1.46-.34-1.58-1.24l.51-.09c.11.49.3.86 1.09.86.54 0 .94-.16.94-.68 0-.48-.33-.58-.93-.73-.68-.18-1.48-.28-1.48-1.21 0-.79.68-1.18 1.45-1.18 1 .01 1.35.5 1.44 1.25z" class="st1"/>
    </g>
</svg>
