<svg version="1.1" viewBox="0.0 0.0 609.0 386.0" fill="none" stroke="none" stroke-linecap="square" stroke-miterlimit="10" width="609" height="386" xmlns:xlink="http://www.w3.org/1999/xlink" xmlns="http://www.w3.org/2000/svg"><path fill="#ffffff" d="M0 0L609.0 0L609.0 386.0L0 386.0L0 0Z" fill-rule="nonzero"/><path fill="#4285f4" d="M304.5 56.166668C389.89886 56.166668 459.2672 125.132614 459.76404 210.53003C460.26086 295.92746 391.69965 365.69586 306.30658 366.68948L305.4033 289.0614C348.09982 288.5646 382.38043 253.68039 382.13202 210.98169C381.8836 168.28297 347.19943 133.8 304.5 133.8Z" fill-rule="nonzero"/><path fill="#ea4335" d="M306.30658 366.68948C250.6237 367.33743 198.85794 338.11597 170.64136 290.10736C142.42479 242.09875 142.07896 182.65578 169.73503 134.32211C197.3911 85.988434 248.81335 56.166668 304.5 56.166668L304.5 133.8C276.65668 133.8 250.94556 148.71088 237.11752 172.87772C223.28949 197.04456 223.4624 226.76604 237.57068 250.77036C251.67897 274.77466 277.56186 289.38538 305.4033 289.0614Z" fill-rule="nonzero"/><path fill="#000000" d="M405.9949 214.56836L405.9949 215.75586L399.3699 215.75586Q399.35428 215.31836 399.51053 214.89648Q399.77615 214.22461 400.32303 213.56836Q400.88553 212.91211 401.9324 212.05273Q403.57303 210.70898 404.13553 209.92773Q404.71365 209.14648 404.71365 208.44336Q404.71365 207.70898 404.1824 207.20898Q403.66678 206.70898 402.83865 206.70898Q401.94803 206.70898 401.40115 207.24023Q400.8699 207.77148 400.8699 208.72461L399.60428 208.58398Q399.72928 207.17773 400.57303 206.44336Q401.4324 205.69336 402.85428 205.69336Q404.3074 205.69336 405.13553 206.49023Q405.97928 207.28711 405.97928 208.47461Q405.97928 209.08398 405.72928 209.66211Q405.4949 210.24023 404.91678 210.88086Q404.35428 211.52148 403.02615 212.64648Q401.91678 213.56836 401.60428 213.91211Q401.29178 214.24023 401.08865 214.56836L405.9949 214.56836ZM407.52615 210.81836Q407.52615 209.03711 407.88553 207.95898Q408.26053 206.86523 408.97928 206.28711Q409.69803 205.69336 410.79178 205.69336Q411.60428 205.69336 412.21365 206.02148Q412.82303 206.34961 413.21365 206.95898Q413.6199 207.56836 413.83865 208.44336Q414.0574 209.31836 414.0574 210.81836Q414.0574 212.58398 413.69803 213.66211Q413.33865 214.74023 412.6199 215.33398Q411.90115 215.92773 410.79178 215.92773Q409.35428 215.92773 408.52615 214.88086Q407.52615 213.63086 407.52615 210.81836ZM408.79178 210.81836Q408.79178 213.28711 409.3699 214.09961Q409.94803 214.91211 410.79178 214.91211Q411.65115 214.91211 412.22928 214.09961Q412.8074 213.27148 412.8074 210.81836Q412.8074 208.33398 412.22928 207.52148Q411.65115 206.70898 410.77615 206.70898Q409.9324 206.70898 409.4324 207.42773Q408.79178 208.34961 408.79178 210.81836ZM420.16678 215.75586L418.9324 215.75586L418.9324 207.91211Q418.4949 208.33398 417.76053 208.77148Q417.04178 209.19336 416.47928 209.39648L416.47928 208.20898Q417.51053 207.72461 418.27615 207.03711Q419.0574 206.34961 419.3699 205.69336L420.16678 205.69336L420.16678 215.75586ZM424.21365 215.75586L424.21365 214.34961L425.6199 214.34961L425.6199 215.75586L424.21365 215.75586ZM429.41678 210.31836Q428.65115 210.03711 428.27615 209.52148Q427.91678 209.00586 427.91678 208.27148Q427.91678 207.17773 428.69803 206.44336Q429.4949 205.69336 430.79178 205.69336Q432.10428 205.69336 432.90115 206.45898Q433.71365 207.22461 433.71365 208.31836Q433.71365 209.00586 433.33865 209.52148Q432.97928 210.03711 432.22928 210.31836Q433.15115 210.61523 433.63553 211.28711Q434.1199 211.95898 434.1199 212.89648Q434.1199 214.17773 433.21365 215.05273Q432.3074 215.92773 430.82303 215.92773Q429.33865 215.92773 428.41678 215.05273Q427.51053 214.16211 427.51053 212.84961Q427.51053 211.88086 428.01053 211.22461Q428.51053 210.55273 429.41678 210.31836ZM429.1824 208.24023Q429.1824 208.94336 429.63553 209.39648Q430.08865 209.84961 430.82303 209.84961Q431.54178 209.84961 431.9949 209.41211Q432.44803 208.95898 432.44803 208.30273Q432.44803 207.63086 431.97928 207.17773Q431.51053 206.70898 430.8074 206.70898Q430.10428 206.70898 429.63553 207.16211Q429.1824 207.59961 429.1824 208.24023ZM428.77615 212.86523Q428.77615 213.39648 429.02615 213.89648Q429.27615 214.38086 429.76053 214.64648Q430.26053 214.91211 430.83865 214.91211Q431.71365 214.91211 432.27615 214.34961Q432.85428 213.78711 432.85428 212.91211Q432.85428 212.02148 432.26053 211.44336Q431.6824 210.84961 430.79178 210.84961Q429.91678 210.84961 429.33865 211.42773Q428.77615 212.00586 428.77615 212.86523ZM435.8699 215.75586L435.8699 205.74023L437.10428 205.74023L437.10428 209.33398Q437.96365 208.33398 439.27615 208.33398Q440.08865 208.33398 440.6824 208.66211Q441.27615 208.97461 441.52615 209.53711Q441.79178 210.08398 441.79178 211.16211L441.79178 215.75586L440.5574 215.75586L440.5574 211.16211Q440.5574 210.22461 440.15115 209.81836Q439.76053 209.39648 439.02615 209.39648Q438.47928 209.39648 437.9949 209.67773Q437.51053 209.95898 437.3074 210.44336Q437.10428 210.92773 437.10428 211.78711L437.10428 215.75586L435.8699 215.75586Z" fill-rule="nonzero"/><path fill="#000000" d="M173.09885 215.92331L173.09885 217.11081L166.47385 217.11081Q166.45822 216.67331 166.61447 216.25143Q166.8801 215.57956 167.42697 214.92331Q167.98947 214.26706 169.03635 213.40768Q170.67697 212.06393 171.23947 211.28268Q171.8176 210.50143 171.8176 209.79831Q171.8176 209.06393 171.28635 208.56393Q170.77072 208.06393 169.9426 208.06393Q169.05197 208.06393 168.5051 208.59518Q167.97385 209.12643 167.97385 210.07956L166.70822 209.93893Q166.83322 208.53268 167.67697 207.79831Q168.53635 207.04831 169.95822 207.04831Q171.41135 207.04831 172.23947 207.84518Q173.08322 208.64206 173.08322 209.82956Q173.08322 210.43893 172.83322 211.01706Q172.59885 211.59518 172.02072 212.23581Q171.45822 212.87643 170.1301 214.00143Q169.02072 214.92331 168.70822 215.26706Q168.39572 215.59518 168.1926 215.92331L173.09885 215.92331ZM174.6301 212.17331Q174.6301 210.39206 174.98947 209.31393Q175.36447 208.22018 176.08322 207.64206Q176.80197 207.04831 177.89572 207.04831Q178.70822 207.04831 179.3176 207.37643Q179.92697 207.70456 180.3176 208.31393Q180.72385 208.92331 180.9426 209.79831Q181.16135 210.67331 181.16135 212.17331Q181.16135 213.93893 180.80197 215.01706Q180.4426 216.09518 179.72385 216.68893Q179.0051 217.28268 177.89572 217.28268Q176.45822 217.28268 175.6301 216.23581Q174.6301 214.98581 174.6301 212.17331ZM175.89572 212.17331Q175.89572 214.64206 176.47385 215.45456Q177.05197 216.26706 177.89572 216.26706Q178.7551 216.26706 179.33322 215.45456Q179.91135 214.62643 179.91135 212.17331Q179.91135 209.68893 179.33322 208.87643Q178.7551 208.06393 177.8801 208.06393Q177.03635 208.06393 176.53635 208.78268Q175.89572 209.70456 175.89572 212.17331ZM182.64572 214.47018L183.86447 214.29831Q184.08322 215.34518 184.58322 215.81393Q185.09885 216.26706 185.83322 216.26706Q186.70822 216.26706 187.30197 215.67331Q187.89572 215.06393 187.89572 214.17331Q187.89572 213.32956 187.33322 212.78268Q186.78635 212.23581 185.9426 212.23581Q185.58322 212.23581 185.0676 212.36081L185.20822 211.28268Q185.33322 211.29831 185.39572 211.29831Q186.1926 211.29831 186.8176 210.89206Q187.4426 210.48581 187.4426 209.62643Q187.4426 208.95456 186.98947 208.51706Q186.53635 208.06393 185.80197 208.06393Q185.08322 208.06393 184.59885 208.51706Q184.1301 208.95456 183.98947 209.86081L182.77072 209.64206Q182.98947 208.40768 183.78635 207.73581Q184.58322 207.04831 185.77072 207.04831Q186.59885 207.04831 187.28635 207.40768Q187.97385 207.75143 188.33322 208.36081Q188.70822 208.97018 188.70822 209.65768Q188.70822 210.29831 188.36447 210.82956Q188.02072 211.36081 187.33322 211.68893Q188.22385 211.89206 188.70822 212.53268Q189.20822 213.17331 189.20822 214.15768Q189.20822 215.47018 188.23947 216.37643Q187.28635 217.28268 185.83322 217.28268Q184.5051 217.28268 183.6301 216.50143Q182.77072 215.72018 182.64572 214.47018ZM191.3176 217.11081L191.3176 215.70456L192.72385 215.70456L192.72385 217.11081L191.3176 217.11081ZM194.64572 214.47018L195.86447 214.29831Q196.08322 215.34518 196.58322 215.81393Q197.09885 216.26706 197.83322 216.26706Q198.70822 216.26706 199.30197 215.67331Q199.89572 215.06393 199.89572 214.17331Q199.89572 213.32956 199.33322 212.78268Q198.78635 212.23581 197.9426 212.23581Q197.58322 212.23581 197.0676 212.36081L197.20822 211.28268Q197.33322 211.29831 197.39572 211.29831Q198.1926 211.29831 198.8176 210.89206Q199.4426 210.48581 199.4426 209.62643Q199.4426 208.95456 198.98947 208.51706Q198.53635 208.06393 197.80197 208.06393Q197.08322 208.06393 196.59885 208.51706Q196.1301 208.95456 195.98947 209.86081L194.77072 209.64206Q194.98947 208.40768 195.78635 207.73581Q196.58322 207.04831 197.77072 207.04831Q198.59885 207.04831 199.28635 207.40768Q199.97385 207.75143 200.33322 208.36081Q200.70822 208.97018 200.70822 209.65768Q200.70822 210.29831 200.36447 210.82956Q200.02072 211.36081 199.33322 211.68893Q200.22385 211.89206 200.70822 212.53268Q201.20822 213.17331 201.20822 214.15768Q201.20822 215.47018 200.23947 216.37643Q199.28635 217.28268 197.83322 217.28268Q196.5051 217.28268 195.6301 216.50143Q194.77072 215.72018 194.64572 214.47018ZM202.97385 217.11081L202.97385 207.09518L204.20822 207.09518L204.20822 210.68893Q205.0676 209.68893 206.3801 209.68893Q207.1926 209.68893 207.78635 210.01706Q208.3801 210.32956 208.6301 210.89206Q208.89572 211.43893 208.89572 212.51706L208.89572 217.11081L207.66135 217.11081L207.66135 212.51706Q207.66135 211.57956 207.2551 211.17331Q206.86447 210.75143 206.1301 210.75143Q205.58322 210.75143 205.09885 211.03268Q204.61447 211.31393 204.41135 211.79831Q204.20822 212.28268 204.20822 213.14206L204.20822 217.11081L202.97385 217.11081Z" fill-rule="nonzero"/><path fill="#1a1a1a" d="M22.675 207.79147L19.346874 199.19772L20.58125 199.19772L22.815624 205.44772Q23.08125 206.19772 23.26875 206.85397Q23.471874 206.15085 23.7375 205.44772L26.05 199.19772L27.20625 199.19772L23.846874 207.79147L22.675 207.79147ZM27.096874 200.41647L27.096874 199.19772L28.159374 199.19772L28.159374 200.41647L27.096874 200.41647ZM27.096874 207.79147L27.096874 201.57272L28.159374 201.57272L28.159374 207.79147L27.096874 207.79147ZM30.096874 207.79147L30.096874 201.57272L31.034374 201.57272L31.034374 202.44772Q31.721874 201.4321 33.01875 201.4321Q33.58125 201.4321 34.05 201.63522Q34.534374 201.83835 34.76875 202.16647Q35.003124 202.4946 35.096874 202.9321Q35.14375 203.22897 35.14375 203.96335L35.14375 207.79147L34.096874 207.79147L34.096874 204.01022Q34.096874 203.35397 33.971874 203.04147Q33.846874 202.72897 33.534374 202.54147Q33.221874 202.33835 32.8 202.33835Q32.128124 202.33835 31.628124 202.77585Q31.14375 203.19772 31.14375 204.38522L31.14375 207.79147L30.096874 207.79147ZM41.159374 207.02585Q40.565624 207.52585 40.01875 207.72897Q39.4875 207.9321 38.8625 207.9321Q37.83125 207.9321 37.284374 207.4321Q36.7375 206.9321 36.7375 206.15085Q36.7375 205.69772 36.940624 205.32272Q37.14375 204.9321 37.4875 204.71335Q37.83125 204.47897 38.253124 204.3696Q38.55 204.27585 39.190624 204.19772Q40.45625 204.0571 41.065624 203.83835Q41.065624 203.6196 41.065624 203.57272Q41.065624 202.91647 40.76875 202.65085Q40.3625 202.3071 39.565624 202.3071Q38.83125 202.3071 38.471874 202.57272Q38.1125 202.82272 37.940624 203.47897L36.909374 203.33835Q37.05 202.6821 37.378124 202.27585Q37.70625 201.8696 38.315624 201.65085Q38.925 201.4321 39.721874 201.4321Q40.51875 201.4321 41.01875 201.6196Q41.51875 201.8071 41.753124 202.08835Q41.9875 202.3696 42.08125 202.8071Q42.128124 203.07272 42.128124 203.77585L42.128124 205.1821Q42.128124 206.65085 42.190624 207.04147Q42.26875 207.4321 42.471874 207.79147L41.3625 207.79147Q41.20625 207.46335 41.159374 207.02585ZM41.065624 204.66647Q40.4875 204.90085 39.346874 205.07272Q38.690624 205.16647 38.425 205.29147Q38.159374 205.40085 38.003124 205.6196Q37.8625 205.83835 37.8625 206.1196Q37.8625 206.54147 38.175 206.82272Q38.503124 207.10397 39.1125 207.10397Q39.721874 207.10397 40.190624 206.83835Q40.675 206.57272 40.89375 206.10397Q41.065624 205.7446 41.065624 205.0571L41.065624 204.66647Z" fill-rule="nonzero"/><path fill="#9e9e9e" d="M19.8 222.54147L20.909374 222.44772Q21.034374 223.26022 21.471874 223.66647Q21.925 224.07272 22.565624 224.07272Q23.315624 224.07272 23.846874 223.4946Q24.378124 222.91647 24.378124 221.97897Q24.378124 221.07272 23.8625 220.5571Q23.3625 220.02585 22.534374 220.02585Q22.034374 220.02585 21.6125 220.26022Q21.20625 220.4946 20.971874 220.85397L19.9875 220.72897L20.815624 216.32272L25.096874 216.32272L25.096874 217.32272L21.659374 217.32272L21.20625 219.63522Q21.971874 219.08835 22.815624 219.08835Q23.940624 219.08835 24.70625 219.8696Q25.4875 220.65085 25.4875 221.88522Q25.4875 223.04147 24.815624 223.90085Q23.9875 224.9321 22.565624 224.9321Q21.39375 224.9321 20.64375 224.27585Q19.909374 223.6196 19.8 222.54147ZM26.8 220.5571Q26.8 219.02585 27.1125 218.10397Q27.425 217.16647 28.034374 216.66647Q28.659374 216.16647 29.596874 216.16647Q30.284374 216.16647 30.8 216.44772Q31.33125 216.72897 31.675 217.26022Q32.01875 217.77585 32.20625 218.52585Q32.39375 219.27585 32.39375 220.5571Q32.39375 222.07272 32.08125 222.9946Q31.784374 223.91647 31.159374 224.4321Q30.55 224.9321 29.596874 224.9321Q28.3625 224.9321 27.64375 224.04147Q26.8 222.97897 26.8 220.5571ZM27.878124 220.5571Q27.878124 222.66647 28.378124 223.3696Q28.878124 224.07272 29.596874 224.07272Q30.33125 224.07272 30.815624 223.3696Q31.315624 222.66647 31.315624 220.5571Q31.315624 218.4321 30.815624 217.7446Q30.33125 217.04147 29.58125 217.04147Q28.8625 217.04147 28.425 217.65085Q27.878124 218.4321 27.878124 220.5571ZM34.39375 224.79147L34.39375 223.58835L35.596874 223.58835L35.596874 224.79147L34.39375 224.79147ZM42.346874 223.77585L42.346874 224.79147L36.659374 224.79147Q36.659374 224.41647 36.784374 224.0571Q37.003124 223.47897 37.471874 222.91647Q37.95625 222.35397 38.8625 221.6196Q40.26875 220.46335 40.753124 219.79147Q41.253124 219.1196 41.253124 218.52585Q41.253124 217.90085 40.8 217.47897Q40.346874 217.04147 39.628124 217.04147Q38.8625 217.04147 38.409374 217.4946Q37.95625 217.94772 37.940624 218.76022L36.8625 218.65085Q36.971874 217.4321 37.690624 216.8071Q38.425 216.16647 39.659374 216.16647Q40.89375 216.16647 41.6125 216.85397Q42.33125 217.54147 42.33125 218.5571Q42.33125 219.07272 42.1125 219.57272Q41.909374 220.0571 41.409374 220.6196Q40.925 221.16647 39.8 222.1196Q38.846874 222.91647 38.565624 223.21335Q38.3 223.4946 38.128124 223.77585L42.346874 223.77585ZM44.003124 218.26022Q44.003124 217.33835 44.45625 216.69772Q44.925 216.0571 45.8 216.0571Q46.6125 216.0571 47.14375 216.63522Q47.675 217.21335 47.675 218.32272Q47.675 219.41647 47.128124 220.01022Q46.596874 220.58835 45.815624 220.58835Q45.034374 220.58835 44.51875 220.01022Q44.003124 219.4321 44.003124 218.26022ZM45.83125 216.77585Q45.440624 216.77585 45.175 217.1196Q44.925 217.46335 44.925 218.3696Q44.925 219.19772 45.175 219.54147Q45.440624 219.8696 45.83125 219.8696Q46.2375 219.8696 46.4875 219.52585Q46.753124 219.1821 46.753124 218.29147Q46.753124 217.44772 46.4875 217.1196Q46.221874 216.77585 45.83125 216.77585ZM45.83125 225.10397L50.534374 216.0571L51.39375 216.0571L46.70625 225.10397L45.83125 225.10397ZM49.55 222.77585Q49.55 221.85397 50.003124 221.21335Q50.471874 220.57272 51.3625 220.57272Q52.175 220.57272 52.70625 221.15085Q53.2375 221.71335 53.2375 222.83835Q53.2375 223.9321 52.690624 224.52585Q52.159374 225.10397 51.3625 225.10397Q50.596874 225.10397 50.065624 224.52585Q49.55 223.94772 49.55 222.77585ZM51.39375 221.29147Q50.9875 221.29147 50.721874 221.63522Q50.471874 221.97897 50.471874 222.88522Q50.471874 223.69772 50.7375 224.04147Q51.003124 224.38522 51.39375 224.38522Q51.784374 224.38522 52.05 224.04147Q52.315624 223.69772 52.315624 222.79147Q52.315624 221.96335 52.05 221.63522Q51.784374 221.29147 51.39375 221.29147Z" fill-rule="nonzero"/><path stroke="#757575" stroke-width="1.0" stroke-linecap="butt" d="M19.3 212.29147L143.23334 212.29147L156.99916 212.29147" fill-rule="nonzero"/><path fill="#9e9e9e" d="M158.99916 212.29147C158.99916 211.1869 158.10373 210.29147 156.99916 210.29147C155.89459 210.29147 154.99916 211.1869 154.99916 212.29147C154.99916 213.39604 155.89459 214.29147 156.99916 214.29147C158.10373 214.29147 158.99916 213.39604 158.99916 212.29147" fill-rule="nonzero"/><path fill="#1a1a1a" d="M550.04376 203.6377L551.075 203.49707Q551.10626 204.48145 551.4344 204.84082Q551.7625 205.2002 552.35626 205.2002Q552.77814 205.2002 553.09064 205.0127Q553.40314 204.80957 553.5125 204.48145Q553.6375 204.1377 553.6375 203.40332L553.6375 197.48145L554.7625 197.48145L554.7625 203.34082Q554.7625 204.41895 554.4969 205.0127Q554.2469 205.60645 553.6844 205.91895Q553.1219 206.21582 552.35626 206.21582Q551.23126 206.21582 550.6219 205.5752Q550.02814 204.91895 550.04376 203.6377ZM560.7469 204.0752L561.84064 204.2002Q561.59064 205.15332 560.8875 205.68457Q560.1844 206.21582 559.10626 206.21582Q557.7469 206.21582 556.9344 205.37207Q556.1375 204.52832 556.1375 203.0127Q556.1375 201.4502 556.95 200.59082Q557.7625 199.71582 559.04376 199.71582Q560.29376 199.71582 561.075 200.55957Q561.8719 201.40332 561.8719 202.9502Q561.8719 203.04395 561.8719 203.23145L557.23126 203.23145Q557.29376 204.2627 557.8094 204.80957Q558.325 205.34082 559.10626 205.34082Q559.6844 205.34082 560.09064 205.04395Q560.5125 204.73145 560.7469 204.0752ZM557.29376 202.37207L560.7625 202.37207Q560.7 201.5752 560.3719 201.18457Q559.85626 200.5752 559.0594 200.5752Q558.325 200.5752 557.825 201.05957Q557.34064 201.54395 557.29376 202.37207ZM563.48126 206.0752L563.48126 199.85645L564.4344 199.85645L564.4344 200.79395Q564.79376 200.1377 565.09064 199.93457Q565.40314 199.71582 565.77814 199.71582Q566.3094 199.71582 566.85626 200.04395L566.4969 201.02832Q566.10626 200.79395 565.73126 200.79395Q565.3719 200.79395 565.09064 201.0127Q564.825 201.21582 564.71564 201.59082Q564.52814 202.15332 564.52814 202.80957L564.52814 206.0752L563.48126 206.0752ZM571.7469 204.0752L572.84064 204.2002Q572.59064 205.15332 571.8875 205.68457Q571.1844 206.21582 570.10626 206.21582Q568.7469 206.21582 567.9344 205.37207Q567.1375 204.52832 567.1375 203.0127Q567.1375 201.4502 567.95 200.59082Q568.7625 199.71582 570.04376 199.71582Q571.29376 199.71582 572.075 200.55957Q572.8719 201.40332 572.8719 202.9502Q572.8719 203.04395 572.8719 203.23145L568.23126 203.23145Q568.29376 204.2627 568.8094 204.80957Q569.325 205.34082 570.10626 205.34082Q570.6844 205.34082 571.09064 205.04395Q571.5125 204.73145 571.7469 204.0752ZM568.29376 202.37207L571.7625 202.37207Q571.7 201.5752 571.3719 201.18457Q570.85626 200.5752 570.0594 200.5752Q569.325 200.5752 568.825 201.05957Q568.34064 201.54395 568.29376 202.37207ZM574.4969 206.0752L574.4969 199.85645L575.4344 199.85645L575.4344 200.73145Q575.73126 200.2627 576.21564 199.99707Q576.7 199.71582 577.325 199.71582Q578.0125 199.71582 578.45 199.99707Q578.90314 200.27832 579.075 200.79395Q579.825 199.71582 580.9969 199.71582Q581.9344 199.71582 582.41876 200.23145Q582.91876 200.73145 582.91876 201.80957L582.91876 206.0752L581.8719 206.0752L581.8719 202.15332Q581.8719 201.52832 581.7625 201.24707Q581.66876 200.96582 581.40314 200.79395Q581.1375 200.62207 580.7625 200.62207Q580.10626 200.62207 579.66876 201.05957Q579.2469 201.49707 579.2469 202.46582L579.2469 206.0752L578.1844 206.0752L578.1844 202.02832Q578.1844 201.3252 577.91876 200.98145Q577.66876 200.62207 577.09064 200.62207Q576.6375 200.62207 576.2625 200.85645Q575.8875 201.09082 575.71564 201.54395Q575.54376 201.99707 575.54376 202.84082L575.54376 206.0752L574.4969 206.0752ZM585.45 208.46582L585.325 207.48145Q585.66876 207.5752 585.9344 207.5752Q586.27814 207.5752 586.48126 207.4502Q586.7 207.34082 586.84064 207.1377Q586.9344 206.96582 587.16876 206.34082Q587.1844 206.2627 587.2625 206.09082L584.8875 199.85645L586.02814 199.85645L587.325 203.4502Q587.575 204.1377 587.77814 204.90332Q587.96564 204.16895 588.21564 203.48145L589.54376 199.85645L590.59064 199.85645L588.23126 206.18457Q587.84064 207.2002 587.6375 207.59082Q587.35626 208.12207 586.98126 208.35645Q586.6219 208.60645 586.1219 208.60645Q585.825 208.60645 585.45 208.46582Z" fill-rule="nonzero"/><path fill="#9e9e9e" d="M558.575 223.0752L558.575 221.0127L554.85626 221.0127L554.85626 220.04395L558.77814 214.48145L559.6375 214.48145L559.6375 220.04395L560.79376 220.04395L560.79376 221.0127L559.6375 221.0127L559.6375 223.0752L558.575 223.0752ZM558.575 220.04395L558.575 216.18457L555.8875 220.04395L558.575 220.04395ZM562.35626 221.09082L563.3719 220.99707Q563.4969 221.71582 563.85626 222.04395Q564.23126 222.35645 564.79376 222.35645Q565.27814 222.35645 565.6375 222.1377Q566.0125 221.90332 566.2469 221.54395Q566.48126 221.16895 566.6375 220.54395Q566.79376 219.90332 566.79376 219.24707Q566.79376 219.16895 566.79376 219.02832Q566.48126 219.52832 565.9344 219.85645Q565.3875 220.16895 564.7469 220.16895Q563.66876 220.16895 562.9344 219.40332Q562.2 218.62207 562.2 217.35645Q562.2 216.04395 562.96564 215.24707Q563.7469 214.4502 564.90314 214.4502Q565.73126 214.4502 566.41876 214.90332Q567.1219 215.35645 567.48126 216.2002Q567.84064 217.02832 567.84064 218.60645Q567.84064 220.24707 567.48126 221.23145Q567.1375 222.2002 566.41876 222.71582Q565.71564 223.21582 564.77814 223.21582Q563.7625 223.21582 563.1219 222.66895Q562.48126 222.10645 562.35626 221.09082ZM566.66876 217.29395Q566.66876 216.3877 566.1844 215.85645Q565.71564 215.3252 565.02814 215.3252Q564.325 215.3252 563.79376 215.90332Q563.27814 216.46582 563.27814 217.3877Q563.27814 218.2002 563.77814 218.71582Q564.27814 219.23145 564.9969 219.23145Q565.73126 219.23145 566.2 218.71582Q566.66876 218.2002 566.66876 217.29395ZM569.79376 223.0752L569.79376 221.87207L570.9969 221.87207L570.9969 223.0752L569.79376 223.0752ZM573.825 218.41895Q573.16876 218.16895 572.84064 217.73145Q572.52814 217.27832 572.52814 216.66895Q572.52814 215.73145 573.2 215.09082Q573.8875 214.4502 574.9969 214.4502Q576.1219 214.4502 576.8094 215.10645Q577.4969 215.7627 577.4969 216.7002Q577.4969 217.29395 577.1844 217.73145Q576.8719 218.16895 576.23126 218.41895Q577.02814 218.66895 577.4344 219.24707Q577.84064 219.8252 577.84064 220.62207Q577.84064 221.71582 577.0594 222.46582Q576.29376 223.21582 575.0125 223.21582Q573.7469 223.21582 572.96564 222.46582Q572.1844 221.71582 572.1844 220.59082Q572.1844 219.74707 572.60626 219.18457Q573.04376 218.62207 573.825 218.41895ZM573.60626 216.62207Q573.60626 217.23145 573.9969 217.62207Q574.40314 218.0127 575.02814 218.0127Q575.6375 218.0127 576.02814 217.6377Q576.41876 217.24707 576.41876 216.68457Q576.41876 216.10645 576.0125 215.71582Q575.60626 215.30957 575.0125 215.30957Q574.40314 215.30957 573.9969 215.7002Q573.60626 216.09082 573.60626 216.62207ZM573.27814 220.59082Q573.27814 221.04395 573.48126 221.46582Q573.7 221.8877 574.1219 222.12207Q574.54376 222.35645 575.02814 222.35645Q575.77814 222.35645 576.2625 221.87207Q576.7625 221.3877 576.7625 220.6377Q576.7625 219.87207 576.2625 219.37207Q575.7625 218.87207 574.9969 218.87207Q574.2469 218.87207 573.7625 219.37207Q573.27814 219.85645 573.27814 220.59082ZM579.40314 216.54395Q579.40314 215.62207 579.85626 214.98145Q580.325 214.34082 581.2 214.34082Q582.0125 214.34082 582.54376 214.91895Q583.075 215.49707 583.075 216.60645Q583.075 217.7002 582.52814 218.29395Q581.9969 218.87207 581.21564 218.87207Q580.4344 218.87207 579.91876 218.29395Q579.40314 217.71582 579.40314 216.54395ZM581.23126 215.05957Q580.84064 215.05957 580.575 215.40332Q580.325 215.74707 580.325 216.65332Q580.325 217.48145 580.575 217.8252Q580.84064 218.15332 581.23126 218.15332Q581.6375 218.15332 581.8875 217.80957Q582.15314 217.46582 582.15314 216.5752Q582.15314 215.73145 581.8875 215.40332Q581.6219 215.05957 581.23126 215.05957ZM581.23126 223.3877L585.9344 214.34082L586.79376 214.34082L582.10626 223.3877L581.23126 223.3877ZM584.95 221.05957Q584.95 220.1377 585.40314 219.49707Q585.8719 218.85645 586.7625 218.85645Q587.575 218.85645 588.10626 219.43457Q588.6375 219.99707 588.6375 221.12207Q588.6375 222.21582 588.09064 222.80957Q587.5594 223.3877 586.7625 223.3877Q585.9969 223.3877 585.46564 222.80957Q584.95 222.23145 584.95 221.05957ZM586.79376 219.5752Q586.3875 219.5752 586.1219 219.91895Q585.8719 220.2627 585.8719 221.16895Q585.8719 221.98145 586.1375 222.3252Q586.40314 222.66895 586.79376 222.66895Q587.1844 222.66895 587.45 222.3252Q587.71564 221.98145 587.71564 221.0752Q587.71564 220.24707 587.45 219.91895Q587.1844 219.5752 586.79376 219.5752Z" fill-rule="nonzero"/><path stroke="#757575" stroke-width="1.0" stroke-linecap="butt" d="M589.7 210.5752L465.76666 210.5752L452.00082 210.5752" fill-rule="nonzero"/><path fill="#9e9e9e" d="M454.00082 210.5752C454.00082 209.47063 453.1054 208.5752 452.00082 208.5752C450.89627 208.5752 450.00082 209.47063 450.00082 210.5752C450.00082 211.67976 450.89627 212.5752 452.00082 212.5752C453.1054 212.5752 454.00082 211.67976 454.00082 210.5752" fill-rule="nonzero"/><path fill="#757575" d="M24.4875 38.3L24.4875 25.675L19.76875 25.675L19.76875 23.9875L31.1125 23.9875L31.1125 25.675L26.378124 25.675L26.378124 38.3L24.4875 38.3ZM32.628124 26.003124L32.628124 23.9875L34.39375 23.9875L34.39375 26.003124L32.628124 26.003124ZM32.628124 38.3L32.628124 27.925L34.39375 27.925L34.39375 38.3L32.628124 38.3ZM36.6125 38.3L36.6125 27.925L38.190624 27.925L38.190624 29.378124Q38.675 28.628124 39.4875 28.159374Q40.3 27.690624 41.33125 27.690624Q42.4875 27.690624 43.221874 28.175Q43.95625 28.64375 44.26875 29.503124Q45.503124 27.690624 47.471874 27.690624Q49.01875 27.690624 49.846874 28.55Q50.675 29.409374 50.675 31.175L50.675 38.3L48.925 38.3L48.925 31.76875Q48.925 30.70625 48.753124 30.253124Q48.58125 29.784374 48.128124 29.503124Q47.690624 29.221874 47.08125 29.221874Q45.9875 29.221874 45.253124 29.95625Q44.534374 30.675 44.534374 32.26875L44.534374 38.3L42.784374 38.3L42.784374 31.565624Q42.784374 30.39375 42.346874 29.815624Q41.925 29.221874 40.940624 29.221874Q40.20625 29.221874 39.565624 29.6125Q38.940624 30.003124 38.659374 30.753124Q38.378124 31.503124 38.378124 32.925L38.378124 38.3L36.6125 38.3ZM59.721874 34.95625L61.534374 35.190624Q61.1125 36.76875 59.940624 37.659374Q58.784374 38.534374 56.971874 38.534374Q54.70625 38.534374 53.3625 37.14375Q52.034374 35.7375 52.034374 33.20625Q52.034374 30.58125 53.378124 29.14375Q54.721874 27.690624 56.878124 27.690624Q58.95625 27.690624 60.26875 29.1125Q61.596874 30.51875 61.596874 33.096874Q61.596874 33.253124 61.58125 33.565624L53.846874 33.565624Q53.940624 35.26875 54.815624 36.175Q55.690624 37.08125 56.9875 37.08125Q57.95625 37.08125 58.628124 36.58125Q59.315624 36.065624 59.721874 34.95625ZM53.940624 32.1125L59.7375 32.1125Q59.628124 30.815624 59.08125 30.159374Q58.2375 29.14375 56.89375 29.14375Q55.690624 29.14375 54.8625 29.95625Q54.034374 30.753124 53.940624 32.1125ZM70.15938 38.3L70.15938 23.9875L72.06563 23.9875L72.06563 38.3L70.15938 38.3ZM75.6125 38.3L75.6125 27.925L77.20625 27.925L77.20625 29.409374Q78.34688 27.690624 80.50313 27.690624Q81.44063 27.690624 82.22188 28.034374Q83.01875 28.3625 83.40938 28.909374Q83.8 29.45625 83.95625 30.20625Q84.05 30.70625 84.05 31.925L84.05 38.3L82.28438 38.3L82.28438 31.9875Q82.28438 30.909374 82.08125 30.378124Q81.87813 29.846874 81.34688 29.534374Q80.83125 29.221874 80.12813 29.221874Q79.00313 29.221874 78.19063 29.940624Q77.37813 30.64375 77.37813 32.628124L77.37813 38.3L75.6125 38.3ZM88.50313 38.3L84.55 27.925L86.40938 27.925L88.64375 34.14375Q89.00313 35.14375 89.3 36.221874Q89.53438 35.409374 89.95625 34.253124L92.25313 27.925L94.06563 27.925L90.14375 38.3L88.50313 38.3ZM101.72188 34.95625L103.53438 35.190624Q103.1125 36.76875 101.94063 37.659374Q100.78438 38.534374 98.97188 38.534374Q96.70625 38.534374 95.3625 37.14375Q94.03438 35.7375 94.03438 33.20625Q94.03438 30.58125 95.37813 29.14375Q96.72188 27.690624 98.87813 27.690624Q100.95625 27.690624 102.26875 29.1125Q103.59688 30.51875 103.59688 33.096874Q103.59688 33.253124 103.58125 33.565624L95.84688 33.565624Q95.94063 35.26875 96.81563 36.175Q97.69063 37.08125 98.9875 37.08125Q99.95625 37.08125 100.62813 36.58125Q101.31563 36.065624 101.72188 34.95625ZM95.94063 32.1125L101.7375 32.1125Q101.62813 30.815624 101.08125 30.159374Q100.2375 29.14375 98.89375 29.14375Q97.69063 29.14375 96.8625 29.95625Q96.03438 30.753124 95.94063 32.1125ZM104.90938 35.20625L106.65938 34.925Q106.8 35.971874 107.47188 36.534374Q108.14375 37.08125 109.34688 37.08125Q110.55 37.08125 111.12813 36.596874Q111.72188 36.096874 111.72188 35.440624Q111.72188 34.846874 111.20625 34.503124Q110.84688 34.26875 109.40938 33.909374Q107.47188 33.409374 106.72188 33.065624Q105.9875 32.70625 105.59688 32.08125Q105.20625 31.440624 105.20625 30.675Q105.20625 29.9875 105.51875 29.39375Q105.84688 28.8 106.39375 28.409374Q106.8 28.1125 107.50313 27.909374Q108.22188 27.690624 109.03438 27.690624Q110.25313 27.690624 111.175 28.05Q112.09688 28.39375 112.53438 29.003124Q112.97188 29.596874 113.14375 30.596874L111.425 30.83125Q111.3 30.034374 110.7375 29.596874Q110.175 29.14375 109.15938 29.14375Q107.94063 29.14375 107.425 29.55Q106.90938 29.940624 106.90938 30.471874Q106.90938 30.815624 107.12813 31.096874Q107.33125 31.378124 107.8 31.565624Q108.06563 31.659374 109.34688 32.003124Q111.22188 32.503124 111.95625 32.83125Q112.69063 33.14375 113.1125 33.753124Q113.53438 34.346874 113.53438 35.253124Q113.53438 36.128124 113.01875 36.909374Q112.50313 37.690624 111.53438 38.1125Q110.56563 38.534374 109.34688 38.534374Q107.33125 38.534374 106.26875 37.690624Q105.20625 36.846874 104.90938 35.20625ZM119.45625 36.721874L119.70625 38.284374Q118.97188 38.440624 118.37813 38.440624Q117.425 38.440624 116.89375 38.14375Q116.37813 37.83125 116.15938 37.346874Q115.94063 36.846874 115.94063 35.26875L115.94063 29.3L114.65938 29.3L114.65938 27.925L115.94063 27.925L115.94063 25.3625L117.69063 24.3L117.69063 27.925L119.45625 27.925L119.45625 29.3L117.69063 29.3L117.69063 35.3625Q117.69063 36.1125 117.78438 36.33125Q117.87813 36.534374 118.08125 36.675Q118.3 36.8 118.69063 36.8Q118.97188 36.8 119.45625 36.721874ZM128.72188 34.95625L130.53438 35.190624Q130.1125 36.76875 128.94063 37.659374Q127.78438 38.534374 125.97188 38.534374Q123.70625 38.534374 122.3625 37.14375Q121.03438 35.7375 121.03438 33.20625Q121.03438 30.58125 122.37813 29.14375Q123.72188 27.690624 125.87813 27.690624Q127.95625 27.690624 129.26875 29.1125Q130.59688 30.51875 130.59688 33.096874Q130.59688 33.253124 130.58125 33.565624L122.84688 33.565624Q122.94063 35.26875 123.81563 36.175Q124.69063 37.08125 125.9875 37.08125Q126.95625 37.08125 127.62813 36.58125Q128.31563 36.065624 128.72188 34.95625ZM122.94063 32.1125L128.7375 32.1125Q128.62813 30.815624 128.08125 30.159374Q127.2375 29.14375 125.89375 29.14375Q124.69063 29.14375 123.8625 29.95625Q123.03438 30.753124 122.94063 32.1125ZM139.34688 38.3L139.34688 36.9875Q138.3625 38.534374 136.44063 38.534374Q135.20625 38.534374 134.15938 37.846874Q133.12813 37.159374 132.55 35.940624Q131.9875 34.721874 131.9875 33.128124Q131.9875 31.565624 132.50313 30.3Q133.01875 29.034374 134.05 28.3625Q135.09688 27.690624 136.3625 27.690624Q137.3 27.690624 138.03438 28.096874Q138.76875 28.4875 139.2375 29.1125L139.2375 23.9875L140.97188 23.9875L140.97188 38.3L139.34688 38.3ZM133.78438 33.128124Q133.78438 35.1125 134.62813 36.096874Q135.47188 37.08125 136.6125 37.08125Q137.76875 37.08125 138.56563 36.14375Q139.37813 35.20625 139.37813 33.26875Q139.37813 31.14375 138.55 30.14375Q137.7375 29.14375 136.53438 29.14375Q135.3625 29.14375 134.56563 30.1125Q133.78438 31.065624 133.78438 33.128124ZM149.6125 42.26875L149.6125 27.925L151.22188 27.925L151.22188 29.26875Q151.78438 28.4875 152.4875 28.096874Q153.20625 27.690624 154.22188 27.690624Q155.55 27.690624 156.56563 28.378124Q157.58125 29.065624 158.09688 30.315624Q158.62813 31.55 158.62813 33.034374Q158.62813 34.628124 158.05 35.909374Q157.4875 37.175 156.39375 37.8625Q155.3 38.534374 154.09688 38.534374Q153.22188 38.534374 152.51875 38.159374Q151.83125 37.784374 151.37813 37.221874L151.37813 42.26875L149.6125 42.26875ZM151.20625 33.175Q151.20625 35.175 152.01875 36.128124Q152.83125 37.08125 153.9875 37.08125Q155.15938 37.08125 155.9875 36.096874Q156.83125 35.1125 156.83125 33.01875Q156.83125 31.05 156.00313 30.065624Q155.19063 29.065624 154.06563 29.065624Q152.94063 29.065624 152.06563 30.128124Q151.20625 31.175 151.20625 33.175ZM167.72188 34.95625L169.53438 35.190624Q169.1125 36.76875 167.94063 37.659374Q166.78438 38.534374 164.97188 38.534374Q162.70625 38.534374 161.3625 37.14375Q160.03438 35.7375 160.03438 33.20625Q160.03438 30.58125 161.37813 29.14375Q162.72188 27.690624 164.87813 27.690624Q166.95625 27.690624 168.26875 29.1125Q169.59688 30.51875 169.59688 33.096874Q169.59688 33.253124 169.58125 33.565624L161.84688 33.565624Q161.94063 35.26875 162.81563 36.175Q163.69063 37.08125 164.9875 37.08125Q165.95625 37.08125 166.62813 36.58125Q167.31563 36.065624 167.72188 34.95625ZM161.94063 32.1125L167.7375 32.1125Q167.62813 30.815624 167.08125 30.159374Q166.2375 29.14375 164.89375 29.14375Q163.69063 29.14375 162.8625 29.95625Q162.03438 30.753124 161.94063 32.1125ZM171.59688 38.3L171.59688 27.925L173.175 27.925L173.175 29.503124Q173.78438 28.39375 174.3 28.05Q174.81563 27.690624 175.425 27.690624Q176.31563 27.690624 177.2375 28.253124L176.62813 29.89375Q175.9875 29.503124 175.34688 29.503124Q174.76875 29.503124 174.3 29.8625Q173.84688 30.20625 173.64375 30.815624Q173.3625 31.753124 173.3625 32.8625L173.3625 38.3L171.59688 38.3ZM184.84688 38.3L184.84688 23.9875L190.2375 23.9875Q191.675 23.9875 192.425 24.1125Q193.47188 24.3 194.19063 24.8Q194.90938 25.284374 195.33125 26.175Q195.76875 27.065624 195.76875 28.128124Q195.76875 29.95625 194.59688 31.221874Q193.44063 32.471874 190.40938 32.471874L186.7375 32.471874L186.7375 38.3L184.84688 38.3ZM186.7375 30.784374L190.44063 30.784374Q192.26875 30.784374 193.03438 30.1125Q193.81563 29.425 193.81563 28.175Q193.81563 27.284374 193.3625 26.64375Q192.90938 26.003124 192.175 25.8Q191.69063 25.675 190.39375 25.675L186.7375 25.675L186.7375 30.784374ZM204.72188 34.95625L206.53438 35.190624Q206.1125 36.76875 204.94063 37.659374Q203.78438 38.534374 201.97188 38.534374Q199.70625 38.534374 198.3625 37.14375Q197.03438 35.7375 197.03438 33.20625Q197.03438 30.58125 198.37813 29.14375Q199.72188 27.690624 201.87813 27.690624Q203.95625 27.690624 205.26875 29.1125Q206.59688 30.51875 206.59688 33.096874Q206.59688 33.253124 206.58125 33.565624L198.84688 33.565624Q198.94063 35.26875 199.81563 36.175Q200.69063 37.08125 201.9875 37.08125Q202.95625 37.08125 203.62813 36.58125Q204.31563 36.065624 204.72188 34.95625ZM198.94063 32.1125L204.7375 32.1125Q204.62813 30.815624 204.08125 30.159374Q203.2375 29.14375 201.89375 29.14375Q200.69063 29.14375 199.8625 29.95625Q199.03438 30.753124 198.94063 32.1125ZM208.59688 38.3L208.59688 27.925L210.175 27.925L210.175 29.503124Q210.78438 28.39375 211.3 28.05Q211.81563 27.690624 212.425 27.690624Q213.31563 27.690624 214.2375 28.253124L213.62813 29.89375Q212.9875 29.503124 212.34688 29.503124Q211.76875 29.503124 211.3 29.8625Q210.84688 30.20625 210.64375 30.815624Q210.3625 31.753124 210.3625 32.8625L210.3625 38.3L208.59688 38.3ZM214.90938 35.20625L216.65938 34.925Q216.8 35.971874 217.47188 36.534374Q218.14375 37.08125 219.34688 37.08125Q220.55 37.08125 221.12813 36.596874Q221.72188 36.096874 221.72188 35.440624Q221.72188 34.846874 221.20625 34.503124Q220.84688 34.26875 219.40938 33.909374Q217.47188 33.409374 216.72188 33.065624Q215.9875 32.70625 215.59688 32.08125Q215.20625 31.440624 215.20625 30.675Q215.20625 29.9875 215.51875 29.39375Q215.84688 28.8 216.39375 28.409374Q216.8 28.1125 217.50313 27.909374Q218.22188 27.690624 219.03438 27.690624Q220.25313 27.690624 221.175 28.05Q222.09688 28.39375 222.53438 29.003124Q222.97188 29.596874 223.14375 30.596874L221.425 30.83125Q221.3 30.034374 220.7375 29.596874Q220.175 29.14375 219.15938 29.14375Q217.94063 29.14375 217.425 29.55Q216.90938 29.940624 216.90938 30.471874Q216.90938 30.815624 217.12813 31.096874Q217.33125 31.378124 217.8 31.565624Q218.06563 31.659374 219.34688 32.003124Q221.22188 32.503124 221.95625 32.83125Q222.69063 33.14375 223.1125 33.753124Q223.53438 34.346874 223.53438 35.253124Q223.53438 36.128124 223.01875 36.909374Q222.50313 37.690624 221.53438 38.1125Q220.56563 38.534374 219.34688 38.534374Q217.33125 38.534374 216.26875 37.690624Q215.20625 36.846874 214.90938 35.20625ZM224.97188 33.1125Q224.97188 30.2375 226.56563 28.846874Q227.90938 27.690624 229.83125 27.690624Q231.97188 27.690624 233.31563 29.096874Q234.675 30.503124 234.675 32.971874Q234.675 34.971874 234.08125 36.128124Q233.4875 37.26875 232.33125 37.909374Q231.19063 38.534374 229.83125 38.534374Q227.64375 38.534374 226.3 37.14375Q224.97188 35.7375 224.97188 33.1125ZM226.76875 33.1125Q226.76875 35.1125 227.62813 36.096874Q228.50313 37.08125 229.83125 37.08125Q231.14375 37.08125 232.00313 36.096874Q232.87813 35.096874 232.87813 33.05Q232.87813 31.128124 232.00313 30.14375Q231.12813 29.14375 229.83125 29.14375Q228.50313 29.14375 227.62813 30.14375Q226.76875 31.128124 226.76875 33.1125ZM236.6125 38.3L236.6125 27.925L238.20625 27.925L238.20625 29.409374Q239.34688 27.690624 241.50313 27.690624Q242.44063 27.690624 243.22188 28.034374Q244.01875 28.3625 244.40938 28.909374Q244.8 29.45625 244.95625 30.20625Q245.05 30.70625 245.05 31.925L245.05 38.3L243.28438 38.3L243.28438 31.9875Q243.28438 30.909374 243.08125 30.378124Q242.87813 29.846874 242.34688 29.534374Q241.83125 29.221874 241.12813 29.221874Q240.00313 29.221874 239.19063 29.940624Q238.37813 30.64375 238.37813 32.628124L238.37813 38.3L236.6125 38.3Z" fill-rule="nonzero"/></svg>