<svg version="1.1" viewBox="0.0 0.0 609.0 386.0" fill="none" stroke="none" stroke-linecap="square" stroke-miterlimit="10" width="609" height="386" xmlns:xlink="http://www.w3.org/1999/xlink" xmlns="http://www.w3.org/2000/svg"><path fill="#ffffff" d="M0 0L609.0 0L609.0 386.0L0 386.0L0 0Z" fill-rule="nonzero"/><path fill="#4285f4" d="M304.5 56.166668C321.80328 56.166668 338.98486 59.059006 355.33447 64.72412L329.91724 138.07872C321.74243 135.24617 313.15164 133.8 304.5 133.8Z" fill-rule="nonzero"/><path fill="#ff6d01" d="M246.89487 67.24808C265.21805 59.92758 284.76862 56.166668 304.5 56.166668L304.5 133.8C294.6343 133.8 284.859 135.68045 275.69745 139.34071Z" fill-rule="nonzero"/><path fill="#34a853" d="M194.07301 102.283806C209.08383 87.097305 227.06575 75.17024 246.89487 67.24808L275.69745 139.34071C265.78287 143.30179 256.79193 149.26532 249.28651 156.85857Z" fill-rule="nonzero"/><path fill="#fbbc04" d="M246.89487 355.6186C198.56613 336.3102 163.12506 294.07318 152.50221 243.12581C141.87938 192.17842 157.48772 139.29729 194.07301 102.283806L249.28651 156.85857C230.99387 175.36531 223.18968 201.80588 228.50111 227.27957C233.81253 252.75327 251.53307 273.87177 275.69745 283.52597Z" fill-rule="nonzero"/><path fill="#ea4335" d="M355.33447 64.72412C408.56265 83.16759 447.6257 128.99446 457.4078 184.47156C467.18994 239.94865 446.15637 296.3722 402.4463 331.90848C358.73624 367.44476 299.2073 376.51852 246.89487 355.6186L275.69745 283.52597C301.85364 293.97592 331.6181 289.43906 353.47314 271.6709C375.3282 253.90276 385.84497 225.691 380.95392 197.95245C376.06287 170.2139 356.5313 147.30046 329.91724 138.07872Z" fill-rule="nonzero"/><path fill="#000000" d="M314.088 93.22385L314.088 94.41135L307.463 94.41135Q307.4474 93.97385 307.60364 93.55197Q307.86926 92.8801 308.41614 92.22385Q308.97864 91.5676 310.0255 90.70822Q311.66614 89.36447 312.22864 88.58322Q312.80676 87.80197 312.80676 87.09885Q312.80676 86.36447 312.2755 85.86447Q311.7599 85.36447 310.93176 85.36447Q310.04114 85.36447 309.49426 85.89572Q308.963 86.42697 308.963 87.3801L307.6974 87.23947Q307.8224 85.83322 308.66614 85.09885Q309.5255 84.34885 310.9474 84.34885Q312.4005 84.34885 313.22864 85.14572Q314.0724 85.9426 314.0724 87.1301Q314.0724 87.73947 313.8224 88.3176Q313.588 88.89572 313.0099 89.53635Q312.4474 90.17697 311.11926 91.30197Q310.0099 92.22385 309.6974 92.5676Q309.3849 92.89572 309.18176 93.22385L314.088 93.22385ZM320.2599 94.41135L319.0255 94.41135L319.0255 86.5676Q318.588 86.98947 317.85364 87.42697Q317.1349 87.84885 316.5724 88.05197L316.5724 86.86447Q317.60364 86.3801 318.36926 85.6926Q319.1505 85.0051 319.463 84.34885L320.2599 84.34885L320.2599 94.41135ZM324.30676 94.41135L324.30676 93.0051L325.713 93.0051L325.713 94.41135L324.30676 94.41135ZM327.61926 91.78635L328.91614 91.67697Q329.05676 92.61447 329.5724 93.09885Q330.10364 93.5676 330.838 93.5676Q331.72864 93.5676 332.338 92.89572Q332.963 92.22385 332.963 91.1301Q332.963 90.0676 332.36926 89.45822Q331.7755 88.84885 330.8224 88.84885Q330.22864 88.84885 329.74426 89.1301Q329.2755 89.39572 328.99426 89.8176L327.838 89.67697L328.80676 84.52072L333.79114 84.52072L333.79114 85.70822L329.79114 85.70822L329.2599 88.39572Q330.16614 87.77072 331.1505 87.77072Q332.463 87.77072 333.35364 88.67697Q334.2599 89.58322 334.2599 91.02072Q334.2599 92.3801 333.47864 93.36447Q332.5099 94.58322 330.838 94.58322Q329.47864 94.58322 328.60364 93.8176Q327.74426 93.05197 327.61926 91.78635ZM335.963 94.41135L335.963 84.39572L337.1974 84.39572L337.1974 87.98947Q338.05676 86.98947 339.36926 86.98947Q340.18176 86.98947 340.7755 87.3176Q341.36926 87.6301 341.61926 88.1926Q341.8849 88.73947 341.8849 89.8176L341.8849 94.41135L340.6505 94.41135L340.6505 89.8176Q340.6505 88.8801 340.24426 88.47385Q339.85364 88.05197 339.11926 88.05197Q338.5724 88.05197 338.088 88.33322Q337.60364 88.61447 337.4005 89.09885Q337.1974 89.58322 337.1974 90.4426L337.1974 94.41135L335.963 94.41135Z" fill-rule="nonzero"/><path fill="#000000" d="M398.66183 255.92169L398.66183 257.1092L392.03683 257.1092Q392.0212 256.6717 392.17746 256.24982Q392.44308 255.57794 392.98996 254.92169Q393.55246 254.26544 394.59933 253.40607Q396.23996 252.06232 396.80246 251.28107Q397.38058 250.49982 397.38058 249.79669Q397.38058 249.06232 396.84933 248.56232Q396.3337 248.06232 395.50558 248.06232Q394.61496 248.06232 394.06808 248.59357Q393.53683 249.12482 393.53683 250.07794L392.2712 249.93732Q392.3962 248.53107 393.23996 247.79669Q394.09933 247.04669 395.5212 247.04669Q396.97433 247.04669 397.80246 247.84357Q398.6462 248.64044 398.6462 249.82794Q398.6462 250.43732 398.3962 251.01544Q398.16183 251.59357 397.5837 252.23419Q397.0212 252.87482 395.69308 253.99982Q394.5837 254.92169 394.2712 255.26544Q393.9587 255.59357 393.75558 255.92169L398.66183 255.92169ZM400.19308 252.17169Q400.19308 250.39044 400.55246 249.31232Q400.92746 248.21857 401.6462 247.64044Q402.36496 247.04669 403.4587 247.04669Q404.2712 247.04669 404.88058 247.37482Q405.48996 247.70294 405.88058 248.31232Q406.28683 248.92169 406.50558 249.79669Q406.72433 250.67169 406.72433 252.17169Q406.72433 253.93732 406.36496 255.01544Q406.00558 256.09357 405.28683 256.68732Q404.56808 257.28107 403.4587 257.28107Q402.0212 257.28107 401.19308 256.2342Q400.19308 254.98419 400.19308 252.17169ZM401.4587 252.17169Q401.4587 254.64044 402.03683 255.45294Q402.61496 256.26544 403.4587 256.26544Q404.31808 256.26544 404.8962 255.45294Q405.47433 254.62482 405.47433 252.17169Q405.47433 249.68732 404.8962 248.87482Q404.31808 248.06232 403.44308 248.06232Q402.59933 248.06232 402.09933 248.78107Q401.4587 249.70294 401.4587 252.17169ZM408.19308 254.48419L409.48996 254.37482Q409.63058 255.31232 410.1462 255.79669Q410.67746 256.26544 411.41183 256.26544Q412.30246 256.26544 412.91183 255.59357Q413.53683 254.92169 413.53683 253.82794Q413.53683 252.76544 412.94308 252.15607Q412.34933 251.54669 411.3962 251.54669Q410.80246 251.54669 410.31808 251.82794Q409.84933 252.09357 409.56808 252.51544L408.41183 252.37482L409.38058 247.21857L414.36496 247.21857L414.36496 248.40607L410.36496 248.40607L409.8337 251.09357Q410.73996 250.46857 411.72433 250.46857Q413.03683 250.46857 413.92746 251.37482Q414.8337 252.28107 414.8337 253.71857Q414.8337 255.07794 414.05246 256.06232Q413.0837 257.28107 411.41183 257.28107Q410.05246 257.28107 409.17746 256.51544Q408.31808 255.74982 408.19308 254.48419ZM416.88058 257.1092L416.88058 255.70294L418.28683 255.70294L418.28683 257.1092L416.88058 257.1092ZM420.19308 254.48419L421.48996 254.37482Q421.63058 255.31232 422.1462 255.79669Q422.67746 256.26544 423.41183 256.26544Q424.30246 256.26544 424.91183 255.59357Q425.53683 254.92169 425.53683 253.82794Q425.53683 252.76544 424.94308 252.15607Q424.34933 251.54669 423.3962 251.54669Q422.80246 251.54669 422.31808 251.82794Q421.84933 252.09357 421.56808 252.51544L420.41183 252.37482L421.38058 247.21857L426.36496 247.21857L426.36496 248.40607L422.36496 248.40607L421.8337 251.09357Q422.73996 250.46857 423.72433 250.46857Q425.03683 250.46857 425.92746 251.37482Q426.8337 252.28107 426.8337 253.71857Q426.8337 255.07794 426.05246 256.06232Q425.0837 257.28107 423.41183 257.28107Q422.05246 257.28107 421.17746 256.51544Q420.31808 255.74982 420.19308 254.48419ZM428.53683 257.1092L428.53683 247.09357L429.7712 247.09357L429.7712 250.68732Q430.63058 249.68732 431.94308 249.68732Q432.75558 249.68732 433.34933 250.01544Q433.94308 250.32794 434.19308 250.89044Q434.4587 251.43732 434.4587 252.51544L434.4587 257.1092L433.22433 257.1092L433.22433 252.51544Q433.22433 251.57794 432.81808 251.17169Q432.42746 250.74982 431.69308 250.74982Q431.1462 250.74982 430.66183 251.03107Q430.17746 251.31232 429.97433 251.79669Q429.7712 252.28107 429.7712 253.14044L429.7712 257.1092L428.53683 257.1092Z" fill-rule="nonzero"/><path fill="#000000" d="M173.72041 240.20268L172.48604 240.20268L172.48604 232.35893Q172.04854 232.7808 171.31416 233.2183Q170.59541 233.64018 170.03291 233.8433L170.03291 232.6558Q171.06416 232.17143 171.82979 231.48393Q172.61104 230.79643 172.92354 230.14018L173.72041 230.14018L173.72041 240.20268ZM183.54854 239.01518L183.54854 240.20268L176.92354 240.20268Q176.90791 239.76518 177.06416 239.3433Q177.32979 238.67143 177.87666 238.01518Q178.43916 237.35893 179.48604 236.49956Q181.12666 235.1558 181.68916 234.37456Q182.26729 233.5933 182.26729 232.89018Q182.26729 232.1558 181.73604 231.6558Q181.22041 231.1558 180.39229 231.1558Q179.50166 231.1558 178.95479 231.68706Q178.42354 232.2183 178.42354 233.17143L177.15791 233.0308Q177.28291 231.62456 178.12666 230.89018Q178.98604 230.14018 180.40791 230.14018Q181.86104 230.14018 182.68916 230.93706Q183.53291 231.73393 183.53291 232.92143Q183.53291 233.5308 183.28291 234.10893Q183.04854 234.68706 182.47041 235.32768Q181.90791 235.9683 180.57979 237.0933Q179.47041 238.01518 179.15791 238.35893Q178.84541 238.68706 178.64229 239.01518L183.54854 239.01518ZM185.15791 231.49956L185.15791 230.31206L191.65791 230.31206L191.65791 231.26518Q190.68916 232.2808 189.75166 233.9683Q188.81416 235.6558 188.29854 237.45268Q187.93916 238.70268 187.82979 240.20268L186.56416 240.20268Q186.57979 239.01518 187.01729 237.3433Q187.47041 235.67143 188.29854 234.12456Q189.14229 232.56206 190.07979 231.49956L185.15791 231.49956ZM193.76729 240.20268L193.76729 238.79643L195.17354 238.79643L195.17354 240.20268L193.76729 240.20268ZM197.07979 235.26518Q197.07979 233.48393 197.43916 232.4058Q197.81416 231.31206 198.53291 230.73393Q199.25166 230.14018 200.34541 230.14018Q201.15791 230.14018 201.76729 230.4683Q202.37666 230.79643 202.76729 231.4058Q203.17354 232.01518 203.39229 232.89018Q203.61104 233.76518 203.61104 235.26518Q203.61104 237.0308 203.25166 238.10893Q202.89229 239.18706 202.17354 239.7808Q201.45479 240.37456 200.34541 240.37456Q198.90791 240.37456 198.07979 239.32768Q197.07979 238.07768 197.07979 235.26518ZM198.34541 235.26518Q198.34541 237.73393 198.92354 238.54643Q199.50166 239.35893 200.34541 239.35893Q201.20479 239.35893 201.78291 238.54643Q202.36104 237.7183 202.36104 235.26518Q202.36104 232.7808 201.78291 231.9683Q201.20479 231.1558 200.32979 231.1558Q199.48604 231.1558 198.98604 231.87456Q198.34541 232.79643 198.34541 235.26518ZM205.42354 240.20268L205.42354 230.18706L206.65791 230.18706L206.65791 233.7808Q207.51729 232.7808 208.82979 232.7808Q209.64229 232.7808 210.23604 233.10893Q210.82979 233.42143 211.07979 233.98393Q211.34541 234.5308 211.34541 235.60893L211.34541 240.20268L210.11104 240.20268L210.11104 235.60893Q210.11104 234.67143 209.70479 234.26518Q209.31416 233.8433 208.57979 233.8433Q208.03291 233.8433 207.54854 234.12456Q207.06416 234.4058 206.86104 234.89018Q206.65791 235.37456 206.65791 236.23393L206.65791 240.20268L205.42354 240.20268Z" fill-rule="nonzero"/><path fill="#000000" d="M229.17969 118.202194L229.17969 119.389694L222.55469 119.389694Q222.53906 118.952194 222.69531 118.53032Q222.96094 117.858444 223.50781 117.202194Q224.07031 116.545944 225.11719 115.68657Q226.75781 114.34282 227.32031 113.56157Q227.89844 112.78032 227.89844 112.077194Q227.89844 111.34282 227.36719 110.84282Q226.85156 110.34282 226.02344 110.34282Q225.13281 110.34282 224.58594 110.87407Q224.05469 111.40532 224.05469 112.358444L222.78906 112.21782Q222.91406 110.81157 223.75781 110.077194Q224.61719 109.327194 226.03906 109.327194Q227.49219 109.327194 228.32031 110.12407Q229.16406 110.920944 229.16406 112.108444Q229.16406 112.71782 228.91406 113.295944Q228.67969 113.87407 228.10156 114.514694Q227.53906 115.15532 226.21094 116.28032Q225.10156 117.202194 224.78906 117.545944Q224.47656 117.87407 224.27344 118.202194L229.17969 118.202194ZM237.10156 111.827194L235.88281 111.920944Q235.71094 111.18657 235.41406 110.858444Q234.91406 110.34282 234.17969 110.34282Q233.58594 110.34282 233.14844 110.670944Q232.57031 111.09282 232.22656 111.90532Q231.89844 112.71782 231.88281 114.21782Q232.32031 113.545944 232.96094 113.21782Q233.61719 112.889694 234.32031 112.889694Q235.55469 112.889694 236.41406 113.795944Q237.27344 114.702194 237.27344 116.139694Q237.27344 117.077194 236.86719 117.889694Q236.46094 118.702194 235.74219 119.139694Q235.03906 119.56157 234.13281 119.56157Q232.60156 119.56157 231.63281 118.43657Q230.66406 117.295944 230.66406 114.702194Q230.66406 111.795944 231.72656 110.46782Q232.66406 109.327194 234.25781 109.327194Q235.44531 109.327194 236.19531 109.99907Q236.94531 110.65532 237.10156 111.827194ZM232.07031 116.139694Q232.07031 116.78032 232.33594 117.358444Q232.61719 117.93657 233.10156 118.24907Q233.58594 118.545944 234.11719 118.545944Q234.89844 118.545944 235.46094 117.920944Q236.02344 117.295944 236.02344 116.21782Q236.02344 115.170944 235.46094 114.577194Q234.91406 113.96782 234.07031 113.96782Q233.24219 113.96782 232.64844 114.577194Q232.07031 115.170944 232.07031 116.139694ZM239.39844 119.389694L239.39844 117.983444L240.80469 117.983444L240.80469 119.389694L239.39844 119.389694ZM242.71094 116.764694L244.00781 116.65532Q244.14844 117.59282 244.66406 118.077194Q245.19531 118.545944 245.92969 118.545944Q246.82031 118.545944 247.42969 117.87407Q248.05469 117.202194 248.05469 116.108444Q248.05469 115.045944 247.46094 114.43657Q246.86719 113.827194 245.91406 113.827194Q245.32031 113.827194 244.83594 114.108444Q244.36719 114.37407 244.08594 114.795944L242.92969 114.65532L243.89844 109.49907L248.88281 109.49907L248.88281 110.68657L244.88281 110.68657L244.35156 113.37407Q245.25781 112.74907 246.24219 112.74907Q247.55469 112.74907 248.44531 113.65532Q249.35156 114.56157 249.35156 115.99907Q249.35156 117.358444 248.57031 118.34282Q247.60156 119.56157 245.92969 119.56157Q244.57031 119.56157 243.69531 118.795944Q242.83594 118.03032 242.71094 116.764694ZM251.05469 119.389694L251.05469 109.37407L252.28906 109.37407L252.28906 112.96782Q253.14844 111.96782 254.46094 111.96782Q255.27344 111.96782 255.86719 112.295944Q256.46094 112.608444 256.71094 113.170944Q256.97656 113.71782 256.97656 114.795944L256.97656 119.389694L255.74219 119.389694L255.74219 114.795944Q255.74219 113.858444 255.33594 113.452194Q254.94531 113.03032 254.21094 113.03032Q253.66406 113.03032 253.17969 113.31157Q252.69531 113.59282 252.49219 114.077194Q252.28906 114.56157 252.28906 115.420944L252.28906 119.389694L251.05469 119.389694Z" fill-rule="nonzero"/><path fill="#000000" d="M270.2745 94.2678L270.2745 95.4553L263.6495 95.4553Q263.63388 95.0178 263.79013 94.595924Q264.05576 93.92405 264.60263 93.2678Q265.16513 92.61155 266.212 91.752174Q267.85263 90.408424 268.41513 89.627174Q268.99326 88.845924 268.99326 88.1428Q268.99326 87.408424 268.462 86.908424Q267.94638 86.408424 267.11826 86.408424Q266.22763 86.408424 265.68076 86.939674Q265.1495 87.470924 265.1495 88.42405L263.88388 88.283424Q264.00888 86.877174 264.85263 86.1428Q265.712 85.3928 267.13388 85.3928Q268.587 85.3928 269.41513 86.189674Q270.25888 86.98655 270.25888 88.17405Q270.25888 88.783424 270.00888 89.36155Q269.7745 89.939674 269.19638 90.5803Q268.63388 91.220924 267.30576 92.345924Q266.19638 93.2678 265.88388 93.61155Q265.57138 93.939674 265.36826 94.2678L270.2745 94.2678ZM275.75888 95.4553L275.75888 93.04905L271.3995 93.04905L271.3995 91.92405L275.97763 85.439674L276.97763 85.439674L276.97763 91.92405L278.337 91.92405L278.337 93.04905L276.97763 93.04905L276.97763 95.4553L275.75888 95.4553ZM275.75888 91.92405L275.75888 87.408424L272.61826 91.92405L275.75888 91.92405ZM280.49326 95.4553L280.49326 94.04905L281.8995 94.04905L281.8995 95.4553L280.49326 95.4553ZM283.80576 92.8303L285.10263 92.720924Q285.24326 93.658424 285.75888 94.1428Q286.29013 94.61155 287.0245 94.61155Q287.91513 94.61155 288.5245 93.939674Q289.1495 93.2678 289.1495 92.17405Q289.1495 91.11155 288.55576 90.502174Q287.962 89.8928 287.00888 89.8928Q286.41513 89.8928 285.93076 90.17405Q285.462 90.439674 285.18076 90.86155L284.0245 90.720924L284.99326 85.564674L289.97763 85.564674L289.97763 86.752174L285.97763 86.752174L285.44638 89.439674Q286.35263 88.814674 287.337 88.814674Q288.6495 88.814674 289.54013 89.720924Q290.44638 90.627174 290.44638 92.064674Q290.44638 93.42405 289.66513 94.408424Q288.69638 95.627174 287.0245 95.627174Q285.66513 95.627174 284.79013 94.86155Q283.93076 94.095924 283.80576 92.8303ZM292.1495 95.4553L292.1495 85.439674L293.38388 85.439674L293.38388 89.033424Q294.24326 88.033424 295.55576 88.033424Q296.36826 88.033424 296.962 88.36155Q297.55576 88.67405 297.80576 89.23655Q298.07138 89.783424 298.07138 90.86155L298.07138 95.4553L296.837 95.4553L296.837 90.86155Q296.837 89.92405 296.43076 89.5178Q296.04013 89.095924 295.30576 89.095924Q294.75888 89.095924 294.2745 89.377174Q293.79013 89.658424 293.587 90.1428Q293.38388 90.627174 293.38388 91.48655L293.38388 95.4553L292.1495 95.4553Z" fill-rule="nonzero"/><path fill="#1a1a1a" d="M19.846874 64.40104L20.909374 64.30729Q20.9875 64.96354 21.26875 65.36979Q21.55 65.77604 22.128124 66.041664Q22.721874 66.291664 23.45625 66.291664Q24.096874 66.291664 24.596874 66.104164Q25.096874 65.90104 25.33125 65.572914Q25.58125 65.229164 25.58125 64.83854Q25.58125 64.43229 25.346874 64.135414Q25.1125 63.822914 24.58125 63.61979Q24.221874 63.479164 23.034374 63.197914Q21.8625 62.916664 21.39375 62.666664Q20.76875 62.33854 20.471874 61.86979Q20.175 61.385414 20.175 60.791664Q20.175 60.15104 20.534374 59.58854Q20.909374 59.010414 21.6125 58.729164Q22.33125 58.43229 23.190624 58.43229Q24.14375 58.43229 24.878124 58.74479Q25.6125 59.041664 26.003124 59.65104Q26.39375 60.24479 26.425 60.99479L25.33125 61.072914Q25.2375 60.260414 24.721874 59.854164Q24.221874 59.43229 23.2375 59.43229Q22.20625 59.43229 21.7375 59.80729Q21.26875 60.18229 21.26875 60.71354Q21.26875 61.18229 21.596874 61.479164Q21.925 61.77604 23.3 62.08854Q24.690624 62.40104 25.20625 62.635414Q25.95625 62.99479 26.315624 63.52604Q26.675 64.041664 26.675 64.74479Q26.675 65.43229 26.284374 66.041664Q25.89375 66.635414 25.159374 66.979164Q24.425 67.30729 23.503124 67.30729Q22.33125 67.30729 21.534374 66.979164Q20.753124 66.635414 20.3 65.947914Q19.8625 65.260414 19.846874 64.40104ZM30.39375 66.229164L30.55 67.15104Q30.096874 67.24479 29.753124 67.24479Q29.175 67.24479 28.8625 67.072914Q28.55 66.885414 28.409374 66.58854Q28.284374 66.291664 28.284374 65.33854L28.284374 61.760414L27.51875 61.760414L27.51875 60.947914L28.284374 60.947914L28.284374 59.40104L29.33125 58.77604L29.33125 60.947914L30.39375 60.947914L30.39375 61.760414L29.33125 61.760414L29.33125 65.40104Q29.33125 65.854164 29.378124 65.979164Q29.440624 66.104164 29.565624 66.18229Q29.690624 66.260414 29.925 66.260414Q30.1125 66.260414 30.39375 66.229164ZM35.175 67.166664L35.175 66.24479Q34.440624 67.30729 33.190624 67.30729Q32.64375 67.30729 32.159374 67.104164Q31.690624 66.885414 31.45625 66.572914Q31.221874 66.24479 31.128124 65.77604Q31.065624 65.479164 31.065624 64.791664L31.065624 60.947914L32.128124 60.947914L32.128124 64.40104Q32.128124 65.21354 32.190624 65.510414Q32.284374 65.916664 32.596874 66.166664Q32.925 66.40104 33.409374 66.40104Q33.878124 66.40104 34.284374 66.166664Q34.70625 65.916664 34.878124 65.49479Q35.065624 65.072914 35.065624 64.27604L35.065624 60.947914L36.1125 60.947914L36.1125 67.166664L35.175 67.166664ZM42.128124 67.166664L42.128124 66.385414Q41.534374 67.30729 40.39375 67.30729Q39.64375 67.30729 39.01875 66.90104Q38.39375 66.479164 38.05 65.74479Q37.70625 65.010414 37.70625 64.05729Q37.70625 63.135414 38.01875 62.36979Q38.33125 61.604164 38.95625 61.21354Q39.58125 60.80729 40.346874 60.80729Q40.909374 60.80729 41.346874 61.041664Q41.784374 61.27604 42.065624 61.65104L42.065624 58.572914L43.1125 58.572914L43.1125 67.166664L42.128124 67.166664ZM38.8 64.05729Q38.8 65.260414 39.3 65.854164Q39.8 66.43229 40.4875 66.43229Q41.175 66.43229 41.659374 65.86979Q42.14375 65.30729 42.14375 64.15104Q42.14375 62.86979 41.64375 62.27604Q41.159374 61.68229 40.440624 61.68229Q39.7375 61.68229 39.26875 62.260414Q38.8 62.822914 38.8 64.05729ZM45.05 69.55729L44.925 68.572914Q45.26875 68.666664 45.534374 68.666664Q45.878124 68.666664 46.08125 68.541664Q46.3 68.43229 46.440624 68.229164Q46.534374 68.05729 46.76875 67.43229Q46.784374 67.354164 46.8625 67.18229L44.4875 60.947914L45.628124 60.947914L46.925 64.541664Q47.175 65.229164 47.378124 65.99479Q47.565624 65.260414 47.815624 64.572914L49.14375 60.947914L50.190624 60.947914L47.83125 67.27604Q47.440624 68.291664 47.2375 68.68229Q46.95625 69.21354 46.58125 69.447914Q46.221874 69.697914 45.721874 69.697914Q45.425 69.697914 45.05 69.55729ZM50.096874 59.791664L50.096874 58.572914L51.159374 58.572914L51.159374 59.791664L50.096874 59.791664ZM50.096874 67.166664L50.096874 60.947914L51.159374 60.947914L51.159374 67.166664L50.096874 67.166664ZM53.096874 67.166664L53.096874 60.947914L54.034374 60.947914L54.034374 61.822914Q54.721874 60.80729 56.01875 60.80729Q56.58125 60.80729 57.05 61.010414Q57.534374 61.21354 57.76875 61.541664Q58.003124 61.86979 58.096874 62.30729Q58.14375 62.604164 58.14375 63.33854L58.14375 67.166664L57.096874 67.166664L57.096874 63.385414Q57.096874 62.729164 56.971874 62.416664Q56.846874 62.104164 56.534374 61.916664Q56.221874 61.71354 55.8 61.71354Q55.128124 61.71354 54.628124 62.15104Q54.14375 62.572914 54.14375 63.760414L54.14375 67.166664L53.096874 67.166664ZM59.89375 67.68229L60.925 67.83854Q60.9875 68.30729 61.284374 68.52604Q61.675 68.822914 62.346874 68.822914Q63.08125 68.822914 63.471874 68.52604Q63.878124 68.229164 64.01875 67.71354Q64.1125 67.385414 64.09688 66.354164Q63.409374 67.166664 62.378124 67.166664Q61.096874 67.166664 60.39375 66.24479Q59.690624 65.30729 59.690624 64.02604Q59.690624 63.135414 60.003124 62.385414Q60.33125 61.61979 60.940624 61.21354Q61.55 60.80729 62.378124 60.80729Q63.4875 60.80729 64.20625 61.697914L64.20625 60.947914L65.175 60.947914L65.175 66.322914Q65.175 67.77604 64.87813 68.385414Q64.58125 68.99479 63.940624 69.33854Q63.3 69.697914 62.3625 69.697914Q61.253124 69.697914 60.565624 69.197914Q59.878124 68.697914 59.89375 67.68229ZM60.76875 63.947914Q60.76875 65.166664 61.253124 65.729164Q61.7375 66.291664 62.471874 66.291664Q63.20625 66.291664 63.690624 65.729164Q64.19063 65.166664 64.19063 63.979164Q64.19063 62.83854 63.675 62.260414Q63.175 61.68229 62.45625 61.68229Q61.753124 61.68229 61.253124 62.260414Q60.76875 62.822914 60.76875 63.947914ZM69.3 67.30729L71.78438 58.43229L72.62813 58.43229L70.14375 67.30729L69.3 67.30729ZM76.2375 67.166664L76.2375 58.572914L80.05 58.572914Q81.20625 58.572914 81.8 58.80729Q82.39375 59.041664 82.75313 59.635414Q83.1125 60.21354 83.1125 60.916664Q83.1125 61.83854 82.51875 62.46354Q81.925 63.08854 80.69063 63.260414Q81.14375 63.479164 81.37813 63.68229Q81.87813 64.135414 82.31563 64.822914L83.81563 67.166664L82.37813 67.166664L81.25313 65.385414Q80.75313 64.604164 80.425 64.197914Q80.1125 63.791664 79.84688 63.635414Q79.59688 63.46354 79.33125 63.385414Q79.14375 63.354164 78.70625 63.354164L77.37813 63.354164L77.37813 67.166664L76.2375 67.166664ZM77.37813 62.36979L79.83125 62.36979Q80.59688 62.36979 81.03438 62.21354Q81.4875 62.041664 81.70625 61.697914Q81.94063 61.33854 81.94063 60.916664Q81.94063 60.30729 81.4875 59.916664Q81.05 59.52604 80.09688 59.52604L77.37813 59.52604L77.37813 62.36979ZM89.34688 65.166664L90.44063 65.291664Q90.19063 66.24479 89.4875 66.77604Q88.78438 67.30729 87.70625 67.30729Q86.34688 67.30729 85.53438 66.46354Q84.7375 65.61979 84.7375 64.104164Q84.7375 62.541664 85.55 61.68229Q86.3625 60.80729 87.64375 60.80729Q88.89375 60.80729 89.675 61.65104Q90.47188 62.49479 90.47188 64.041664Q90.47188 64.135414 90.47188 64.322914L85.83125 64.322914Q85.89375 65.354164 86.40938 65.90104Q86.925 66.43229 87.70625 66.43229Q88.28438 66.43229 88.69063 66.135414Q89.1125 65.822914 89.34688 65.166664ZM85.89375 63.46354L89.3625 63.46354Q89.3 62.666664 88.97188 62.27604Q88.45625 61.666664 87.65938 61.666664Q86.925 61.666664 86.425 62.15104Q85.94063 62.635414 85.89375 63.46354ZM91.675 65.30729L92.70625 65.15104Q92.8 65.77604 93.19063 66.104164Q93.59688 66.43229 94.33125 66.43229Q95.05 66.43229 95.39375 66.15104Q95.75313 65.854164 95.75313 65.447914Q95.75313 65.08854 95.44063 64.885414Q95.22188 64.74479 94.3625 64.52604Q93.20625 64.229164 92.75313 64.02604Q92.31563 63.80729 92.08125 63.43229Q91.84688 63.05729 91.84688 62.58854Q91.84688 62.18229 92.03438 61.822914Q92.22188 61.46354 92.55 61.229164Q92.8 61.05729 93.22188 60.93229Q93.64375 60.80729 94.14375 60.80729Q94.8625 60.80729 95.40938 61.02604Q95.97188 61.229164 96.2375 61.58854Q96.50313 61.947914 96.59688 62.541664L95.56563 62.68229Q95.50313 62.21354 95.15938 61.947914Q94.83125 61.666664 94.20625 61.666664Q93.4875 61.666664 93.175 61.916664Q92.8625 62.15104 92.8625 62.479164Q92.8625 62.68229 92.9875 62.83854Q93.12813 63.010414 93.39375 63.11979Q93.55 63.18229 94.33125 63.385414Q95.45625 63.697914 95.89375 63.885414Q96.33125 64.072914 96.58125 64.43229Q96.83125 64.791664 96.83125 65.33854Q96.83125 65.86979 96.51875 66.33854Q96.22188 66.791664 95.64375 67.05729Q95.06563 67.30729 94.33125 67.30729Q93.1125 67.30729 92.47188 66.80729Q91.84688 66.291664 91.675 65.30729ZM103.34688 65.166664L104.44063 65.291664Q104.19063 66.24479 103.4875 66.77604Q102.78438 67.30729 101.70625 67.30729Q100.34688 67.30729 99.53438 66.46354Q98.7375 65.61979 98.7375 64.104164Q98.7375 62.541664 99.55 61.68229Q100.3625 60.80729 101.64375 60.80729Q102.89375 60.80729 103.675 61.65104Q104.47188 62.49479 104.47188 64.041664Q104.47188 64.135414 104.47188 64.322914L99.83125 64.322914Q99.89375 65.354164 100.40938 65.90104Q100.925 66.43229 101.70625 66.43229Q102.28438 66.43229 102.69063 66.135414Q103.1125 65.822914 103.34688 65.166664ZM99.89375 63.46354L103.3625 63.46354Q103.3 62.666664 102.97188 62.27604Q102.45625 61.666664 101.65938 61.666664Q100.925 61.666664 100.425 62.15104Q99.94063 62.635414 99.89375 63.46354ZM110.15938 66.40104Q109.56563 66.90104 109.01875 67.104164Q108.4875 67.30729 107.8625 67.30729Q106.83125 67.30729 106.28438 66.80729Q105.7375 66.30729 105.7375 65.52604Q105.7375 65.072914 105.94063 64.697914Q106.14375 64.30729 106.4875 64.08854Q106.83125 63.854164 107.25313 63.74479Q107.55 63.65104 108.19063 63.572914Q109.45625 63.43229 110.06563 63.21354Q110.06563 62.99479 110.06563 62.947914Q110.06563 62.291664 109.76875 62.02604Q109.3625 61.68229 108.56563 61.68229Q107.83125 61.68229 107.47188 61.947914Q107.1125 62.197914 106.94063 62.854164L105.90938 62.71354Q106.05 62.05729 106.37813 61.65104Q106.70625 61.24479 107.31563 61.02604Q107.925 60.80729 108.72188 60.80729Q109.51875 60.80729 110.01875 60.99479Q110.51875 61.18229 110.75313 61.46354Q110.9875 61.74479 111.08125 62.18229Q111.12813 62.447914 111.12813 63.15104L111.12813 64.55729Q111.12813 66.02604 111.19063 66.416664Q111.26875 66.80729 111.47188 67.166664L110.3625 67.166664Q110.20625 66.83854 110.15938 66.40104ZM110.06563 64.041664Q109.4875 64.27604 108.34688 64.447914Q107.69063 64.541664 107.425 64.666664Q107.15938 64.77604 107.00313 64.99479Q106.8625 65.21354 106.8625 65.49479Q106.8625 65.916664 107.175 66.197914Q107.50313 66.479164 108.1125 66.479164Q108.72188 66.479164 109.19063 66.21354Q109.675 65.947914 109.89375 65.479164Q110.06563 65.11979 110.06563 64.43229L110.06563 64.041664ZM113.08125 67.166664L113.08125 60.947914L114.03438 60.947914L114.03438 61.885414Q114.39375 61.229164 114.69063 61.02604Q115.00313 60.80729 115.37813 60.80729Q115.90938 60.80729 116.45625 61.135414L116.09688 62.11979Q115.70625 61.885414 115.33125 61.885414Q114.97188 61.885414 114.69063 62.104164Q114.425 62.30729 114.31563 62.68229Q114.12813 63.24479 114.12813 63.90104L114.12813 67.166664L113.08125 67.166664ZM121.15938 64.885414L122.19063 65.02604Q122.01875 66.08854 121.31563 66.697914Q120.6125 67.30729 119.59688 67.30729Q118.31563 67.30729 117.53438 66.479164Q116.76875 65.635414 116.76875 64.072914Q116.76875 63.072914 117.09688 62.322914Q117.44063 61.55729 118.1125 61.18229Q118.8 60.80729 119.6125 60.80729Q120.6125 60.80729 121.25313 61.322914Q121.90938 61.822914 122.09688 62.77604L121.06563 62.93229Q120.925 62.30729 120.55 61.99479Q120.175 61.666664 119.64375 61.666664Q118.84688 61.666664 118.34688 62.24479Q117.84688 62.80729 117.84688 64.041664Q117.84688 65.30729 118.33125 65.86979Q118.81563 66.43229 119.58125 66.43229Q120.20625 66.43229 120.6125 66.05729Q121.03438 65.68229 121.15938 64.885414ZM123.09688 67.166664L123.09688 58.572914L124.14375 58.572914L124.14375 61.65104Q124.87813 60.80729 126.00313 60.80729Q126.70625 60.80729 127.20625 61.08854Q127.72188 61.354164 127.94063 61.83854Q128.15938 62.30729 128.15938 63.229164L128.15938 67.166664L127.1125 67.166664L127.1125 63.229164Q127.1125 62.43229 126.76875 62.072914Q126.425 61.71354 125.8 61.71354Q125.33125 61.71354 124.90938 61.96354Q124.50313 62.197914 124.31563 62.61979Q124.14375 63.02604 124.14375 63.760414L124.14375 67.166664L123.09688 67.166664Z" fill-rule="nonzero"/><path fill="#9e9e9e" d="M25.26875 77.68229L24.221874 77.760414Q24.08125 77.135414 23.83125 76.854164Q23.39375 76.40104 22.76875 76.40104Q22.26875 76.40104 21.878124 76.68229Q21.39375 77.05729 21.096874 77.760414Q20.815624 78.447914 20.8 79.729164Q21.175 79.15104 21.721874 78.86979Q22.284374 78.58854 22.89375 78.58854Q23.940624 78.58854 24.675 79.36979Q25.425 80.15104 25.425 81.36979Q25.425 82.18229 25.065624 82.885414Q24.721874 83.572914 24.1125 83.947914Q23.503124 84.30729 22.7375 84.30729Q21.409374 84.30729 20.58125 83.33854Q19.753124 82.36979 19.753124 80.15104Q19.753124 77.65104 20.675 76.52604Q21.471874 75.541664 22.83125 75.541664Q23.846874 75.541664 24.4875 76.11979Q25.14375 76.68229 25.26875 77.68229ZM20.971874 81.385414Q20.971874 81.93229 21.190624 82.43229Q21.425 82.916664 21.83125 83.18229Q22.253124 83.447914 22.721874 83.447914Q23.378124 83.447914 23.8625 82.916664Q24.346874 82.36979 24.346874 81.447914Q24.346874 80.55729 23.8625 80.041664Q23.39375 79.52604 22.675 79.52604Q21.95625 79.52604 21.45625 80.041664Q20.971874 80.55729 20.971874 81.385414ZM27.39375 84.166664L27.39375 82.96354L28.596874 82.96354L28.596874 84.166664L27.39375 84.166664ZM29.8 79.93229Q29.8 78.40104 30.1125 77.479164Q30.425 76.541664 31.034374 76.041664Q31.659374 75.541664 32.596874 75.541664Q33.284374 75.541664 33.8 75.822914Q34.33125 76.104164 34.675 76.635414Q35.01875 77.15104 35.20625 77.90104Q35.39375 78.65104 35.39375 79.93229Q35.39375 81.447914 35.08125 82.36979Q34.784374 83.291664 34.159374 83.80729Q33.55 84.30729 32.596874 84.30729Q31.3625 84.30729 30.64375 83.416664Q29.8 82.354164 29.8 79.93229ZM30.878124 79.93229Q30.878124 82.041664 31.378124 82.74479Q31.878124 83.447914 32.596874 83.447914Q33.33125 83.447914 33.815624 82.74479Q34.315624 82.041664 34.315624 79.93229Q34.315624 77.80729 33.815624 77.11979Q33.33125 76.416664 32.58125 76.416664Q31.8625 76.416664 31.425 77.02604Q30.878124 77.80729 30.878124 79.93229ZM37.003124 77.635414Q37.003124 76.71354 37.45625 76.072914Q37.925 75.43229 38.8 75.43229Q39.6125 75.43229 40.14375 76.010414Q40.675 76.58854 40.675 77.697914Q40.675 78.791664 40.128124 79.385414Q39.596874 79.96354 38.815624 79.96354Q38.034374 79.96354 37.51875 79.385414Q37.003124 78.80729 37.003124 77.635414ZM38.83125 76.15104Q38.440624 76.15104 38.175 76.49479Q37.925 76.83854 37.925 77.74479Q37.925 78.572914 38.175 78.916664Q38.440624 79.24479 38.83125 79.24479Q39.2375 79.24479 39.4875 78.90104Q39.753124 78.55729 39.753124 77.666664Q39.753124 76.822914 39.4875 76.49479Q39.221874 76.15104 38.83125 76.15104ZM38.83125 84.479164L43.534374 75.43229L44.39375 75.43229L39.70625 84.479164L38.83125 84.479164ZM42.55 82.15104Q42.55 81.229164 43.003124 80.58854Q43.471874 79.947914 44.3625 79.947914Q45.175 79.947914 45.70625 80.52604Q46.2375 81.08854 46.2375 82.21354Q46.2375 83.30729 45.690624 83.90104Q45.159374 84.479164 44.3625 84.479164Q43.596874 84.479164 43.065624 83.90104Q42.55 83.322914 42.55 82.15104ZM44.39375 80.666664Q43.9875 80.666664 43.721874 81.010414Q43.471874 81.354164 43.471874 82.260414Q43.471874 83.072914 43.7375 83.416664Q44.003124 83.760414 44.39375 83.760414Q44.784374 83.760414 45.05 83.416664Q45.315624 83.072914 45.315624 82.166664Q45.315624 81.33854 45.05 81.010414Q44.784374 80.666664 44.39375 80.666664Z" fill-rule="nonzero"/><path stroke="#757575" stroke-width="1.0" stroke-linecap="butt" d="M19.3 71.666664L143.23334 71.666664L276.6359 66.58575" fill-rule="nonzero"/><path fill="#9e9e9e" d="M278.6359 66.58575C278.6359 65.48117 277.74045 64.58575 276.6359 64.58575C275.5313 64.58575 274.6359 65.48117 274.6359 66.58575C274.6359 67.690315 275.5313 68.58575 276.6359 68.58575C277.74045 68.58575 278.6359 67.690315 278.6359 66.58575" fill-rule="nonzero"/><path fill="#1a1a1a" d="M20.190624 98.166664L20.190624 89.572914L21.909374 89.572914L23.940624 95.65104Q24.221874 96.510414 24.346874 96.93229Q24.4875 96.46354 24.8 95.55729L26.8625 89.572914L28.39375 89.572914L28.39375 98.166664L27.3 98.166664L27.3 90.979164L24.8 98.166664L23.76875 98.166664L21.284374 90.854164L21.284374 98.166664L20.190624 98.166664ZM33.346874 96.166664L34.440624 96.291664Q34.190624 97.24479 33.4875 97.77604Q32.784374 98.30729 31.70625 98.30729Q30.346874 98.30729 29.534374 97.46354Q28.7375 96.61979 28.7375 95.104164Q28.7375 93.541664 29.55 92.68229Q30.3625 91.80729 31.64375 91.80729Q32.89375 91.80729 33.675 92.65104Q34.471874 93.49479 34.471874 95.041664Q34.471874 95.135414 34.471874 95.322914L29.83125 95.322914Q29.89375 96.354164 30.409374 96.90104Q30.925 97.43229 31.70625 97.43229Q32.284374 97.43229 32.690624 97.135414Q33.1125 96.822914 33.346874 96.166664ZM29.89375 94.46354L33.3625 94.46354Q33.3 93.666664 32.971874 93.27604Q32.45625 92.666664 31.659374 92.666664Q30.925 92.666664 30.425 93.15104Q29.940624 93.635414 29.89375 94.46354ZM40.346874 96.166664L41.440624 96.291664Q41.190624 97.24479 40.4875 97.77604Q39.784374 98.30729 38.70625 98.30729Q37.346874 98.30729 36.534374 97.46354Q35.7375 96.61979 35.7375 95.104164Q35.7375 93.541664 36.55 92.68229Q37.3625 91.80729 38.64375 91.80729Q39.89375 91.80729 40.675 92.65104Q41.471874 93.49479 41.471874 95.041664Q41.471874 95.135414 41.471874 95.322914L36.83125 95.322914Q36.89375 96.354164 37.409374 96.90104Q37.925 97.43229 38.70625 97.43229Q39.284374 97.43229 39.690624 97.135414Q40.1125 96.822914 40.346874 96.166664ZM36.89375 94.46354L40.3625 94.46354Q40.3 93.666664 39.971874 93.27604Q39.45625 92.666664 38.659374 92.666664Q37.925 92.666664 37.425 93.15104Q36.940624 93.635414 36.89375 94.46354ZM45.39375 97.229164L45.55 98.15104Q45.096874 98.24479 44.753124 98.24479Q44.175 98.24479 43.8625 98.072914Q43.55 97.885414 43.409374 97.58854Q43.284374 97.291664 43.284374 96.33854L43.284374 92.760414L42.51875 92.760414L42.51875 91.947914L43.284374 91.947914L43.284374 90.40104L44.33125 89.77604L44.33125 91.947914L45.39375 91.947914L45.39375 92.760414L44.33125 92.760414L44.33125 96.40104Q44.33125 96.854164 44.378124 96.979164Q44.440624 97.104164 44.565624 97.18229Q44.690624 97.260414 44.925 97.260414Q45.1125 97.260414 45.39375 97.229164ZM46.096874 90.791664L46.096874 89.572914L47.159374 89.572914L47.159374 90.791664L46.096874 90.791664ZM46.096874 98.166664L46.096874 91.947914L47.159374 91.947914L47.159374 98.166664L46.096874 98.166664ZM49.096874 98.166664L49.096874 91.947914L50.034374 91.947914L50.034374 92.822914Q50.721874 91.80729 52.01875 91.80729Q52.58125 91.80729 53.05 92.010414Q53.534374 92.21354 53.76875 92.541664Q54.003124 92.86979 54.096874 93.30729Q54.14375 93.604164 54.14375 94.33854L54.14375 98.166664L53.096874 98.166664L53.096874 94.385414Q53.096874 93.729164 52.971874 93.416664Q52.846874 93.104164 52.534374 92.916664Q52.221874 92.71354 51.8 92.71354Q51.128124 92.71354 50.628124 93.15104Q50.14375 93.572914 50.14375 94.760414L50.14375 98.166664L49.096874 98.166664ZM55.89375 98.68229L56.925 98.83854Q56.9875 99.30729 57.284374 99.52604Q57.675 99.822914 58.346874 99.822914Q59.08125 99.822914 59.471874 99.52604Q59.878124 99.229164 60.01875 98.71354Q60.1125 98.385414 60.096874 97.354164Q59.409374 98.166664 58.378124 98.166664Q57.096874 98.166664 56.39375 97.24479Q55.690624 96.30729 55.690624 95.02604Q55.690624 94.135414 56.003124 93.385414Q56.33125 92.61979 56.940624 92.21354Q57.55 91.80729 58.378124 91.80729Q59.4875 91.80729 60.20625 92.697914L60.20625 91.947914L61.175 91.947914L61.175 97.322914Q61.175 98.77604 60.878124 99.385414Q60.58125 99.99479 59.940624 100.33854Q59.3 100.697914 58.3625 100.697914Q57.253124 100.697914 56.565624 100.197914Q55.878124 99.697914 55.89375 98.68229ZM56.76875 94.947914Q56.76875 96.166664 57.253124 96.729164Q57.7375 97.291664 58.471874 97.291664Q59.20625 97.291664 59.690624 96.729164Q60.190624 96.166664 60.190624 94.979164Q60.190624 93.83854 59.675 93.260414Q59.175 92.68229 58.45625 92.68229Q57.753124 92.68229 57.253124 93.260414Q56.76875 93.822914 56.76875 94.947914Z" fill-rule="nonzero"/><path fill="#9e9e9e" d="M25.26875 108.68229L24.221874 108.760414Q24.08125 108.135414 23.83125 107.854164Q23.39375 107.40104 22.76875 107.40104Q22.26875 107.40104 21.878124 107.68229Q21.39375 108.05729 21.096874 108.760414Q20.815624 109.447914 20.8 110.729164Q21.175 110.15104 21.721874 109.86979Q22.284374 109.58854 22.89375 109.58854Q23.940624 109.58854 24.675 110.36979Q25.425 111.15104 25.425 112.36979Q25.425 113.18229 25.065624 113.885414Q24.721874 114.572914 24.1125 114.947914Q23.503124 115.30729 22.7375 115.30729Q21.409374 115.30729 20.58125 114.33854Q19.753124 113.36979 19.753124 111.15104Q19.753124 108.65104 20.675 107.52604Q21.471874 106.541664 22.83125 106.541664Q23.846874 106.541664 24.4875 107.11979Q25.14375 107.68229 25.26875 108.68229ZM20.971874 112.385414Q20.971874 112.93229 21.190624 113.43229Q21.425 113.916664 21.83125 114.18229Q22.253124 114.447914 22.721874 114.447914Q23.378124 114.447914 23.8625 113.916664Q24.346874 113.36979 24.346874 112.447914Q24.346874 111.55729 23.8625 111.041664Q23.39375 110.52604 22.675 110.52604Q21.95625 110.52604 21.45625 111.041664Q20.971874 111.55729 20.971874 112.385414ZM27.39375 115.166664L27.39375 113.96354L28.596874 113.96354L28.596874 115.166664L27.39375 115.166664ZM29.8 112.916664L30.909374 112.822914Q31.034374 113.635414 31.471874 114.041664Q31.925 114.447914 32.565624 114.447914Q33.315624 114.447914 33.846874 113.86979Q34.378124 113.291664 34.378124 112.354164Q34.378124 111.447914 33.8625 110.93229Q33.3625 110.40104 32.534374 110.40104Q32.034374 110.40104 31.6125 110.635414Q31.20625 110.86979 30.971874 111.229164L29.9875 111.104164L30.815624 106.697914L35.096874 106.697914L35.096874 107.697914L31.659374 107.697914L31.20625 110.010414Q31.971874 109.46354 32.815624 109.46354Q33.940624 109.46354 34.70625 110.24479Q35.4875 111.02604 35.4875 112.260414Q35.4875 113.416664 34.815624 114.27604Q33.9875 115.30729 32.565624 115.30729Q31.39375 115.30729 30.64375 114.65104Q29.909374 113.99479 29.8 112.916664ZM37.003124 108.635414Q37.003124 107.71354 37.45625 107.072914Q37.925 106.43229 38.8 106.43229Q39.6125 106.43229 40.14375 107.010414Q40.675 107.58854 40.675 108.697914Q40.675 109.791664 40.128124 110.385414Q39.596874 110.96354 38.815624 110.96354Q38.034374 110.96354 37.51875 110.385414Q37.003124 109.80729 37.003124 108.635414ZM38.83125 107.15104Q38.440624 107.15104 38.175 107.49479Q37.925 107.83854 37.925 108.74479Q37.925 109.572914 38.175 109.916664Q38.440624 110.24479 38.83125 110.24479Q39.2375 110.24479 39.4875 109.90104Q39.753124 109.55729 39.753124 108.666664Q39.753124 107.822914 39.4875 107.49479Q39.221874 107.15104 38.83125 107.15104ZM38.83125 115.479164L43.534374 106.43229L44.39375 106.43229L39.70625 115.479164L38.83125 115.479164ZM42.55 113.15104Q42.55 112.229164 43.003124 111.58854Q43.471874 110.947914 44.3625 110.947914Q45.175 110.947914 45.70625 111.52604Q46.2375 112.08854 46.2375 113.21354Q46.2375 114.30729 45.690624 114.90104Q45.159374 115.479164 44.3625 115.479164Q43.596874 115.479164 43.065624 114.90104Q42.55 114.322914 42.55 113.15104ZM44.39375 111.666664Q43.9875 111.666664 43.721874 112.010414Q43.471874 112.354164 43.471874 113.260414Q43.471874 114.072914 43.7375 114.416664Q44.003124 114.760414 44.39375 114.760414Q44.784374 114.760414 45.05 114.416664Q45.315624 114.072914 45.315624 113.166664Q45.315624 112.33854 45.05 112.010414Q44.784374 111.666664 44.39375 111.666664Z" fill-rule="nonzero"/><path stroke="#757575" stroke-width="1.0" stroke-linecap="butt" d="M19.3 102.666664L143.23334 102.666664L222.96823 88.51139" fill-rule="nonzero"/><path fill="#9e9e9e" d="M224.96823 88.51139C224.96823 87.40682 224.0728 86.51139 222.96823 86.51139C221.86366 86.51139 220.96823 87.40682 220.96823 88.51139C220.96823 89.61596 221.86366 90.51139 222.96823 90.51139C224.0728 90.51139 224.96823 89.61596 224.96823 88.51139" fill-rule="nonzero"/><path fill="#1a1a1a" d="M20.425 237.04118L20.425 228.44743L21.55 228.44743L21.55 237.04118L20.425 237.04118ZM23.096874 237.04118L23.096874 230.82243L24.034374 230.82243L24.034374 231.69743Q24.33125 231.22868 24.815624 230.96306Q25.3 230.68181 25.925 230.68181Q26.6125 230.68181 27.05 230.96306Q27.503124 231.24431 27.675 231.75993Q28.425 230.68181 29.596874 230.68181Q30.534374 230.68181 31.01875 231.19743Q31.51875 231.69743 31.51875 232.77556L31.51875 237.04118L30.471874 237.04118L30.471874 233.11931Q30.471874 232.49431 30.3625 232.21306Q30.26875 231.93181 30.003124 231.75993Q29.7375 231.58806 29.3625 231.58806Q28.70625 231.58806 28.26875 232.02556Q27.846874 232.46306 27.846874 233.43181L27.846874 237.04118L26.784374 237.04118L26.784374 232.99431Q26.784374 232.29118 26.51875 231.94743Q26.26875 231.58806 25.690624 231.58806Q25.2375 231.58806 24.8625 231.82243Q24.4875 232.05681 24.315624 232.50993Q24.14375 232.96306 24.14375 233.80681L24.14375 237.04118L23.096874 237.04118ZM34.096874 239.43181L34.096874 230.82243L35.05 230.82243L35.05 231.61931Q35.39375 231.15056 35.815624 230.91618Q36.253124 230.68181 36.8625 230.68181Q37.659374 230.68181 38.26875 231.08806Q38.878124 231.49431 39.175 232.24431Q39.4875 232.99431 39.4875 233.88493Q39.4875 234.83806 39.14375 235.60368Q38.815624 236.36931 38.159374 236.77556Q37.503124 237.18181 36.784374 237.18181Q36.253124 237.18181 35.83125 236.96306Q35.409374 236.72868 35.14375 236.40056L35.14375 239.43181L34.096874 239.43181ZM35.05 233.96306Q35.05 235.16618 35.534374 235.74431Q36.01875 236.30681 36.70625 236.30681Q37.409374 236.30681 37.909374 235.71306Q38.409374 235.11931 38.409374 233.86931Q38.409374 232.68181 37.925 232.10368Q37.440624 231.50993 36.753124 231.50993Q36.08125 231.50993 35.565624 232.13493Q35.05 232.75993 35.05 233.96306ZM41.065624 237.04118L41.065624 228.44743L42.128124 228.44743L42.128124 237.04118L41.065624 237.04118ZM48.346874 235.04118L49.440624 235.16618Q49.190624 236.11931 48.4875 236.65056Q47.784374 237.18181 46.70625 237.18181Q45.346874 237.18181 44.534374 236.33806Q43.7375 235.49431 43.7375 233.97868Q43.7375 232.41618 44.55 231.55681Q45.3625 230.68181 46.64375 230.68181Q47.89375 230.68181 48.675 231.52556Q49.471874 232.36931 49.471874 233.91618Q49.471874 234.00993 49.471874 234.19743L44.83125 234.19743Q44.89375 235.22868 45.409374 235.77556Q45.925 236.30681 46.70625 236.30681Q47.284374 236.30681 47.690624 236.00993Q48.1125 235.69743 48.346874 235.04118ZM44.89375 233.33806L48.3625 233.33806Q48.3 232.54118 47.971874 232.15056Q47.45625 231.54118 46.659374 231.54118Q45.925 231.54118 45.425 232.02556Q44.940624 232.50993 44.89375 233.33806ZM51.096874 237.04118L51.096874 230.82243L52.034374 230.82243L52.034374 231.69743Q52.33125 231.22868 52.815624 230.96306Q53.3 230.68181 53.925 230.68181Q54.6125 230.68181 55.05 230.96306Q55.503124 231.24431 55.675 231.75993Q56.425 230.68181 57.596874 230.68181Q58.534374 230.68181 59.01875 231.19743Q59.51875 231.69743 59.51875 232.77556L59.51875 237.04118L58.471874 237.04118L58.471874 233.11931Q58.471874 232.49431 58.3625 232.21306Q58.26875 231.93181 58.003124 231.75993Q57.7375 231.58806 57.3625 231.58806Q56.70625 231.58806 56.26875 232.02556Q55.846874 232.46306 55.846874 233.43181L55.846874 237.04118L54.784374 237.04118L54.784374 232.99431Q54.784374 232.29118 54.51875 231.94743Q54.26875 231.58806 53.690624 231.58806Q53.2375 231.58806 52.8625 231.82243Q52.4875 232.05681 52.315624 232.50993Q52.14375 232.96306 52.14375 233.80681L52.14375 237.04118L51.096874 237.04118ZM66.34688 235.04118L67.44063 235.16618Q67.19063 236.11931 66.4875 236.65056Q65.78438 237.18181 64.70625 237.18181Q63.346874 237.18181 62.534374 236.33806Q61.7375 235.49431 61.7375 233.97868Q61.7375 232.41618 62.55 231.55681Q63.3625 230.68181 64.64375 230.68181Q65.89375 230.68181 66.675 231.52556Q67.47188 232.36931 67.47188 233.91618Q67.47188 234.00993 67.47188 234.19743L62.83125 234.19743Q62.89375 235.22868 63.409374 235.77556Q63.925 236.30681 64.70625 236.30681Q65.28438 236.30681 65.69063 236.00993Q66.1125 235.69743 66.34688 235.04118ZM62.89375 233.33806L66.3625 233.33806Q66.3 232.54118 65.97188 232.15056Q65.45625 231.54118 64.65938 231.54118Q63.925 231.54118 63.425 232.02556Q62.940624 232.50993 62.89375 233.33806ZM69.09688 237.04118L69.09688 230.82243L70.03438 230.82243L70.03438 231.69743Q70.72188 230.68181 72.01875 230.68181Q72.58125 230.68181 73.05 230.88493Q73.53438 231.08806 73.76875 231.41618Q74.00313 231.74431 74.09688 232.18181Q74.14375 232.47868 74.14375 233.21306L74.14375 237.04118L73.09688 237.04118L73.09688 233.25993Q73.09688 232.60368 72.97188 232.29118Q72.84688 231.97868 72.53438 231.79118Q72.22188 231.58806 71.8 231.58806Q71.12813 231.58806 70.62813 232.02556Q70.14375 232.44743 70.14375 233.63493L70.14375 237.04118L69.09688 237.04118ZM78.39375 236.10368L78.55 237.02556Q78.09688 237.11931 77.75313 237.11931Q77.175 237.11931 76.8625 236.94743Q76.55 236.75993 76.40938 236.46306Q76.28438 236.16618 76.28438 235.21306L76.28438 231.63493L75.51875 231.63493L75.51875 230.82243L76.28438 230.82243L76.28438 229.27556L77.33125 228.65056L77.33125 230.82243L78.39375 230.82243L78.39375 231.63493L77.33125 231.63493L77.33125 235.27556Q77.33125 235.72868 77.37813 235.85368Q77.44063 235.97868 77.56563 236.05681Q77.69063 236.13493 77.925 236.13493Q78.1125 236.13493 78.39375 236.10368ZM83.15938 236.27556Q82.56563 236.77556 82.01875 236.97868Q81.4875 237.18181 80.8625 237.18181Q79.83125 237.18181 79.28438 236.68181Q78.7375 236.18181 78.7375 235.40056Q78.7375 234.94743 78.94063 234.57243Q79.14375 234.18181 79.4875 233.96306Q79.83125 233.72868 80.25313 233.61931Q80.55 233.52556 81.19063 233.44743Q82.45625 233.30681 83.06563 233.08806Q83.06563 232.86931 83.06563 232.82243Q83.06563 232.16618 82.76875 231.90056Q82.3625 231.55681 81.56563 231.55681Q80.83125 231.55681 80.47188 231.82243Q80.1125 232.07243 79.94063 232.72868L78.90938 232.58806Q79.05 231.93181 79.37813 231.52556Q79.70625 231.11931 80.31563 230.90056Q80.925 230.68181 81.72188 230.68181Q82.51875 230.68181 83.01875 230.86931Q83.51875 231.05681 83.75313 231.33806Q83.9875 231.61931 84.08125 232.05681Q84.12813 232.32243 84.12813 233.02556L84.12813 234.43181Q84.12813 235.90056 84.19063 236.29118Q84.26875 236.68181 84.47188 237.04118L83.3625 237.04118Q83.20625 236.71306 83.15938 236.27556ZM83.06563 233.91618Q82.4875 234.15056 81.34688 234.32243Q80.69063 234.41618 80.425 234.54118Q80.15938 234.65056 80.00313 234.86931Q79.8625 235.08806 79.8625 235.36931Q79.8625 235.79118 80.175 236.07243Q80.50313 236.35368 81.1125 236.35368Q81.72188 236.35368 82.19063 236.08806Q82.675 235.82243 82.89375 235.35368Q83.06563 234.99431 83.06563 234.30681L83.06563 233.91618ZM88.39375 236.10368L88.55 237.02556Q88.09688 237.11931 87.75313 237.11931Q87.175 237.11931 86.8625 236.94743Q86.55 236.75993 86.40938 236.46306Q86.28438 236.16618 86.28438 235.21306L86.28438 231.63493L85.51875 231.63493L85.51875 230.82243L86.28438 230.82243L86.28438 229.27556L87.33125 228.65056L87.33125 230.82243L88.39375 230.82243L88.39375 231.63493L87.33125 231.63493L87.33125 235.27556Q87.33125 235.72868 87.37813 235.85368Q87.44063 235.97868 87.56563 236.05681Q87.69063 236.13493 87.925 236.13493Q88.1125 236.13493 88.39375 236.10368ZM89.09688 229.66618L89.09688 228.44743L90.15938 228.44743L90.15938 229.66618L89.09688 229.66618ZM89.09688 237.04118L89.09688 230.82243L90.15938 230.82243L90.15938 237.04118L89.09688 237.04118ZM91.70625 233.93181Q91.70625 232.19743 92.65938 231.36931Q93.45625 230.68181 94.6125 230.68181Q95.89375 230.68181 96.70625 231.52556Q97.53438 232.35368 97.53438 233.83806Q97.53438 235.04118 97.175 235.72868Q96.81563 236.41618 96.1125 236.80681Q95.425 237.18181 94.6125 237.18181Q93.31563 237.18181 92.50313 236.35368Q91.70625 235.50993 91.70625 233.93181ZM92.78438 233.93181Q92.78438 235.11931 93.3 235.71306Q93.83125 236.30681 94.6125 236.30681Q95.40938 236.30681 95.925 235.71306Q96.44063 235.11931 96.44063 233.90056Q96.44063 232.74431 95.90938 232.15056Q95.39375 231.55681 94.6125 231.55681Q93.83125 231.55681 93.3 232.15056Q92.78438 232.72868 92.78438 233.93181ZM99.09688 237.04118L99.09688 230.82243L100.03438 230.82243L100.03438 231.69743Q100.72188 230.68181 102.01875 230.68181Q102.58125 230.68181 103.05 230.88493Q103.53438 231.08806 103.76875 231.41618Q104.00313 231.74431 104.09688 232.18181Q104.14375 232.47868 104.14375 233.21306L104.14375 237.04118L103.09688 237.04118L103.09688 233.25993Q103.09688 232.60368 102.97188 232.29118Q102.84688 231.97868 102.53438 231.79118Q102.22188 231.58806 101.8 231.58806Q101.12813 231.58806 100.62813 232.02556Q100.14375 232.44743 100.14375 233.63493L100.14375 237.04118L99.09688 237.04118Z" fill-rule="nonzero"/><path fill="#9e9e9e" d="M19.8 251.77556L20.8625 251.63493Q21.034374 252.52556 21.471874 252.93181Q21.909374 253.32243 22.534374 253.32243Q23.284374 253.32243 23.8 252.80681Q24.315624 252.29118 24.315624 251.52556Q24.315624 250.80681 23.83125 250.33806Q23.3625 249.85368 22.628124 249.85368Q22.33125 249.85368 21.878124 249.97868L22.003124 249.04118Q22.1125 249.05681 22.175 249.05681Q22.846874 249.05681 23.378124 248.71306Q23.925 248.35368 23.925 247.61931Q23.925 247.04118 23.534374 246.66618Q23.14375 246.27556 22.51875 246.27556Q21.909374 246.27556 21.4875 246.66618Q21.08125 247.05681 20.971874 247.82243L19.909374 247.63493Q20.096874 246.58806 20.784374 246.00993Q21.471874 245.41618 22.4875 245.41618Q23.190624 245.41618 23.784374 245.72868Q24.378124 246.02556 24.690624 246.54118Q25.003124 247.05681 25.003124 247.65056Q25.003124 248.19743 24.70625 248.66618Q24.409374 249.11931 23.83125 249.38493Q24.58125 249.55681 25.003124 250.11931Q25.425 250.66618 25.425 251.50993Q25.425 252.63493 24.596874 253.41618Q23.784374 254.19743 22.534374 254.19743Q21.409374 254.19743 20.659374 253.52556Q19.909374 252.83806 19.8 251.77556ZM30.76875 254.04118L29.721874 254.04118L29.721874 247.32243Q29.33125 247.68181 28.70625 248.05681Q28.096874 248.41618 27.6125 248.58806L27.6125 247.57243Q28.4875 247.15056 29.14375 246.57243Q29.815624 245.97868 30.096874 245.41618L30.76875 245.41618L30.76875 254.04118ZM34.39375 254.04118L34.39375 252.83806L35.596874 252.83806L35.596874 254.04118L34.39375 254.04118ZM40.175 254.04118L40.175 251.97868L36.45625 251.97868L36.45625 251.00993L40.378124 245.44743L41.2375 245.44743L41.2375 251.00993L42.39375 251.00993L42.39375 251.97868L41.2375 251.97868L41.2375 254.04118L40.175 254.04118ZM40.175 251.00993L40.175 247.15056L37.4875 251.00993L40.175 251.00993ZM44.003124 247.50993Q44.003124 246.58806 44.45625 245.94743Q44.925 245.30681 45.8 245.30681Q46.6125 245.30681 47.14375 245.88493Q47.675 246.46306 47.675 247.57243Q47.675 248.66618 47.128124 249.25993Q46.596874 249.83806 45.815624 249.83806Q45.034374 249.83806 44.51875 249.25993Q44.003124 248.68181 44.003124 247.50993ZM45.83125 246.02556Q45.440624 246.02556 45.175 246.36931Q44.925 246.71306 44.925 247.61931Q44.925 248.44743 45.175 248.79118Q45.440624 249.11931 45.83125 249.11931Q46.2375 249.11931 46.4875 248.77556Q46.753124 248.43181 46.753124 247.54118Q46.753124 246.69743 46.4875 246.36931Q46.221874 246.02556 45.83125 246.02556ZM45.83125 254.35368L50.534374 245.30681L51.39375 245.30681L46.70625 254.35368L45.83125 254.35368ZM49.55 252.02556Q49.55 251.10368 50.003124 250.46306Q50.471874 249.82243 51.3625 249.82243Q52.175 249.82243 52.70625 250.40056Q53.2375 250.96306 53.2375 252.08806Q53.2375 253.18181 52.690624 253.77556Q52.159374 254.35368 51.3625 254.35368Q50.596874 254.35368 50.065624 253.77556Q49.55 253.19743 49.55 252.02556ZM51.39375 250.54118Q50.9875 250.54118 50.721874 250.88493Q50.471874 251.22868 50.471874 252.13493Q50.471874 252.94743 50.7375 253.29118Q51.003124 253.63493 51.39375 253.63493Q51.784374 253.63493 52.05 253.29118Q52.315624 252.94743 52.315624 252.04118Q52.315624 251.21306 52.05 250.88493Q51.784374 250.54118 51.39375 250.54118Z" fill-rule="nonzero"/><path stroke="#757575" stroke-width="1.0" stroke-linecap="butt" d="M19.3 241.54118L143.23334 241.54118L160.10211 241.54118" fill-rule="nonzero"/><path fill="#9e9e9e" d="M162.10211 241.54118C162.10211 240.43661 161.20668 239.54118 160.10211 239.54118C158.99754 239.54118 158.10211 240.43661 158.10211 241.54118C158.10211 242.64575 158.99754 243.54118 160.10211 243.54118C161.20668 243.54118 162.10211 242.64575 162.10211 241.54118" fill-rule="nonzero"/><path fill="#1a1a1a" d="M554.6844 67.166664L557.98126 58.572914L559.2 58.572914L562.71564 67.166664L561.4344 67.166664L560.41876 64.55729L556.84064 64.55729L555.8875 67.166664L554.6844 67.166664ZM557.16876 63.635414L560.075 63.635414L559.1844 61.260414Q558.7625 60.18229 558.575 59.479164Q558.40314 60.30729 558.10626 61.11979L557.16876 63.635414ZM566.52814 67.166664L566.52814 66.385414Q565.9344 67.30729 564.79376 67.30729Q564.04376 67.30729 563.41876 66.90104Q562.79376 66.479164 562.45 65.74479Q562.10626 65.010414 562.10626 64.05729Q562.10626 63.135414 562.41876 62.36979Q562.73126 61.604164 563.35626 61.21354Q563.98126 60.80729 564.7469 60.80729Q565.3094 60.80729 565.7469 61.041664Q566.1844 61.27604 566.46564 61.65104L566.46564 58.572914L567.5125 58.572914L567.5125 67.166664L566.52814 67.166664ZM563.2 64.05729Q563.2 65.260414 563.7 65.854164Q564.2 66.43229 564.8875 66.43229Q565.575 66.43229 566.0594 65.86979Q566.54376 65.30729 566.54376 64.15104Q566.54376 62.86979 566.04376 62.27604Q565.5594 61.68229 564.84064 61.68229Q564.1375 61.68229 563.66876 62.260414Q563.2 62.822914 563.2 64.05729ZM569.4969 67.166664L569.4969 60.947914L570.4344 60.947914L570.4344 61.822914Q570.73126 61.354164 571.21564 61.08854Q571.7 60.80729 572.325 60.80729Q573.0125 60.80729 573.45 61.08854Q573.90314 61.36979 574.075 61.885414Q574.825 60.80729 575.9969 60.80729Q576.9344 60.80729 577.41876 61.322914Q577.91876 61.822914 577.91876 62.90104L577.91876 67.166664L576.8719 67.166664L576.8719 63.24479Q576.8719 62.61979 576.7625 62.33854Q576.66876 62.05729 576.40314 61.885414Q576.1375 61.71354 575.7625 61.71354Q575.10626 61.71354 574.66876 62.15104Q574.2469 62.58854 574.2469 63.55729L574.2469 67.166664L573.1844 67.166664L573.1844 63.11979Q573.1844 62.416664 572.91876 62.072914Q572.66876 61.71354 572.09064 61.71354Q571.6375 61.71354 571.2625 61.947914Q570.8875 62.18229 570.71564 62.635414Q570.54376 63.08854 570.54376 63.93229L570.54376 67.166664L569.4969 67.166664ZM580.4969 59.791664L580.4969 58.572914L581.5594 58.572914L581.5594 59.791664L580.4969 59.791664ZM580.4969 67.166664L580.4969 60.947914L581.5594 60.947914L581.5594 67.166664L580.4969 67.166664ZM583.4969 67.166664L583.4969 60.947914L584.4344 60.947914L584.4344 61.822914Q585.1219 60.80729 586.41876 60.80729Q586.98126 60.80729 587.45 61.010414Q587.9344 61.21354 588.16876 61.541664Q588.40314 61.86979 588.4969 62.30729Q588.54376 62.604164 588.54376 63.33854L588.54376 67.166664L587.4969 67.166664L587.4969 63.385414Q587.4969 62.729164 587.3719 62.416664Q587.2469 62.104164 586.9344 61.916664Q586.6219 61.71354 586.2 61.71354Q585.52814 61.71354 585.02814 62.15104Q584.54376 62.572914 584.54376 63.760414L584.54376 67.166664L583.4969 67.166664Z" fill-rule="nonzero"/><path fill="#9e9e9e" d="M562.2 81.916664L563.3094 81.822914Q563.4344 82.635414 563.8719 83.041664Q564.325 83.447914 564.96564 83.447914Q565.71564 83.447914 566.2469 82.86979Q566.77814 82.291664 566.77814 81.354164Q566.77814 80.447914 566.2625 79.93229Q565.7625 79.40104 564.9344 79.40104Q564.4344 79.40104 564.0125 79.635414Q563.60626 79.86979 563.3719 80.229164L562.3875 80.104164L563.21564 75.697914L567.4969 75.697914L567.4969 76.697914L564.0594 76.697914L563.60626 79.010414Q564.3719 78.46354 565.21564 78.46354Q566.34064 78.46354 567.10626 79.24479Q567.8875 80.02604 567.8875 81.260414Q567.8875 82.416664 567.21564 83.27604Q566.3875 84.30729 564.96564 84.30729Q563.79376 84.30729 563.04376 83.65104Q562.3094 82.99479 562.2 81.916664ZM569.79376 84.166664L569.79376 82.96354L570.9969 82.96354L570.9969 84.166664L569.79376 84.166664ZM572.2 81.90104L573.2625 81.760414Q573.4344 82.65104 573.8719 83.05729Q574.3094 83.447914 574.9344 83.447914Q575.6844 83.447914 576.2 82.93229Q576.71564 82.416664 576.71564 81.65104Q576.71564 80.93229 576.23126 80.46354Q575.7625 79.979164 575.02814 79.979164Q574.73126 79.979164 574.27814 80.104164L574.40314 79.166664Q574.5125 79.18229 574.575 79.18229Q575.2469 79.18229 575.77814 78.83854Q576.325 78.479164 576.325 77.74479Q576.325 77.166664 575.9344 76.791664Q575.54376 76.40104 574.91876 76.40104Q574.3094 76.40104 573.8875 76.791664Q573.48126 77.18229 573.3719 77.947914L572.3094 77.760414Q572.4969 76.71354 573.1844 76.135414Q573.8719 75.541664 574.8875 75.541664Q575.59064 75.541664 576.1844 75.854164Q576.77814 76.15104 577.09064 76.666664Q577.40314 77.18229 577.40314 77.77604Q577.40314 78.322914 577.10626 78.791664Q576.8094 79.24479 576.23126 79.510414Q576.98126 79.68229 577.40314 80.24479Q577.825 80.791664 577.825 81.635414Q577.825 82.760414 576.9969 83.541664Q576.1844 84.322914 574.9344 84.322914Q573.8094 84.322914 573.0594 83.65104Q572.3094 82.96354 572.2 81.90104ZM579.40314 77.635414Q579.40314 76.71354 579.85626 76.072914Q580.325 75.43229 581.2 75.43229Q582.0125 75.43229 582.54376 76.010414Q583.075 76.58854 583.075 77.697914Q583.075 78.791664 582.52814 79.385414Q581.9969 79.96354 581.21564 79.96354Q580.4344 79.96354 579.91876 79.385414Q579.40314 78.80729 579.40314 77.635414ZM581.23126 76.15104Q580.84064 76.15104 580.575 76.49479Q580.325 76.83854 580.325 77.74479Q580.325 78.572914 580.575 78.916664Q580.84064 79.24479 581.23126 79.24479Q581.6375 79.24479 581.8875 78.90104Q582.15314 78.55729 582.15314 77.666664Q582.15314 76.822914 581.8875 76.49479Q581.6219 76.15104 581.23126 76.15104ZM581.23126 84.479164L585.9344 75.43229L586.79376 75.43229L582.10626 84.479164L581.23126 84.479164ZM584.95 82.15104Q584.95 81.229164 585.40314 80.58854Q585.8719 79.947914 586.7625 79.947914Q587.575 79.947914 588.10626 80.52604Q588.6375 81.08854 588.6375 82.21354Q588.6375 83.30729 588.09064 83.90104Q587.5594 84.479164 586.7625 84.479164Q585.9969 84.479164 585.46564 83.90104Q584.95 83.322914 584.95 82.15104ZM586.79376 80.666664Q586.3875 80.666664 586.1219 81.010414Q585.8719 81.354164 585.8719 82.260414Q585.8719 83.072914 586.1375 83.416664Q586.40314 83.760414 586.79376 83.760414Q587.1844 83.760414 587.45 83.416664Q587.71564 83.072914 587.71564 82.166664Q587.71564 81.33854 587.45 81.010414Q587.1844 80.666664 586.79376 80.666664Z" fill-rule="nonzero"/><path stroke="#757575" stroke-width="1.0" stroke-linecap="butt" d="M589.7 71.666664L465.76666 71.666664L328.9861 65.97659" fill-rule="nonzero"/><path fill="#9e9e9e" d="M330.9861 65.97659C330.9861 64.872025 330.0907 63.976593 328.9861 63.976593C327.88156 63.976593 326.9861 64.872025 326.9861 65.97659C326.9861 67.08116 327.88156 67.97659 328.9861 67.97659C330.0907 67.97659 330.9861 67.08116 330.9861 65.97659" fill-rule="nonzero"/><path fill="#1a1a1a" d="M506.6219 258.4561L506.6219 249.86234L509.59064 249.86234Q510.59064 249.86234 511.1219 249.98734Q511.85626 250.15921 512.3719 250.59671Q513.0594 251.17484 513.3875 252.08109Q513.73126 252.97171 513.73126 254.11234Q513.73126 255.09671 513.4969 255.84671Q513.27814 256.5967 512.91876 257.0967Q512.5594 257.5967 512.1219 257.87796Q511.7 258.1592 511.10626 258.31546Q510.5125 258.4561 509.73126 258.4561L506.6219 258.4561ZM507.7625 257.44046L509.59064 257.44046Q510.45 257.44046 510.9344 257.2842Q511.41876 257.12796 511.7 256.8311Q512.10626 256.44046 512.325 255.75296Q512.5594 255.06546 512.5594 254.09671Q512.5594 252.75296 512.10626 252.03421Q511.66876 251.29984 511.04376 251.04984Q510.575 250.87796 509.575 250.87796L507.7625 250.87796L507.7625 257.44046ZM515.10626 255.34671Q515.10626 253.61234 516.0594 252.78421Q516.85626 252.09671 518.0125 252.09671Q519.29376 252.09671 520.10626 252.94046Q520.9344 253.76859 520.9344 255.25296Q520.9344 256.4561 520.575 257.1436Q520.21564 257.8311 519.5125 258.2217Q518.825 258.5967 518.0125 258.5967Q516.71564 258.5967 515.90314 257.7686Q515.10626 256.92484 515.10626 255.34671ZM516.1844 255.34671Q516.1844 256.5342 516.7 257.12796Q517.23126 257.7217 518.0125 257.7217Q518.8094 257.7217 519.325 257.12796Q519.84064 256.5342 519.84064 255.31546Q519.84064 254.15921 519.3094 253.56546Q518.79376 252.97171 518.0125 252.97171Q517.23126 252.97171 516.7 253.56546Q516.1844 254.14359 516.1844 255.34671ZM526.5594 256.17484L527.59064 256.31546Q527.41876 257.37796 526.71564 257.98734Q526.0125 258.5967 524.9969 258.5967Q523.71564 258.5967 522.9344 257.7686Q522.16876 256.92484 522.16876 255.36234Q522.16876 254.36234 522.4969 253.61234Q522.84064 252.84671 523.5125 252.47171Q524.2 252.09671 525.0125 252.09671Q526.0125 252.09671 526.65314 252.61234Q527.3094 253.11234 527.4969 254.06546L526.46564 254.22171Q526.325 253.59671 525.95 253.28421Q525.575 252.95609 525.04376 252.95609Q524.2469 252.95609 523.7469 253.53421Q523.2469 254.09671 523.2469 255.33109Q523.2469 256.5967 523.73126 257.1592Q524.21564 257.7217 524.98126 257.7217Q525.60626 257.7217 526.0125 257.3467Q526.4344 256.9717 526.5594 256.17484ZM532.575 258.4561L532.575 257.5342Q531.84064 258.5967 530.59064 258.5967Q530.04376 258.5967 529.5594 258.3936Q529.09064 258.17484 528.85626 257.86234Q528.6219 257.5342 528.52814 257.06546Q528.46564 256.7686 528.46564 256.0811L528.46564 252.23734L529.52814 252.23734L529.52814 255.69046Q529.52814 256.50296 529.59064 256.79984Q529.6844 257.2061 529.9969 257.4561Q530.325 257.69046 530.8094 257.69046Q531.27814 257.69046 531.6844 257.4561Q532.10626 257.2061 532.27814 256.7842Q532.46564 256.36234 532.46564 255.56546L532.46564 252.23734L533.5125 252.23734L533.5125 258.4561L532.575 258.4561ZM535.4969 258.4561L535.4969 252.23734L536.4344 252.23734L536.4344 253.11234Q536.73126 252.64359 537.21564 252.37796Q537.7 252.09671 538.325 252.09671Q539.0125 252.09671 539.45 252.37796Q539.90314 252.65921 540.075 253.17484Q540.825 252.09671 541.9969 252.09671Q542.9344 252.09671 543.41876 252.61234Q543.91876 253.11234 543.91876 254.19046L543.91876 258.4561L542.8719 258.4561L542.8719 254.53421Q542.8719 253.90921 542.7625 253.62796Q542.66876 253.34671 542.40314 253.17484Q542.1375 253.00296 541.7625 253.00296Q541.10626 253.00296 540.66876 253.44046Q540.2469 253.87796 540.2469 254.84671L540.2469 258.4561L539.1844 258.4561L539.1844 254.40921Q539.1844 253.70609 538.91876 253.36234Q538.66876 253.00296 538.09064 253.00296Q537.6375 253.00296 537.2625 253.23734Q536.8875 253.47171 536.71564 253.92484Q536.54376 254.37796 536.54376 255.22171L536.54376 258.4561L535.4969 258.4561ZM550.7469 256.4561L551.84064 256.5811Q551.59064 257.5342 550.8875 258.06546Q550.1844 258.5967 549.10626 258.5967Q547.7469 258.5967 546.9344 257.75296Q546.1375 256.9092 546.1375 255.39359Q546.1375 253.83109 546.95 252.97171Q547.7625 252.09671 549.04376 252.09671Q550.29376 252.09671 551.075 252.94046Q551.8719 253.78421 551.8719 255.33109Q551.8719 255.42484 551.8719 255.61234L547.23126 255.61234Q547.29376 256.6436 547.8094 257.19046Q548.325 257.7217 549.10626 257.7217Q549.6844 257.7217 550.09064 257.42484Q550.5125 257.11234 550.7469 256.4561ZM547.29376 254.75296L550.7625 254.75296Q550.7 253.95609 550.3719 253.56546Q549.85626 252.95609 549.0594 252.95609Q548.325 252.95609 547.825 253.44046Q547.34064 253.92484 547.29376 254.75296ZM553.4969 258.4561L553.4969 252.23734L554.4344 252.23734L554.4344 253.11234Q555.1219 252.09671 556.41876 252.09671Q556.98126 252.09671 557.45 252.29984Q557.9344 252.50296 558.16876 252.83109Q558.40314 253.15921 558.4969 253.59671Q558.54376 253.89359 558.54376 254.62796L558.54376 258.4561L557.4969 258.4561L557.4969 254.67484Q557.4969 254.01859 557.3719 253.70609Q557.2469 253.39359 556.9344 253.20609Q556.6219 253.00296 556.2 253.00296Q555.52814 253.00296 555.02814 253.44046Q554.54376 253.86234 554.54376 255.04984L554.54376 258.4561L553.4969 258.4561ZM562.79376 257.5186L562.95 258.44046Q562.4969 258.5342 562.15314 258.5342Q561.575 258.5342 561.2625 258.36234Q560.95 258.17484 560.8094 257.87796Q560.6844 257.5811 560.6844 256.62796L560.6844 253.04984L559.91876 253.04984L559.91876 252.23734L560.6844 252.23734L560.6844 250.69046L561.73126 250.06546L561.73126 252.23734L562.79376 252.23734L562.79376 253.04984L561.73126 253.04984L561.73126 256.69046Q561.73126 257.1436 561.77814 257.2686Q561.84064 257.3936 561.96564 257.4717Q562.09064 257.54984 562.325 257.54984Q562.5125 257.54984 562.79376 257.5186ZM567.5594 257.69046Q566.96564 258.19046 566.41876 258.3936Q565.8875 258.5967 565.2625 258.5967Q564.23126 258.5967 563.6844 258.0967Q563.1375 257.5967 563.1375 256.81546Q563.1375 256.36234 563.34064 255.98734Q563.54376 255.59671 563.8875 255.37796Q564.23126 255.14359 564.65314 255.03421Q564.95 254.94046 565.59064 254.86234Q566.85626 254.72171 567.46564 254.50296Q567.46564 254.28421 567.46564 254.23734Q567.46564 253.58109 567.16876 253.31546Q566.7625 252.97171 565.96564 252.97171Q565.23126 252.97171 564.8719 253.23734Q564.5125 253.48734 564.34064 254.14359L563.3094 254.00296Q563.45 253.34671 563.77814 252.94046Q564.10626 252.53421 564.71564 252.31546Q565.325 252.09671 566.1219 252.09671Q566.91876 252.09671 567.41876 252.28421Q567.91876 252.47171 568.15314 252.75296Q568.3875 253.03421 568.48126 253.47171Q568.52814 253.73734 568.52814 254.44046L568.52814 255.84671Q568.52814 257.31546 568.59064 257.7061Q568.66876 258.0967 568.8719 258.4561L567.7625 258.4561Q567.60626 258.12796 567.5594 257.69046ZM567.46564 255.33109Q566.8875 255.56546 565.7469 255.73734Q565.09064 255.83109 564.825 255.95609Q564.5594 256.06546 564.40314 256.2842Q564.2625 256.50296 564.2625 256.7842Q564.2625 257.2061 564.575 257.48734Q564.90314 257.7686 565.5125 257.7686Q566.1219 257.7686 566.59064 257.50296Q567.075 257.23734 567.29376 256.7686Q567.46564 256.4092 567.46564 255.72171L567.46564 255.33109ZM572.79376 257.5186L572.95 258.44046Q572.4969 258.5342 572.15314 258.5342Q571.575 258.5342 571.2625 258.36234Q570.95 258.17484 570.8094 257.87796Q570.6844 257.5811 570.6844 256.62796L570.6844 253.04984L569.91876 253.04984L569.91876 252.23734L570.6844 252.23734L570.6844 250.69046L571.73126 250.06546L571.73126 252.23734L572.79376 252.23734L572.79376 253.04984L571.73126 253.04984L571.73126 256.69046Q571.73126 257.1436 571.77814 257.2686Q571.84064 257.3936 571.96564 257.4717Q572.09064 257.54984 572.325 257.54984Q572.5125 257.54984 572.79376 257.5186ZM573.4969 251.08109L573.4969 249.86234L574.5594 249.86234L574.5594 251.08109L573.4969 251.08109ZM573.4969 258.4561L573.4969 252.23734L574.5594 252.23734L574.5594 258.4561L573.4969 258.4561ZM576.10626 255.34671Q576.10626 253.61234 577.0594 252.78421Q577.85626 252.09671 579.0125 252.09671Q580.29376 252.09671 581.10626 252.94046Q581.9344 253.76859 581.9344 255.25296Q581.9344 256.4561 581.575 257.1436Q581.21564 257.8311 580.5125 258.2217Q579.825 258.5967 579.0125 258.5967Q577.71564 258.5967 576.90314 257.7686Q576.10626 256.92484 576.10626 255.34671ZM577.1844 255.34671Q577.1844 256.5342 577.7 257.12796Q578.23126 257.7217 579.0125 257.7217Q579.8094 257.7217 580.325 257.12796Q580.84064 256.5342 580.84064 255.31546Q580.84064 254.15921 580.3094 253.56546Q579.79376 252.97171 579.0125 252.97171Q578.23126 252.97171 577.7 253.56546Q577.1844 254.14359 577.1844 255.34671ZM583.4969 258.4561L583.4969 252.23734L584.4344 252.23734L584.4344 253.11234Q585.1219 252.09671 586.41876 252.09671Q586.98126 252.09671 587.45 252.29984Q587.9344 252.50296 588.16876 252.83109Q588.40314 253.15921 588.4969 253.59671Q588.54376 253.89359 588.54376 254.62796L588.54376 258.4561L587.4969 258.4561L587.4969 254.67484Q587.4969 254.01859 587.3719 253.70609Q587.2469 253.39359 586.9344 253.20609Q586.6219 253.00296 586.2 253.00296Q585.52814 253.00296 585.02814 253.44046Q584.54376 253.86234 584.54376 255.04984L584.54376 258.4561L583.4969 258.4561Z" fill-rule="nonzero"/><path fill="#9e9e9e" d="M555.2 273.2061L556.3094 273.11234Q556.4344 273.92484 556.8719 274.3311Q557.325 274.73734 557.96564 274.73734Q558.71564 274.73734 559.2469 274.1592Q559.77814 273.5811 559.77814 272.6436Q559.77814 271.73734 559.2625 271.2217Q558.7625 270.69046 557.9344 270.69046Q557.4344 270.69046 557.0125 270.92484Q556.60626 271.1592 556.3719 271.5186L555.3875 271.3936L556.21564 266.98734L560.4969 266.98734L560.4969 267.98734L557.0594 267.98734L556.60626 270.29984Q557.3719 269.75296 558.21564 269.75296Q559.34064 269.75296 560.10626 270.5342Q560.8875 271.31546 560.8875 272.54984Q560.8875 273.7061 560.21564 274.56546Q559.3875 275.5967 557.96564 275.5967Q556.79376 275.5967 556.04376 274.94046Q555.3094 274.2842 555.2 273.2061ZM562.2 271.2217Q562.2 269.69046 562.5125 268.7686Q562.825 267.8311 563.4344 267.3311Q564.0594 266.8311 564.9969 266.8311Q565.6844 266.8311 566.2 267.11234Q566.73126 267.3936 567.075 267.92484Q567.41876 268.44046 567.60626 269.19046Q567.79376 269.94046 567.79376 271.2217Q567.79376 272.73734 567.48126 273.6592Q567.1844 274.5811 566.5594 275.0967Q565.95 275.5967 564.9969 275.5967Q563.7625 275.5967 563.04376 274.7061Q562.2 273.6436 562.2 271.2217ZM563.27814 271.2217Q563.27814 273.3311 563.77814 274.0342Q564.27814 274.73734 564.9969 274.73734Q565.73126 274.73734 566.21564 274.0342Q566.71564 273.3311 566.71564 271.2217Q566.71564 269.0967 566.21564 268.4092Q565.73126 267.7061 564.98126 267.7061Q564.2625 267.7061 563.825 268.31546Q563.27814 269.0967 563.27814 271.2217ZM569.79376 275.4561L569.79376 274.25296L570.9969 274.25296L570.9969 275.4561L569.79376 275.4561ZM572.2625 267.98734L572.2625 266.9717L577.825 266.9717L577.825 267.79984Q577.0125 268.67484 576.2 270.12796Q575.40314 271.56546 574.96564 273.0967Q574.6375 274.17484 574.5594 275.4561L573.46564 275.4561Q573.48126 274.44046 573.85626 273.00296Q574.2469 271.56546 574.95 270.23734Q575.66876 268.9092 576.48126 267.98734L572.2625 267.98734ZM579.40314 268.92484Q579.40314 268.00296 579.85626 267.36234Q580.325 266.7217 581.2 266.7217Q582.0125 266.7217 582.54376 267.29984Q583.075 267.87796 583.075 268.98734Q583.075 270.0811 582.52814 270.67484Q581.9969 271.25296 581.21564 271.25296Q580.4344 271.25296 579.91876 270.67484Q579.40314 270.0967 579.40314 268.92484ZM581.23126 267.44046Q580.84064 267.44046 580.575 267.7842Q580.325 268.12796 580.325 269.0342Q580.325 269.86234 580.575 270.2061Q580.84064 270.5342 581.23126 270.5342Q581.6375 270.5342 581.8875 270.19046Q582.15314 269.8467 582.15314 268.9561Q582.15314 268.11234 581.8875 267.7842Q581.6219 267.44046 581.23126 267.44046ZM581.23126 275.7686L585.9344 266.7217L586.79376 266.7217L582.10626 275.7686L581.23126 275.7686ZM584.95 273.44046Q584.95 272.5186 585.40314 271.87796Q585.8719 271.23734 586.7625 271.23734Q587.575 271.23734 588.10626 271.81546Q588.6375 272.37796 588.6375 273.50296Q588.6375 274.5967 588.09064 275.19046Q587.5594 275.7686 586.7625 275.7686Q585.9969 275.7686 585.46564 275.19046Q584.95 274.61234 584.95 273.44046ZM586.79376 271.9561Q586.3875 271.9561 586.1219 272.29984Q585.8719 272.6436 585.8719 273.54984Q585.8719 274.36234 586.1375 274.7061Q586.40314 275.04984 586.79376 275.04984Q587.1844 275.04984 587.45 274.7061Q587.71564 274.36234 587.71564 273.4561Q587.71564 272.62796 587.45 272.29984Q587.1844 271.9561 586.79376 271.9561Z" fill-rule="nonzero"/><path stroke="#757575" stroke-width="1.0" stroke-linecap="butt" d="M589.7 262.9561L465.76666 262.9561L442.71228 262.9561" fill-rule="nonzero"/><path fill="#9e9e9e" d="M444.71228 262.9561C444.71228 261.85153 443.81686 260.9561 442.71228 260.9561C441.60773 260.9561 440.71228 261.85153 440.71228 262.9561C440.71228 264.06067 441.60773 264.9561 442.71228 264.9561C443.81686 264.9561 444.71228 264.06067 444.71228 262.9561" fill-rule="nonzero"/><path fill="#757575" d="M24.4875 38.3L24.4875 25.675L19.76875 25.675L19.76875 23.9875L31.1125 23.9875L31.1125 25.675L26.378124 25.675L26.378124 38.3L24.4875 38.3ZM32.628124 26.003124L32.628124 23.9875L34.39375 23.9875L34.39375 26.003124L32.628124 26.003124ZM32.628124 38.3L32.628124 27.925L34.39375 27.925L34.39375 38.3L32.628124 38.3ZM36.6125 38.3L36.6125 27.925L38.190624 27.925L38.190624 29.378124Q38.675 28.628124 39.4875 28.159374Q40.3 27.690624 41.33125 27.690624Q42.4875 27.690624 43.221874 28.175Q43.95625 28.64375 44.26875 29.503124Q45.503124 27.690624 47.471874 27.690624Q49.01875 27.690624 49.846874 28.55Q50.675 29.409374 50.675 31.175L50.675 38.3L48.925 38.3L48.925 31.76875Q48.925 30.70625 48.753124 30.253124Q48.58125 29.784374 48.128124 29.503124Q47.690624 29.221874 47.08125 29.221874Q45.9875 29.221874 45.253124 29.95625Q44.534374 30.675 44.534374 32.26875L44.534374 38.3L42.784374 38.3L42.784374 31.565624Q42.784374 30.39375 42.346874 29.815624Q41.925 29.221874 40.940624 29.221874Q40.20625 29.221874 39.565624 29.6125Q38.940624 30.003124 38.659374 30.753124Q38.378124 31.503124 38.378124 32.925L38.378124 38.3L36.6125 38.3ZM59.721874 34.95625L61.534374 35.190624Q61.1125 36.76875 59.940624 37.659374Q58.784374 38.534374 56.971874 38.534374Q54.70625 38.534374 53.3625 37.14375Q52.034374 35.7375 52.034374 33.20625Q52.034374 30.58125 53.378124 29.14375Q54.721874 27.690624 56.878124 27.690624Q58.95625 27.690624 60.26875 29.1125Q61.596874 30.51875 61.596874 33.096874Q61.596874 33.253124 61.58125 33.565624L53.846874 33.565624Q53.940624 35.26875 54.815624 36.175Q55.690624 37.08125 56.9875 37.08125Q57.95625 37.08125 58.628124 36.58125Q59.315624 36.065624 59.721874 34.95625ZM53.940624 32.1125L59.7375 32.1125Q59.628124 30.815624 59.08125 30.159374Q58.2375 29.14375 56.89375 29.14375Q55.690624 29.14375 54.8625 29.95625Q54.034374 30.753124 53.940624 32.1125ZM70.15938 38.3L70.15938 23.9875L72.06563 23.9875L72.06563 38.3L70.15938 38.3ZM75.6125 38.3L75.6125 27.925L77.20625 27.925L77.20625 29.409374Q78.34688 27.690624 80.50313 27.690624Q81.44063 27.690624 82.22188 28.034374Q83.01875 28.3625 83.40938 28.909374Q83.8 29.45625 83.95625 30.20625Q84.05 30.70625 84.05 31.925L84.05 38.3L82.28438 38.3L82.28438 31.9875Q82.28438 30.909374 82.08125 30.378124Q81.87813 29.846874 81.34688 29.534374Q80.83125 29.221874 80.12813 29.221874Q79.00313 29.221874 78.19063 29.940624Q77.37813 30.64375 77.37813 32.628124L77.37813 38.3L75.6125 38.3ZM88.50313 38.3L84.55 27.925L86.40938 27.925L88.64375 34.14375Q89.00313 35.14375 89.3 36.221874Q89.53438 35.409374 89.95625 34.253124L92.25313 27.925L94.06563 27.925L90.14375 38.3L88.50313 38.3ZM101.72188 34.95625L103.53438 35.190624Q103.1125 36.76875 101.94063 37.659374Q100.78438 38.534374 98.97188 38.534374Q96.70625 38.534374 95.3625 37.14375Q94.03438 35.7375 94.03438 33.20625Q94.03438 30.58125 95.37813 29.14375Q96.72188 27.690624 98.87813 27.690624Q100.95625 27.690624 102.26875 29.1125Q103.59688 30.51875 103.59688 33.096874Q103.59688 33.253124 103.58125 33.565624L95.84688 33.565624Q95.94063 35.26875 96.81563 36.175Q97.69063 37.08125 98.9875 37.08125Q99.95625 37.08125 100.62813 36.58125Q101.31563 36.065624 101.72188 34.95625ZM95.94063 32.1125L101.7375 32.1125Q101.62813 30.815624 101.08125 30.159374Q100.2375 29.14375 98.89375 29.14375Q97.69063 29.14375 96.8625 29.95625Q96.03438 30.753124 95.94063 32.1125ZM104.90938 35.20625L106.65938 34.925Q106.8 35.971874 107.47188 36.534374Q108.14375 37.08125 109.34688 37.08125Q110.55 37.08125 111.12813 36.596874Q111.72188 36.096874 111.72188 35.440624Q111.72188 34.846874 111.20625 34.503124Q110.84688 34.26875 109.40938 33.909374Q107.47188 33.409374 106.72188 33.065624Q105.9875 32.70625 105.59688 32.08125Q105.20625 31.440624 105.20625 30.675Q105.20625 29.9875 105.51875 29.39375Q105.84688 28.8 106.39375 28.409374Q106.8 28.1125 107.50313 27.909374Q108.22188 27.690624 109.03438 27.690624Q110.25313 27.690624 111.175 28.05Q112.09688 28.39375 112.53438 29.003124Q112.97188 29.596874 113.14375 30.596874L111.425 30.83125Q111.3 30.034374 110.7375 29.596874Q110.175 29.14375 109.15938 29.14375Q107.94063 29.14375 107.425 29.55Q106.90938 29.940624 106.90938 30.471874Q106.90938 30.815624 107.12813 31.096874Q107.33125 31.378124 107.8 31.565624Q108.06563 31.659374 109.34688 32.003124Q111.22188 32.503124 111.95625 32.83125Q112.69063 33.14375 113.1125 33.753124Q113.53438 34.346874 113.53438 35.253124Q113.53438 36.128124 113.01875 36.909374Q112.50313 37.690624 111.53438 38.1125Q110.56563 38.534374 109.34688 38.534374Q107.33125 38.534374 106.26875 37.690624Q105.20625 36.846874 104.90938 35.20625ZM119.45625 36.721874L119.70625 38.284374Q118.97188 38.440624 118.37813 38.440624Q117.425 38.440624 116.89375 38.14375Q116.37813 37.83125 116.15938 37.346874Q115.94063 36.846874 115.94063 35.26875L115.94063 29.3L114.65938 29.3L114.65938 27.925L115.94063 27.925L115.94063 25.3625L117.69063 24.3L117.69063 27.925L119.45625 27.925L119.45625 29.3L117.69063 29.3L117.69063 35.3625Q117.69063 36.1125 117.78438 36.33125Q117.87813 36.534374 118.08125 36.675Q118.3 36.8 118.69063 36.8Q118.97188 36.8 119.45625 36.721874ZM128.72188 34.95625L130.53438 35.190624Q130.1125 36.76875 128.94063 37.659374Q127.78438 38.534374 125.97188 38.534374Q123.70625 38.534374 122.3625 37.14375Q121.03438 35.7375 121.03438 33.20625Q121.03438 30.58125 122.37813 29.14375Q123.72188 27.690624 125.87813 27.690624Q127.95625 27.690624 129.26875 29.1125Q130.59688 30.51875 130.59688 33.096874Q130.59688 33.253124 130.58125 33.565624L122.84688 33.565624Q122.94063 35.26875 123.81563 36.175Q124.69063 37.08125 125.9875 37.08125Q126.95625 37.08125 127.62813 36.58125Q128.31563 36.065624 128.72188 34.95625ZM122.94063 32.1125L128.7375 32.1125Q128.62813 30.815624 128.08125 30.159374Q127.2375 29.14375 125.89375 29.14375Q124.69063 29.14375 123.8625 29.95625Q123.03438 30.753124 122.94063 32.1125ZM139.34688 38.3L139.34688 36.9875Q138.3625 38.534374 136.44063 38.534374Q135.20625 38.534374 134.15938 37.846874Q133.12813 37.159374 132.55 35.940624Q131.9875 34.721874 131.9875 33.128124Q131.9875 31.565624 132.50313 30.3Q133.01875 29.034374 134.05 28.3625Q135.09688 27.690624 136.3625 27.690624Q137.3 27.690624 138.03438 28.096874Q138.76875 28.4875 139.2375 29.1125L139.2375 23.9875L140.97188 23.9875L140.97188 38.3L139.34688 38.3ZM133.78438 33.128124Q133.78438 35.1125 134.62813 36.096874Q135.47188 37.08125 136.6125 37.08125Q137.76875 37.08125 138.56563 36.14375Q139.37813 35.20625 139.37813 33.26875Q139.37813 31.14375 138.55 30.14375Q137.7375 29.14375 136.53438 29.14375Q135.3625 29.14375 134.56563 30.1125Q133.78438 31.065624 133.78438 33.128124ZM149.6125 42.26875L149.6125 27.925L151.22188 27.925L151.22188 29.26875Q151.78438 28.4875 152.4875 28.096874Q153.20625 27.690624 154.22188 27.690624Q155.55 27.690624 156.56563 28.378124Q157.58125 29.065624 158.09688 30.315624Q158.62813 31.55 158.62813 33.034374Q158.62813 34.628124 158.05 35.909374Q157.4875 37.175 156.39375 37.8625Q155.3 38.534374 154.09688 38.534374Q153.22188 38.534374 152.51875 38.159374Q151.83125 37.784374 151.37813 37.221874L151.37813 42.26875L149.6125 42.26875ZM151.20625 33.175Q151.20625 35.175 152.01875 36.128124Q152.83125 37.08125 153.9875 37.08125Q155.15938 37.08125 155.9875 36.096874Q156.83125 35.1125 156.83125 33.01875Q156.83125 31.05 156.00313 30.065624Q155.19063 29.065624 154.06563 29.065624Q152.94063 29.065624 152.06563 30.128124Q151.20625 31.175 151.20625 33.175ZM167.72188 34.95625L169.53438 35.190624Q169.1125 36.76875 167.94063 37.659374Q166.78438 38.534374 164.97188 38.534374Q162.70625 38.534374 161.3625 37.14375Q160.03438 35.7375 160.03438 33.20625Q160.03438 30.58125 161.37813 29.14375Q162.72188 27.690624 164.87813 27.690624Q166.95625 27.690624 168.26875 29.1125Q169.59688 30.51875 169.59688 33.096874Q169.59688 33.253124 169.58125 33.565624L161.84688 33.565624Q161.94063 35.26875 162.81563 36.175Q163.69063 37.08125 164.9875 37.08125Q165.95625 37.08125 166.62813 36.58125Q167.31563 36.065624 167.72188 34.95625ZM161.94063 32.1125L167.7375 32.1125Q167.62813 30.815624 167.08125 30.159374Q166.2375 29.14375 164.89375 29.14375Q163.69063 29.14375 162.8625 29.95625Q162.03438 30.753124 161.94063 32.1125ZM171.59688 38.3L171.59688 27.925L173.175 27.925L173.175 29.503124Q173.78438 28.39375 174.3 28.05Q174.81563 27.690624 175.425 27.690624Q176.31563 27.690624 177.2375 28.253124L176.62813 29.89375Q175.9875 29.503124 175.34688 29.503124Q174.76875 29.503124 174.3 29.8625Q173.84688 30.20625 173.64375 30.815624Q173.3625 31.753124 173.3625 32.8625L173.3625 38.3L171.59688 38.3ZM195.06563 33.284374L196.95625 33.753124Q196.3625 36.096874 194.81563 37.33125Q193.26875 38.55 191.01875 38.55Q188.70625 38.55 187.25313 37.6125Q185.81563 36.659374 185.05 34.878124Q184.3 33.08125 184.3 31.034374Q184.3 28.8 185.14375 27.14375Q186.00313 25.471874 187.58125 24.6125Q189.15938 23.7375 191.05 23.7375Q193.20625 23.7375 194.65938 24.83125Q196.12813 25.925 196.70625 27.909374L194.84688 28.346874Q194.34688 26.784374 193.39375 26.08125Q192.45625 25.3625 191.01875 25.3625Q189.3625 25.3625 188.25313 26.159374Q187.14375 26.940624 186.69063 28.284374Q186.25313 29.6125 186.25313 31.01875Q186.25313 32.846874 186.78438 34.221874Q187.31563 35.58125 188.44063 36.253124Q189.56563 36.925 190.8625 36.925Q192.45625 36.925 193.56563 36.003124Q194.675 35.08125 195.06563 33.284374ZM205.39375 37.01875Q204.40938 37.846874 203.50313 38.190624Q202.59688 38.534374 201.56563 38.534374Q199.8625 38.534374 198.94063 37.70625Q198.01875 36.8625 198.01875 35.565624Q198.01875 34.8 198.3625 34.175Q198.72188 33.55 199.28438 33.175Q199.84688 32.784374 200.55 32.58125Q201.06563 32.45625 202.1125 32.315624Q204.2375 32.065624 205.2375 31.721874Q205.25313 31.3625 205.25313 31.253124Q205.25313 30.190624 204.75313 29.7375Q204.08125 29.14375 202.75313 29.14375Q201.50313 29.14375 200.90938 29.58125Q200.33125 30.01875 200.05 31.128124L198.33125 30.89375Q198.56563 29.784374 199.09688 29.1125Q199.62813 28.425 200.64375 28.065624Q201.65938 27.690624 203.00313 27.690624Q204.33125 27.690624 205.15938 28.003124Q205.9875 28.315624 206.37813 28.8Q206.76875 29.26875 206.925 29.9875Q207.01875 30.440624 207.01875 31.6125L207.01875 33.95625Q207.01875 36.409374 207.12813 37.065624Q207.2375 37.70625 207.58125 38.3L205.7375 38.3Q205.47188 37.753124 205.39375 37.01875ZM205.2375 33.096874Q204.28438 33.4875 202.3625 33.753124Q201.28438 33.909374 200.83125 34.1125Q200.39375 34.3 200.14375 34.675Q199.89375 35.05 199.89375 35.51875Q199.89375 36.221874 200.425 36.690624Q200.95625 37.159374 201.9875 37.159374Q203.00313 37.159374 203.78438 36.721874Q204.58125 36.26875 204.95625 35.503124Q205.2375 34.89375 205.2375 33.7375L205.2375 33.096874ZM213.45625 36.721874L213.70625 38.284374Q212.97188 38.440624 212.37813 38.440624Q211.425 38.440624 210.89375 38.14375Q210.37813 37.83125 210.15938 37.346874Q209.94063 36.846874 209.94063 35.26875L209.94063 29.3L208.65938 29.3L208.65938 27.925L209.94063 27.925L209.94063 25.3625L211.69063 24.3L211.69063 27.925L213.45625 27.925L213.45625 29.3L211.69063 29.3L211.69063 35.3625Q211.69063 36.1125 211.78438 36.33125Q211.87813 36.534374 212.08125 36.675Q212.3 36.8 212.69063 36.8Q212.97188 36.8 213.45625 36.721874ZM222.72188 34.95625L224.53438 35.190624Q224.1125 36.76875 222.94063 37.659374Q221.78438 38.534374 219.97188 38.534374Q217.70625 38.534374 216.3625 37.14375Q215.03438 35.7375 215.03438 33.20625Q215.03438 30.58125 216.37813 29.14375Q217.72188 27.690624 219.87813 27.690624Q221.95625 27.690624 223.26875 29.1125Q224.59688 30.51875 224.59688 33.096874Q224.59688 33.253124 224.58125 33.565624L216.84688 33.565624Q216.94063 35.26875 217.81563 36.175Q218.69063 37.08125 219.9875 37.08125Q220.95625 37.08125 221.62813 36.58125Q222.31563 36.065624 222.72188 34.95625ZM216.94063 32.1125L222.7375 32.1125Q222.62813 30.815624 222.08125 30.159374Q221.2375 29.14375 219.89375 29.14375Q218.69063 29.14375 217.8625 29.95625Q217.03438 30.753124 216.94063 32.1125ZM226.3 39.159374L228.00313 39.409374Q228.1125 40.20625 228.59688 40.565624Q229.25313 41.05 230.39375 41.05Q231.6125 41.05 232.26875 40.565624Q232.94063 40.08125 233.175 39.20625Q233.31563 38.659374 233.3 36.940624Q232.14375 38.3 230.425 38.3Q228.28438 38.3 227.1125 36.753124Q225.94063 35.20625 225.94063 33.05Q225.94063 31.565624 226.47188 30.315624Q227.01875 29.065624 228.03438 28.378124Q229.06563 27.690624 230.44063 27.690624Q232.26875 27.690624 233.47188 29.175L233.47188 27.925L235.08125 27.925L235.08125 36.89375Q235.08125 39.315624 234.58125 40.315624Q234.09688 41.33125 233.01875 41.909374Q231.95625 42.503124 230.39375 42.503124Q228.55 42.503124 227.39375 41.675Q226.25313 40.846874 226.3 39.159374ZM227.75313 32.925Q227.75313 34.971874 228.56563 35.909374Q229.37813 36.846874 230.59688 36.846874Q231.8 36.846874 232.6125 35.909374Q233.44063 34.971874 233.44063 32.9875Q233.44063 31.08125 232.59688 30.1125Q231.75313 29.14375 230.56563 29.14375Q229.39375 29.14375 228.56563 30.096874Q227.75313 31.05 227.75313 32.925ZM236.97188 33.1125Q236.97188 30.2375 238.56563 28.846874Q239.90938 27.690624 241.83125 27.690624Q243.97188 27.690624 245.31563 29.096874Q246.675 30.503124 246.675 32.971874Q246.675 34.971874 246.08125 36.128124Q245.4875 37.26875 244.33125 37.909374Q243.19063 38.534374 241.83125 38.534374Q239.64375 38.534374 238.3 37.14375Q236.97188 35.7375 236.97188 33.1125ZM238.76875 33.1125Q238.76875 35.1125 239.62813 36.096874Q240.50313 37.08125 241.83125 37.08125Q243.14375 37.08125 244.00313 36.096874Q244.87813 35.096874 244.87813 33.05Q244.87813 31.128124 244.00313 30.14375Q243.12813 29.14375 241.83125 29.14375Q240.50313 29.14375 239.62813 30.14375Q238.76875 31.128124 238.76875 33.1125ZM248.59688 38.3L248.59688 27.925L250.175 27.925L250.175 29.503124Q250.78438 28.39375 251.3 28.05Q251.81563 27.690624 252.425 27.690624Q253.31563 27.690624 254.2375 28.253124L253.62813 29.89375Q252.9875 29.503124 252.34688 29.503124Q251.76875 29.503124 251.3 29.8625Q250.84688 30.20625 250.64375 30.815624Q250.3625 31.753124 250.3625 32.8625L250.3625 38.3L248.59688 38.3ZM255.53438 42.3L255.34688 40.64375Q255.925 40.8 256.34686 40.8Q256.9406 40.8 257.28436 40.596874Q257.64374 40.409374 257.8625 40.065624Q258.03436 39.8 258.40936 38.753124Q258.45624 38.596874 258.5656 38.315624L254.62813 27.925L256.51874 27.925L258.675 33.940624Q259.09686 35.08125 259.425 36.33125Q259.7375 35.128124 260.14374 33.971874L262.3625 27.925L264.1281 27.925L260.175 38.471874Q259.55 40.190624 259.1906 40.83125Q258.72186 41.70625 258.1125 42.096874Q257.51874 42.503124 256.675 42.503124Q256.15936 42.503124 255.53438 42.3Z" fill-rule="nonzero"/></svg>