<svg version="1.1" viewBox="0.0 0.0 609.0 386.0" fill="none" stroke="none" stroke-linecap="square" stroke-miterlimit="10" width="609" height="386" xmlns:xlink="http://www.w3.org/1999/xlink" xmlns="http://www.w3.org/2000/svg"><path fill="#ffffff" d="M0 0L609.0 0L609.0 386.0L0 386.0L0 0Z" fill-rule="nonzero"/><path fill="#4285f4" d="M304.5 56.166668C390.2514 56.166668 459.76666 125.68192 459.76666 211.43333C459.76666 297.18475 390.2514 366.7 304.5 366.7L304.5 289.06668C347.3757 289.06668 382.13333 254.30904 382.13333 211.43333C382.13333 168.55763 347.3757 133.8 304.5 133.8Z" fill-rule="nonzero"/><path fill="#ea4335" d="M304.5 366.7C249.02856 366.7 197.77084 337.10635 170.03513 289.06668C142.29941 241.027 142.29941 181.83968 170.03513 133.8C197.77084 85.76032 249.02856 56.166668 304.5 56.166668L304.5 133.8C276.76428 133.8 251.13542 148.59683 237.26756 172.61667C223.3997 196.6365 223.3997 226.23016 237.26756 250.25C251.13542 274.26984 276.76428 289.06668 304.5 289.06668Z" fill-rule="nonzero"/><path fill="#000000" d="M405.9969 215.24583L405.9969 216.43333L399.3719 216.43333Q399.35626 215.99583 399.5125 215.57396Q399.77814 214.90208 400.325 214.24583Q400.8875 213.58958 401.9344 212.73021Q403.575 211.38646 404.1375 210.60521Q404.71564 209.82396 404.71564 209.12083Q404.71564 208.38646 404.1844 207.88646Q403.66876 207.38646 402.84064 207.38646Q401.95 207.38646 401.40314 207.91771Q400.8719 208.44896 400.8719 209.40208L399.60626 209.26146Q399.73126 207.85521 400.575 207.12083Q401.4344 206.37083 402.85626 206.37083Q404.3094 206.37083 405.1375 207.16771Q405.98126 207.96458 405.98126 209.15208Q405.98126 209.76146 405.73126 210.33958Q405.4969 210.91771 404.91876 211.55833Q404.35626 212.19896 403.02814 213.32396Q401.91876 214.24583 401.60626 214.58958Q401.29376 214.91771 401.09064 215.24583L405.9969 215.24583ZM413.9969 215.24583L413.9969 216.43333L407.3719 216.43333Q407.35626 215.99583 407.5125 215.57396Q407.77814 214.90208 408.325 214.24583Q408.8875 213.58958 409.9344 212.73021Q411.575 211.38646 412.1375 210.60521Q412.71564 209.82396 412.71564 209.12083Q412.71564 208.38646 412.1844 207.88646Q411.66876 207.38646 410.84064 207.38646Q409.95 207.38646 409.40314 207.91771Q408.8719 208.44896 408.8719 209.40208L407.60626 209.26146Q407.73126 207.85521 408.575 207.12083Q409.4344 206.37083 410.85626 206.37083Q412.3094 206.37083 413.1375 207.16771Q413.98126 207.96458 413.98126 209.15208Q413.98126 209.76146 413.73126 210.33958Q413.4969 210.91771 412.91876 211.55833Q412.35626 212.19896 411.02814 213.32396Q409.91876 214.24583 409.60626 214.58958Q409.29376 214.91771 409.09064 215.24583L413.9969 215.24583ZM415.54376 213.79271L416.7625 213.62083Q416.98126 214.66771 417.48126 215.13646Q417.9969 215.58958 418.73126 215.58958Q419.60626 215.58958 420.2 214.99583Q420.79376 214.38646 420.79376 213.49583Q420.79376 212.65208 420.23126 212.10521Q419.6844 211.55833 418.84064 211.55833Q418.48126 211.55833 417.96564 211.68333L418.10626 210.60521Q418.23126 210.62083 418.29376 210.62083Q419.09064 210.62083 419.71564 210.21458Q420.34064 209.80833 420.34064 208.94896Q420.34064 208.27708 419.8875 207.83958Q419.4344 207.38646 418.7 207.38646Q417.98126 207.38646 417.4969 207.83958Q417.02814 208.27708 416.8875 209.18333L415.66876 208.96458Q415.8875 207.73021 416.6844 207.05833Q417.48126 206.37083 418.66876 206.37083Q419.4969 206.37083 420.1844 206.73021Q420.8719 207.07396 421.23126 207.68333Q421.60626 208.29271 421.60626 208.98021Q421.60626 209.62083 421.2625 210.15208Q420.91876 210.68333 420.23126 211.01146Q421.1219 211.21458 421.60626 211.85521Q422.10626 212.49583 422.10626 213.48021Q422.10626 214.79271 421.1375 215.69896Q420.1844 216.60521 418.73126 216.60521Q417.40314 216.60521 416.52814 215.82396Q415.66876 215.04271 415.54376 213.79271ZM424.21564 216.43333L424.21564 215.02708L425.6219 215.02708L425.6219 216.43333L424.21564 216.43333ZM429.41876 210.99583Q428.65314 210.71458 428.27814 210.19896Q427.91876 209.68333 427.91876 208.94896Q427.91876 207.85521 428.7 207.12083Q429.4969 206.37083 430.79376 206.37083Q432.10626 206.37083 432.90314 207.13646Q433.71564 207.90208 433.71564 208.99583Q433.71564 209.68333 433.34064 210.19896Q432.98126 210.71458 432.23126 210.99583Q433.15314 211.29271 433.6375 211.96458Q434.1219 212.63646 434.1219 213.57396Q434.1219 214.85521 433.21564 215.73021Q432.3094 216.60521 430.825 216.60521Q429.34064 216.60521 428.41876 215.73021Q427.5125 214.83958 427.5125 213.52708Q427.5125 212.55833 428.0125 211.90208Q428.5125 211.23021 429.41876 210.99583ZM429.1844 208.91771Q429.1844 209.62083 429.6375 210.07396Q430.09064 210.52708 430.825 210.52708Q431.54376 210.52708 431.9969 210.08958Q432.45 209.63646 432.45 208.98021Q432.45 208.30833 431.98126 207.85521Q431.5125 207.38646 430.8094 207.38646Q430.10626 207.38646 429.6375 207.83958Q429.1844 208.27708 429.1844 208.91771ZM428.77814 213.54271Q428.77814 214.07396 429.02814 214.57396Q429.27814 215.05833 429.7625 215.32396Q430.2625 215.58958 430.84064 215.58958Q431.71564 215.58958 432.27814 215.02708Q432.85626 214.46458 432.85626 213.58958Q432.85626 212.69896 432.2625 212.12083Q431.6844 211.52708 430.79376 211.52708Q429.91876 211.52708 429.34064 212.10521Q428.77814 212.68333 428.77814 213.54271ZM435.8719 216.43333L435.8719 206.41771L437.10626 206.41771L437.10626 210.01146Q437.96564 209.01146 439.27814 209.01146Q440.09064 209.01146 440.6844 209.33958Q441.27814 209.65208 441.52814 210.21458Q441.79376 210.76146 441.79376 211.83958L441.79376 216.43333L440.5594 216.43333L440.5594 211.83958Q440.5594 210.90208 440.15314 210.49583Q439.7625 210.07396 439.02814 210.07396Q438.48126 210.07396 437.9969 210.35521Q437.5125 210.63646 437.3094 211.12083Q437.10626 211.60521 437.10626 212.46458L437.10626 216.43333L435.8719 216.43333Z" fill-rule="nonzero"/><path fill="#000000" d="M173.09688 215.24583L173.09688 216.43333L166.47188 216.43333Q166.45625 215.99583 166.6125 215.57396Q166.87813 214.90208 167.425 214.24583Q167.9875 213.58958 169.03438 212.73021Q170.675 211.38646 171.2375 210.60521Q171.81563 209.82396 171.81563 209.12083Q171.81563 208.38646 171.28438 207.88646Q170.76875 207.38646 169.94063 207.38646Q169.05 207.38646 168.50313 207.91771Q167.97188 208.44896 167.97188 209.40208L166.70625 209.26146Q166.83125 207.85521 167.675 207.12083Q168.53438 206.37083 169.95625 206.37083Q171.40938 206.37083 172.2375 207.16771Q173.08125 207.96458 173.08125 209.15208Q173.08125 209.76146 172.83125 210.33958Q172.59688 210.91771 172.01875 211.55833Q171.45625 212.19896 170.12813 213.32396Q169.01875 214.24583 168.70625 214.58958Q168.39375 214.91771 168.19063 215.24583L173.09688 215.24583ZM181.09688 215.24583L181.09688 216.43333L174.47188 216.43333Q174.45625 215.99583 174.6125 215.57396Q174.87813 214.90208 175.425 214.24583Q175.9875 213.58958 177.03438 212.73021Q178.675 211.38646 179.2375 210.60521Q179.81563 209.82396 179.81563 209.12083Q179.81563 208.38646 179.28438 207.88646Q178.76875 207.38646 177.94063 207.38646Q177.05 207.38646 176.50313 207.91771Q175.97188 208.44896 175.97188 209.40208L174.70625 209.26146Q174.83125 207.85521 175.675 207.12083Q176.53438 206.37083 177.95625 206.37083Q179.40938 206.37083 180.2375 207.16771Q181.08125 207.96458 181.08125 209.15208Q181.08125 209.76146 180.83125 210.33958Q180.59688 210.91771 180.01875 211.55833Q179.45625 212.19896 178.12813 213.32396Q177.01875 214.24583 176.70625 214.58958Q176.39375 214.91771 176.19063 215.24583L181.09688 215.24583ZM182.64375 213.79271L183.8625 213.62083Q184.08125 214.66771 184.58125 215.13646Q185.09688 215.58958 185.83125 215.58958Q186.70625 215.58958 187.3 214.99583Q187.89375 214.38646 187.89375 213.49583Q187.89375 212.65208 187.33125 212.10521Q186.78438 211.55833 185.94063 211.55833Q185.58125 211.55833 185.06563 211.68333L185.20625 210.60521Q185.33125 210.62083 185.39375 210.62083Q186.19063 210.62083 186.81563 210.21458Q187.44063 209.80833 187.44063 208.94896Q187.44063 208.27708 186.9875 207.83958Q186.53438 207.38646 185.8 207.38646Q185.08125 207.38646 184.59688 207.83958Q184.12813 208.27708 183.9875 209.18333L182.76875 208.96458Q182.9875 207.73021 183.78438 207.05833Q184.58125 206.37083 185.76875 206.37083Q186.59688 206.37083 187.28438 206.73021Q187.97188 207.07396 188.33125 207.68333Q188.70625 208.29271 188.70625 208.98021Q188.70625 209.62083 188.3625 210.15208Q188.01875 210.68333 187.33125 211.01146Q188.22188 211.21458 188.70625 211.85521Q189.20625 212.49583 189.20625 213.48021Q189.20625 214.79271 188.2375 215.69896Q187.28438 216.60521 185.83125 216.60521Q184.50313 216.60521 183.62813 215.82396Q182.76875 215.04271 182.64375 213.79271ZM191.31563 216.43333L191.31563 215.02708L192.72188 215.02708L192.72188 216.43333L191.31563 216.43333ZM196.51875 210.99583Q195.75313 210.71458 195.37813 210.19896Q195.01875 209.68333 195.01875 208.94896Q195.01875 207.85521 195.8 207.12083Q196.59688 206.37083 197.89375 206.37083Q199.20625 206.37083 200.00313 207.13646Q200.81563 207.90208 200.81563 208.99583Q200.81563 209.68333 200.44063 210.19896Q200.08125 210.71458 199.33125 210.99583Q200.25313 211.29271 200.7375 211.96458Q201.22188 212.63646 201.22188 213.57396Q201.22188 214.85521 200.31563 215.73021Q199.40938 216.60521 197.925 216.60521Q196.44063 216.60521 195.51875 215.73021Q194.6125 214.83958 194.6125 213.52708Q194.6125 212.55833 195.1125 211.90208Q195.6125 211.23021 196.51875 210.99583ZM196.28438 208.91771Q196.28438 209.62083 196.7375 210.07396Q197.19063 210.52708 197.925 210.52708Q198.64375 210.52708 199.09688 210.08958Q199.55 209.63646 199.55 208.98021Q199.55 208.30833 199.08125 207.85521Q198.6125 207.38646 197.90938 207.38646Q197.20625 207.38646 196.7375 207.83958Q196.28438 208.27708 196.28438 208.91771ZM195.87813 213.54271Q195.87813 214.07396 196.12813 214.57396Q196.37813 215.05833 196.8625 215.32396Q197.3625 215.58958 197.94063 215.58958Q198.81563 215.58958 199.37813 215.02708Q199.95625 214.46458 199.95625 213.58958Q199.95625 212.69896 199.3625 212.12083Q198.78438 211.52708 197.89375 211.52708Q197.01875 211.52708 196.44063 212.10521Q195.87813 212.68333 195.87813 213.54271ZM202.97188 216.43333L202.97188 206.41771L204.20625 206.41771L204.20625 210.01146Q205.06563 209.01146 206.37813 209.01146Q207.19063 209.01146 207.78438 209.33958Q208.37813 209.65208 208.62813 210.21458Q208.89375 210.76146 208.89375 211.83958L208.89375 216.43333L207.65938 216.43333L207.65938 211.83958Q207.65938 210.90208 207.25313 210.49583Q206.8625 210.07396 206.12813 210.07396Q205.58125 210.07396 205.09688 210.35521Q204.6125 210.63646 204.40938 211.12083Q204.20625 211.60521 204.20625 212.46458L204.20625 216.43333L202.97188 216.43333Z" fill-rule="nonzero"/><path fill="#1a1a1a" d="M22.675 206.93333L19.346874 198.33958L20.58125 198.33958L22.815624 204.58958Q23.08125 205.33958 23.26875 205.99583Q23.471874 205.29271 23.7375 204.58958L26.05 198.33958L27.20625 198.33958L23.846874 206.93333L22.675 206.93333ZM27.096874 199.55833L27.096874 198.33958L28.159374 198.33958L28.159374 199.55833L27.096874 199.55833ZM27.096874 206.93333L27.096874 200.71458L28.159374 200.71458L28.159374 206.93333L27.096874 206.93333ZM30.096874 206.93333L30.096874 200.71458L31.034374 200.71458L31.034374 201.58958Q31.721874 200.57396 33.01875 200.57396Q33.58125 200.57396 34.05 200.77708Q34.534374 200.98021 34.76875 201.30833Q35.003124 201.63646 35.096874 202.07396Q35.14375 202.37083 35.14375 203.10521L35.14375 206.93333L34.096874 206.93333L34.096874 203.15208Q34.096874 202.49583 33.971874 202.18333Q33.846874 201.87083 33.534374 201.68333Q33.221874 201.48021 32.8 201.48021Q32.128124 201.48021 31.628124 201.91771Q31.14375 202.33958 31.14375 203.52708L31.14375 206.93333L30.096874 206.93333ZM41.159374 206.16771Q40.565624 206.66771 40.01875 206.87083Q39.4875 207.07396 38.8625 207.07396Q37.83125 207.07396 37.284374 206.57396Q36.7375 206.07396 36.7375 205.29271Q36.7375 204.83958 36.940624 204.46458Q37.14375 204.07396 37.4875 203.85521Q37.83125 203.62083 38.253124 203.51146Q38.55 203.41771 39.190624 203.33958Q40.45625 203.19896 41.065624 202.98021Q41.065624 202.76146 41.065624 202.71458Q41.065624 202.05833 40.76875 201.79271Q40.3625 201.44896 39.565624 201.44896Q38.83125 201.44896 38.471874 201.71458Q38.1125 201.96458 37.940624 202.62083L36.909374 202.48021Q37.05 201.82396 37.378124 201.41771Q37.70625 201.01146 38.315624 200.79271Q38.925 200.57396 39.721874 200.57396Q40.51875 200.57396 41.01875 200.76146Q41.51875 200.94896 41.753124 201.23021Q41.9875 201.51146 42.08125 201.94896Q42.128124 202.21458 42.128124 202.91771L42.128124 204.32396Q42.128124 205.79271 42.190624 206.18333Q42.26875 206.57396 42.471874 206.93333L41.3625 206.93333Q41.20625 206.60521 41.159374 206.16771ZM41.065624 203.80833Q40.4875 204.04271 39.346874 204.21458Q38.690624 204.30833 38.425 204.43333Q38.159374 204.54271 38.003124 204.76146Q37.8625 204.98021 37.8625 205.26146Q37.8625 205.68333 38.175 205.96458Q38.503124 206.24583 39.1125 206.24583Q39.721874 206.24583 40.190624 205.98021Q40.675 205.71458 40.89375 205.24583Q41.065624 204.88646 41.065624 204.19896L41.065624 203.80833Z" fill-rule="nonzero"/><path fill="#9e9e9e" d="M19.8 221.68333L20.909374 221.58958Q21.034374 222.40208 21.471874 222.80833Q21.925 223.21458 22.565624 223.21458Q23.315624 223.21458 23.846874 222.63646Q24.378124 222.05833 24.378124 221.12083Q24.378124 220.21458 23.8625 219.69896Q23.3625 219.16771 22.534374 219.16771Q22.034374 219.16771 21.6125 219.40208Q21.20625 219.63646 20.971874 219.99583L19.9875 219.87083L20.815624 215.46458L25.096874 215.46458L25.096874 216.46458L21.659374 216.46458L21.20625 218.77708Q21.971874 218.23021 22.815624 218.23021Q23.940624 218.23021 24.70625 219.01146Q25.4875 219.79271 25.4875 221.02708Q25.4875 222.18333 24.815624 223.04271Q23.9875 224.07396 22.565624 224.07396Q21.39375 224.07396 20.64375 223.41771Q19.909374 222.76146 19.8 221.68333ZM26.8 219.69896Q26.8 218.16771 27.1125 217.24583Q27.425 216.30833 28.034374 215.80833Q28.659374 215.30833 29.596874 215.30833Q30.284374 215.30833 30.8 215.58958Q31.33125 215.87083 31.675 216.40208Q32.01875 216.91771 32.20625 217.66771Q32.39375 218.41771 32.39375 219.69896Q32.39375 221.21458 32.08125 222.13646Q31.784374 223.05833 31.159374 223.57396Q30.55 224.07396 29.596874 224.07396Q28.3625 224.07396 27.64375 223.18333Q26.8 222.12083 26.8 219.69896ZM27.878124 219.69896Q27.878124 221.80833 28.378124 222.51146Q28.878124 223.21458 29.596874 223.21458Q30.33125 223.21458 30.815624 222.51146Q31.315624 221.80833 31.315624 219.69896Q31.315624 217.57396 30.815624 216.88646Q30.33125 216.18333 29.58125 216.18333Q28.8625 216.18333 28.425 216.79271Q27.878124 217.57396 27.878124 219.69896ZM34.39375 223.93333L34.39375 222.73021L35.596874 222.73021L35.596874 223.93333L34.39375 223.93333ZM36.8 219.69896Q36.8 218.16771 37.1125 217.24583Q37.425 216.30833 38.034374 215.80833Q38.659374 215.30833 39.596874 215.30833Q40.284374 215.30833 40.8 215.58958Q41.33125 215.87083 41.675 216.40208Q42.01875 216.91771 42.20625 217.66771Q42.39375 218.41771 42.39375 219.69896Q42.39375 221.21458 42.08125 222.13646Q41.784374 223.05833 41.159374 223.57396Q40.55 224.07396 39.596874 224.07396Q38.3625 224.07396 37.64375 223.18333Q36.8 222.12083 36.8 219.69896ZM37.878124 219.69896Q37.878124 221.80833 38.378124 222.51146Q38.878124 223.21458 39.596874 223.21458Q40.33125 223.21458 40.815624 222.51146Q41.315624 221.80833 41.315624 219.69896Q41.315624 217.57396 40.815624 216.88646Q40.33125 216.18333 39.58125 216.18333Q38.8625 216.18333 38.425 216.79271Q37.878124 217.57396 37.878124 219.69896ZM44.003124 217.40208Q44.003124 216.48021 44.45625 215.83958Q44.925 215.19896 45.8 215.19896Q46.6125 215.19896 47.14375 215.77708Q47.675 216.35521 47.675 217.46458Q47.675 218.55833 47.128124 219.15208Q46.596874 219.73021 45.815624 219.73021Q45.034374 219.73021 44.51875 219.15208Q44.003124 218.57396 44.003124 217.40208ZM45.83125 215.91771Q45.440624 215.91771 45.175 216.26146Q44.925 216.60521 44.925 217.51146Q44.925 218.33958 45.175 218.68333Q45.440624 219.01146 45.83125 219.01146Q46.2375 219.01146 46.4875 218.66771Q46.753124 218.32396 46.753124 217.43333Q46.753124 216.58958 46.4875 216.26146Q46.221874 215.91771 45.83125 215.91771ZM45.83125 224.24583L50.534374 215.19896L51.39375 215.19896L46.70625 224.24583L45.83125 224.24583ZM49.55 221.91771Q49.55 220.99583 50.003124 220.35521Q50.471874 219.71458 51.3625 219.71458Q52.175 219.71458 52.70625 220.29271Q53.2375 220.85521 53.2375 221.98021Q53.2375 223.07396 52.690624 223.66771Q52.159374 224.24583 51.3625 224.24583Q50.596874 224.24583 50.065624 223.66771Q49.55 223.08958 49.55 221.91771ZM51.39375 220.43333Q50.9875 220.43333 50.721874 220.77708Q50.471874 221.12083 50.471874 222.02708Q50.471874 222.83958 50.7375 223.18333Q51.003124 223.52708 51.39375 223.52708Q51.784374 223.52708 52.05 223.18333Q52.315624 222.83958 52.315624 221.93333Q52.315624 221.10521 52.05 220.77708Q51.784374 220.43333 51.39375 220.43333Z" fill-rule="nonzero"/><path stroke="#757575" stroke-width="1.0" stroke-linecap="butt" d="M19.3 211.43333L143.23334 211.43333L156.99667 211.43333" fill-rule="nonzero"/><path fill="#9e9e9e" d="M158.99667 211.43333C158.99667 210.32877 158.10124 209.43333 156.99667 209.43333C155.89209 209.43333 154.99667 210.32877 154.99667 211.43333C154.99667 212.5379 155.89209 213.43333 156.99667 213.43333C158.10124 213.43333 158.99667 212.5379 158.99667 211.43333" fill-rule="nonzero"/><path fill="#1a1a1a" d="M550.04376 204.49583L551.075 204.35521Q551.10626 205.33958 551.4344 205.69896Q551.7625 206.05833 552.35626 206.05833Q552.77814 206.05833 553.09064 205.87083Q553.40314 205.66771 553.5125 205.33958Q553.6375 204.99583 553.6375 204.26146L553.6375 198.33958L554.7625 198.33958L554.7625 204.19896Q554.7625 205.27708 554.4969 205.87083Q554.2469 206.46458 553.6844 206.77708Q553.1219 207.07396 552.35626 207.07396Q551.23126 207.07396 550.6219 206.43333Q550.02814 205.77708 550.04376 204.49583ZM560.7469 204.93333L561.84064 205.05833Q561.59064 206.01146 560.8875 206.54271Q560.1844 207.07396 559.10626 207.07396Q557.7469 207.07396 556.9344 206.23021Q556.1375 205.38646 556.1375 203.87083Q556.1375 202.30833 556.95 201.44896Q557.7625 200.57396 559.04376 200.57396Q560.29376 200.57396 561.075 201.41771Q561.8719 202.26146 561.8719 203.80833Q561.8719 203.90208 561.8719 204.08958L557.23126 204.08958Q557.29376 205.12083 557.8094 205.66771Q558.325 206.19896 559.10626 206.19896Q559.6844 206.19896 560.09064 205.90208Q560.5125 205.58958 560.7469 204.93333ZM557.29376 203.23021L560.7625 203.23021Q560.7 202.43333 560.3719 202.04271Q559.85626 201.43333 559.0594 201.43333Q558.325 201.43333 557.825 201.91771Q557.34064 202.40208 557.29376 203.23021ZM563.48126 206.93333L563.48126 200.71458L564.4344 200.71458L564.4344 201.65208Q564.79376 200.99583 565.09064 200.79271Q565.40314 200.57396 565.77814 200.57396Q566.3094 200.57396 566.85626 200.90208L566.4969 201.88646Q566.10626 201.65208 565.73126 201.65208Q565.3719 201.65208 565.09064 201.87083Q564.825 202.07396 564.71564 202.44896Q564.52814 203.01146 564.52814 203.66771L564.52814 206.93333L563.48126 206.93333ZM571.7469 204.93333L572.84064 205.05833Q572.59064 206.01146 571.8875 206.54271Q571.1844 207.07396 570.10626 207.07396Q568.7469 207.07396 567.9344 206.23021Q567.1375 205.38646 567.1375 203.87083Q567.1375 202.30833 567.95 201.44896Q568.7625 200.57396 570.04376 200.57396Q571.29376 200.57396 572.075 201.41771Q572.8719 202.26146 572.8719 203.80833Q572.8719 203.90208 572.8719 204.08958L568.23126 204.08958Q568.29376 205.12083 568.8094 205.66771Q569.325 206.19896 570.10626 206.19896Q570.6844 206.19896 571.09064 205.90208Q571.5125 205.58958 571.7469 204.93333ZM568.29376 203.23021L571.7625 203.23021Q571.7 202.43333 571.3719 202.04271Q570.85626 201.43333 570.0594 201.43333Q569.325 201.43333 568.825 201.91771Q568.34064 202.40208 568.29376 203.23021ZM574.4969 206.93333L574.4969 200.71458L575.4344 200.71458L575.4344 201.58958Q575.73126 201.12083 576.21564 200.85521Q576.7 200.57396 577.325 200.57396Q578.0125 200.57396 578.45 200.85521Q578.90314 201.13646 579.075 201.65208Q579.825 200.57396 580.9969 200.57396Q581.9344 200.57396 582.41876 201.08958Q582.91876 201.58958 582.91876 202.66771L582.91876 206.93333L581.8719 206.93333L581.8719 203.01146Q581.8719 202.38646 581.7625 202.10521Q581.66876 201.82396 581.40314 201.65208Q581.1375 201.48021 580.7625 201.48021Q580.10626 201.48021 579.66876 201.91771Q579.2469 202.35521 579.2469 203.32396L579.2469 206.93333L578.1844 206.93333L578.1844 202.88646Q578.1844 202.18333 577.91876 201.83958Q577.66876 201.48021 577.09064 201.48021Q576.6375 201.48021 576.2625 201.71458Q575.8875 201.94896 575.71564 202.40208Q575.54376 202.85521 575.54376 203.69896L575.54376 206.93333L574.4969 206.93333ZM585.45 209.32396L585.325 208.33958Q585.66876 208.43333 585.9344 208.43333Q586.27814 208.43333 586.48126 208.30833Q586.7 208.19896 586.84064 207.99583Q586.9344 207.82396 587.16876 207.19896Q587.1844 207.12083 587.2625 206.94896L584.8875 200.71458L586.02814 200.71458L587.325 204.30833Q587.575 204.99583 587.77814 205.76146Q587.96564 205.02708 588.21564 204.33958L589.54376 200.71458L590.59064 200.71458L588.23126 207.04271Q587.84064 208.05833 587.6375 208.44896Q587.35626 208.98021 586.98126 209.21458Q586.6219 209.46458 586.1219 209.46458Q585.825 209.46458 585.45 209.32396Z" fill-rule="nonzero"/><path fill="#9e9e9e" d="M555.2 221.68333L556.3094 221.58958Q556.4344 222.40208 556.8719 222.80833Q557.325 223.21458 557.96564 223.21458Q558.71564 223.21458 559.2469 222.63646Q559.77814 222.05833 559.77814 221.12083Q559.77814 220.21458 559.2625 219.69896Q558.7625 219.16771 557.9344 219.16771Q557.4344 219.16771 557.0125 219.40208Q556.60626 219.63646 556.3719 219.99583L555.3875 219.87083L556.21564 215.46458L560.4969 215.46458L560.4969 216.46458L557.0594 216.46458L556.60626 218.77708Q557.3719 218.23021 558.21564 218.23021Q559.34064 218.23021 560.10626 219.01146Q560.8875 219.79271 560.8875 221.02708Q560.8875 222.18333 560.21564 223.04271Q559.3875 224.07396 557.96564 224.07396Q556.79376 224.07396 556.04376 223.41771Q555.3094 222.76146 555.2 221.68333ZM562.2 219.69896Q562.2 218.16771 562.5125 217.24583Q562.825 216.30833 563.4344 215.80833Q564.0594 215.30833 564.9969 215.30833Q565.6844 215.30833 566.2 215.58958Q566.73126 215.87083 567.075 216.40208Q567.41876 216.91771 567.60626 217.66771Q567.79376 218.41771 567.79376 219.69896Q567.79376 221.21458 567.48126 222.13646Q567.1844 223.05833 566.5594 223.57396Q565.95 224.07396 564.9969 224.07396Q563.7625 224.07396 563.04376 223.18333Q562.2 222.12083 562.2 219.69896ZM563.27814 219.69896Q563.27814 221.80833 563.77814 222.51146Q564.27814 223.21458 564.9969 223.21458Q565.73126 223.21458 566.21564 222.51146Q566.71564 221.80833 566.71564 219.69896Q566.71564 217.57396 566.21564 216.88646Q565.73126 216.18333 564.98126 216.18333Q564.2625 216.18333 563.825 216.79271Q563.27814 217.57396 563.27814 219.69896ZM569.79376 223.93333L569.79376 222.73021L570.9969 222.73021L570.9969 223.93333L569.79376 223.93333ZM572.2 219.69896Q572.2 218.16771 572.5125 217.24583Q572.825 216.30833 573.4344 215.80833Q574.0594 215.30833 574.9969 215.30833Q575.6844 215.30833 576.2 215.58958Q576.73126 215.87083 577.075 216.40208Q577.41876 216.91771 577.60626 217.66771Q577.79376 218.41771 577.79376 219.69896Q577.79376 221.21458 577.48126 222.13646Q577.1844 223.05833 576.5594 223.57396Q575.95 224.07396 574.9969 224.07396Q573.7625 224.07396 573.04376 223.18333Q572.2 222.12083 572.2 219.69896ZM573.27814 219.69896Q573.27814 221.80833 573.77814 222.51146Q574.27814 223.21458 574.9969 223.21458Q575.73126 223.21458 576.21564 222.51146Q576.71564 221.80833 576.71564 219.69896Q576.71564 217.57396 576.21564 216.88646Q575.73126 216.18333 574.98126 216.18333Q574.2625 216.18333 573.825 216.79271Q573.27814 217.57396 573.27814 219.69896ZM579.40314 217.40208Q579.40314 216.48021 579.85626 215.83958Q580.325 215.19896 581.2 215.19896Q582.0125 215.19896 582.54376 215.77708Q583.075 216.35521 583.075 217.46458Q583.075 218.55833 582.52814 219.15208Q581.9969 219.73021 581.21564 219.73021Q580.4344 219.73021 579.91876 219.15208Q579.40314 218.57396 579.40314 217.40208ZM581.23126 215.91771Q580.84064 215.91771 580.575 216.26146Q580.325 216.60521 580.325 217.51146Q580.325 218.33958 580.575 218.68333Q580.84064 219.01146 581.23126 219.01146Q581.6375 219.01146 581.8875 218.66771Q582.15314 218.32396 582.15314 217.43333Q582.15314 216.58958 581.8875 216.26146Q581.6219 215.91771 581.23126 215.91771ZM581.23126 224.24583L585.9344 215.19896L586.79376 215.19896L582.10626 224.24583L581.23126 224.24583ZM584.95 221.91771Q584.95 220.99583 585.40314 220.35521Q585.8719 219.71458 586.7625 219.71458Q587.575 219.71458 588.10626 220.29271Q588.6375 220.85521 588.6375 221.98021Q588.6375 223.07396 588.09064 223.66771Q587.5594 224.24583 586.7625 224.24583Q585.9969 224.24583 585.46564 223.66771Q584.95 223.08958 584.95 221.91771ZM586.79376 220.43333Q586.3875 220.43333 586.1219 220.77708Q585.8719 221.12083 585.8719 222.02708Q585.8719 222.83958 586.1375 223.18333Q586.40314 223.52708 586.79376 223.52708Q587.1844 223.52708 587.45 223.18333Q587.71564 222.83958 587.71564 221.93333Q587.71564 221.10521 587.45 220.77708Q587.1844 220.43333 586.79376 220.43333Z" fill-rule="nonzero"/><path stroke="#757575" stroke-width="1.0" stroke-linecap="butt" d="M589.7 211.43333L465.76666 211.43333L452.00333 211.43333" fill-rule="nonzero"/><path fill="#9e9e9e" d="M454.00333 211.43333C454.00333 210.32877 453.1079 209.43333 452.00333 209.43333C450.89877 209.43333 450.00333 210.32877 450.00333 211.43333C450.00333 212.5379 450.89877 213.43333 452.00333 213.43333C453.1079 213.43333 454.00333 212.5379 454.00333 211.43333" fill-rule="nonzero"/><path fill="#757575" d="M24.4875 38.3L24.4875 25.675L19.76875 25.675L19.76875 23.9875L31.1125 23.9875L31.1125 25.675L26.378124 25.675L26.378124 38.3L24.4875 38.3ZM32.628124 26.003124L32.628124 23.9875L34.39375 23.9875L34.39375 26.003124L32.628124 26.003124ZM32.628124 38.3L32.628124 27.925L34.39375 27.925L34.39375 38.3L32.628124 38.3ZM36.6125 38.3L36.6125 27.925L38.190624 27.925L38.190624 29.378124Q38.675 28.628124 39.4875 28.159374Q40.3 27.690624 41.33125 27.690624Q42.4875 27.690624 43.221874 28.175Q43.95625 28.64375 44.26875 29.503124Q45.503124 27.690624 47.471874 27.690624Q49.01875 27.690624 49.846874 28.55Q50.675 29.409374 50.675 31.175L50.675 38.3L48.925 38.3L48.925 31.76875Q48.925 30.70625 48.753124 30.253124Q48.58125 29.784374 48.128124 29.503124Q47.690624 29.221874 47.08125 29.221874Q45.9875 29.221874 45.253124 29.95625Q44.534374 30.675 44.534374 32.26875L44.534374 38.3L42.784374 38.3L42.784374 31.565624Q42.784374 30.39375 42.346874 29.815624Q41.925 29.221874 40.940624 29.221874Q40.20625 29.221874 39.565624 29.6125Q38.940624 30.003124 38.659374 30.753124Q38.378124 31.503124 38.378124 32.925L38.378124 38.3L36.6125 38.3ZM59.721874 34.95625L61.534374 35.190624Q61.1125 36.76875 59.940624 37.659374Q58.784374 38.534374 56.971874 38.534374Q54.70625 38.534374 53.3625 37.14375Q52.034374 35.7375 52.034374 33.20625Q52.034374 30.58125 53.378124 29.14375Q54.721874 27.690624 56.878124 27.690624Q58.95625 27.690624 60.26875 29.1125Q61.596874 30.51875 61.596874 33.096874Q61.596874 33.253124 61.58125 33.565624L53.846874 33.565624Q53.940624 35.26875 54.815624 36.175Q55.690624 37.08125 56.9875 37.08125Q57.95625 37.08125 58.628124 36.58125Q59.315624 36.065624 59.721874 34.95625ZM53.940624 32.1125L59.7375 32.1125Q59.628124 30.815624 59.08125 30.159374Q58.2375 29.14375 56.89375 29.14375Q55.690624 29.14375 54.8625 29.95625Q54.034374 30.753124 53.940624 32.1125ZM70.15938 38.3L70.15938 23.9875L72.06563 23.9875L72.06563 38.3L70.15938 38.3ZM75.6125 38.3L75.6125 27.925L77.20625 27.925L77.20625 29.409374Q78.34688 27.690624 80.50313 27.690624Q81.44063 27.690624 82.22188 28.034374Q83.01875 28.3625 83.40938 28.909374Q83.8 29.45625 83.95625 30.20625Q84.05 30.70625 84.05 31.925L84.05 38.3L82.28438 38.3L82.28438 31.9875Q82.28438 30.909374 82.08125 30.378124Q81.87813 29.846874 81.34688 29.534374Q80.83125 29.221874 80.12813 29.221874Q79.00313 29.221874 78.19063 29.940624Q77.37813 30.64375 77.37813 32.628124L77.37813 38.3L75.6125 38.3ZM88.50313 38.3L84.55 27.925L86.40938 27.925L88.64375 34.14375Q89.00313 35.14375 89.3 36.221874Q89.53438 35.409374 89.95625 34.253124L92.25313 27.925L94.06563 27.925L90.14375 38.3L88.50313 38.3ZM101.72188 34.95625L103.53438 35.190624Q103.1125 36.76875 101.94063 37.659374Q100.78438 38.534374 98.97188 38.534374Q96.70625 38.534374 95.3625 37.14375Q94.03438 35.7375 94.03438 33.20625Q94.03438 30.58125 95.37813 29.14375Q96.72188 27.690624 98.87813 27.690624Q100.95625 27.690624 102.26875 29.1125Q103.59688 30.51875 103.59688 33.096874Q103.59688 33.253124 103.58125 33.565624L95.84688 33.565624Q95.94063 35.26875 96.81563 36.175Q97.69063 37.08125 98.9875 37.08125Q99.95625 37.08125 100.62813 36.58125Q101.31563 36.065624 101.72188 34.95625ZM95.94063 32.1125L101.7375 32.1125Q101.62813 30.815624 101.08125 30.159374Q100.2375 29.14375 98.89375 29.14375Q97.69063 29.14375 96.8625 29.95625Q96.03438 30.753124 95.94063 32.1125ZM104.90938 35.20625L106.65938 34.925Q106.8 35.971874 107.47188 36.534374Q108.14375 37.08125 109.34688 37.08125Q110.55 37.08125 111.12813 36.596874Q111.72188 36.096874 111.72188 35.440624Q111.72188 34.846874 111.20625 34.503124Q110.84688 34.26875 109.40938 33.909374Q107.47188 33.409374 106.72188 33.065624Q105.9875 32.70625 105.59688 32.08125Q105.20625 31.440624 105.20625 30.675Q105.20625 29.9875 105.51875 29.39375Q105.84688 28.8 106.39375 28.409374Q106.8 28.1125 107.50313 27.909374Q108.22188 27.690624 109.03438 27.690624Q110.25313 27.690624 111.175 28.05Q112.09688 28.39375 112.53438 29.003124Q112.97188 29.596874 113.14375 30.596874L111.425 30.83125Q111.3 30.034374 110.7375 29.596874Q110.175 29.14375 109.15938 29.14375Q107.94063 29.14375 107.425 29.55Q106.90938 29.940624 106.90938 30.471874Q106.90938 30.815624 107.12813 31.096874Q107.33125 31.378124 107.8 31.565624Q108.06563 31.659374 109.34688 32.003124Q111.22188 32.503124 111.95625 32.83125Q112.69063 33.14375 113.1125 33.753124Q113.53438 34.346874 113.53438 35.253124Q113.53438 36.128124 113.01875 36.909374Q112.50313 37.690624 111.53438 38.1125Q110.56563 38.534374 109.34688 38.534374Q107.33125 38.534374 106.26875 37.690624Q105.20625 36.846874 104.90938 35.20625ZM119.45625 36.721874L119.70625 38.284374Q118.97188 38.440624 118.37813 38.440624Q117.425 38.440624 116.89375 38.14375Q116.37813 37.83125 116.15938 37.346874Q115.94063 36.846874 115.94063 35.26875L115.94063 29.3L114.65938 29.3L114.65938 27.925L115.94063 27.925L115.94063 25.3625L117.69063 24.3L117.69063 27.925L119.45625 27.925L119.45625 29.3L117.69063 29.3L117.69063 35.3625Q117.69063 36.1125 117.78438 36.33125Q117.87813 36.534374 118.08125 36.675Q118.3 36.8 118.69063 36.8Q118.97188 36.8 119.45625 36.721874ZM128.72188 34.95625L130.53438 35.190624Q130.1125 36.76875 128.94063 37.659374Q127.78438 38.534374 125.97188 38.534374Q123.70625 38.534374 122.3625 37.14375Q121.03438 35.7375 121.03438 33.20625Q121.03438 30.58125 122.37813 29.14375Q123.72188 27.690624 125.87813 27.690624Q127.95625 27.690624 129.26875 29.1125Q130.59688 30.51875 130.59688 33.096874Q130.59688 33.253124 130.58125 33.565624L122.84688 33.565624Q122.94063 35.26875 123.81563 36.175Q124.69063 37.08125 125.9875 37.08125Q126.95625 37.08125 127.62813 36.58125Q128.31563 36.065624 128.72188 34.95625ZM122.94063 32.1125L128.7375 32.1125Q128.62813 30.815624 128.08125 30.159374Q127.2375 29.14375 125.89375 29.14375Q124.69063 29.14375 123.8625 29.95625Q123.03438 30.753124 122.94063 32.1125ZM139.34688 38.3L139.34688 36.9875Q138.3625 38.534374 136.44063 38.534374Q135.20625 38.534374 134.15938 37.846874Q133.12813 37.159374 132.55 35.940624Q131.9875 34.721874 131.9875 33.128124Q131.9875 31.565624 132.50313 30.3Q133.01875 29.034374 134.05 28.3625Q135.09688 27.690624 136.3625 27.690624Q137.3 27.690624 138.03438 28.096874Q138.76875 28.4875 139.2375 29.1125L139.2375 23.9875L140.97188 23.9875L140.97188 38.3L139.34688 38.3ZM133.78438 33.128124Q133.78438 35.1125 134.62813 36.096874Q135.47188 37.08125 136.6125 37.08125Q137.76875 37.08125 138.56563 36.14375Q139.37813 35.20625 139.37813 33.26875Q139.37813 31.14375 138.55 30.14375Q137.7375 29.14375 136.53438 29.14375Q135.3625 29.14375 134.56563 30.1125Q133.78438 31.065624 133.78438 33.128124ZM149.6125 42.26875L149.6125 27.925L151.22188 27.925L151.22188 29.26875Q151.78438 28.4875 152.4875 28.096874Q153.20625 27.690624 154.22188 27.690624Q155.55 27.690624 156.56563 28.378124Q157.58125 29.065624 158.09688 30.315624Q158.62813 31.55 158.62813 33.034374Q158.62813 34.628124 158.05 35.909374Q157.4875 37.175 156.39375 37.8625Q155.3 38.534374 154.09688 38.534374Q153.22188 38.534374 152.51875 38.159374Q151.83125 37.784374 151.37813 37.221874L151.37813 42.26875L149.6125 42.26875ZM151.20625 33.175Q151.20625 35.175 152.01875 36.128124Q152.83125 37.08125 153.9875 37.08125Q155.15938 37.08125 155.9875 36.096874Q156.83125 35.1125 156.83125 33.01875Q156.83125 31.05 156.00313 30.065624Q155.19063 29.065624 154.06563 29.065624Q152.94063 29.065624 152.06563 30.128124Q151.20625 31.175 151.20625 33.175ZM167.72188 34.95625L169.53438 35.190624Q169.1125 36.76875 167.94063 37.659374Q166.78438 38.534374 164.97188 38.534374Q162.70625 38.534374 161.3625 37.14375Q160.03438 35.7375 160.03438 33.20625Q160.03438 30.58125 161.37813 29.14375Q162.72188 27.690624 164.87813 27.690624Q166.95625 27.690624 168.26875 29.1125Q169.59688 30.51875 169.59688 33.096874Q169.59688 33.253124 169.58125 33.565624L161.84688 33.565624Q161.94063 35.26875 162.81563 36.175Q163.69063 37.08125 164.9875 37.08125Q165.95625 37.08125 166.62813 36.58125Q167.31563 36.065624 167.72188 34.95625ZM161.94063 32.1125L167.7375 32.1125Q167.62813 30.815624 167.08125 30.159374Q166.2375 29.14375 164.89375 29.14375Q163.69063 29.14375 162.8625 29.95625Q162.03438 30.753124 161.94063 32.1125ZM171.59688 38.3L171.59688 27.925L173.175 27.925L173.175 29.503124Q173.78438 28.39375 174.3 28.05Q174.81563 27.690624 175.425 27.690624Q176.31563 27.690624 177.2375 28.253124L176.62813 29.89375Q175.9875 29.503124 175.34688 29.503124Q174.76875 29.503124 174.3 29.8625Q173.84688 30.20625 173.64375 30.815624Q173.3625 31.753124 173.3625 32.8625L173.3625 38.3L171.59688 38.3ZM184.84688 38.3L184.84688 23.9875L190.2375 23.9875Q191.675 23.9875 192.425 24.1125Q193.47188 24.3 194.19063 24.8Q194.90938 25.284374 195.33125 26.175Q195.76875 27.065624 195.76875 28.128124Q195.76875 29.95625 194.59688 31.221874Q193.44063 32.471874 190.40938 32.471874L186.7375 32.471874L186.7375 38.3L184.84688 38.3ZM186.7375 30.784374L190.44063 30.784374Q192.26875 30.784374 193.03438 30.1125Q193.81563 29.425 193.81563 28.175Q193.81563 27.284374 193.3625 26.64375Q192.90938 26.003124 192.175 25.8Q191.69063 25.675 190.39375 25.675L186.7375 25.675L186.7375 30.784374ZM204.72188 34.95625L206.53438 35.190624Q206.1125 36.76875 204.94063 37.659374Q203.78438 38.534374 201.97188 38.534374Q199.70625 38.534374 198.3625 37.14375Q197.03438 35.7375 197.03438 33.20625Q197.03438 30.58125 198.37813 29.14375Q199.72188 27.690624 201.87813 27.690624Q203.95625 27.690624 205.26875 29.1125Q206.59688 30.51875 206.59688 33.096874Q206.59688 33.253124 206.58125 33.565624L198.84688 33.565624Q198.94063 35.26875 199.81563 36.175Q200.69063 37.08125 201.9875 37.08125Q202.95625 37.08125 203.62813 36.58125Q204.31563 36.065624 204.72188 34.95625ZM198.94063 32.1125L204.7375 32.1125Q204.62813 30.815624 204.08125 30.159374Q203.2375 29.14375 201.89375 29.14375Q200.69063 29.14375 199.8625 29.95625Q199.03438 30.753124 198.94063 32.1125ZM208.59688 38.3L208.59688 27.925L210.175 27.925L210.175 29.503124Q210.78438 28.39375 211.3 28.05Q211.81563 27.690624 212.425 27.690624Q213.31563 27.690624 214.2375 28.253124L213.62813 29.89375Q212.9875 29.503124 212.34688 29.503124Q211.76875 29.503124 211.3 29.8625Q210.84688 30.20625 210.64375 30.815624Q210.3625 31.753124 210.3625 32.8625L210.3625 38.3L208.59688 38.3ZM214.90938 35.20625L216.65938 34.925Q216.8 35.971874 217.47188 36.534374Q218.14375 37.08125 219.34688 37.08125Q220.55 37.08125 221.12813 36.596874Q221.72188 36.096874 221.72188 35.440624Q221.72188 34.846874 221.20625 34.503124Q220.84688 34.26875 219.40938 33.909374Q217.47188 33.409374 216.72188 33.065624Q215.9875 32.70625 215.59688 32.08125Q215.20625 31.440624 215.20625 30.675Q215.20625 29.9875 215.51875 29.39375Q215.84688 28.8 216.39375 28.409374Q216.8 28.1125 217.50313 27.909374Q218.22188 27.690624 219.03438 27.690624Q220.25313 27.690624 221.175 28.05Q222.09688 28.39375 222.53438 29.003124Q222.97188 29.596874 223.14375 30.596874L221.425 30.83125Q221.3 30.034374 220.7375 29.596874Q220.175 29.14375 219.15938 29.14375Q217.94063 29.14375 217.425 29.55Q216.90938 29.940624 216.90938 30.471874Q216.90938 30.815624 217.12813 31.096874Q217.33125 31.378124 217.8 31.565624Q218.06563 31.659374 219.34688 32.003124Q221.22188 32.503124 221.95625 32.83125Q222.69063 33.14375 223.1125 33.753124Q223.53438 34.346874 223.53438 35.253124Q223.53438 36.128124 223.01875 36.909374Q222.50313 37.690624 221.53438 38.1125Q220.56563 38.534374 219.34688 38.534374Q217.33125 38.534374 216.26875 37.690624Q215.20625 36.846874 214.90938 35.20625ZM224.97188 33.1125Q224.97188 30.2375 226.56563 28.846874Q227.90938 27.690624 229.83125 27.690624Q231.97188 27.690624 233.31563 29.096874Q234.675 30.503124 234.675 32.971874Q234.675 34.971874 234.08125 36.128124Q233.4875 37.26875 232.33125 37.909374Q231.19063 38.534374 229.83125 38.534374Q227.64375 38.534374 226.3 37.14375Q224.97188 35.7375 224.97188 33.1125ZM226.76875 33.1125Q226.76875 35.1125 227.62813 36.096874Q228.50313 37.08125 229.83125 37.08125Q231.14375 37.08125 232.00313 36.096874Q232.87813 35.096874 232.87813 33.05Q232.87813 31.128124 232.00313 30.14375Q231.12813 29.14375 229.83125 29.14375Q228.50313 29.14375 227.62813 30.14375Q226.76875 31.128124 226.76875 33.1125ZM236.6125 38.3L236.6125 27.925L238.20625 27.925L238.20625 29.409374Q239.34688 27.690624 241.50313 27.690624Q242.44063 27.690624 243.22188 28.034374Q244.01875 28.3625 244.40938 28.909374Q244.8 29.45625 244.95625 30.20625Q245.05 30.70625 245.05 31.925L245.05 38.3L243.28438 38.3L243.28438 31.9875Q243.28438 30.909374 243.08125 30.378124Q242.87813 29.846874 242.34688 29.534374Q241.83125 29.221874 241.12813 29.221874Q240.00313 29.221874 239.19063 29.940624Q238.37813 30.64375 238.37813 32.628124L238.37813 38.3L236.6125 38.3Z" fill-rule="nonzero"/></svg>