<svg version="1.1" viewBox="0.0 0.0 1004.0 386.0" fill="none" stroke="none" stroke-linecap="square" stroke-miterlimit="10" width="1004" height="386" xmlns:xlink="http://www.w3.org/1999/xlink" xmlns="http://www.w3.org/2000/svg"><path fill="#ffffff" d="M0 0L1004.0 0L1004.0 386.0L0 386.0L0 0Z" fill-rule="nonzero"/><path stroke="#333333" stroke-width="1.0" stroke-linecap="butt" d="M56.5 359.5L984.5 359.5" fill-rule="nonzero"/><path stroke="#cccccc" stroke-width="1.0" stroke-linecap="butt" d="M56.5 292.5L984.5 292.5" fill-rule="nonzero"/><path stroke="#cccccc" stroke-width="1.0" stroke-linecap="butt" d="M56.5 224.5L984.5 224.5" fill-rule="nonzero"/><path stroke="#cccccc" stroke-width="1.0" stroke-linecap="butt" d="M56.5 157.5L984.5 157.5" fill-rule="nonzero"/><path stroke="#cccccc" stroke-width="1.0" stroke-linecap="butt" d="M56.5 90.5L984.5 90.5" fill-rule="nonzero"/><clipPath id="id_0"><path d="M56.3 90.03333L984.7 90.03333L984.7 359.7L56.3 359.7L56.3 90.03333Z" clip-rule="nonzero"/></clipPath><path stroke="#000000" stroke-width="8.0" stroke-linecap="butt" stroke-opacity="0.0" clip-path="url(#id_0)" d="M88.0 360.0L80.0 360.0L80.0 279.0C80.0 277.89542 80.89543 277.0 82.0 277.0L86.0 277.0C87.10457 277.0 88.0 277.89542 88.0 279.0Z" fill-rule="nonzero"/><path fill="#4285f4" clip-path="url(#id_0)" d="M88.0 360.0L80.0 360.0L80.0 279.0C80.0 277.89542 80.89543 277.0 82.0 277.0L86.0 277.0C87.10457 277.0 88.0 277.89542 88.0 279.0Z" fill-rule="nonzero"/><path stroke="#000000" stroke-width="8.0" stroke-linecap="butt" stroke-opacity="0.0" clip-path="url(#id_0)" d="M153.0 360.0L145.0 360.0L145.0 325.0C145.0 323.89542 145.89543 323.0 147.0 323.0L151.0 323.0C152.10457 323.0 153.0 323.89542 153.0 325.0Z" fill-rule="nonzero"/><path fill="#4285f4" clip-path="url(#id_0)" d="M153.0 360.0L145.0 360.0L145.0 325.0C145.0 323.89542 145.89543 323.0 147.0 323.0L151.0 323.0C152.10457 323.0 153.0 323.89542 153.0 325.0Z" fill-rule="nonzero"/><path stroke="#000000" stroke-width="8.0" stroke-linecap="butt" stroke-opacity="0.0" clip-path="url(#id_0)" d="M217.0 360.0L209.0 360.0L209.0 357.0C209.0 355.89542 209.89543 355.0 211.0 355.0L215.0 355.0C216.10457 355.0 217.0 355.89542 217.0 357.0Z" fill-rule="nonzero"/><path fill="#4285f4" clip-path="url(#id_0)" d="M217.0 360.0L209.0 360.0L209.0 357.0C209.0 355.89542 209.89543 355.0 211.0 355.0L215.0 355.0C216.10457 355.0 217.0 355.89542 217.0 357.0Z" fill-rule="nonzero"/><path stroke="#000000" stroke-width="8.0" stroke-linecap="butt" stroke-opacity="0.0" clip-path="url(#id_0)" d="M282.0 360.0L274.0 360.0L274.0 358.0C274.0 356.89542 274.89542 356.0 276.0 356.0L280.0 356.0C281.10458 356.0 282.0 356.89542 282.0 358.0Z" fill-rule="nonzero"/><path fill="#4285f4" clip-path="url(#id_0)" d="M282.0 360.0L274.0 360.0L274.0 358.0C274.0 356.89542 274.89542 356.0 276.0 356.0L280.0 356.0C281.10458 356.0 282.0 356.89542 282.0 358.0Z" fill-rule="nonzero"/><path stroke="#000000" stroke-width="8.0" stroke-linecap="butt" stroke-opacity="0.0" clip-path="url(#id_0)" d="M347.0 360.0L339.0 360.0L339.0 358.0C339.0 356.89542 339.89542 356.0 341.0 356.0L345.0 356.0C346.10458 356.0 347.0 356.89542 347.0 358.0Z" fill-rule="nonzero"/><path fill="#4285f4" clip-path="url(#id_0)" d="M347.0 360.0L339.0 360.0L339.0 358.0C339.0 356.89542 339.89542 356.0 341.0 356.0L345.0 356.0C346.10458 356.0 347.0 356.89542 347.0 358.0Z" fill-rule="nonzero"/><path stroke="#000000" stroke-width="8.0" stroke-linecap="butt" stroke-opacity="0.0" clip-path="url(#id_0)" d="M800.0 360.0L792.0 360.0L792.0 352.0C792.0 350.89542 792.89545 350.0 794.0 350.0L798.0 350.0C799.10455 350.0 800.0 350.89542 800.0 352.0Z" fill-rule="nonzero"/><path fill="#4285f4" clip-path="url(#id_0)" d="M800.0 360.0L792.0 360.0L792.0 352.0C792.0 350.89542 792.89545 350.0 794.0 350.0L798.0 350.0C799.10455 350.0 800.0 350.89542 800.0 352.0Z" fill-rule="nonzero"/><path stroke="#000000" stroke-width="8.0" stroke-linecap="butt" stroke-opacity="0.0" clip-path="url(#id_0)" d="M864.0 360.0L856.0 360.0L856.0 358.0C856.0 356.89542 856.89545 356.0 858.0 356.0L862.0 356.0C863.10455 356.0 864.0 356.89542 864.0 358.0Z" fill-rule="nonzero"/><path fill="#4285f4" clip-path="url(#id_0)" d="M864.0 360.0L856.0 360.0L856.0 358.0C856.0 356.89542 856.89545 356.0 858.0 356.0L862.0 356.0C863.10455 356.0 864.0 356.89542 864.0 358.0Z" fill-rule="nonzero"/><path stroke="#000000" stroke-width="8.0" stroke-linecap="butt" stroke-opacity="0.0" clip-path="url(#id_0)" d="M96.0 360.0L88.0 360.0L88.0 330.0C88.0 328.89542 88.89543 328.0 90.0 328.0L94.0 328.0C95.10457 328.0 96.0 328.89542 96.0 330.0Z" fill-rule="nonzero"/><path fill="#ea4335" clip-path="url(#id_0)" d="M96.0 360.0L88.0 360.0L88.0 330.0C88.0 328.89542 88.89543 328.0 90.0 328.0L94.0 328.0C95.10457 328.0 96.0 328.89542 96.0 330.0Z" fill-rule="nonzero"/><path stroke="#000000" stroke-width="8.0" stroke-linecap="butt" stroke-opacity="0.0" clip-path="url(#id_0)" d="M161.0 360.0L153.0 360.0L153.0 341.0C153.0 339.89542 153.89543 339.0 155.0 339.0L159.0 339.0C160.10457 339.0 161.0 339.89542 161.0 341.0Z" fill-rule="nonzero"/><path fill="#ea4335" clip-path="url(#id_0)" d="M161.0 360.0L153.0 360.0L153.0 341.0C153.0 339.89542 153.89543 339.0 155.0 339.0L159.0 339.0C160.10457 339.0 161.0 339.89542 161.0 341.0Z" fill-rule="nonzero"/><path stroke="#000000" stroke-width="8.0" stroke-linecap="butt" stroke-opacity="0.0" clip-path="url(#id_0)" d="M225.0 360.0L217.0 360.0L217.0 328.0C217.0 326.89542 217.89543 326.0 219.0 326.0L223.0 326.0C224.10457 326.0 225.0 326.89542 225.0 328.0Z" fill-rule="nonzero"/><path fill="#ea4335" clip-path="url(#id_0)" d="M225.0 360.0L217.0 360.0L217.0 328.0C217.0 326.89542 217.89543 326.0 219.0 326.0L223.0 326.0C224.10457 326.0 225.0 326.89542 225.0 328.0Z" fill-rule="nonzero"/><path stroke="#000000" stroke-width="8.0" stroke-linecap="butt" stroke-opacity="0.0" clip-path="url(#id_0)" d="M290.0 360.0L282.0 360.0L282.0 343.0C282.0 341.89542 282.89542 341.0 284.0 341.0L288.0 341.0C289.10458 341.0 290.0 341.89542 290.0 343.0Z" fill-rule="nonzero"/><path fill="#ea4335" clip-path="url(#id_0)" d="M290.0 360.0L282.0 360.0L282.0 343.0C282.0 341.89542 282.89542 341.0 284.0 341.0L288.0 341.0C289.10458 341.0 290.0 341.89542 290.0 343.0Z" fill-rule="nonzero"/><path stroke="#000000" stroke-width="8.0" stroke-linecap="butt" stroke-opacity="0.0" clip-path="url(#id_0)" d="M355.0 360.0L347.0 360.0L347.0 304.0C347.0 302.89542 347.89542 302.0 349.0 302.0L353.0 302.0C354.10458 302.0 355.0 302.89542 355.0 304.0Z" fill-rule="nonzero"/><path fill="#ea4335" clip-path="url(#id_0)" d="M355.0 360.0L347.0 360.0L347.0 304.0C347.0 302.89542 347.89542 302.0 349.0 302.0L353.0 302.0C354.10458 302.0 355.0 302.89542 355.0 304.0Z" fill-rule="nonzero"/><path stroke="#000000" stroke-width="8.0" stroke-linecap="butt" stroke-opacity="0.0" clip-path="url(#id_0)" d="M419.0 360.0L411.0 360.0L411.0 240.0C411.0 238.89543 411.89542 238.0 413.0 238.0L417.0 238.0C418.10458 238.0 419.0 238.89543 419.0 240.0Z" fill-rule="nonzero"/><path fill="#ea4335" clip-path="url(#id_0)" d="M419.0 360.0L411.0 360.0L411.0 240.0C411.0 238.89543 411.89542 238.0 413.0 238.0L417.0 238.0C418.10458 238.0 419.0 238.89543 419.0 240.0Z" fill-rule="nonzero"/><path stroke="#000000" stroke-width="8.0" stroke-linecap="butt" stroke-opacity="0.0" clip-path="url(#id_0)" d="M484.0 360.0L476.0 360.0L476.0 325.0C476.0 323.89542 476.89542 323.0 478.0 323.0L482.0 323.0C483.10458 323.0 484.0 323.89542 484.0 325.0Z" fill-rule="nonzero"/><path fill="#ea4335" clip-path="url(#id_0)" d="M484.0 360.0L476.0 360.0L476.0 325.0C476.0 323.89542 476.89542 323.0 478.0 323.0L482.0 323.0C483.10458 323.0 484.0 323.89542 484.0 325.0Z" fill-rule="nonzero"/><path stroke="#000000" stroke-width="8.0" stroke-linecap="butt" stroke-opacity="0.0" clip-path="url(#id_0)" d="M549.0 360.0L541.0 360.0L541.0 254.0C541.0 252.89543 541.89545 252.0 543.0 252.0L547.0 252.0C548.10455 252.0 549.0 252.89543 549.0 254.0Z" fill-rule="nonzero"/><path fill="#ea4335" clip-path="url(#id_0)" d="M549.0 360.0L541.0 360.0L541.0 254.0C541.0 252.89543 541.89545 252.0 543.0 252.0L547.0 252.0C548.10455 252.0 549.0 252.89543 549.0 254.0Z" fill-rule="nonzero"/><path stroke="#000000" stroke-width="8.0" stroke-linecap="butt" stroke-opacity="0.0" clip-path="url(#id_0)" d="M614.0 360.0L606.0 360.0L606.0 240.0C606.0 238.89543 606.89545 238.0 608.0 238.0L612.0 238.0C613.10455 238.0 614.0 238.89543 614.0 240.0Z" fill-rule="nonzero"/><path fill="#ea4335" clip-path="url(#id_0)" d="M614.0 360.0L606.0 360.0L606.0 240.0C606.0 238.89543 606.89545 238.0 608.0 238.0L612.0 238.0C613.10455 238.0 614.0 238.89543 614.0 240.0Z" fill-rule="nonzero"/><path stroke="#000000" stroke-width="8.0" stroke-linecap="butt" stroke-opacity="0.0" clip-path="url(#id_0)" d="M678.0 360.0L670.0 360.0L670.0 186.0C670.0 184.89543 670.89545 184.0 672.0 184.0L676.0 184.0C677.10455 184.0 678.0 184.89543 678.0 186.0Z" fill-rule="nonzero"/><path fill="#ea4335" clip-path="url(#id_0)" d="M678.0 360.0L670.0 360.0L670.0 186.0C670.0 184.89543 670.89545 184.0 672.0 184.0L676.0 184.0C677.10455 184.0 678.0 184.89543 678.0 186.0Z" fill-rule="nonzero"/><path stroke="#000000" stroke-width="8.0" stroke-linecap="butt" stroke-opacity="0.0" clip-path="url(#id_0)" d="M743.0 360.0L735.0 360.0L735.0 237.0C735.0 235.89543 735.89545 235.0 737.0 235.0L741.0 235.0C742.10455 235.0 743.0 235.89543 743.0 237.0Z" fill-rule="nonzero"/><path fill="#ea4335" clip-path="url(#id_0)" d="M743.0 360.0L735.0 360.0L735.0 237.0C735.0 235.89543 735.89545 235.0 737.0 235.0L741.0 235.0C742.10455 235.0 743.0 235.89543 743.0 237.0Z" fill-rule="nonzero"/><path stroke="#000000" stroke-width="8.0" stroke-linecap="butt" stroke-opacity="0.0" clip-path="url(#id_0)" d="M808.0 360.0L800.0 360.0L800.0 132.0C800.0 130.89543 800.89545 130.0 802.0 130.0L806.0 130.0C807.10455 130.0 808.0 130.89543 808.0 132.0Z" fill-rule="nonzero"/><path fill="#ea4335" clip-path="url(#id_0)" d="M808.0 360.0L800.0 360.0L800.0 132.0C800.0 130.89543 800.89545 130.0 802.0 130.0L806.0 130.0C807.10455 130.0 808.0 130.89543 808.0 132.0Z" fill-rule="nonzero"/><path stroke="#000000" stroke-width="8.0" stroke-linecap="butt" stroke-opacity="0.0" clip-path="url(#id_0)" d="M872.0 360.0L864.0 360.0L864.0 109.0C864.0 107.89543 864.89545 107.0 866.0 107.0L870.0 107.0C871.10455 107.0 872.0 107.89543 872.0 109.0Z" fill-rule="nonzero"/><path fill="#ea4335" clip-path="url(#id_0)" d="M872.0 360.0L864.0 360.0L864.0 109.0C864.0 107.89543 864.89545 107.0 866.0 107.0L870.0 107.0C871.10455 107.0 872.0 107.89543 872.0 109.0Z" fill-rule="nonzero"/><path stroke="#000000" stroke-width="8.0" stroke-linecap="butt" stroke-opacity="0.0" clip-path="url(#id_0)" d="M937.0 360.0L929.0 360.0L929.0 308.0C929.0 306.89542 929.89545 306.0 931.0 306.0L935.0 306.0C936.10455 306.0 937.0 306.89542 937.0 308.0Z" fill-rule="nonzero"/><path fill="#ea4335" clip-path="url(#id_0)" d="M937.0 360.0L929.0 360.0L929.0 308.0C929.0 306.89542 929.89545 306.0 931.0 306.0L935.0 306.0C936.10455 306.0 937.0 306.89542 937.0 308.0Z" fill-rule="nonzero"/><path stroke="#000000" stroke-width="8.0" stroke-linecap="butt" stroke-opacity="0.0" clip-path="url(#id_0)" d="M169.0 360.0L161.0 360.0L161.0 288.0C161.0 286.89542 161.89543 286.0 163.0 286.0L167.0 286.0C168.10457 286.0 169.0 286.89542 169.0 288.0Z" fill-rule="nonzero"/><path fill="#fbbc04" clip-path="url(#id_0)" d="M169.0 360.0L161.0 360.0L161.0 288.0C161.0 286.89542 161.89543 286.0 163.0 286.0L167.0 286.0C168.10457 286.0 169.0 286.89542 169.0 288.0Z" fill-rule="nonzero"/><path stroke="#000000" stroke-width="8.0" stroke-linecap="butt" stroke-opacity="0.0" clip-path="url(#id_0)" d="M233.0 360.0L225.0 360.0L225.0 197.0C225.0 195.89543 225.89543 195.0 227.0 195.0L231.0 195.0C232.10457 195.0 233.0 195.89543 233.0 197.0Z" fill-rule="nonzero"/><path fill="#fbbc04" clip-path="url(#id_0)" d="M233.0 360.0L225.0 360.0L225.0 197.0C225.0 195.89543 225.89543 195.0 227.0 195.0L231.0 195.0C232.10457 195.0 233.0 195.89543 233.0 197.0Z" fill-rule="nonzero"/><path stroke="#000000" stroke-width="8.0" stroke-linecap="butt" stroke-opacity="0.0" clip-path="url(#id_0)" d="M298.0 360.0L290.0 360.0L290.0 298.0C290.0 296.89542 290.89542 296.0 292.0 296.0L296.0 296.0C297.10458 296.0 298.0 296.89542 298.0 298.0Z" fill-rule="nonzero"/><path fill="#fbbc04" clip-path="url(#id_0)" d="M298.0 360.0L290.0 360.0L290.0 298.0C290.0 296.89542 290.89542 296.0 292.0 296.0L296.0 296.0C297.10458 296.0 298.0 296.89542 298.0 298.0Z" fill-rule="nonzero"/><path stroke="#000000" stroke-width="8.0" stroke-linecap="butt" stroke-opacity="0.0" clip-path="url(#id_0)" d="M363.0 360.0L355.0 360.0L355.0 207.0C355.0 205.89543 355.89542 205.0 357.0 205.0L361.0 205.0C362.10458 205.0 363.0 205.89543 363.0 207.0Z" fill-rule="nonzero"/><path fill="#fbbc04" clip-path="url(#id_0)" d="M363.0 360.0L355.0 360.0L355.0 207.0C355.0 205.89543 355.89542 205.0 357.0 205.0L361.0 205.0C362.10458 205.0 363.0 205.89543 363.0 207.0Z" fill-rule="nonzero"/><path stroke="#000000" stroke-width="8.0" stroke-linecap="butt" stroke-opacity="0.0" clip-path="url(#id_0)" d="M427.0 360.0L419.0 360.0L419.0 348.0C419.0 346.89542 419.89542 346.0 421.0 346.0L425.0 346.0C426.10458 346.0 427.0 346.89542 427.0 348.0Z" fill-rule="nonzero"/><path fill="#fbbc04" clip-path="url(#id_0)" d="M427.0 360.0L419.0 360.0L419.0 348.0C419.0 346.89542 419.89542 346.0 421.0 346.0L425.0 346.0C426.10458 346.0 427.0 346.89542 427.0 348.0Z" fill-rule="nonzero"/><path stroke="#000000" stroke-width="8.0" stroke-linecap="butt" stroke-opacity="0.0" clip-path="url(#id_0)" d="M492.0 360.0L484.0 360.0L484.0 200.0C484.0 198.89543 484.89542 198.0 486.0 198.0L490.0 198.0C491.10458 198.0 492.0 198.89543 492.0 200.0Z" fill-rule="nonzero"/><path fill="#fbbc04" clip-path="url(#id_0)" d="M492.0 360.0L484.0 360.0L484.0 200.0C484.0 198.89543 484.89542 198.0 486.0 198.0L490.0 198.0C491.10458 198.0 492.0 198.89543 492.0 200.0Z" fill-rule="nonzero"/><path stroke="#000000" stroke-width="8.0" stroke-linecap="butt" stroke-opacity="0.0" clip-path="url(#id_0)" d="M557.0 360.0L549.0 360.0L549.0 281.0C549.0 279.89542 549.89545 279.0 551.0 279.0L555.0 279.0C556.10455 279.0 557.0 279.89542 557.0 281.0Z" fill-rule="nonzero"/><path fill="#fbbc04" clip-path="url(#id_0)" d="M557.0 360.0L549.0 360.0L549.0 281.0C549.0 279.89542 549.89545 279.0 551.0 279.0L555.0 279.0C556.10455 279.0 557.0 279.89542 557.0 281.0Z" fill-rule="nonzero"/><path stroke="#000000" stroke-width="8.0" stroke-linecap="butt" stroke-opacity="0.0" clip-path="url(#id_0)" d="M622.0 360.0L614.0 360.0L614.0 294.0C614.0 292.89542 614.89545 292.0 616.0 292.0L620.0 292.0C621.10455 292.0 622.0 292.89542 622.0 294.0Z" fill-rule="nonzero"/><path fill="#fbbc04" clip-path="url(#id_0)" d="M622.0 360.0L614.0 360.0L614.0 294.0C614.0 292.89542 614.89545 292.0 616.0 292.0L620.0 292.0C621.10455 292.0 622.0 292.89542 622.0 294.0Z" fill-rule="nonzero"/><path stroke="#000000" stroke-width="8.0" stroke-linecap="butt" stroke-opacity="0.0" clip-path="url(#id_0)" d="M686.0 360.0L678.0 360.0L678.0 341.0C678.0 339.89542 678.89545 339.0 680.0 339.0L684.0 339.0C685.10455 339.0 686.0 339.89542 686.0 341.0Z" fill-rule="nonzero"/><path fill="#fbbc04" clip-path="url(#id_0)" d="M686.0 360.0L678.0 360.0L678.0 341.0C678.0 339.89542 678.89545 339.0 680.0 339.0L684.0 339.0C685.10455 339.0 686.0 339.89542 686.0 341.0Z" fill-rule="nonzero"/><path stroke="#000000" stroke-width="8.0" stroke-linecap="butt" stroke-opacity="0.0" clip-path="url(#id_0)" d="M751.0 360.0L743.0 360.0L743.0 328.0C743.0 326.89542 743.89545 326.0 745.0 326.0L749.0 326.0C750.10455 326.0 751.0 326.89542 751.0 328.0Z" fill-rule="nonzero"/><path fill="#fbbc04" clip-path="url(#id_0)" d="M751.0 360.0L743.0 360.0L743.0 328.0C743.0 326.89542 743.89545 326.0 745.0 326.0L749.0 326.0C750.10455 326.0 751.0 326.89542 751.0 328.0Z" fill-rule="nonzero"/><path stroke="#000000" stroke-width="8.0" stroke-linecap="butt" stroke-opacity="0.0" clip-path="url(#id_0)" d="M816.0 360.0L808.0 360.0L808.0 341.0C808.0 339.89542 808.89545 339.0 810.0 339.0L814.0 339.0C815.10455 339.0 816.0 339.89542 816.0 341.0Z" fill-rule="nonzero"/><path fill="#fbbc04" clip-path="url(#id_0)" d="M816.0 360.0L808.0 360.0L808.0 341.0C808.0 339.89542 808.89545 339.0 810.0 339.0L814.0 339.0C815.10455 339.0 816.0 339.89542 816.0 341.0Z" fill-rule="nonzero"/><path stroke="#000000" stroke-width="8.0" stroke-linecap="butt" stroke-opacity="0.0" clip-path="url(#id_0)" d="M112.0 360.0L104.0 360.0L104.0 348.0C104.0 346.89542 104.89543 346.0 106.0 346.0L110.0 346.0C111.10457 346.0 112.0 346.89542 112.0 348.0Z" fill-rule="nonzero"/><path fill="#34a853" clip-path="url(#id_0)" d="M112.0 360.0L104.0 360.0L104.0 348.0C104.0 346.89542 104.89543 346.0 106.0 346.0L110.0 346.0C111.10457 346.0 112.0 346.89542 112.0 348.0Z" fill-rule="nonzero"/><path stroke="#000000" stroke-width="8.0" stroke-linecap="butt" stroke-opacity="0.0" clip-path="url(#id_0)" d="M177.0 360.0L169.0 360.0L169.0 355.0C169.0 353.89542 169.89543 353.0 171.0 353.0L175.0 353.0C176.10457 353.0 177.0 353.89542 177.0 355.0Z" fill-rule="nonzero"/><path fill="#34a853" clip-path="url(#id_0)" d="M177.0 360.0L169.0 360.0L169.0 355.0C169.0 353.89542 169.89543 353.0 171.0 353.0L175.0 353.0C176.10457 353.0 177.0 353.89542 177.0 355.0Z" fill-rule="nonzero"/><path stroke="#000000" stroke-width="8.0" stroke-linecap="butt" stroke-opacity="0.0" clip-path="url(#id_0)" d="M241.0 360.0L233.0 360.0L233.0 345.0C233.0 343.89542 233.89543 343.0 235.0 343.0L239.0 343.0C240.10457 343.0 241.0 343.89542 241.0 345.0Z" fill-rule="nonzero"/><path fill="#34a853" clip-path="url(#id_0)" d="M241.0 360.0L233.0 360.0L233.0 345.0C233.0 343.89542 233.89543 343.0 235.0 343.0L239.0 343.0C240.10457 343.0 241.0 343.89542 241.0 345.0Z" fill-rule="nonzero"/><path stroke="#000000" stroke-width="8.0" stroke-linecap="butt" stroke-opacity="0.0" clip-path="url(#id_0)" d="M306.0 360.0L298.0 360.0L298.0 348.0C298.0 346.89542 298.89542 346.0 300.0 346.0L304.0 346.0C305.10458 346.0 306.0 346.89542 306.0 348.0Z" fill-rule="nonzero"/><path fill="#34a853" clip-path="url(#id_0)" d="M306.0 360.0L298.0 360.0L298.0 348.0C298.0 346.89542 298.89542 346.0 300.0 346.0L304.0 346.0C305.10458 346.0 306.0 346.89542 306.0 348.0Z" fill-rule="nonzero"/><path stroke="#000000" stroke-width="8.0" stroke-linecap="butt" stroke-opacity="0.0" clip-path="url(#id_0)" d="M371.0 360.0L363.0 360.0L363.0 355.0C363.0 353.89542 363.89542 353.0 365.0 353.0L369.0 353.0C370.10458 353.0 371.0 353.89542 371.0 355.0Z" fill-rule="nonzero"/><path fill="#34a853" clip-path="url(#id_0)" d="M371.0 360.0L363.0 360.0L363.0 355.0C363.0 353.89542 363.89542 353.0 365.0 353.0L369.0 353.0C370.10458 353.0 371.0 353.89542 371.0 355.0Z" fill-rule="nonzero"/><path stroke="#000000" stroke-width="8.0" stroke-linecap="butt" stroke-opacity="0.0" clip-path="url(#id_0)" d="M435.0 360.0L427.0 360.0L427.0 335.0C427.0 333.89542 427.89542 333.0 429.0 333.0L433.0 333.0C434.10458 333.0 435.0 333.89542 435.0 335.0Z" fill-rule="nonzero"/><path fill="#34a853" clip-path="url(#id_0)" d="M435.0 360.0L427.0 360.0L427.0 335.0C427.0 333.89542 427.89542 333.0 429.0 333.0L433.0 333.0C434.10458 333.0 435.0 333.89542 435.0 335.0Z" fill-rule="nonzero"/><path stroke="#000000" stroke-width="8.0" stroke-linecap="butt" stroke-opacity="0.0" clip-path="url(#id_0)" d="M500.0 360.0L492.0 360.0L492.0 335.0C492.0 333.89542 492.89542 333.0 494.0 333.0L498.0 333.0C499.10458 333.0 500.0 333.89542 500.0 335.0Z" fill-rule="nonzero"/><path fill="#34a853" clip-path="url(#id_0)" d="M500.0 360.0L492.0 360.0L492.0 335.0C492.0 333.89542 492.89542 333.0 494.0 333.0L498.0 333.0C499.10458 333.0 500.0 333.89542 500.0 335.0Z" fill-rule="nonzero"/><path stroke="#000000" stroke-width="8.0" stroke-linecap="butt" stroke-opacity="0.0" clip-path="url(#id_0)" d="M565.0 360.0L557.0 360.0L557.0 355.0C557.0 353.89542 557.89545 353.0 559.0 353.0L563.0 353.0C564.10455 353.0 565.0 353.89542 565.0 355.0Z" fill-rule="nonzero"/><path fill="#34a853" clip-path="url(#id_0)" d="M565.0 360.0L557.0 360.0L557.0 355.0C557.0 353.89542 557.89545 353.0 559.0 353.0L563.0 353.0C564.10455 353.0 565.0 353.89542 565.0 355.0Z" fill-rule="nonzero"/><path stroke="#000000" stroke-width="8.0" stroke-linecap="butt" stroke-opacity="0.0" clip-path="url(#id_0)" d="M630.0 360.0L622.0 360.0L622.0 335.0C622.0 333.89542 622.89545 333.0 624.0 333.0L628.0 333.0C629.10455 333.0 630.0 333.89542 630.0 335.0Z" fill-rule="nonzero"/><path fill="#34a853" clip-path="url(#id_0)" d="M630.0 360.0L622.0 360.0L622.0 335.0C622.0 333.89542 622.89545 333.0 624.0 333.0L628.0 333.0C629.10455 333.0 630.0 333.89542 630.0 335.0Z" fill-rule="nonzero"/><path stroke="#000000" stroke-width="8.0" stroke-linecap="butt" stroke-opacity="0.0" clip-path="url(#id_0)" d="M694.0 360.0L686.0 360.0L686.0 348.0C686.0 346.89542 686.89545 346.0 688.0 346.0L692.0 346.0C693.10455 346.0 694.0 346.89542 694.0 348.0Z" fill-rule="nonzero"/><path fill="#34a853" clip-path="url(#id_0)" d="M694.0 360.0L686.0 360.0L686.0 348.0C686.0 346.89542 686.89545 346.0 688.0 346.0L692.0 346.0C693.10455 346.0 694.0 346.89542 694.0 348.0Z" fill-rule="nonzero"/><path stroke="#000000" stroke-width="8.0" stroke-linecap="butt" stroke-opacity="0.0" clip-path="url(#id_0)" d="M759.0 360.0L751.0 360.0L751.0 355.0C751.0 353.89542 751.89545 353.0 753.0 353.0L757.0 353.0C758.10455 353.0 759.0 353.89542 759.0 355.0Z" fill-rule="nonzero"/><path fill="#34a853" clip-path="url(#id_0)" d="M759.0 360.0L751.0 360.0L751.0 355.0C751.0 353.89542 751.89545 353.0 753.0 353.0L757.0 353.0C758.10455 353.0 759.0 353.89542 759.0 355.0Z" fill-rule="nonzero"/><path stroke="#000000" stroke-width="8.0" stroke-linecap="butt" stroke-opacity="0.0" clip-path="url(#id_0)" d="M824.0 360.0L816.0 360.0L816.0 355.0C816.0 353.89542 816.89545 353.0 818.0 353.0L822.0 353.0C823.10455 353.0 824.0 353.89542 824.0 355.0Z" fill-rule="nonzero"/><path fill="#34a853" clip-path="url(#id_0)" d="M824.0 360.0L816.0 360.0L816.0 355.0C816.0 353.89542 816.89545 353.0 818.0 353.0L822.0 353.0C823.10455 353.0 824.0 353.89542 824.0 355.0Z" fill-rule="nonzero"/><path stroke="#000000" stroke-width="8.0" stroke-linecap="butt" stroke-opacity="0.0" clip-path="url(#id_0)" d="M888.0 360.0L880.0 360.0L880.0 355.0C880.0 353.89542 880.89545 353.0 882.0 353.0L886.0 353.0C887.10455 353.0 888.0 353.89542 888.0 355.0Z" fill-rule="nonzero"/><path fill="#34a853" clip-path="url(#id_0)" d="M888.0 360.0L880.0 360.0L880.0 355.0C880.0 353.89542 880.89545 353.0 882.0 353.0L886.0 353.0C887.10455 353.0 888.0 353.89542 888.0 355.0Z" fill-rule="nonzero"/><path stroke="#000000" stroke-width="8.0" stroke-linecap="butt" stroke-opacity="0.0" clip-path="url(#id_0)" d="M120.0 360.0L112.0 360.0L112.0 311.0C112.0 309.89542 112.89543 309.0 114.0 309.0L118.0 309.0C119.10457 309.0 120.0 309.89542 120.0 311.0Z" fill-rule="nonzero"/><path fill="#ff6d01" clip-path="url(#id_0)" d="M120.0 360.0L112.0 360.0L112.0 311.0C112.0 309.89542 112.89543 309.0 114.0 309.0L118.0 309.0C119.10457 309.0 120.0 309.89542 120.0 311.0Z" fill-rule="nonzero"/><path stroke="#000000" stroke-width="8.0" stroke-linecap="butt" stroke-opacity="0.0" clip-path="url(#id_0)" d="M185.0 360.0L177.0 360.0L177.0 284.0C177.0 282.89542 177.89543 282.0 179.0 282.0L183.0 282.0C184.10457 282.0 185.0 282.89542 185.0 284.0Z" fill-rule="nonzero"/><path fill="#ff6d01" clip-path="url(#id_0)" d="M185.0 360.0L177.0 360.0L177.0 284.0C177.0 282.89542 177.89543 282.0 179.0 282.0L183.0 282.0C184.10457 282.0 185.0 282.89542 185.0 284.0Z" fill-rule="nonzero"/><path stroke="#000000" stroke-width="8.0" stroke-linecap="butt" stroke-opacity="0.0" clip-path="url(#id_0)" d="M249.0 360.0L241.0 360.0L241.0 352.0C241.0 350.89542 241.89543 350.0 243.0 350.0L247.0 350.0C248.10457 350.0 249.0 350.89542 249.0 352.0Z" fill-rule="nonzero"/><path fill="#ff6d01" clip-path="url(#id_0)" d="M249.0 360.0L241.0 360.0L241.0 352.0C241.0 350.89542 241.89543 350.0 243.0 350.0L247.0 350.0C248.10457 350.0 249.0 350.89542 249.0 352.0Z" fill-rule="nonzero"/><path stroke="#000000" stroke-width="8.0" stroke-linecap="butt" stroke-opacity="0.0" clip-path="url(#id_0)" d="M314.0 360.0L306.0 360.0L306.0 348.0C306.0 346.89542 306.89542 346.0 308.0 346.0L312.0 346.0C313.10458 346.0 314.0 346.89542 314.0 348.0Z" fill-rule="nonzero"/><path fill="#ff6d01" clip-path="url(#id_0)" d="M314.0 360.0L306.0 360.0L306.0 348.0C306.0 346.89542 306.89542 346.0 308.0 346.0L312.0 346.0C313.10458 346.0 314.0 346.89542 314.0 348.0Z" fill-rule="nonzero"/><path stroke="#000000" stroke-width="8.0" stroke-linecap="butt" stroke-opacity="0.0" clip-path="url(#id_0)" d="M443.0 360.0L435.0 360.0L435.0 352.0C435.0 350.89542 435.89542 350.0 437.0 350.0L441.0 350.0C442.10458 350.0 443.0 350.89542 443.0 352.0Z" fill-rule="nonzero"/><path fill="#ff6d01" clip-path="url(#id_0)" d="M443.0 360.0L435.0 360.0L435.0 352.0C435.0 350.89542 435.89542 350.0 437.0 350.0L441.0 350.0C442.10458 350.0 443.0 350.89542 443.0 352.0Z" fill-rule="nonzero"/><path stroke="#000000" stroke-width="8.0" stroke-linecap="butt" stroke-opacity="0.0" clip-path="url(#id_0)" d="M508.0 360.0L500.0 360.0L500.0 358.0C500.0 356.89542 500.89542 356.0 502.0 356.0L506.0 356.0C507.10458 356.0 508.0 356.89542 508.0 358.0Z" fill-rule="nonzero"/><path fill="#ff6d01" clip-path="url(#id_0)" d="M508.0 360.0L500.0 360.0L500.0 358.0C500.0 356.89542 500.89542 356.0 502.0 356.0L506.0 356.0C507.10458 356.0 508.0 356.89542 508.0 358.0Z" fill-rule="nonzero"/><path fill="#000000" d="M26.8 359.46564Q26.8 357.9344 27.1125 357.0125Q27.425 356.075 28.034374 355.575Q28.659374 355.075 29.596874 355.075Q30.284374 355.075 30.8 355.35626Q31.33125 355.6375 31.675 356.16876Q32.01875 356.6844 32.20625 357.4344Q32.39375 358.1844 32.39375 359.46564Q32.39375 360.98126 32.08125 361.90314Q31.784374 362.825 31.159374 363.34064Q30.55 363.84064 29.596874 363.84064Q28.3625 363.84064 27.64375 362.95Q26.8 361.8875 26.8 359.46564ZM27.878124 359.46564Q27.878124 361.575 28.378124 362.27814Q28.878124 362.98126 29.596874 362.98126Q30.33125 362.98126 30.815624 362.27814Q31.315624 361.575 31.315624 359.46564Q31.315624 357.34064 30.815624 356.65314Q30.33125 355.95 29.58125 355.95Q28.8625 355.95 28.425 356.5594Q27.878124 357.34064 27.878124 359.46564ZM34.39375 363.7L34.39375 362.4969L35.596874 362.4969L35.596874 363.7L34.39375 363.7ZM36.8 359.46564Q36.8 357.9344 37.1125 357.0125Q37.425 356.075 38.034374 355.575Q38.659374 355.075 39.596874 355.075Q40.284374 355.075 40.8 355.35626Q41.33125 355.6375 41.675 356.16876Q42.01875 356.6844 42.20625 357.4344Q42.39375 358.1844 42.39375 359.46564Q42.39375 360.98126 42.08125 361.90314Q41.784374 362.825 41.159374 363.34064Q40.55 363.84064 39.596874 363.84064Q38.3625 363.84064 37.64375 362.95Q36.8 361.8875 36.8 359.46564ZM37.878124 359.46564Q37.878124 361.575 38.378124 362.27814Q38.878124 362.98126 39.596874 362.98126Q40.33125 362.98126 40.815624 362.27814Q41.315624 361.575 41.315624 359.46564Q41.315624 357.34064 40.815624 356.65314Q40.33125 355.95 39.58125 355.95Q38.8625 355.95 38.425 356.5594Q37.878124 357.34064 37.878124 359.46564ZM44.096874 363.7L44.096874 355.10626L45.14375 355.10626L45.14375 358.1844Q45.878124 357.34064 47.003124 357.34064Q47.70625 357.34064 48.20625 357.6219Q48.721874 357.8875 48.940624 358.3719Q49.159374 358.84064 49.159374 359.7625L49.159374 363.7L48.1125 363.7L48.1125 359.7625Q48.1125 358.96564 47.76875 358.60626Q47.425 358.2469 46.8 358.2469Q46.33125 358.2469 45.909374 358.4969Q45.503124 358.73126 45.315624 359.15314Q45.14375 359.5594 45.14375 360.29376L45.14375 363.7L44.096874 363.7Z" fill-rule="nonzero"/><path fill="#000000" d="M23.76875 296.28333L22.721874 296.28333L22.721874 289.56458Q22.33125 289.92395 21.70625 290.29895Q21.096874 290.65833 20.6125 290.8302L20.6125 289.81458Q21.4875 289.3927 22.14375 288.81458Q22.815624 288.22083 23.096874 287.65833L23.76875 287.65833L23.76875 296.28333ZM26.8 292.04895Q26.8 290.5177 27.1125 289.59583Q27.425 288.65833 28.034374 288.15833Q28.659374 287.65833 29.596874 287.65833Q30.284374 287.65833 30.8 287.93958Q31.33125 288.22083 31.675 288.75208Q32.01875 289.2677 32.20625 290.0177Q32.39375 290.7677 32.39375 292.04895Q32.39375 293.56458 32.08125 294.48645Q31.784374 295.40833 31.159374 295.92395Q30.55 296.42395 29.596874 296.42395Q28.3625 296.42395 27.64375 295.53333Q26.8 294.47083 26.8 292.04895ZM27.878124 292.04895Q27.878124 294.15833 28.378124 294.86145Q28.878124 295.56458 29.596874 295.56458Q30.33125 295.56458 30.815624 294.86145Q31.315624 294.15833 31.315624 292.04895Q31.315624 289.92395 30.815624 289.23645Q30.33125 288.53333 29.58125 288.53333Q28.8625 288.53333 28.425 289.1427Q27.878124 289.92395 27.878124 292.04895ZM34.39375 296.28333L34.39375 295.0802L35.596874 295.0802L35.596874 296.28333L34.39375 296.28333ZM36.8 292.04895Q36.8 290.5177 37.1125 289.59583Q37.425 288.65833 38.034374 288.15833Q38.659374 287.65833 39.596874 287.65833Q40.284374 287.65833 40.8 287.93958Q41.33125 288.22083 41.675 288.75208Q42.01875 289.2677 42.20625 290.0177Q42.39375 290.7677 42.39375 292.04895Q42.39375 293.56458 42.08125 294.48645Q41.784374 295.40833 41.159374 295.92395Q40.55 296.42395 39.596874 296.42395Q38.3625 296.42395 37.64375 295.53333Q36.8 294.47083 36.8 292.04895ZM37.878124 292.04895Q37.878124 294.15833 38.378124 294.86145Q38.878124 295.56458 39.596874 295.56458Q40.33125 295.56458 40.815624 294.86145Q41.315624 294.15833 41.315624 292.04895Q41.315624 289.92395 40.815624 289.23645Q40.33125 288.53333 39.58125 288.53333Q38.8625 288.53333 38.425 289.1427Q37.878124 289.92395 37.878124 292.04895ZM44.096874 296.28333L44.096874 287.68958L45.14375 287.68958L45.14375 290.7677Q45.878124 289.92395 47.003124 289.92395Q47.70625 289.92395 48.20625 290.2052Q48.721874 290.47083 48.940624 290.9552Q49.159374 291.42395 49.159374 292.34583L49.159374 296.28333L48.1125 296.28333L48.1125 292.34583Q48.1125 291.54895 47.76875 291.18958Q47.425 290.8302 46.8 290.8302Q46.33125 290.8302 45.909374 291.0802Q45.503124 291.31458 45.315624 291.73645Q45.14375 292.1427 45.14375 292.87708L45.14375 296.28333L44.096874 296.28333Z" fill-rule="nonzero"/><path fill="#000000" d="M25.346874 227.85104L25.346874 228.86667L19.659374 228.86667Q19.659374 228.49167 19.784374 228.1323Q20.003124 227.55417 20.471874 226.99167Q20.95625 226.42917 21.8625 225.6948Q23.26875 224.53854 23.753124 223.86667Q24.253124 223.1948 24.253124 222.60104Q24.253124 221.97604 23.8 221.55417Q23.346874 221.11667 22.628124 221.11667Q21.8625 221.11667 21.409374 221.5698Q20.95625 222.02292 20.940624 222.83542L19.8625 222.72604Q19.971874 221.5073 20.690624 220.8823Q21.425 220.24167 22.659374 220.24167Q23.89375 220.24167 24.6125 220.92917Q25.33125 221.61667 25.33125 222.6323Q25.33125 223.14792 25.1125 223.64792Q24.909374 224.1323 24.409374 224.6948Q23.925 225.24167 22.8 226.1948Q21.846874 226.99167 21.565624 227.28854Q21.3 227.5698 21.128124 227.85104L25.346874 227.85104ZM26.8 224.6323Q26.8 223.10104 27.1125 222.17917Q27.425 221.24167 28.034374 220.74167Q28.659374 220.24167 29.596874 220.24167Q30.284374 220.24167 30.8 220.52292Q31.33125 220.80417 31.675 221.33542Q32.01875 221.85104 32.20625 222.60104Q32.39375 223.35104 32.39375 224.6323Q32.39375 226.14792 32.08125 227.0698Q31.784374 227.99167 31.159374 228.5073Q30.55 229.0073 29.596874 229.0073Q28.3625 229.0073 27.64375 228.11667Q26.8 227.05417 26.8 224.6323ZM27.878124 224.6323Q27.878124 226.74167 28.378124 227.4448Q28.878124 228.14792 29.596874 228.14792Q30.33125 228.14792 30.815624 227.4448Q31.315624 226.74167 31.315624 224.6323Q31.315624 222.5073 30.815624 221.8198Q30.33125 221.11667 29.58125 221.11667Q28.8625 221.11667 28.425 221.72604Q27.878124 222.5073 27.878124 224.6323ZM34.39375 228.86667L34.39375 227.66354L35.596874 227.66354L35.596874 228.86667L34.39375 228.86667ZM36.8 224.6323Q36.8 223.10104 37.1125 222.17917Q37.425 221.24167 38.034374 220.74167Q38.659374 220.24167 39.596874 220.24167Q40.284374 220.24167 40.8 220.52292Q41.33125 220.80417 41.675 221.33542Q42.01875 221.85104 42.20625 222.60104Q42.39375 223.35104 42.39375 224.6323Q42.39375 226.14792 42.08125 227.0698Q41.784374 227.99167 41.159374 228.5073Q40.55 229.0073 39.596874 229.0073Q38.3625 229.0073 37.64375 228.11667Q36.8 227.05417 36.8 224.6323ZM37.878124 224.6323Q37.878124 226.74167 38.378124 227.4448Q38.878124 228.14792 39.596874 228.14792Q40.33125 228.14792 40.815624 227.4448Q41.315624 226.74167 41.315624 224.6323Q41.315624 222.5073 40.815624 221.8198Q40.33125 221.11667 39.58125 221.11667Q38.8625 221.11667 38.425 221.72604Q37.878124 222.5073 37.878124 224.6323ZM44.096874 228.86667L44.096874 220.27292L45.14375 220.27292L45.14375 223.35104Q45.878124 222.5073 47.003124 222.5073Q47.70625 222.5073 48.20625 222.78854Q48.721874 223.05417 48.940624 223.53854Q49.159374 224.0073 49.159374 224.92917L49.159374 228.86667L48.1125 228.86667L48.1125 224.92917Q48.1125 224.1323 47.76875 223.77292Q47.425 223.41354 46.8 223.41354Q46.33125 223.41354 45.909374 223.66354Q45.503124 223.89792 45.315624 224.3198Q45.14375 224.72604 45.14375 225.46042L45.14375 228.86667L44.096874 228.86667Z" fill-rule="nonzero"/><path fill="#000000" d="M19.8 159.18437L20.8625 159.04375Q21.034374 159.93437 21.471874 160.34062Q21.909374 160.73125 22.534374 160.73125Q23.284374 160.73125 23.8 160.21562Q24.315624 159.7 24.315624 158.93437Q24.315624 158.21562 23.83125 157.74687Q23.3625 157.2625 22.628124 157.2625Q22.33125 157.2625 21.878124 157.3875L22.003124 156.45Q22.1125 156.46562 22.175 156.46562Q22.846874 156.46562 23.378124 156.12187Q23.925 155.7625 23.925 155.02812Q23.925 154.45 23.534374 154.075Q23.14375 153.68437 22.51875 153.68437Q21.909374 153.68437 21.4875 154.075Q21.08125 154.46562 20.971874 155.23125L19.909374 155.04375Q20.096874 153.99687 20.784374 153.41875Q21.471874 152.825 22.4875 152.825Q23.190624 152.825 23.784374 153.1375Q24.378124 153.43437 24.690624 153.95Q25.003124 154.46562 25.003124 155.05937Q25.003124 155.60625 24.70625 156.075Q24.409374 156.52812 23.83125 156.79375Q24.58125 156.96562 25.003124 157.52812Q25.425 158.075 25.425 158.91875Q25.425 160.04375 24.596874 160.825Q23.784374 161.60625 22.534374 161.60625Q21.409374 161.60625 20.659374 160.93437Q19.909374 160.24687 19.8 159.18437ZM26.8 157.21562Q26.8 155.68437 27.1125 154.7625Q27.425 153.825 28.034374 153.325Q28.659374 152.825 29.596874 152.825Q30.284374 152.825 30.8 153.10625Q31.33125 153.3875 31.675 153.91875Q32.01875 154.43437 32.20625 155.18437Q32.39375 155.93437 32.39375 157.21562Q32.39375 158.73125 32.08125 159.65312Q31.784374 160.575 31.159374 161.09062Q30.55 161.59062 29.596874 161.59062Q28.3625 161.59062 27.64375 160.7Q26.8 159.6375 26.8 157.21562ZM27.878124 157.21562Q27.878124 159.325 28.378124 160.02812Q28.878124 160.73125 29.596874 160.73125Q30.33125 160.73125 30.815624 160.02812Q31.315624 159.325 31.315624 157.21562Q31.315624 155.09062 30.815624 154.40312Q30.33125 153.7 29.58125 153.7Q28.8625 153.7 28.425 154.30937Q27.878124 155.09062 27.878124 157.21562ZM34.39375 161.45L34.39375 160.24687L35.596874 160.24687L35.596874 161.45L34.39375 161.45ZM36.8 157.21562Q36.8 155.68437 37.1125 154.7625Q37.425 153.825 38.034374 153.325Q38.659374 152.825 39.596874 152.825Q40.284374 152.825 40.8 153.10625Q41.33125 153.3875 41.675 153.91875Q42.01875 154.43437 42.20625 155.18437Q42.39375 155.93437 42.39375 157.21562Q42.39375 158.73125 42.08125 159.65312Q41.784374 160.575 41.159374 161.09062Q40.55 161.59062 39.596874 161.59062Q38.3625 161.59062 37.64375 160.7Q36.8 159.6375 36.8 157.21562ZM37.878124 157.21562Q37.878124 159.325 38.378124 160.02812Q38.878124 160.73125 39.596874 160.73125Q40.33125 160.73125 40.815624 160.02812Q41.315624 159.325 41.315624 157.21562Q41.315624 155.09062 40.815624 154.40312Q40.33125 153.7 39.58125 153.7Q38.8625 153.7 38.425 154.30937Q37.878124 155.09062 37.878124 157.21562ZM44.096874 161.45L44.096874 152.85625L45.14375 152.85625L45.14375 155.93437Q45.878124 155.09062 47.003124 155.09062Q47.70625 155.09062 48.20625 155.37187Q48.721874 155.6375 48.940624 156.12187Q49.159374 156.59062 49.159374 157.5125L49.159374 161.45L48.1125 161.45L48.1125 157.5125Q48.1125 156.71562 47.76875 156.35625Q47.425 155.99687 46.8 155.99687Q46.33125 155.99687 45.909374 156.24687Q45.503124 156.48125 45.315624 156.90312Q45.14375 157.30937 45.14375 158.04375L45.14375 161.45L44.096874 161.45Z" fill-rule="nonzero"/><path fill="#000000" d="M23.175 94.03333L23.175 91.97083L19.45625 91.97083L19.45625 91.00208L23.378124 85.43958L24.2375 85.43958L24.2375 91.00208L25.39375 91.00208L25.39375 91.97083L24.2375 91.97083L24.2375 94.03333L23.175 94.03333ZM23.175 91.00208L23.175 87.14271L20.4875 91.00208L23.175 91.00208ZM26.8 89.79896Q26.8 88.26771 27.1125 87.34583Q27.425 86.40833 28.034374 85.90833Q28.659374 85.40833 29.596874 85.40833Q30.284374 85.40833 30.8 85.68958Q31.33125 85.97083 31.675 86.50208Q32.01875 87.01771 32.20625 87.76771Q32.39375 88.51771 32.39375 89.79896Q32.39375 91.31458 32.08125 92.23646Q31.784374 93.15833 31.159374 93.67396Q30.55 94.17396 29.596874 94.17396Q28.3625 94.17396 27.64375 93.28333Q26.8 92.22083 26.8 89.79896ZM27.878124 89.79896Q27.878124 91.90833 28.378124 92.61146Q28.878124 93.31458 29.596874 93.31458Q30.33125 93.31458 30.815624 92.61146Q31.315624 91.90833 31.315624 89.79896Q31.315624 87.67396 30.815624 86.98646Q30.33125 86.28333 29.58125 86.28333Q28.8625 86.28333 28.425 86.89271Q27.878124 87.67396 27.878124 89.79896ZM34.39375 94.03333L34.39375 92.83021L35.596874 92.83021L35.596874 94.03333L34.39375 94.03333ZM36.8 89.79896Q36.8 88.26771 37.1125 87.34583Q37.425 86.40833 38.034374 85.90833Q38.659374 85.40833 39.596874 85.40833Q40.284374 85.40833 40.8 85.68958Q41.33125 85.97083 41.675 86.50208Q42.01875 87.01771 42.20625 87.76771Q42.39375 88.51771 42.39375 89.79896Q42.39375 91.31458 42.08125 92.23646Q41.784374 93.15833 41.159374 93.67396Q40.55 94.17396 39.596874 94.17396Q38.3625 94.17396 37.64375 93.28333Q36.8 92.22083 36.8 89.79896ZM37.878124 89.79896Q37.878124 91.90833 38.378124 92.61146Q38.878124 93.31458 39.596874 93.31458Q40.33125 93.31458 40.815624 92.61146Q41.315624 91.90833 41.315624 89.79896Q41.315624 87.67396 40.815624 86.98646Q40.33125 86.28333 39.58125 86.28333Q38.8625 86.28333 38.425 86.89271Q37.878124 87.67396 37.878124 89.79896ZM44.096874 94.03333L44.096874 85.43958L45.14375 85.43958L45.14375 88.51771Q45.878124 87.67396 47.003124 87.67396Q47.70625 87.67396 48.20625 87.95521Q48.721874 88.22083 48.940624 88.70521Q49.159374 89.17396 49.159374 90.09583L49.159374 94.03333L48.1125 94.03333L48.1125 90.09583Q48.1125 89.29896 47.76875 88.93958Q47.425 88.58021 46.8 88.58021Q46.33125 88.58021 45.909374 88.83021Q45.503124 89.06458 45.315624 89.48646Q45.14375 89.89271 45.14375 90.62708L45.14375 94.03333L44.096874 94.03333Z" fill-rule="nonzero"/><path fill="#4285f4" d="M241.0 58.166668C241.0 57.614384 241.44771 57.166668 242.0 57.166668L252.0 57.166668C252.55229 57.166668 253.0 57.614384 253.0 58.166668L253.0 68.166664C253.0 68.71895 252.55229 69.166664 252.0 69.166664L242.0 69.166664C241.44771 69.166664 241.0 68.71895 241.0 68.166664Z" fill-rule="nonzero"/><path fill="#1a1a1a" d="M260.98438 67.166664L264.28125 58.572914L265.5 58.572914L269.01562 67.166664L267.73438 67.166664L266.71875 64.55729L263.14062 64.55729L262.1875 67.166664L260.98438 67.166664ZM263.46875 63.635414L266.375 63.635414L265.48438 61.260414Q265.0625 60.18229 264.875 59.479164Q264.70312 60.30729 264.40625 61.11979L263.46875 63.635414ZM272.82812 67.166664L272.82812 66.385414Q272.23438 67.30729 271.09375 67.30729Q270.34375 67.30729 269.71875 66.90104Q269.09375 66.479164 268.75 65.74479Q268.40625 65.010414 268.40625 64.05729Q268.40625 63.135414 268.71875 62.36979Q269.03125 61.604164 269.65625 61.21354Q270.28125 60.80729 271.04688 60.80729Q271.60938 60.80729 272.04688 61.041664Q272.48438 61.27604 272.76562 61.65104L272.76562 58.572914L273.8125 58.572914L273.8125 67.166664L272.82812 67.166664ZM269.5 64.05729Q269.5 65.260414 270.0 65.854164Q270.5 66.43229 271.1875 66.43229Q271.875 66.43229 272.35938 65.86979Q272.84375 65.30729 272.84375 64.15104Q272.84375 62.86979 272.34375 62.27604Q271.85938 61.68229 271.14062 61.68229Q270.4375 61.68229 269.96875 62.260414Q269.5 62.822914 269.5 64.05729ZM275.79688 67.166664L275.79688 60.947914L276.73438 60.947914L276.73438 61.822914Q277.03125 61.354164 277.51562 61.08854Q278.0 60.80729 278.625 60.80729Q279.3125 60.80729 279.75 61.08854Q280.20312 61.36979 280.375 61.885414Q281.125 60.80729 282.29688 60.80729Q283.23438 60.80729 283.71875 61.322914Q284.21875 61.822914 284.21875 62.90104L284.21875 67.166664L283.17188 67.166664L283.17188 63.24479Q283.17188 62.61979 283.0625 62.33854Q282.96875 62.05729 282.70312 61.885414Q282.4375 61.71354 282.0625 61.71354Q281.40625 61.71354 280.96875 62.15104Q280.54688 62.58854 280.54688 63.55729L280.54688 67.166664L279.48438 67.166664L279.48438 63.11979Q279.48438 62.416664 279.21875 62.072914Q278.96875 61.71354 278.39062 61.71354Q277.9375 61.71354 277.5625 61.947914Q277.1875 62.18229 277.01562 62.635414Q276.84375 63.08854 276.84375 63.93229L276.84375 67.166664L275.79688 67.166664ZM286.79688 59.791664L286.79688 58.572914L287.85938 58.572914L287.85938 59.791664L286.79688 59.791664ZM286.79688 67.166664L286.79688 60.947914L287.85938 60.947914L287.85938 67.166664L286.79688 67.166664ZM289.79688 67.166664L289.79688 60.947914L290.73438 60.947914L290.73438 61.822914Q291.42188 60.80729 292.71875 60.80729Q293.28125 60.80729 293.75 61.010414Q294.23438 61.21354 294.46875 61.541664Q294.70312 61.86979 294.79688 62.30729Q294.84375 62.604164 294.84375 63.33854L294.84375 67.166664L293.79688 67.166664L293.79688 63.385414Q293.79688 62.729164 293.67188 62.416664Q293.54688 62.104164 293.23438 61.916664Q292.92188 61.71354 292.5 61.71354Q291.82812 61.71354 291.32812 62.15104Q290.84375 62.572914 290.84375 63.760414L290.84375 67.166664L289.79688 67.166664Z" fill-rule="nonzero"/><path fill="#ea4335" d="M312.0 58.166668C312.0 57.614384 312.44772 57.166668 313.0 57.166668L323.0 57.166668C323.55228 57.166668 324.0 57.614384 324.0 58.166668L324.0 68.166664C324.0 68.71895 323.55228 69.166664 323.0 69.166664L313.0 69.166664C312.44772 69.166664 312.0 68.71895 312.0 68.166664Z" fill-rule="nonzero"/><path fill="#1a1a1a" d="M332.92188 67.166664L332.92188 58.572914L335.89062 58.572914Q336.89062 58.572914 337.42188 58.697914Q338.15625 58.86979 338.67188 59.30729Q339.35938 59.885414 339.6875 60.791664Q340.03125 61.68229 340.03125 62.822914Q340.03125 63.80729 339.79688 64.55729Q339.57812 65.30729 339.21875 65.80729Q338.85938 66.30729 338.42188 66.58854Q338.0 66.86979 337.40625 67.02604Q336.8125 67.166664 336.03125 67.166664L332.92188 67.166664ZM334.0625 66.15104L335.89062 66.15104Q336.75 66.15104 337.23438 65.99479Q337.71875 65.83854 338.0 65.541664Q338.40625 65.15104 338.625 64.46354Q338.85938 63.77604 338.85938 62.80729Q338.85938 61.46354 338.40625 60.74479Q337.96875 60.010414 337.34375 59.760414Q336.875 59.58854 335.875 59.58854L334.0625 59.58854L334.0625 66.15104ZM341.40625 64.05729Q341.40625 62.322914 342.35938 61.49479Q343.15625 60.80729 344.3125 60.80729Q345.59375 60.80729 346.40625 61.65104Q347.23438 62.479164 347.23438 63.96354Q347.23438 65.166664 346.875 65.854164Q346.51562 66.541664 345.8125 66.93229Q345.125 67.30729 344.3125 67.30729Q343.01562 67.30729 342.20312 66.479164Q341.40625 65.635414 341.40625 64.05729ZM342.48438 64.05729Q342.48438 65.24479 343.0 65.83854Q343.53125 66.43229 344.3125 66.43229Q345.10938 66.43229 345.625 65.83854Q346.14062 65.24479 346.14062 64.02604Q346.14062 62.86979 345.60938 62.27604Q345.09375 61.68229 344.3125 61.68229Q343.53125 61.68229 343.0 62.27604Q342.48438 62.854164 342.48438 64.05729ZM352.85938 64.885414L353.89062 65.02604Q353.71875 66.08854 353.01562 66.697914Q352.3125 67.30729 351.29688 67.30729Q350.01562 67.30729 349.23438 66.479164Q348.46875 65.635414 348.46875 64.072914Q348.46875 63.072914 348.79688 62.322914Q349.14062 61.55729 349.8125 61.18229Q350.5 60.80729 351.3125 60.80729Q352.3125 60.80729 352.95312 61.322914Q353.60938 61.822914 353.79688 62.77604L352.76562 62.93229Q352.625 62.30729 352.25 61.99479Q351.875 61.666664 351.34375 61.666664Q350.54688 61.666664 350.04688 62.24479Q349.54688 62.80729 349.54688 64.041664Q349.54688 65.30729 350.03125 65.86979Q350.51562 66.43229 351.28125 66.43229Q351.90625 66.43229 352.3125 66.05729Q352.73438 65.68229 352.85938 64.885414ZM358.875 67.166664L358.875 66.24479Q358.14062 67.30729 356.89062 67.30729Q356.34375 67.30729 355.85938 67.104164Q355.39062 66.885414 355.15625 66.572914Q354.92188 66.24479 354.82812 65.77604Q354.76562 65.479164 354.76562 64.791664L354.76562 60.947914L355.82812 60.947914L355.82812 64.40104Q355.82812 65.21354 355.89062 65.510414Q355.98438 65.916664 356.29688 66.166664Q356.625 66.40104 357.10938 66.40104Q357.57812 66.40104 357.98438 66.166664Q358.40625 65.916664 358.57812 65.49479Q358.76562 65.072914 358.76562 64.27604L358.76562 60.947914L359.8125 60.947914L359.8125 67.166664L358.875 67.166664ZM361.79688 67.166664L361.79688 60.947914L362.73438 60.947914L362.73438 61.822914Q363.03125 61.354164 363.51562 61.08854Q364.0 60.80729 364.625 60.80729Q365.3125 60.80729 365.75 61.08854Q366.20312 61.36979 366.375 61.885414Q367.125 60.80729 368.29688 60.80729Q369.23438 60.80729 369.71875 61.322914Q370.21875 61.822914 370.21875 62.90104L370.21875 67.166664L369.17188 67.166664L369.17188 63.24479Q369.17188 62.61979 369.0625 62.33854Q368.96875 62.05729 368.70312 61.885414Q368.4375 61.71354 368.0625 61.71354Q367.40625 61.71354 366.96875 62.15104Q366.54688 62.58854 366.54688 63.55729L366.54688 67.166664L365.48438 67.166664L365.48438 63.11979Q365.48438 62.416664 365.21875 62.072914Q364.96875 61.71354 364.39062 61.71354Q363.9375 61.71354 363.5625 61.947914Q363.1875 62.18229 363.01562 62.635414Q362.84375 63.08854 362.84375 63.93229L362.84375 67.166664L361.79688 67.166664ZM377.04688 65.166664L378.14062 65.291664Q377.89062 66.24479 377.1875 66.77604Q376.48438 67.30729 375.40625 67.30729Q374.04688 67.30729 373.23438 66.46354Q372.4375 65.61979 372.4375 64.104164Q372.4375 62.541664 373.25 61.68229Q374.0625 60.80729 375.34375 60.80729Q376.59375 60.80729 377.375 61.65104Q378.17188 62.49479 378.17188 64.041664Q378.17188 64.135414 378.17188 64.322914L373.53125 64.322914Q373.59375 65.354164 374.10938 65.90104Q374.625 66.43229 375.40625 66.43229Q375.98438 66.43229 376.39062 66.135414Q376.8125 65.822914 377.04688 65.166664ZM373.59375 63.46354L377.0625 63.46354Q377.0 62.666664 376.67188 62.27604Q376.15625 61.666664 375.35938 61.666664Q374.625 61.666664 374.125 62.15104Q373.64062 62.635414 373.59375 63.46354ZM379.79688 67.166664L379.79688 60.947914L380.73438 60.947914L380.73438 61.822914Q381.42188 60.80729 382.71875 60.80729Q383.28125 60.80729 383.75 61.010414Q384.23438 61.21354 384.46875 61.541664Q384.70312 61.86979 384.79688 62.30729Q384.84375 62.604164 384.84375 63.33854L384.84375 67.166664L383.79688 67.166664L383.79688 63.385414Q383.79688 62.729164 383.67188 62.416664Q383.54688 62.104164 383.23438 61.916664Q382.92188 61.71354 382.5 61.71354Q381.82812 61.71354 381.32812 62.15104Q380.84375 62.572914 380.84375 63.760414L380.84375 67.166664L379.79688 67.166664ZM389.09375 66.229164L389.25 67.15104Q388.79688 67.24479 388.45312 67.24479Q387.875 67.24479 387.5625 67.072914Q387.25 66.885414 387.10938 66.58854Q386.98438 66.291664 386.98438 65.33854L386.98438 61.760414L386.21875 61.760414L386.21875 60.947914L386.98438 60.947914L386.98438 59.40104L388.03125 58.77604L388.03125 60.947914L389.09375 60.947914L389.09375 61.760414L388.03125 61.760414L388.03125 65.40104Q388.03125 65.854164 388.07812 65.979164Q388.14062 66.104164 388.26562 66.18229Q388.39062 66.260414 388.625 66.260414Q388.8125 66.260414 389.09375 66.229164ZM393.85938 66.40104Q393.26562 66.90104 392.71875 67.104164Q392.1875 67.30729 391.5625 67.30729Q390.53125 67.30729 389.98438 66.80729Q389.4375 66.30729 389.4375 65.52604Q389.4375 65.072914 389.64062 64.697914Q389.84375 64.30729 390.1875 64.08854Q390.53125 63.854164 390.95312 63.74479Q391.25 63.65104 391.89062 63.572914Q393.15625 63.43229 393.76562 63.21354Q393.76562 62.99479 393.76562 62.947914Q393.76562 62.291664 393.46875 62.02604Q393.0625 61.68229 392.26562 61.68229Q391.53125 61.68229 391.17188 61.947914Q390.8125 62.197914 390.64062 62.854164L389.60938 62.71354Q389.75 62.05729 390.07812 61.65104Q390.40625 61.24479 391.01562 61.02604Q391.625 60.80729 392.42188 60.80729Q393.21875 60.80729 393.71875 60.99479Q394.21875 61.18229 394.45312 61.46354Q394.6875 61.74479 394.78125 62.18229Q394.82812 62.447914 394.82812 63.15104L394.82812 64.55729Q394.82812 66.02604 394.89062 66.416664Q394.96875 66.80729 395.17188 67.166664L394.0625 67.166664Q393.90625 66.83854 393.85938 66.40104ZM393.76562 64.041664Q393.1875 64.27604 392.04688 64.447914Q391.39062 64.541664 391.125 64.666664Q390.85938 64.77604 390.70312 64.99479Q390.5625 65.21354 390.5625 65.49479Q390.5625 65.916664 390.875 66.197914Q391.20312 66.479164 391.8125 66.479164Q392.42188 66.479164 392.89062 66.21354Q393.375 65.947914 393.59375 65.479164Q393.76562 65.11979 393.76562 64.43229L393.76562 64.041664ZM399.09375 66.229164L399.25 67.15104Q398.79688 67.24479 398.45312 67.24479Q397.875 67.24479 397.5625 67.072914Q397.25 66.885414 397.10938 66.58854Q396.98438 66.291664 396.98438 65.33854L396.98438 61.760414L396.21875 61.760414L396.21875 60.947914L396.98438 60.947914L396.98438 59.40104L398.03125 58.77604L398.03125 60.947914L399.09375 60.947914L399.09375 61.760414L398.03125 61.760414L398.03125 65.40104Q398.03125 65.854164 398.07812 65.979164Q398.14062 66.104164 398.26562 66.18229Q398.39062 66.260414 398.625 66.260414Q398.8125 66.260414 399.09375 66.229164ZM399.79688 59.791664L399.79688 58.572914L400.85938 58.572914L400.85938 59.791664L399.79688 59.791664ZM399.79688 67.166664L399.79688 60.947914L400.85938 60.947914L400.85938 67.166664L399.79688 67.166664ZM402.40625 64.05729Q402.40625 62.322914 403.35938 61.49479Q404.15625 60.80729 405.3125 60.80729Q406.59375 60.80729 407.40625 61.65104Q408.23438 62.479164 408.23438 63.96354Q408.23438 65.166664 407.875 65.854164Q407.51562 66.541664 406.8125 66.93229Q406.125 67.30729 405.3125 67.30729Q404.01562 67.30729 403.20312 66.479164Q402.40625 65.635414 402.40625 64.05729ZM403.48438 64.05729Q403.48438 65.24479 404.0 65.83854Q404.53125 66.43229 405.3125 66.43229Q406.10938 66.43229 406.625 65.83854Q407.14062 65.24479 407.14062 64.02604Q407.14062 62.86979 406.60938 62.27604Q406.09375 61.68229 405.3125 61.68229Q404.53125 61.68229 404.0 62.27604Q403.48438 62.854164 403.48438 64.05729ZM409.79688 67.166664L409.79688 60.947914L410.73438 60.947914L410.73438 61.822914Q411.42188 60.80729 412.71875 60.80729Q413.28125 60.80729 413.75 61.010414Q414.23438 61.21354 414.46875 61.541664Q414.70312 61.86979 414.79688 62.30729Q414.84375 62.604164 414.84375 63.33854L414.84375 67.166664L413.79688 67.166664L413.79688 63.385414Q413.79688 62.729164 413.67188 62.416664Q413.54688 62.104164 413.23438 61.916664Q412.92188 61.71354 412.5 61.71354Q411.82812 61.71354 411.32812 62.15104Q410.84375 62.572914 410.84375 63.760414L410.84375 67.166664L409.79688 67.166664Z" fill-rule="nonzero"/><path fill="#fbbc04" d="M432.0 58.166668C432.0 57.614384 432.44772 57.166668 433.0 57.166668L443.0 57.166668C443.55228 57.166668 444.0 57.614384 444.0 58.166668L444.0 68.166664C444.0 68.71895 443.55228 69.166664 443.0 69.166664L433.0 69.166664C432.44772 69.166664 432.0 68.71895 432.0 68.166664Z" fill-rule="nonzero"/><path fill="#1a1a1a" d="M453.125 67.166664L453.125 58.572914L454.25 58.572914L454.25 67.166664L453.125 67.166664ZM455.79688 67.166664L455.79688 60.947914L456.73438 60.947914L456.73438 61.822914Q457.03125 61.354164 457.51562 61.08854Q458.0 60.80729 458.625 60.80729Q459.3125 60.80729 459.75 61.08854Q460.20312 61.36979 460.375 61.885414Q461.125 60.80729 462.29688 60.80729Q463.23438 60.80729 463.71875 61.322914Q464.21875 61.822914 464.21875 62.90104L464.21875 67.166664L463.17188 67.166664L463.17188 63.24479Q463.17188 62.61979 463.0625 62.33854Q462.96875 62.05729 462.70312 61.885414Q462.4375 61.71354 462.0625 61.71354Q461.40625 61.71354 460.96875 62.15104Q460.54688 62.58854 460.54688 63.55729L460.54688 67.166664L459.48438 67.166664L459.48438 63.11979Q459.48438 62.416664 459.21875 62.072914Q458.96875 61.71354 458.39062 61.71354Q457.9375 61.71354 457.5625 61.947914Q457.1875 62.18229 457.01562 62.635414Q456.84375 63.08854 456.84375 63.93229L456.84375 67.166664L455.79688 67.166664ZM466.79688 69.55729L466.79688 60.947914L467.75 60.947914L467.75 61.74479Q468.09375 61.27604 468.51562 61.041664Q468.95312 60.80729 469.5625 60.80729Q470.35938 60.80729 470.96875 61.21354Q471.57812 61.61979 471.875 62.36979Q472.1875 63.11979 472.1875 64.010414Q472.1875 64.96354 471.84375 65.729164Q471.51562 66.49479 470.85938 66.90104Q470.20312 67.30729 469.48438 67.30729Q468.95312 67.30729 468.53125 67.08854Q468.10938 66.854164 467.84375 66.52604L467.84375 69.55729L466.79688 69.55729ZM467.75 64.08854Q467.75 65.291664 468.23438 65.86979Q468.71875 66.43229 469.40625 66.43229Q470.10938 66.43229 470.60938 65.83854Q471.10938 65.24479 471.10938 63.99479Q471.10938 62.80729 470.625 62.229164Q470.14062 61.635414 469.45312 61.635414Q468.78125 61.635414 468.26562 62.260414Q467.75 62.885414 467.75 64.08854ZM473.76562 67.166664L473.76562 58.572914L474.82812 58.572914L474.82812 67.166664L473.76562 67.166664ZM481.04688 65.166664L482.14062 65.291664Q481.89062 66.24479 481.1875 66.77604Q480.48438 67.30729 479.40625 67.30729Q478.04688 67.30729 477.23438 66.46354Q476.4375 65.61979 476.4375 64.104164Q476.4375 62.541664 477.25 61.68229Q478.0625 60.80729 479.34375 60.80729Q480.59375 60.80729 481.375 61.65104Q482.17188 62.49479 482.17188 64.041664Q482.17188 64.135414 482.17188 64.322914L477.53125 64.322914Q477.59375 65.354164 478.10938 65.90104Q478.625 66.43229 479.40625 66.43229Q479.98438 66.43229 480.39062 66.135414Q480.8125 65.822914 481.04688 65.166664ZM477.59375 63.46354L481.0625 63.46354Q481.0 62.666664 480.67188 62.27604Q480.15625 61.666664 479.35938 61.666664Q478.625 61.666664 478.125 62.15104Q477.64062 62.635414 477.59375 63.46354ZM483.79688 67.166664L483.79688 60.947914L484.73438 60.947914L484.73438 61.822914Q485.03125 61.354164 485.51562 61.08854Q486.0 60.80729 486.625 60.80729Q487.3125 60.80729 487.75 61.08854Q488.20312 61.36979 488.375 61.885414Q489.125 60.80729 490.29688 60.80729Q491.23438 60.80729 491.71875 61.322914Q492.21875 61.822914 492.21875 62.90104L492.21875 67.166664L491.17188 67.166664L491.17188 63.24479Q491.17188 62.61979 491.0625 62.33854Q490.96875 62.05729 490.70312 61.885414Q490.4375 61.71354 490.0625 61.71354Q489.40625 61.71354 488.96875 62.15104Q488.54688 62.58854 488.54688 63.55729L488.54688 67.166664L487.48438 67.166664L487.48438 63.11979Q487.48438 62.416664 487.21875 62.072914Q486.96875 61.71354 486.39062 61.71354Q485.9375 61.71354 485.5625 61.947914Q485.1875 62.18229 485.01562 62.635414Q484.84375 63.08854 484.84375 63.93229L484.84375 67.166664L483.79688 67.166664ZM499.04688 65.166664L500.14062 65.291664Q499.89062 66.24479 499.1875 66.77604Q498.48438 67.30729 497.40625 67.30729Q496.04688 67.30729 495.23438 66.46354Q494.4375 65.61979 494.4375 64.104164Q494.4375 62.541664 495.25 61.68229Q496.0625 60.80729 497.34375 60.80729Q498.59375 60.80729 499.375 61.65104Q500.17188 62.49479 500.17188 64.041664Q500.17188 64.135414 500.17188 64.322914L495.53125 64.322914Q495.59375 65.354164 496.10938 65.90104Q496.625 66.43229 497.40625 66.43229Q497.98438 66.43229 498.39062 66.135414Q498.8125 65.822914 499.04688 65.166664ZM495.59375 63.46354L499.0625 63.46354Q499.0 62.666664 498.67188 62.27604Q498.15625 61.666664 497.35938 61.666664Q496.625 61.666664 496.125 62.15104Q495.64062 62.635414 495.59375 63.46354ZM501.79688 67.166664L501.79688 60.947914L502.73438 60.947914L502.73438 61.822914Q503.42188 60.80729 504.71875 60.80729Q505.28125 60.80729 505.75 61.010414Q506.23438 61.21354 506.46875 61.541664Q506.70312 61.86979 506.79688 62.30729Q506.84375 62.604164 506.84375 63.33854L506.84375 67.166664L505.79688 67.166664L505.79688 63.385414Q505.79688 62.729164 505.67188 62.416664Q505.54688 62.104164 505.23438 61.916664Q504.92188 61.71354 504.5 61.71354Q503.82812 61.71354 503.32812 62.15104Q502.84375 62.572914 502.84375 63.760414L502.84375 67.166664L501.79688 67.166664ZM511.09375 66.229164L511.25 67.15104Q510.79688 67.24479 510.45312 67.24479Q509.875 67.24479 509.5625 67.072914Q509.25 66.885414 509.10938 66.58854Q508.98438 66.291664 508.98438 65.33854L508.98438 61.760414L508.21875 61.760414L508.21875 60.947914L508.98438 60.947914L508.98438 59.40104L510.03125 58.77604L510.03125 60.947914L511.09375 60.947914L511.09375 61.760414L510.03125 61.760414L510.03125 65.40104Q510.03125 65.854164 510.07812 65.979164Q510.14062 66.104164 510.26562 66.18229Q510.39062 66.260414 510.625 66.260414Q510.8125 66.260414 511.09375 66.229164ZM515.8594 66.40104Q515.2656 66.90104 514.71875 67.104164Q514.1875 67.30729 513.5625 67.30729Q512.53125 67.30729 511.98438 66.80729Q511.4375 66.30729 511.4375 65.52604Q511.4375 65.072914 511.64062 64.697914Q511.84375 64.30729 512.1875 64.08854Q512.53125 63.854164 512.9531 63.74479Q513.25 63.65104 513.8906 63.572914Q515.15625 63.43229 515.7656 63.21354Q515.7656 62.99479 515.7656 62.947914Q515.7656 62.291664 515.46875 62.02604Q515.0625 61.68229 514.2656 61.68229Q513.53125 61.68229 513.1719 61.947914Q512.8125 62.197914 512.6406 62.854164L511.60938 62.71354Q511.75 62.05729 512.0781 61.65104Q512.40625 61.24479 513.0156 61.02604Q513.625 60.80729 514.4219 60.80729Q515.21875 60.80729 515.71875 60.99479Q516.21875 61.18229 516.4531 61.46354Q516.6875 61.74479 516.78125 62.18229Q516.8281 62.447914 516.8281 63.15104L516.8281 64.55729Q516.8281 66.02604 516.8906 66.416664Q516.96875 66.80729 517.1719 67.166664L516.0625 67.166664Q515.90625 66.83854 515.8594 66.40104ZM515.7656 64.041664Q515.1875 64.27604 514.0469 64.447914Q513.3906 64.541664 513.125 64.666664Q512.8594 64.77604 512.7031 64.99479Q512.5625 65.21354 512.5625 65.49479Q512.5625 65.916664 512.875 66.197914Q513.2031 66.479164 513.8125 66.479164Q514.4219 66.479164 514.8906 66.21354Q515.375 65.947914 515.59375 65.479164Q515.7656 65.11979 515.7656 64.43229L515.7656 64.041664ZM521.09375 66.229164L521.25 67.15104Q520.7969 67.24479 520.4531 67.24479Q519.875 67.24479 519.5625 67.072914Q519.25 66.885414 519.1094 66.58854Q518.9844 66.291664 518.9844 65.33854L518.9844 61.760414L518.21875 61.760414L518.21875 60.947914L518.9844 60.947914L518.9844 59.40104L520.03125 58.77604L520.03125 60.947914L521.09375 60.947914L521.09375 61.760414L520.03125 61.760414L520.03125 65.40104Q520.03125 65.854164 520.0781 65.979164Q520.1406 66.104164 520.2656 66.18229Q520.3906 66.260414 520.625 66.260414Q520.8125 66.260414 521.09375 66.229164ZM521.7969 59.791664L521.7969 58.572914L522.8594 58.572914L522.8594 59.791664L521.7969 59.791664ZM521.7969 67.166664L521.7969 60.947914L522.8594 60.947914L522.8594 67.166664L521.7969 67.166664ZM524.40625 64.05729Q524.40625 62.322914 525.3594 61.49479Q526.15625 60.80729 527.3125 60.80729Q528.59375 60.80729 529.40625 61.65104Q530.2344 62.479164 530.2344 63.96354Q530.2344 65.166664 529.875 65.854164Q529.5156 66.541664 528.8125 66.93229Q528.125 67.30729 527.3125 67.30729Q526.0156 67.30729 525.2031 66.479164Q524.40625 65.635414 524.40625 64.05729ZM525.4844 64.05729Q525.4844 65.24479 526.0 65.83854Q526.53125 66.43229 527.3125 66.43229Q528.1094 66.43229 528.625 65.83854Q529.1406 65.24479 529.1406 64.02604Q529.1406 62.86979 528.6094 62.27604Q528.09375 61.68229 527.3125 61.68229Q526.53125 61.68229 526.0 62.27604Q525.4844 62.854164 525.4844 64.05729ZM531.7969 67.166664L531.7969 60.947914L532.7344 60.947914L532.7344 61.822914Q533.4219 60.80729 534.71875 60.80729Q535.28125 60.80729 535.75 61.010414Q536.2344 61.21354 536.46875 61.541664Q536.7031 61.86979 536.7969 62.30729Q536.84375 62.604164 536.84375 63.33854L536.84375 67.166664L535.7969 67.166664L535.7969 63.385414Q535.7969 62.729164 535.6719 62.416664Q535.5469 62.104164 535.2344 61.916664Q534.9219 61.71354 534.5 61.71354Q533.8281 61.71354 533.3281 62.15104Q532.84375 62.572914 532.84375 63.760414L532.84375 67.166664L531.7969 67.166664Z" fill-rule="nonzero"/><path fill="#34a853" d="M554.0 58.166668C554.0 57.614384 554.4477 57.166668 555.0 57.166668L565.0 57.166668C565.5523 57.166668 566.0 57.614384 566.0 58.166668L566.0 68.166664C566.0 68.71895 565.5523 69.166664 565.0 69.166664L555.0 69.166664C554.4477 69.166664 554.0 68.71895 554.0 68.166664Z" fill-rule="nonzero"/><path fill="#1a1a1a" d="M574.8906 67.166664L574.8906 58.572914L576.6094 58.572914L578.6406 64.65104Q578.9219 65.510414 579.0469 65.93229Q579.1875 65.46354 579.5 64.55729L581.5625 58.572914L583.09375 58.572914L583.09375 67.166664L582.0 67.166664L582.0 59.979164L579.5 67.166664L578.46875 67.166664L575.9844 59.854164L575.9844 67.166664L574.8906 67.166664ZM588.0469 65.166664L589.1406 65.291664Q588.8906 66.24479 588.1875 66.77604Q587.4844 67.30729 586.40625 67.30729Q585.0469 67.30729 584.2344 66.46354Q583.4375 65.61979 583.4375 64.104164Q583.4375 62.541664 584.25 61.68229Q585.0625 60.80729 586.34375 60.80729Q587.59375 60.80729 588.375 61.65104Q589.1719 62.49479 589.1719 64.041664Q589.1719 64.135414 589.1719 64.322914L584.53125 64.322914Q584.59375 65.354164 585.1094 65.90104Q585.625 66.43229 586.40625 66.43229Q586.9844 66.43229 587.3906 66.135414Q587.8125 65.822914 588.0469 65.166664ZM584.59375 63.46354L588.0625 63.46354Q588.0 62.666664 587.6719 62.27604Q587.15625 61.666664 586.3594 61.666664Q585.625 61.666664 585.125 62.15104Q584.6406 62.635414 584.59375 63.46354ZM595.0469 65.166664L596.1406 65.291664Q595.8906 66.24479 595.1875 66.77604Q594.4844 67.30729 593.40625 67.30729Q592.0469 67.30729 591.2344 66.46354Q590.4375 65.61979 590.4375 64.104164Q590.4375 62.541664 591.25 61.68229Q592.0625 60.80729 593.34375 60.80729Q594.59375 60.80729 595.375 61.65104Q596.1719 62.49479 596.1719 64.041664Q596.1719 64.135414 596.1719 64.322914L591.53125 64.322914Q591.59375 65.354164 592.1094 65.90104Q592.625 66.43229 593.40625 66.43229Q593.9844 66.43229 594.3906 66.135414Q594.8125 65.822914 595.0469 65.166664ZM591.59375 63.46354L595.0625 63.46354Q595.0 62.666664 594.6719 62.27604Q594.15625 61.666664 593.3594 61.666664Q592.625 61.666664 592.125 62.15104Q591.6406 62.635414 591.59375 63.46354ZM600.09375 66.229164L600.25 67.15104Q599.7969 67.24479 599.4531 67.24479Q598.875 67.24479 598.5625 67.072914Q598.25 66.885414 598.1094 66.58854Q597.9844 66.291664 597.9844 65.33854L597.9844 61.760414L597.21875 61.760414L597.21875 60.947914L597.9844 60.947914L597.9844 59.40104L599.03125 58.77604L599.03125 60.947914L600.09375 60.947914L600.09375 61.760414L599.03125 61.760414L599.03125 65.40104Q599.03125 65.854164 599.0781 65.979164Q599.1406 66.104164 599.2656 66.18229Q599.3906 66.260414 599.625 66.260414Q599.8125 66.260414 600.09375 66.229164ZM600.7969 59.791664L600.7969 58.572914L601.8594 58.572914L601.8594 59.791664L600.7969 59.791664ZM600.7969 67.166664L600.7969 60.947914L601.8594 60.947914L601.8594 67.166664L600.7969 67.166664ZM603.7969 67.166664L603.7969 60.947914L604.7344 60.947914L604.7344 61.822914Q605.4219 60.80729 606.71875 60.80729Q607.28125 60.80729 607.75 61.010414Q608.2344 61.21354 608.46875 61.541664Q608.7031 61.86979 608.7969 62.30729Q608.84375 62.604164 608.84375 63.33854L608.84375 67.166664L607.7969 67.166664L607.7969 63.385414Q607.7969 62.729164 607.6719 62.416664Q607.5469 62.104164 607.2344 61.916664Q606.9219 61.71354 606.5 61.71354Q605.8281 61.71354 605.3281 62.15104Q604.84375 62.572914 604.84375 63.760414L604.84375 67.166664L603.7969 67.166664ZM610.59375 67.68229L611.625 67.83854Q611.6875 68.30729 611.9844 68.52604Q612.375 68.822914 613.0469 68.822914Q613.78125 68.822914 614.1719 68.52604Q614.5781 68.229164 614.71875 67.71354Q614.8125 67.385414 614.7969 66.354164Q614.1094 67.166664 613.0781 67.166664Q611.7969 67.166664 611.09375 66.24479Q610.3906 65.30729 610.3906 64.02604Q610.3906 63.135414 610.7031 62.385414Q611.03125 61.61979 611.6406 61.21354Q612.25 60.80729 613.0781 60.80729Q614.1875 60.80729 614.90625 61.697914L614.90625 60.947914L615.875 60.947914L615.875 66.322914Q615.875 67.77604 615.5781 68.385414Q615.28125 68.99479 614.6406 69.33854Q614.0 69.697914 613.0625 69.697914Q611.9531 69.697914 611.2656 69.197914Q610.5781 68.697914 610.59375 67.68229ZM611.46875 63.947914Q611.46875 65.166664 611.9531 65.729164Q612.4375 66.291664 613.1719 66.291664Q613.90625 66.291664 614.3906 65.729164Q614.8906 65.166664 614.8906 63.979164Q614.8906 62.83854 614.375 62.260414Q613.875 61.68229 613.15625 61.68229Q612.4531 61.68229 611.9531 62.260414Q611.46875 62.822914 611.46875 63.947914Z" fill-rule="nonzero"/><path fill="#ff6d01" d="M633.0 58.166668C633.0 57.614384 633.4477 57.166668 634.0 57.166668L644.0 57.166668C644.5523 57.166668 645.0 57.614384 645.0 58.166668L645.0 68.166664C645.0 68.71895 644.5523 69.166664 644.0 69.166664L634.0 69.166664C633.4477 69.166664 633.0 68.71895 633.0 68.166664Z" fill-rule="nonzero"/><path fill="#1a1a1a" d="M653.5469 64.40104L654.6094 64.30729Q654.6875 64.96354 654.96875 65.36979Q655.25 65.77604 655.8281 66.041664Q656.4219 66.291664 657.15625 66.291664Q657.7969 66.291664 658.2969 66.104164Q658.7969 65.90104 659.03125 65.572914Q659.28125 65.229164 659.28125 64.83854Q659.28125 64.43229 659.0469 64.135414Q658.8125 63.822914 658.28125 63.61979Q657.9219 63.479164 656.7344 63.197914Q655.5625 62.916664 655.09375 62.666664Q654.46875 62.33854 654.1719 61.86979Q653.875 61.385414 653.875 60.791664Q653.875 60.15104 654.2344 59.58854Q654.6094 59.010414 655.3125 58.729164Q656.03125 58.43229 656.8906 58.43229Q657.84375 58.43229 658.5781 58.74479Q659.3125 59.041664 659.7031 59.65104Q660.09375 60.24479 660.125 60.99479L659.03125 61.072914Q658.9375 60.260414 658.4219 59.854164Q657.9219 59.43229 656.9375 59.43229Q655.90625 59.43229 655.4375 59.80729Q654.96875 60.18229 654.96875 60.71354Q654.96875 61.18229 655.2969 61.479164Q655.625 61.77604 657.0 62.08854Q658.3906 62.40104 658.90625 62.635414Q659.65625 62.99479 660.0156 63.52604Q660.375 64.041664 660.375 64.74479Q660.375 65.43229 659.9844 66.041664Q659.59375 66.635414 658.8594 66.979164Q658.125 67.30729 657.2031 67.30729Q656.03125 67.30729 655.2344 66.979164Q654.4531 66.635414 654.0 65.947914Q653.5625 65.260414 653.5469 64.40104ZM664.09375 66.229164L664.25 67.15104Q663.7969 67.24479 663.4531 67.24479Q662.875 67.24479 662.5625 67.072914Q662.25 66.885414 662.1094 66.58854Q661.9844 66.291664 661.9844 65.33854L661.9844 61.760414L661.21875 61.760414L661.21875 60.947914L661.9844 60.947914L661.9844 59.40104L663.03125 58.77604L663.03125 60.947914L664.09375 60.947914L664.09375 61.760414L663.03125 61.760414L663.03125 65.40104Q663.03125 65.854164 663.0781 65.979164Q663.1406 66.104164 663.2656 66.18229Q663.3906 66.260414 663.625 66.260414Q663.8125 66.260414 664.09375 66.229164ZM668.875 67.166664L668.875 66.24479Q668.1406 67.30729 666.8906 67.30729Q666.34375 67.30729 665.8594 67.104164Q665.3906 66.885414 665.15625 66.572914Q664.9219 66.24479 664.8281 65.77604Q664.7656 65.479164 664.7656 64.791664L664.7656 60.947914L665.8281 60.947914L665.8281 64.40104Q665.8281 65.21354 665.8906 65.510414Q665.9844 65.916664 666.2969 66.166664Q666.625 66.40104 667.1094 66.40104Q667.5781 66.40104 667.9844 66.166664Q668.40625 65.916664 668.5781 65.49479Q668.7656 65.072914 668.7656 64.27604L668.7656 60.947914L669.8125 60.947914L669.8125 67.166664L668.875 67.166664ZM675.8281 67.166664L675.8281 66.385414Q675.2344 67.30729 674.09375 67.30729Q673.34375 67.30729 672.71875 66.90104Q672.09375 66.479164 671.75 65.74479Q671.40625 65.010414 671.40625 64.05729Q671.40625 63.135414 671.71875 62.36979Q672.03125 61.604164 672.65625 61.21354Q673.28125 60.80729 674.0469 60.80729Q674.6094 60.80729 675.0469 61.041664Q675.4844 61.27604 675.7656 61.65104L675.7656 58.572914L676.8125 58.572914L676.8125 67.166664L675.8281 67.166664ZM672.5 64.05729Q672.5 65.260414 673.0 65.854164Q673.5 66.43229 674.1875 66.43229Q674.875 66.43229 675.3594 65.86979Q675.84375 65.30729 675.84375 64.15104Q675.84375 62.86979 675.34375 62.27604Q674.8594 61.68229 674.1406 61.68229Q673.4375 61.68229 672.96875 62.260414Q672.5 62.822914 672.5 64.05729ZM678.75 69.55729L678.625 68.572914Q678.96875 68.666664 679.2344 68.666664Q679.5781 68.666664 679.78125 68.541664Q680.0 68.43229 680.1406 68.229164Q680.2344 68.05729 680.46875 67.43229Q680.4844 67.354164 680.5625 67.18229L678.1875 60.947914L679.3281 60.947914L680.625 64.541664Q680.875 65.229164 681.0781 65.99479Q681.2656 65.260414 681.5156 64.572914L682.84375 60.947914L683.8906 60.947914L681.53125 67.27604Q681.1406 68.291664 680.9375 68.68229Q680.65625 69.21354 680.28125 69.447914Q679.9219 69.697914 679.4219 69.697914Q679.125 69.697914 678.75 69.55729ZM683.7969 59.791664L683.7969 58.572914L684.8594 58.572914L684.8594 59.791664L683.7969 59.791664ZM683.7969 67.166664L683.7969 60.947914L684.8594 60.947914L684.8594 67.166664L683.7969 67.166664ZM686.7969 67.166664L686.7969 60.947914L687.7344 60.947914L687.7344 61.822914Q688.4219 60.80729 689.71875 60.80729Q690.28125 60.80729 690.75 61.010414Q691.2344 61.21354 691.46875 61.541664Q691.7031 61.86979 691.7969 62.30729Q691.84375 62.604164 691.84375 63.33854L691.84375 67.166664L690.7969 67.166664L690.7969 63.385414Q690.7969 62.729164 690.6719 62.416664Q690.5469 62.104164 690.2344 61.916664Q689.9219 61.71354 689.5 61.71354Q688.8281 61.71354 688.3281 62.15104Q687.84375 62.572914 687.84375 63.760414L687.84375 67.166664L686.7969 67.166664ZM693.59375 67.68229L694.625 67.83854Q694.6875 68.30729 694.9844 68.52604Q695.375 68.822914 696.0469 68.822914Q696.78125 68.822914 697.1719 68.52604Q697.5781 68.229164 697.71875 67.71354Q697.8125 67.385414 697.7969 66.354164Q697.1094 67.166664 696.0781 67.166664Q694.7969 67.166664 694.09375 66.24479Q693.3906 65.30729 693.3906 64.02604Q693.3906 63.135414 693.7031 62.385414Q694.03125 61.61979 694.6406 61.21354Q695.25 60.80729 696.0781 60.80729Q697.1875 60.80729 697.90625 61.697914L697.90625 60.947914L698.875 60.947914L698.875 66.322914Q698.875 67.77604 698.5781 68.385414Q698.28125 68.99479 697.6406 69.33854Q697.0 69.697914 696.0625 69.697914Q694.9531 69.697914 694.2656 69.197914Q693.5781 68.697914 693.59375 67.68229ZM694.46875 63.947914Q694.46875 65.166664 694.9531 65.729164Q695.4375 66.291664 696.1719 66.291664Q696.90625 66.291664 697.3906 65.729164Q697.8906 65.166664 697.8906 63.979164Q697.8906 62.83854 697.375 62.260414Q696.875 61.68229 696.15625 61.68229Q695.4531 61.68229 694.9531 62.260414Q694.46875 62.822914 694.46875 63.947914ZM703.0 67.30729L705.4844 58.43229L706.3281 58.43229L703.84375 67.30729L703.0 67.30729ZM709.9375 67.166664L709.9375 58.572914L713.75 58.572914Q714.90625 58.572914 715.5 58.80729Q716.09375 59.041664 716.4531 59.635414Q716.8125 60.21354 716.8125 60.916664Q716.8125 61.83854 716.21875 62.46354Q715.625 63.08854 714.3906 63.260414Q714.84375 63.479164 715.0781 63.68229Q715.5781 64.135414 716.0156 64.822914L717.5156 67.166664L716.0781 67.166664L714.9531 65.385414Q714.4531 64.604164 714.125 64.197914Q713.8125 63.791664 713.5469 63.635414Q713.2969 63.46354 713.03125 63.385414Q712.84375 63.354164 712.40625 63.354164L711.0781 63.354164L711.0781 67.166664L709.9375 67.166664ZM711.0781 62.36979L713.53125 62.36979Q714.2969 62.36979 714.7344 62.21354Q715.1875 62.041664 715.40625 61.697914Q715.6406 61.33854 715.6406 60.916664Q715.6406 60.30729 715.1875 59.916664Q714.75 59.52604 713.7969 59.52604L711.0781 59.52604L711.0781 62.36979ZM723.0469 65.166664L724.1406 65.291664Q723.8906 66.24479 723.1875 66.77604Q722.4844 67.30729 721.40625 67.30729Q720.0469 67.30729 719.2344 66.46354Q718.4375 65.61979 718.4375 64.104164Q718.4375 62.541664 719.25 61.68229Q720.0625 60.80729 721.34375 60.80729Q722.59375 60.80729 723.375 61.65104Q724.1719 62.49479 724.1719 64.041664Q724.1719 64.135414 724.1719 64.322914L719.53125 64.322914Q719.59375 65.354164 720.1094 65.90104Q720.625 66.43229 721.40625 66.43229Q721.9844 66.43229 722.3906 66.135414Q722.8125 65.822914 723.0469 65.166664ZM719.59375 63.46354L723.0625 63.46354Q723.0 62.666664 722.6719 62.27604Q722.15625 61.666664 721.3594 61.666664Q720.625 61.666664 720.125 62.15104Q719.6406 62.635414 719.59375 63.46354ZM725.375 65.30729L726.40625 65.15104Q726.5 65.77604 726.8906 66.104164Q727.2969 66.43229 728.03125 66.43229Q728.75 66.43229 729.09375 66.15104Q729.4531 65.854164 729.4531 65.447914Q729.4531 65.08854 729.1406 64.885414Q728.9219 64.74479 728.0625 64.52604Q726.90625 64.229164 726.4531 64.02604Q726.0156 63.80729 725.78125 63.43229Q725.5469 63.05729 725.5469 62.58854Q725.5469 62.18229 725.7344 61.822914Q725.9219 61.46354 726.25 61.229164Q726.5 61.05729 726.9219 60.93229Q727.34375 60.80729 727.84375 60.80729Q728.5625 60.80729 729.1094 61.02604Q729.6719 61.229164 729.9375 61.58854Q730.2031 61.947914 730.2969 62.541664L729.2656 62.68229Q729.2031 62.21354 728.8594 61.947914Q728.53125 61.666664 727.90625 61.666664Q727.1875 61.666664 726.875 61.916664Q726.5625 62.15104 726.5625 62.479164Q726.5625 62.68229 726.6875 62.83854Q726.8281 63.010414 727.09375 63.11979Q727.25 63.18229 728.03125 63.385414Q729.15625 63.697914 729.59375 63.885414Q730.03125 64.072914 730.28125 64.43229Q730.53125 64.791664 730.53125 65.33854Q730.53125 65.86979 730.21875 66.33854Q729.9219 66.791664 729.34375 67.05729Q728.7656 67.30729 728.03125 67.30729Q726.8125 67.30729 726.1719 66.80729Q725.5469 66.291664 725.375 65.30729ZM737.0469 65.166664L738.1406 65.291664Q737.8906 66.24479 737.1875 66.77604Q736.4844 67.30729 735.40625 67.30729Q734.0469 67.30729 733.2344 66.46354Q732.4375 65.61979 732.4375 64.104164Q732.4375 62.541664 733.25 61.68229Q734.0625 60.80729 735.34375 60.80729Q736.59375 60.80729 737.375 61.65104Q738.1719 62.49479 738.1719 64.041664Q738.1719 64.135414 738.1719 64.322914L733.53125 64.322914Q733.59375 65.354164 734.1094 65.90104Q734.625 66.43229 735.40625 66.43229Q735.9844 66.43229 736.3906 66.135414Q736.8125 65.822914 737.0469 65.166664ZM733.59375 63.46354L737.0625 63.46354Q737.0 62.666664 736.6719 62.27604Q736.15625 61.666664 735.3594 61.666664Q734.625 61.666664 734.125 62.15104Q733.6406 62.635414 733.59375 63.46354ZM743.8594 66.40104Q743.2656 66.90104 742.71875 67.104164Q742.1875 67.30729 741.5625 67.30729Q740.53125 67.30729 739.9844 66.80729Q739.4375 66.30729 739.4375 65.52604Q739.4375 65.072914 739.6406 64.697914Q739.84375 64.30729 740.1875 64.08854Q740.53125 63.854164 740.9531 63.74479Q741.25 63.65104 741.8906 63.572914Q743.15625 63.43229 743.7656 63.21354Q743.7656 62.99479 743.7656 62.947914Q743.7656 62.291664 743.46875 62.02604Q743.0625 61.68229 742.2656 61.68229Q741.53125 61.68229 741.1719 61.947914Q740.8125 62.197914 740.6406 62.854164L739.6094 62.71354Q739.75 62.05729 740.0781 61.65104Q740.40625 61.24479 741.0156 61.02604Q741.625 60.80729 742.4219 60.80729Q743.21875 60.80729 743.71875 60.99479Q744.21875 61.18229 744.4531 61.46354Q744.6875 61.74479 744.78125 62.18229Q744.8281 62.447914 744.8281 63.15104L744.8281 64.55729Q744.8281 66.02604 744.8906 66.416664Q744.96875 66.80729 745.1719 67.166664L744.0625 67.166664Q743.90625 66.83854 743.8594 66.40104ZM743.7656 64.041664Q743.1875 64.27604 742.0469 64.447914Q741.3906 64.541664 741.125 64.666664Q740.8594 64.77604 740.7031 64.99479Q740.5625 65.21354 740.5625 65.49479Q740.5625 65.916664 740.875 66.197914Q741.2031 66.479164 741.8125 66.479164Q742.4219 66.479164 742.8906 66.21354Q743.375 65.947914 743.59375 65.479164Q743.7656 65.11979 743.7656 64.43229L743.7656 64.041664ZM746.78125 67.166664L746.78125 60.947914L747.7344 60.947914L747.7344 61.885414Q748.09375 61.229164 748.3906 61.02604Q748.7031 60.80729 749.0781 60.80729Q749.6094 60.80729 750.15625 61.135414L749.7969 62.11979Q749.40625 61.885414 749.03125 61.885414Q748.6719 61.885414 748.3906 62.104164Q748.125 62.30729 748.0156 62.68229Q747.8281 63.24479 747.8281 63.90104L747.8281 67.166664L746.78125 67.166664ZM754.8594 64.885414L755.8906 65.02604Q755.71875 66.08854 755.0156 66.697914Q754.3125 67.30729 753.2969 67.30729Q752.0156 67.30729 751.2344 66.479164Q750.46875 65.635414 750.46875 64.072914Q750.46875 63.072914 750.7969 62.322914Q751.1406 61.55729 751.8125 61.18229Q752.5 60.80729 753.3125 60.80729Q754.3125 60.80729 754.9531 61.322914Q755.6094 61.822914 755.7969 62.77604L754.7656 62.93229Q754.625 62.30729 754.25 61.99479Q753.875 61.666664 753.34375 61.666664Q752.5469 61.666664 752.0469 62.24479Q751.5469 62.80729 751.5469 64.041664Q751.5469 65.30729 752.03125 65.86979Q752.5156 66.43229 753.28125 66.43229Q753.90625 66.43229 754.3125 66.05729Q754.7344 65.68229 754.8594 64.885414ZM756.7969 67.166664L756.7969 58.572914L757.84375 58.572914L757.84375 61.65104Q758.5781 60.80729 759.7031 60.80729Q760.40625 60.80729 760.90625 61.08854Q761.4219 61.354164 761.6406 61.83854Q761.8594 62.30729 761.8594 63.229164L761.8594 67.166664L760.8125 67.166664L760.8125 63.229164Q760.8125 62.43229 760.46875 62.072914Q760.125 61.71354 759.5 61.71354Q759.03125 61.71354 758.6094 61.96354Q758.2031 62.197914 758.0156 62.61979Q757.84375 63.02604 757.84375 63.760414L757.84375 67.166664L756.7969 67.166664Z" fill-rule="nonzero"/><path fill="#757575" d="M24.4875 38.3L24.4875 25.675L19.76875 25.675L19.76875 23.9875L31.1125 23.9875L31.1125 25.675L26.378124 25.675L26.378124 38.3L24.4875 38.3ZM32.628124 26.003124L32.628124 23.9875L34.39375 23.9875L34.39375 26.003124L32.628124 26.003124ZM32.628124 38.3L32.628124 27.925L34.39375 27.925L34.39375 38.3L32.628124 38.3ZM36.6125 38.3L36.6125 27.925L38.190624 27.925L38.190624 29.378124Q38.675 28.628124 39.4875 28.159374Q40.3 27.690624 41.33125 27.690624Q42.4875 27.690624 43.221874 28.175Q43.95625 28.64375 44.26875 29.503124Q45.503124 27.690624 47.471874 27.690624Q49.01875 27.690624 49.846874 28.55Q50.675 29.409374 50.675 31.175L50.675 38.3L48.925 38.3L48.925 31.76875Q48.925 30.70625 48.753124 30.253124Q48.58125 29.784374 48.128124 29.503124Q47.690624 29.221874 47.08125 29.221874Q45.9875 29.221874 45.253124 29.95625Q44.534374 30.675 44.534374 32.26875L44.534374 38.3L42.784374 38.3L42.784374 31.565624Q42.784374 30.39375 42.346874 29.815624Q41.925 29.221874 40.940624 29.221874Q40.20625 29.221874 39.565624 29.6125Q38.940624 30.003124 38.659374 30.753124Q38.378124 31.503124 38.378124 32.925L38.378124 38.3L36.6125 38.3ZM59.721874 34.95625L61.534374 35.190624Q61.1125 36.76875 59.940624 37.659374Q58.784374 38.534374 56.971874 38.534374Q54.70625 38.534374 53.3625 37.14375Q52.034374 35.7375 52.034374 33.20625Q52.034374 30.58125 53.378124 29.14375Q54.721874 27.690624 56.878124 27.690624Q58.95625 27.690624 60.26875 29.1125Q61.596874 30.51875 61.596874 33.096874Q61.596874 33.253124 61.58125 33.565624L53.846874 33.565624Q53.940624 35.26875 54.815624 36.175Q55.690624 37.08125 56.9875 37.08125Q57.95625 37.08125 58.628124 36.58125Q59.315624 36.065624 59.721874 34.95625ZM53.940624 32.1125L59.7375 32.1125Q59.628124 30.815624 59.08125 30.159374Q58.2375 29.14375 56.89375 29.14375Q55.690624 29.14375 54.8625 29.95625Q54.034374 30.753124 53.940624 32.1125ZM70.15938 38.3L70.15938 23.9875L72.06563 23.9875L72.06563 38.3L70.15938 38.3ZM75.6125 38.3L75.6125 27.925L77.20625 27.925L77.20625 29.409374Q78.34688 27.690624 80.50313 27.690624Q81.44063 27.690624 82.22188 28.034374Q83.01875 28.3625 83.40938 28.909374Q83.8 29.45625 83.95625 30.20625Q84.05 30.70625 84.05 31.925L84.05 38.3L82.28438 38.3L82.28438 31.9875Q82.28438 30.909374 82.08125 30.378124Q81.87813 29.846874 81.34688 29.534374Q80.83125 29.221874 80.12813 29.221874Q79.00313 29.221874 78.19063 29.940624Q77.37813 30.64375 77.37813 32.628124L77.37813 38.3L75.6125 38.3ZM88.50313 38.3L84.55 27.925L86.40938 27.925L88.64375 34.14375Q89.00313 35.14375 89.3 36.221874Q89.53438 35.409374 89.95625 34.253124L92.25313 27.925L94.06563 27.925L90.14375 38.3L88.50313 38.3ZM101.72188 34.95625L103.53438 35.190624Q103.1125 36.76875 101.94063 37.659374Q100.78438 38.534374 98.97188 38.534374Q96.70625 38.534374 95.3625 37.14375Q94.03438 35.7375 94.03438 33.20625Q94.03438 30.58125 95.37813 29.14375Q96.72188 27.690624 98.87813 27.690624Q100.95625 27.690624 102.26875 29.1125Q103.59688 30.51875 103.59688 33.096874Q103.59688 33.253124 103.58125 33.565624L95.84688 33.565624Q95.94063 35.26875 96.81563 36.175Q97.69063 37.08125 98.9875 37.08125Q99.95625 37.08125 100.62813 36.58125Q101.31563 36.065624 101.72188 34.95625ZM95.94063 32.1125L101.7375 32.1125Q101.62813 30.815624 101.08125 30.159374Q100.2375 29.14375 98.89375 29.14375Q97.69063 29.14375 96.8625 29.95625Q96.03438 30.753124 95.94063 32.1125ZM104.90938 35.20625L106.65938 34.925Q106.8 35.971874 107.47188 36.534374Q108.14375 37.08125 109.34688 37.08125Q110.55 37.08125 111.12813 36.596874Q111.72188 36.096874 111.72188 35.440624Q111.72188 34.846874 111.20625 34.503124Q110.84688 34.26875 109.40938 33.909374Q107.47188 33.409374 106.72188 33.065624Q105.9875 32.70625 105.59688 32.08125Q105.20625 31.440624 105.20625 30.675Q105.20625 29.9875 105.51875 29.39375Q105.84688 28.8 106.39375 28.409374Q106.8 28.1125 107.50313 27.909374Q108.22188 27.690624 109.03438 27.690624Q110.25313 27.690624 111.175 28.05Q112.09688 28.39375 112.53438 29.003124Q112.97188 29.596874 113.14375 30.596874L111.425 30.83125Q111.3 30.034374 110.7375 29.596874Q110.175 29.14375 109.15938 29.14375Q107.94063 29.14375 107.425 29.55Q106.90938 29.940624 106.90938 30.471874Q106.90938 30.815624 107.12813 31.096874Q107.33125 31.378124 107.8 31.565624Q108.06563 31.659374 109.34688 32.003124Q111.22188 32.503124 111.95625 32.83125Q112.69063 33.14375 113.1125 33.753124Q113.53438 34.346874 113.53438 35.253124Q113.53438 36.128124 113.01875 36.909374Q112.50313 37.690624 111.53438 38.1125Q110.56563 38.534374 109.34688 38.534374Q107.33125 38.534374 106.26875 37.690624Q105.20625 36.846874 104.90938 35.20625ZM119.45625 36.721874L119.70625 38.284374Q118.97188 38.440624 118.37813 38.440624Q117.425 38.440624 116.89375 38.14375Q116.37813 37.83125 116.15938 37.346874Q115.94063 36.846874 115.94063 35.26875L115.94063 29.3L114.65938 29.3L114.65938 27.925L115.94063 27.925L115.94063 25.3625L117.69063 24.3L117.69063 27.925L119.45625 27.925L119.45625 29.3L117.69063 29.3L117.69063 35.3625Q117.69063 36.1125 117.78438 36.33125Q117.87813 36.534374 118.08125 36.675Q118.3 36.8 118.69063 36.8Q118.97188 36.8 119.45625 36.721874ZM128.72188 34.95625L130.53438 35.190624Q130.1125 36.76875 128.94063 37.659374Q127.78438 38.534374 125.97188 38.534374Q123.70625 38.534374 122.3625 37.14375Q121.03438 35.7375 121.03438 33.20625Q121.03438 30.58125 122.37813 29.14375Q123.72188 27.690624 125.87813 27.690624Q127.95625 27.690624 129.26875 29.1125Q130.59688 30.51875 130.59688 33.096874Q130.59688 33.253124 130.58125 33.565624L122.84688 33.565624Q122.94063 35.26875 123.81563 36.175Q124.69063 37.08125 125.9875 37.08125Q126.95625 37.08125 127.62813 36.58125Q128.31563 36.065624 128.72188 34.95625ZM122.94063 32.1125L128.7375 32.1125Q128.62813 30.815624 128.08125 30.159374Q127.2375 29.14375 125.89375 29.14375Q124.69063 29.14375 123.8625 29.95625Q123.03438 30.753124 122.94063 32.1125ZM139.34688 38.3L139.34688 36.9875Q138.3625 38.534374 136.44063 38.534374Q135.20625 38.534374 134.15938 37.846874Q133.12813 37.159374 132.55 35.940624Q131.9875 34.721874 131.9875 33.128124Q131.9875 31.565624 132.50313 30.3Q133.01875 29.034374 134.05 28.3625Q135.09688 27.690624 136.3625 27.690624Q137.3 27.690624 138.03438 28.096874Q138.76875 28.4875 139.2375 29.1125L139.2375 23.9875L140.97188 23.9875L140.97188 38.3L139.34688 38.3ZM133.78438 33.128124Q133.78438 35.1125 134.62813 36.096874Q135.47188 37.08125 136.6125 37.08125Q137.76875 37.08125 138.56563 36.14375Q139.37813 35.20625 139.37813 33.26875Q139.37813 31.14375 138.55 30.14375Q137.7375 29.14375 136.53438 29.14375Q135.3625 29.14375 134.56563 30.1125Q133.78438 31.065624 133.78438 33.128124ZM149.6125 42.26875L149.6125 27.925L151.22188 27.925L151.22188 29.26875Q151.78438 28.4875 152.4875 28.096874Q153.20625 27.690624 154.22188 27.690624Q155.55 27.690624 156.56563 28.378124Q157.58125 29.065624 158.09688 30.315624Q158.62813 31.55 158.62813 33.034374Q158.62813 34.628124 158.05 35.909374Q157.4875 37.175 156.39375 37.8625Q155.3 38.534374 154.09688 38.534374Q153.22188 38.534374 152.51875 38.159374Q151.83125 37.784374 151.37813 37.221874L151.37813 42.26875L149.6125 42.26875ZM151.20625 33.175Q151.20625 35.175 152.01875 36.128124Q152.83125 37.08125 153.9875 37.08125Q155.15938 37.08125 155.9875 36.096874Q156.83125 35.1125 156.83125 33.01875Q156.83125 31.05 156.00313 30.065624Q155.19063 29.065624 154.06563 29.065624Q152.94063 29.065624 152.06563 30.128124Q151.20625 31.175 151.20625 33.175ZM167.72188 34.95625L169.53438 35.190624Q169.1125 36.76875 167.94063 37.659374Q166.78438 38.534374 164.97188 38.534374Q162.70625 38.534374 161.3625 37.14375Q160.03438 35.7375 160.03438 33.20625Q160.03438 30.58125 161.37813 29.14375Q162.72188 27.690624 164.87813 27.690624Q166.95625 27.690624 168.26875 29.1125Q169.59688 30.51875 169.59688 33.096874Q169.59688 33.253124 169.58125 33.565624L161.84688 33.565624Q161.94063 35.26875 162.81563 36.175Q163.69063 37.08125 164.9875 37.08125Q165.95625 37.08125 166.62813 36.58125Q167.31563 36.065624 167.72188 34.95625ZM161.94063 32.1125L167.7375 32.1125Q167.62813 30.815624 167.08125 30.159374Q166.2375 29.14375 164.89375 29.14375Q163.69063 29.14375 162.8625 29.95625Q162.03438 30.753124 161.94063 32.1125ZM171.59688 38.3L171.59688 27.925L173.175 27.925L173.175 29.503124Q173.78438 28.39375 174.3 28.05Q174.81563 27.690624 175.425 27.690624Q176.31563 27.690624 177.2375 28.253124L176.62813 29.89375Q175.9875 29.503124 175.34688 29.503124Q174.76875 29.503124 174.3 29.8625Q173.84688 30.20625 173.64375 30.815624Q173.3625 31.753124 173.3625 32.8625L173.3625 38.3L171.59688 38.3ZM195.06563 33.284374L196.95625 33.753124Q196.3625 36.096874 194.81563 37.33125Q193.26875 38.55 191.01875 38.55Q188.70625 38.55 187.25313 37.6125Q185.81563 36.659374 185.05 34.878124Q184.3 33.08125 184.3 31.034374Q184.3 28.8 185.14375 27.14375Q186.00313 25.471874 187.58125 24.6125Q189.15938 23.7375 191.05 23.7375Q193.20625 23.7375 194.65938 24.83125Q196.12813 25.925 196.70625 27.909374L194.84688 28.346874Q194.34688 26.784374 193.39375 26.08125Q192.45625 25.3625 191.01875 25.3625Q189.3625 25.3625 188.25313 26.159374Q187.14375 26.940624 186.69063 28.284374Q186.25313 29.6125 186.25313 31.01875Q186.25313 32.846874 186.78438 34.221874Q187.31563 35.58125 188.44063 36.253124Q189.56563 36.925 190.8625 36.925Q192.45625 36.925 193.56563 36.003124Q194.675 35.08125 195.06563 33.284374ZM205.39375 37.01875Q204.40938 37.846874 203.50313 38.190624Q202.59688 38.534374 201.56563 38.534374Q199.8625 38.534374 198.94063 37.70625Q198.01875 36.8625 198.01875 35.565624Q198.01875 34.8 198.3625 34.175Q198.72188 33.55 199.28438 33.175Q199.84688 32.784374 200.55 32.58125Q201.06563 32.45625 202.1125 32.315624Q204.2375 32.065624 205.2375 31.721874Q205.25313 31.3625 205.25313 31.253124Q205.25313 30.190624 204.75313 29.7375Q204.08125 29.14375 202.75313 29.14375Q201.50313 29.14375 200.90938 29.58125Q200.33125 30.01875 200.05 31.128124L198.33125 30.89375Q198.56563 29.784374 199.09688 29.1125Q199.62813 28.425 200.64375 28.065624Q201.65938 27.690624 203.00313 27.690624Q204.33125 27.690624 205.15938 28.003124Q205.9875 28.315624 206.37813 28.8Q206.76875 29.26875 206.925 29.9875Q207.01875 30.440624 207.01875 31.6125L207.01875 33.95625Q207.01875 36.409374 207.12813 37.065624Q207.2375 37.70625 207.58125 38.3L205.7375 38.3Q205.47188 37.753124 205.39375 37.01875ZM205.2375 33.096874Q204.28438 33.4875 202.3625 33.753124Q201.28438 33.909374 200.83125 34.1125Q200.39375 34.3 200.14375 34.675Q199.89375 35.05 199.89375 35.51875Q199.89375 36.221874 200.425 36.690624Q200.95625 37.159374 201.9875 37.159374Q203.00313 37.159374 203.78438 36.721874Q204.58125 36.26875 204.95625 35.503124Q205.2375 34.89375 205.2375 33.7375L205.2375 33.096874ZM213.45625 36.721874L213.70625 38.284374Q212.97188 38.440624 212.37813 38.440624Q211.425 38.440624 210.89375 38.14375Q210.37813 37.83125 210.15938 37.346874Q209.94063 36.846874 209.94063 35.26875L209.94063 29.3L208.65938 29.3L208.65938 27.925L209.94063 27.925L209.94063 25.3625L211.69063 24.3L211.69063 27.925L213.45625 27.925L213.45625 29.3L211.69063 29.3L211.69063 35.3625Q211.69063 36.1125 211.78438 36.33125Q211.87813 36.534374 212.08125 36.675Q212.3 36.8 212.69063 36.8Q212.97188 36.8 213.45625 36.721874ZM222.72188 34.95625L224.53438 35.190624Q224.1125 36.76875 222.94063 37.659374Q221.78438 38.534374 219.97188 38.534374Q217.70625 38.534374 216.3625 37.14375Q215.03438 35.7375 215.03438 33.20625Q215.03438 30.58125 216.37813 29.14375Q217.72188 27.690624 219.87813 27.690624Q221.95625 27.690624 223.26875 29.1125Q224.59688 30.51875 224.59688 33.096874Q224.59688 33.253124 224.58125 33.565624L216.84688 33.565624Q216.94063 35.26875 217.81563 36.175Q218.69063 37.08125 219.9875 37.08125Q220.95625 37.08125 221.62813 36.58125Q222.31563 36.065624 222.72188 34.95625ZM216.94063 32.1125L222.7375 32.1125Q222.62813 30.815624 222.08125 30.159374Q221.2375 29.14375 219.89375 29.14375Q218.69063 29.14375 217.8625 29.95625Q217.03438 30.753124 216.94063 32.1125ZM226.3 39.159374L228.00313 39.409374Q228.1125 40.20625 228.59688 40.565624Q229.25313 41.05 230.39375 41.05Q231.6125 41.05 232.26875 40.565624Q232.94063 40.08125 233.175 39.20625Q233.31563 38.659374 233.3 36.940624Q232.14375 38.3 230.425 38.3Q228.28438 38.3 227.1125 36.753124Q225.94063 35.20625 225.94063 33.05Q225.94063 31.565624 226.47188 30.315624Q227.01875 29.065624 228.03438 28.378124Q229.06563 27.690624 230.44063 27.690624Q232.26875 27.690624 233.47188 29.175L233.47188 27.925L235.08125 27.925L235.08125 36.89375Q235.08125 39.315624 234.58125 40.315624Q234.09688 41.33125 233.01875 41.909374Q231.95625 42.503124 230.39375 42.503124Q228.55 42.503124 227.39375 41.675Q226.25313 40.846874 226.3 39.159374ZM227.75313 32.925Q227.75313 34.971874 228.56563 35.909374Q229.37813 36.846874 230.59688 36.846874Q231.8 36.846874 232.6125 35.909374Q233.44063 34.971874 233.44063 32.9875Q233.44063 31.08125 232.59688 30.1125Q231.75313 29.14375 230.56563 29.14375Q229.39375 29.14375 228.56563 30.096874Q227.75313 31.05 227.75313 32.925ZM236.97188 33.1125Q236.97188 30.2375 238.56563 28.846874Q239.90938 27.690624 241.83125 27.690624Q243.97188 27.690624 245.31563 29.096874Q246.675 30.503124 246.675 32.971874Q246.675 34.971874 246.08125 36.128124Q245.4875 37.26875 244.33125 37.909374Q243.19063 38.534374 241.83125 38.534374Q239.64375 38.534374 238.3 37.14375Q236.97188 35.7375 236.97188 33.1125ZM238.76875 33.1125Q238.76875 35.1125 239.62813 36.096874Q240.50313 37.08125 241.83125 37.08125Q243.14375 37.08125 244.00313 36.096874Q244.87813 35.096874 244.87813 33.05Q244.87813 31.128124 244.00313 30.14375Q243.12813 29.14375 241.83125 29.14375Q240.50313 29.14375 239.62813 30.14375Q238.76875 31.128124 238.76875 33.1125ZM248.59688 38.3L248.59688 27.925L250.175 27.925L250.175 29.503124Q250.78438 28.39375 251.3 28.05Q251.81563 27.690624 252.425 27.690624Q253.31563 27.690624 254.2375 28.253124L253.62813 29.89375Q252.9875 29.503124 252.34688 29.503124Q251.76875 29.503124 251.3 29.8625Q250.84688 30.20625 250.64375 30.815624Q250.3625 31.753124 250.3625 32.8625L250.3625 38.3L248.59688 38.3ZM255.53438 42.3L255.34688 40.64375Q255.925 40.8 256.34686 40.8Q256.9406 40.8 257.28436 40.596874Q257.64374 40.409374 257.8625 40.065624Q258.03436 39.8 258.40936 38.753124Q258.45624 38.596874 258.5656 38.315624L254.62813 27.925L256.51874 27.925L258.675 33.940624Q259.09686 35.08125 259.425 36.33125Q259.7375 35.128124 260.14374 33.971874L262.3625 27.925L264.1281 27.925L260.175 38.471874Q259.55 40.190624 259.1906 40.83125Q258.72186 41.70625 258.1125 42.096874Q257.51874 42.503124 256.675 42.503124Q256.15936 42.503124 255.53438 42.3ZM278.39374 37.01875Q277.40936 37.846874 276.5031 38.190624Q275.59686 38.534374 274.5656 38.534374Q272.8625 38.534374 271.9406 37.70625Q271.01874 36.8625 271.01874 35.565624Q271.01874 34.8 271.3625 34.175Q271.72186 33.55 272.28436 33.175Q272.84686 32.784374 273.55 32.58125Q274.0656 32.45625 275.1125 32.315624Q277.2375 32.065624 278.2375 31.721874Q278.2531 31.3625 278.2531 31.253124Q278.2531 30.190624 277.7531 29.7375Q277.08124 29.14375 275.7531 29.14375Q274.5031 29.14375 273.90936 29.58125Q273.33124 30.01875 273.05 31.128124L271.33124 30.89375Q271.5656 29.784374 272.09686 29.1125Q272.6281 28.425 273.64374 28.065624Q274.65936 27.690624 276.0031 27.690624Q277.33124 27.690624 278.15936 28.003124Q278.9875 28.315624 279.3781 28.8Q279.76874 29.26875 279.925 29.9875Q280.01874 30.440624 280.01874 31.6125L280.01874 33.95625Q280.01874 36.409374 280.1281 37.065624Q280.2375 37.70625 280.58124 38.3L278.7375 38.3Q278.47186 37.753124 278.39374 37.01875ZM278.2375 33.096874Q277.28436 33.4875 275.3625 33.753124Q274.28436 33.909374 273.83124 34.1125Q273.39374 34.3 273.14374 34.675Q272.89374 35.05 272.89374 35.51875Q272.89374 36.221874 273.425 36.690624Q273.95624 37.159374 274.9875 37.159374Q276.0031 37.159374 276.78436 36.721874Q277.58124 36.26875 277.95624 35.503124Q278.2375 34.89375 278.2375 33.7375L278.2375 33.096874ZM282.6125 38.3L282.6125 27.925L284.20624 27.925L284.20624 29.409374Q285.34686 27.690624 287.5031 27.690624Q288.4406 27.690624 289.22186 28.034374Q290.01874 28.3625 290.40936 28.909374Q290.8 29.45625 290.95624 30.20625Q291.05 30.70625 291.05 31.925L291.05 38.3L289.28436 38.3L289.28436 31.9875Q289.28436 30.909374 289.08124 30.378124Q288.8781 29.846874 288.34686 29.534374Q287.83124 29.221874 287.1281 29.221874Q286.0031 29.221874 285.1906 29.940624Q284.3781 30.64375 284.3781 32.628124L284.3781 38.3L282.6125 38.3ZM299.34686 38.3L299.34686 36.9875Q298.3625 38.534374 296.4406 38.534374Q295.20624 38.534374 294.15936 37.846874Q293.1281 37.159374 292.55 35.940624Q291.9875 34.721874 291.9875 33.128124Q291.9875 31.565624 292.5031 30.3Q293.01874 29.034374 294.05 28.3625Q295.09686 27.690624 296.3625 27.690624Q297.3 27.690624 298.03436 28.096874Q298.76874 28.4875 299.2375 29.1125L299.2375 23.9875L300.97186 23.9875L300.97186 38.3L299.34686 38.3ZM293.78436 33.128124Q293.78436 35.1125 294.6281 36.096874Q295.47186 37.08125 296.6125 37.08125Q297.76874 37.08125 298.5656 36.14375Q299.3781 35.20625 299.3781 33.26875Q299.3781 31.14375 298.55 30.14375Q297.7375 29.14375 296.53436 29.14375Q295.3625 29.14375 294.5656 30.1125Q293.78436 31.065624 293.78436 33.128124ZM309.84686 38.3L309.84686 23.9875L315.2375 23.9875Q316.675 23.9875 317.425 24.1125Q318.47186 24.3 319.1906 24.8Q319.90936 25.284374 320.33124 26.175Q320.76874 27.065624 320.76874 28.128124Q320.76874 29.95625 319.59686 31.221874Q318.4406 32.471874 315.40936 32.471874L311.7375 32.471874L311.7375 38.3L309.84686 38.3ZM311.7375 30.784374L315.4406 30.784374Q317.26874 30.784374 318.03436 30.1125Q318.8156 29.425 318.8156 28.175Q318.8156 27.284374 318.3625 26.64375Q317.90936 26.003124 317.175 25.8Q316.6906 25.675 315.39374 25.675L311.7375 25.675L311.7375 30.784374ZM322.59686 38.3L322.59686 27.925L324.175 27.925L324.175 29.503124Q324.78436 28.39375 325.3 28.05Q325.8156 27.690624 326.425 27.690624Q327.3156 27.690624 328.2375 28.253124L327.6281 29.89375Q326.9875 29.503124 326.34686 29.503124Q325.76874 29.503124 325.3 29.8625Q324.84686 30.20625 324.64374 30.815624Q324.3625 31.753124 324.3625 32.8625L324.3625 38.3L322.59686 38.3ZM328.97186 33.1125Q328.97186 30.2375 330.5656 28.846874Q331.90936 27.690624 333.83124 27.690624Q335.97186 27.690624 337.3156 29.096874Q338.675 30.503124 338.675 32.971874Q338.675 34.971874 338.08124 36.128124Q337.4875 37.26875 336.33124 37.909374Q335.1906 38.534374 333.83124 38.534374Q331.64374 38.534374 330.3 37.14375Q328.97186 35.7375 328.97186 33.1125ZM330.76874 33.1125Q330.76874 35.1125 331.6281 36.096874Q332.5031 37.08125 333.83124 37.08125Q335.14374 37.08125 336.0031 36.096874Q336.8781 35.096874 336.8781 33.05Q336.8781 31.128124 336.0031 30.14375Q335.1281 29.14375 333.83124 29.14375Q332.5031 29.14375 331.6281 30.14375Q330.76874 31.128124 330.76874 33.1125ZM340.6125 26.01875L340.6125 23.9875L342.3625 23.9875L342.3625 26.01875L340.6125 26.01875ZM338.3781 42.33125L338.70624 40.83125Q339.2375 40.971874 339.55 40.971874Q340.08124 40.971874 340.34686 40.6125Q340.6125 40.253124 340.6125 38.83125L340.6125 27.925L342.3625 27.925L342.3625 38.8625Q342.3625 40.784374 341.8625 41.534374Q341.2375 42.503124 339.7531 42.503124Q339.05 42.503124 338.3781 42.33125ZM351.72186 34.95625L353.53436 35.190624Q353.1125 36.76875 351.9406 37.659374Q350.78436 38.534374 348.97186 38.534374Q346.70624 38.534374 345.3625 37.14375Q344.03436 35.7375 344.03436 33.20625Q344.03436 30.58125 345.3781 29.14375Q346.72186 27.690624 348.8781 27.690624Q350.95624 27.690624 352.26874 29.1125Q353.59686 30.51875 353.59686 33.096874Q353.59686 33.253124 353.58124 33.565624L345.84686 33.565624Q345.9406 35.26875 346.8156 36.175Q347.6906 37.08125 348.9875 37.08125Q349.95624 37.08125 350.6281 36.58125Q351.3156 36.065624 351.72186 34.95625ZM345.9406 32.1125L351.7375 32.1125Q351.6281 30.815624 351.08124 30.159374Q350.2375 29.14375 348.89374 29.14375Q347.6906 29.14375 346.8625 29.95625Q346.03436 30.753124 345.9406 32.1125ZM362.39374 34.503124L364.1125 34.721874Q363.83124 36.51875 362.65936 37.534374Q361.5031 38.534374 359.8 38.534374Q357.675 38.534374 356.3781 37.14375Q355.08124 35.753124 355.08124 33.159374Q355.08124 31.471874 355.6281 30.221874Q356.1906 28.95625 357.33124 28.33125Q358.47186 27.690624 359.8156 27.690624Q361.5031 27.690624 362.5656 28.55Q363.64374 29.409374 363.95624 30.971874L362.2375 31.2375Q362.0031 30.190624 361.3781 29.675Q360.7531 29.14375 359.8781 29.14375Q358.55 29.14375 357.72186 30.096874Q356.89374 31.05 356.89374 33.096874Q356.89374 35.190624 357.6906 36.14375Q358.4875 37.08125 359.78436 37.08125Q360.8156 37.08125 361.5031 36.45625Q362.20624 35.815624 362.39374 34.503124ZM369.45624 36.721874L369.70624 38.284374Q368.97186 38.440624 368.3781 38.440624Q367.425 38.440624 366.89374 38.14375Q366.3781 37.83125 366.15936 37.346874Q365.9406 36.846874 365.9406 35.26875L365.9406 29.3L364.65936 29.3L364.65936 27.925L365.9406 27.925L365.9406 25.3625L367.6906 24.3L367.6906 27.925L369.45624 27.925L369.45624 29.3L367.6906 29.3L367.6906 35.3625Q367.6906 36.1125 367.78436 36.33125Q367.8781 36.534374 368.08124 36.675Q368.3 36.8 368.6906 36.8Q368.97186 36.8 369.45624 36.721874ZM380.34686 38.3L376.55 23.9875L378.4875 23.9875L380.65936 33.3625Q381.01874 34.846874 381.26874 36.3Q381.8156 34.003124 381.90936 33.64375L384.64374 23.9875L386.925 23.9875L388.97186 31.221874Q389.7531 33.925 390.09686 36.3Q390.3625 34.940624 390.8 33.175L393.05 23.9875L394.95624 23.9875L391.03436 38.3L389.20624 38.3L386.1906 27.39375Q385.8 26.01875 385.7375 25.70625Q385.5031 26.690624 385.3156 27.39375L382.28436 38.3L380.34686 38.3ZM403.72186 34.95625L405.53436 35.190624Q405.1125 36.76875 403.9406 37.659374Q402.78436 38.534374 400.97186 38.534374Q398.70624 38.534374 397.3625 37.14375Q396.03436 35.7375 396.03436 33.20625Q396.03436 30.58125 397.3781 29.14375Q398.72186 27.690624 400.8781 27.690624Q402.95624 27.690624 404.26874 29.1125Q405.59686 30.51875 405.59686 33.096874Q405.59686 33.253124 405.58124 33.565624L397.84686 33.565624Q397.9406 35.26875 398.8156 36.175Q399.6906 37.08125 400.9875 37.08125Q401.95624 37.08125 402.6281 36.58125Q403.3156 36.065624 403.72186 34.95625ZM397.9406 32.1125L403.7375 32.1125Q403.6281 30.815624 403.08124 30.159374Q402.2375 29.14375 400.89374 29.14375Q399.6906 29.14375 398.8625 29.95625Q398.03436 30.753124 397.9406 32.1125ZM414.72186 34.95625L416.53436 35.190624Q416.1125 36.76875 414.9406 37.659374Q413.78436 38.534374 411.97186 38.534374Q409.70624 38.534374 408.3625 37.14375Q407.03436 35.7375 407.03436 33.20625Q407.03436 30.58125 408.3781 29.14375Q409.72186 27.690624 411.8781 27.690624Q413.95624 27.690624 415.26874 29.1125Q416.59686 30.51875 416.59686 33.096874Q416.59686 33.253124 416.58124 33.565624L408.84686 33.565624Q408.9406 35.26875 409.8156 36.175Q410.6906 37.08125 411.9875 37.08125Q412.95624 37.08125 413.6281 36.58125Q414.3156 36.065624 414.72186 34.95625ZM408.9406 32.1125L414.7375 32.1125Q414.6281 30.815624 414.08124 30.159374Q413.2375 29.14375 411.89374 29.14375Q410.6906 29.14375 409.8625 29.95625Q409.03436 30.753124 408.9406 32.1125ZM418.6281 38.3L418.6281 23.9875L420.39374 23.9875L420.39374 32.14375L424.55 27.925L426.8156 27.925L422.8625 31.76875L427.22186 38.3L425.05 38.3L421.6281 33.003124L420.39374 34.190624L420.39374 38.3L418.6281 38.3Z" fill-rule="nonzero"/></svg>