<svg version="1.1" viewBox="0.0 0.0 609.0 386.0" fill="none" stroke="none" stroke-linecap="square" stroke-miterlimit="10" width="609" height="386" xmlns:xlink="http://www.w3.org/1999/xlink" xmlns="http://www.w3.org/2000/svg"><path fill="#ffffff" d="M0 0L609.0 0L609.0 386.0L0 386.0L0 0Z" fill-rule="nonzero"/><path fill="#4285f4" d="M304.5 56.166668C323.08002 56.166668 341.5092 59.501526 358.91098 66.01263L331.7055 138.72298C323.0046 135.46742 313.79 133.8 304.5 133.8Z" fill-rule="nonzero"/><path fill="#ff6d01" d="M252.13611 65.263016C268.9382 59.243855 286.65228 56.166668 304.5 56.166668L304.5 133.8C295.57614 133.8 286.71912 135.3386 278.31805 138.34818Z" fill-rule="nonzero"/><path fill="#34a853" d="M200.94429 95.74431C215.88055 82.37453 233.2645 72.02357 252.13611 65.263016L278.31805 138.34818C268.88223 141.72845 260.19028 146.90393 252.72214 153.58882Z" fill-rule="nonzero"/><path fill="#fbbc04" d="M213.23654 337.0467C175.27429 309.4655 151.82167 266.19574 149.4344 219.33258C147.04713 172.46942 165.98132 127.040405 200.94429 95.74431L252.72214 153.58882C235.24066 169.23686 225.77356 191.95137 226.9672 215.38295C228.16084 238.81453 239.88715 260.44943 258.8683 274.24002Z" fill-rule="nonzero"/><path fill="#ea4335" d="M358.91098 66.01263C415.57474 87.21408 454.76318 139.39864 459.3247 199.72672C463.88623 260.0548 432.99005 317.5386 380.15845 347.01923C327.32687 376.49985 262.1823 372.60788 213.23654 337.0467L258.8683 274.24002C283.34116 292.0206 315.91342 293.96658 342.32922 279.2263C368.74503 264.48596 384.1931 235.74406 381.91235 205.58003C379.6316 175.41599 360.03738 149.32372 331.7055 138.72298Z" fill-rule="nonzero"/><path fill="#000000" d="M315.52905 93.76731L315.52905 94.95481L308.90405 94.95481Q308.88843 94.51731 309.04468 94.095436Q309.3103 93.42356 309.85718 92.76731Q310.41968 92.11106 311.46655 91.251686Q313.10718 89.907936 313.66968 89.126686Q314.2478 88.345436 314.2478 87.64231Q314.2478 86.907936 313.71655 86.407936Q313.20093 85.907936 312.3728 85.907936Q311.48218 85.907936 310.9353 86.439186Q310.40405 86.970436 310.40405 87.92356L309.13843 87.782936Q309.26343 86.376686 310.10718 85.64231Q310.96655 84.89231 312.38843 84.89231Q313.84155 84.89231 314.66968 85.689186Q315.51343 86.48606 315.51343 87.67356Q315.51343 88.282936 315.26343 88.86106Q315.02905 89.439186 314.45093 90.07981Q313.88843 90.720436 312.5603 91.845436Q311.45093 92.76731 311.13843 93.11106Q310.82593 93.439186 310.6228 93.76731L315.52905 93.76731ZM317.0603 92.32981L318.35718 92.220436Q318.4978 93.157936 319.01343 93.64231Q319.54468 94.11106 320.27905 94.11106Q321.16968 94.11106 321.77905 93.439186Q322.40405 92.76731 322.40405 91.67356Q322.40405 90.61106 321.8103 90.001686Q321.21655 89.39231 320.26343 89.39231Q319.66968 89.39231 319.1853 89.67356Q318.71655 89.939186 318.4353 90.36106L317.27905 90.220436L318.2478 85.064186L323.23218 85.064186L323.23218 86.251686L319.23218 86.251686L318.70093 88.939186Q319.60718 88.314186 320.59155 88.314186Q321.90405 88.314186 322.79468 89.220436Q323.70093 90.126686 323.70093 91.564186Q323.70093 92.92356 322.91968 93.907936Q321.95093 95.126686 320.27905 95.126686Q318.91968 95.126686 318.04468 94.36106Q317.1853 93.595436 317.0603 92.32981ZM325.7478 94.95481L325.7478 93.54856L327.15405 93.54856L327.15405 94.95481L325.7478 94.95481ZM329.0603 92.32981L330.35718 92.220436Q330.4978 93.157936 331.01343 93.64231Q331.54468 94.11106 332.27905 94.11106Q333.16968 94.11106 333.77905 93.439186Q334.40405 92.76731 334.40405 91.67356Q334.40405 90.61106 333.8103 90.001686Q333.21655 89.39231 332.26343 89.39231Q331.66968 89.39231 331.1853 89.67356Q330.71655 89.939186 330.4353 90.36106L329.27905 90.220436L330.2478 85.064186L335.23218 85.064186L335.23218 86.251686L331.23218 86.251686L330.70093 88.939186Q331.60718 88.314186 332.59155 88.314186Q333.90405 88.314186 334.79468 89.220436Q335.70093 90.126686 335.70093 91.564186Q335.70093 92.92356 334.91968 93.907936Q333.95093 95.126686 332.27905 95.126686Q330.91968 95.126686 330.04468 94.36106Q329.1853 93.595436 329.0603 92.32981ZM337.40405 94.95481L337.40405 84.939186L338.63843 84.939186L338.63843 88.532936Q339.4978 87.532936 340.8103 87.532936Q341.6228 87.532936 342.21655 87.86106Q342.8103 88.17356 343.0603 88.73606Q343.32593 89.282936 343.32593 90.36106L343.32593 94.95481L342.09155 94.95481L342.09155 90.36106Q342.09155 89.42356 341.6853 89.01731Q341.29468 88.595436 340.5603 88.595436Q340.01343 88.595436 339.52905 88.876686Q339.04468 89.157936 338.84155 89.64231Q338.63843 90.126686 338.63843 90.98606L338.63843 94.95481L337.40405 94.95481Z" fill-rule="nonzero"/><path fill="#000000" d="M392.11987 270.3764L392.11987 271.5639L385.49487 271.5639Q385.47925 271.1264 385.6355 270.70453Q385.90112 270.03265 386.448 269.3764Q387.0105 268.72015 388.05737 267.86078Q389.698 266.51703 390.2605 265.73578Q390.83862 264.95453 390.83862 264.2514Q390.83862 263.51703 390.30737 263.01703Q389.79175 262.51703 388.96362 262.51703Q388.073 262.51703 387.52612 263.04828Q386.99487 263.57953 386.99487 264.53265L385.72925 264.39203Q385.85425 262.98578 386.698 262.2514Q387.55737 261.5014 388.97925 261.5014Q390.43237 261.5014 391.2605 262.29828Q392.10425 263.09515 392.10425 264.28265Q392.10425 264.89203 391.85425 265.47015Q391.61987 266.04828 391.04175 266.6889Q390.47925 267.32953 389.15112 268.45453Q388.04175 269.3764 387.72925 269.72015Q387.41675 270.04828 387.21362 270.3764L392.11987 270.3764ZM397.60425 271.5639L397.60425 269.15765L393.24487 269.15765L393.24487 268.03265L397.823 261.54828L398.823 261.54828L398.823 268.03265L400.18237 268.03265L400.18237 269.15765L398.823 269.15765L398.823 271.5639L397.60425 271.5639ZM397.60425 268.03265L397.60425 263.51703L394.46362 268.03265L397.60425 268.03265ZM401.66675 268.92328L402.8855 268.7514Q403.10425 269.79828 403.60425 270.26703Q404.11987 270.72015 404.85425 270.72015Q405.72925 270.72015 406.323 270.1264Q406.91675 269.51703 406.91675 268.6264Q406.91675 267.78265 406.35425 267.23578Q405.80737 266.6889 404.96362 266.6889Q404.60425 266.6889 404.08862 266.8139L404.22925 265.73578Q404.35425 265.7514 404.41675 265.7514Q405.21362 265.7514 405.83862 265.34515Q406.46362 264.9389 406.46362 264.07953Q406.46362 263.40765 406.0105 262.97015Q405.55737 262.51703 404.823 262.51703Q404.10425 262.51703 403.61987 262.97015Q403.15112 263.40765 403.0105 264.3139L401.79175 264.09515Q402.0105 262.86078 402.80737 262.1889Q403.60425 261.5014 404.79175 261.5014Q405.61987 261.5014 406.30737 261.86078Q406.99487 262.20453 407.35425 262.8139Q407.72925 263.42328 407.72925 264.11078Q407.72925 264.7514 407.3855 265.28265Q407.04175 265.8139 406.35425 266.14203Q407.24487 266.34515 407.72925 266.98578Q408.22925 267.6264 408.22925 268.61078Q408.22925 269.92328 407.2605 270.82953Q406.30737 271.73578 404.85425 271.73578Q403.52612 271.73578 402.65112 270.95453Q401.79175 270.17328 401.66675 268.92328ZM410.33862 271.5639L410.33862 270.15765L411.74487 270.15765L411.74487 271.5639L410.33862 271.5639ZM413.65112 266.6264Q413.65112 264.84515 414.0105 263.76703Q414.3855 262.67328 415.10425 262.09515Q415.823 261.5014 416.91675 261.5014Q417.72925 261.5014 418.33862 261.82953Q418.948 262.15765 419.33862 262.76703Q419.74487 263.3764 419.96362 264.2514Q420.18237 265.1264 420.18237 266.6264Q420.18237 268.39203 419.823 269.47015Q419.46362 270.54828 418.74487 271.14203Q418.02612 271.73578 416.91675 271.73578Q415.47925 271.73578 414.65112 270.6889Q413.65112 269.4389 413.65112 266.6264ZM414.91675 266.6264Q414.91675 269.09515 415.49487 269.90765Q416.073 270.72015 416.91675 270.72015Q417.77612 270.72015 418.35425 269.90765Q418.93237 269.07953 418.93237 266.6264Q418.93237 264.14203 418.35425 263.32953Q417.77612 262.51703 416.90112 262.51703Q416.05737 262.51703 415.55737 263.23578Q414.91675 264.15765 414.91675 266.6264ZM421.99487 271.5639L421.99487 261.54828L423.22925 261.54828L423.22925 265.14203Q424.08862 264.14203 425.40112 264.14203Q426.21362 264.14203 426.80737 264.47015Q427.40112 264.78265 427.65112 265.34515Q427.91675 265.89203 427.91675 266.97015L427.91675 271.5639L426.68237 271.5639L426.68237 266.97015Q426.68237 266.03265 426.27612 265.6264Q425.8855 265.20453 425.15112 265.20453Q424.60425 265.20453 424.11987 265.48578Q423.6355 265.76703 423.43237 266.2514Q423.22925 266.73578 423.22925 267.59515L423.22925 271.5639L421.99487 271.5639Z" fill-rule="nonzero"/><path fill="#000000" d="M171.41956 222.35777L170.18518 222.35777L170.18518 214.51402Q169.74768 214.9359 169.0133 215.3734Q168.29456 215.79527 167.73206 215.9984L167.73206 214.8109Q168.7633 214.32652 169.52893 213.63902Q170.31018 212.95152 170.62268 212.29527L171.41956 212.29527L171.41956 222.35777ZM181.24768 221.17027L181.24768 222.35777L174.62268 222.35777Q174.60706 221.92027 174.7633 221.4984Q175.02893 220.82652 175.5758 220.17027Q176.1383 219.51402 177.18518 218.65465Q178.8258 217.3109 179.3883 216.52965Q179.96643 215.7484 179.96643 215.04527Q179.96643 214.3109 179.43518 213.8109Q178.91956 213.3109 178.09143 213.3109Q177.2008 213.3109 176.65393 213.84215Q176.12268 214.3734 176.12268 215.32652L174.85706 215.1859Q174.98206 213.77965 175.8258 213.04527Q176.68518 212.29527 178.10706 212.29527Q179.56018 212.29527 180.3883 213.09215Q181.23206 213.88902 181.23206 215.07652Q181.23206 215.6859 180.98206 216.26402Q180.74768 216.84215 180.16956 217.48277Q179.60706 218.1234 178.27893 219.2484Q177.16956 220.17027 176.85706 220.51402Q176.54456 220.84215 176.34143 221.17027L181.24768 221.17027ZM182.85706 213.65465L182.85706 212.46715L189.35706 212.46715L189.35706 213.42027Q188.3883 214.4359 187.4508 216.1234Q186.5133 217.8109 185.99768 219.60777Q185.6383 220.85777 185.52893 222.35777L184.2633 222.35777Q184.27893 221.17027 184.71643 219.4984Q185.16956 217.82652 185.99768 216.27965Q186.84143 214.71715 187.77893 213.65465L182.85706 213.65465ZM191.46643 222.35777L191.46643 220.95152L192.87268 220.95152L192.87268 222.35777L191.46643 222.35777ZM194.77893 217.42027Q194.77893 215.63902 195.1383 214.5609Q195.5133 213.46715 196.23206 212.88902Q196.9508 212.29527 198.04456 212.29527Q198.85706 212.29527 199.46643 212.6234Q200.0758 212.95152 200.46643 213.5609Q200.87268 214.17027 201.09143 215.04527Q201.31018 215.92027 201.31018 217.42027Q201.31018 219.1859 200.9508 220.26402Q200.59143 221.34215 199.87268 221.9359Q199.15393 222.52965 198.04456 222.52965Q196.60706 222.52965 195.77893 221.48277Q194.77893 220.23277 194.77893 217.42027ZM196.04456 217.42027Q196.04456 219.88902 196.62268 220.70152Q197.2008 221.51402 198.04456 221.51402Q198.90393 221.51402 199.48206 220.70152Q200.06018 219.8734 200.06018 217.42027Q200.06018 214.9359 199.48206 214.1234Q198.90393 213.3109 198.02893 213.3109Q197.18518 213.3109 196.68518 214.02965Q196.04456 214.95152 196.04456 217.42027ZM203.12268 222.35777L203.12268 212.34215L204.35706 212.34215L204.35706 215.9359Q205.21643 214.9359 206.52893 214.9359Q207.34143 214.9359 207.93518 215.26402Q208.52893 215.57652 208.77893 216.13902Q209.04456 216.6859 209.04456 217.76402L209.04456 222.35777L207.81018 222.35777L207.81018 217.76402Q207.81018 216.82652 207.40393 216.42027Q207.0133 215.9984 206.27893 215.9984Q205.73206 215.9984 205.24768 216.27965Q204.7633 216.5609 204.56018 217.04527Q204.35706 217.52965 204.35706 218.38902L204.35706 222.35777L203.12268 222.35777Z" fill-rule="nonzero"/><path fill="#000000" d="M233.69328 114.72466L233.69328 115.91216L227.06828 115.91216Q227.05266 115.47466 227.20891 115.05279Q227.47453 114.38091 228.02141 113.72466Q228.58391 113.06841 229.63078 112.20904Q231.27141 110.86529 231.83391 110.08404Q232.41203 109.30279 232.41203 108.59966Q232.41203 107.86529 231.88078 107.36529Q231.36516 106.86529 230.53703 106.86529Q229.64641 106.86529 229.09953 107.39654Q228.56828 107.92779 228.56828 108.88091L227.30266 108.74029Q227.42766 107.33404 228.27141 106.59966Q229.13078 105.84966 230.55266 105.84966Q232.00578 105.84966 232.83391 106.64654Q233.67766 107.44341 233.67766 108.63091Q233.67766 109.24029 233.42766 109.81841Q233.19328 110.39654 232.61516 111.03716Q232.05266 111.67779 230.72453 112.80279Q229.61516 113.72466 229.30266 114.06841Q228.99016 114.39654 228.78703 114.72466L233.69328 114.72466ZM235.30266 107.20904L235.30266 106.02154L241.80266 106.02154L241.80266 106.97466Q240.83391 107.99029 239.89641 109.67779Q238.95891 111.36529 238.44328 113.16216Q238.08391 114.41216 237.97453 115.91216L236.70891 115.91216Q236.72453 114.72466 237.16203 113.05279Q237.61516 111.38091 238.44328 109.83404Q239.28703 108.27154 240.22453 107.20904L235.30266 107.20904ZM243.91203 115.91216L243.91203 114.50591L245.31828 114.50591L245.31828 115.91216L243.91203 115.91216ZM247.22453 113.28716L248.52141 113.17779Q248.66203 114.11529 249.17766 114.59966Q249.70891 115.06841 250.44328 115.06841Q251.33391 115.06841 251.94328 114.39654Q252.56828 113.72466 252.56828 112.63091Q252.56828 111.56841 251.97453 110.95904Q251.38078 110.34966 250.42766 110.34966Q249.83391 110.34966 249.34953 110.63091Q248.88078 110.89654 248.59953 111.31841L247.44328 111.17779L248.41203 106.02154L253.39641 106.02154L253.39641 107.20904L249.39641 107.20904L248.86516 109.89654Q249.77141 109.27154 250.75578 109.27154Q252.06828 109.27154 252.95891 110.17779Q253.86516 111.08404 253.86516 112.52154Q253.86516 113.88091 253.08391 114.86529Q252.11516 116.08404 250.44328 116.08404Q249.08391 116.08404 248.20891 115.31841Q247.34953 114.55279 247.22453 113.28716ZM255.56828 115.91216L255.56828 105.89654L256.80267 105.89654L256.80267 109.49029Q257.66205 108.49029 258.97455 108.49029Q259.78705 108.49029 260.3808 108.81841Q260.97455 109.13091 261.22455 109.69341Q261.49017 110.24029 261.49017 111.31841L261.49017 115.91216L260.2558 115.91216L260.2558 111.31841Q260.2558 110.38091 259.84955 109.97466Q259.45892 109.55279 258.72455 109.55279Q258.17767 109.55279 257.6933 109.83404Q257.20892 110.11529 257.0058 110.59966Q256.80267 111.08404 256.80267 111.94341L256.80267 115.91216L255.56828 115.91216Z" fill-rule="nonzero"/><path fill="#000000" d="M272.38992 93.454094L272.38992 94.641594L265.76492 94.641594Q265.7493 94.204094 265.90555 93.78222Q266.17117 93.110344 266.71805 92.454094Q267.28055 91.797844 268.32742 90.93847Q269.96805 89.59472 270.53055 88.81347Q271.10867 88.03222 271.10867 87.329094Q271.10867 86.59472 270.57742 86.09472Q270.0618 85.59472 269.23367 85.59472Q268.34305 85.59472 267.79617 86.12597Q267.26492 86.65722 267.26492 87.610344L265.9993 87.46972Q266.1243 86.06347 266.96805 85.329094Q267.82742 84.579094 269.2493 84.579094Q270.70242 84.579094 271.53055 85.37597Q272.3743 86.172844 272.3743 87.360344Q272.3743 87.96972 272.1243 88.547844Q271.88992 89.12597 271.3118 89.766594Q270.7493 90.40722 269.42117 91.53222Q268.3118 92.454094 267.9993 92.797844Q267.6868 93.12597 267.48367 93.454094L272.38992 93.454094ZM277.8743 94.641594L277.8743 92.235344L273.51492 92.235344L273.51492 91.110344L278.09305 84.62597L279.09305 84.62597L279.09305 91.110344L280.45242 91.110344L280.45242 92.235344L279.09305 92.235344L279.09305 94.641594L277.8743 94.641594ZM277.8743 91.110344L277.8743 86.59472L274.73367 91.110344L277.8743 91.110344ZM282.60867 94.641594L282.60867 93.235344L284.01492 93.235344L284.01492 94.641594L282.60867 94.641594ZM285.92117 92.016594L287.21805 91.90722Q287.35867 92.84472 287.8743 93.329094Q288.40555 93.797844 289.13992 93.797844Q290.03055 93.797844 290.63992 93.12597Q291.26492 92.454094 291.26492 91.360344Q291.26492 90.297844 290.67117 89.68847Q290.07742 89.079094 289.1243 89.079094Q288.53055 89.079094 288.04617 89.360344Q287.57742 89.62597 287.29617 90.047844L286.13992 89.90722L287.10867 84.75097L292.09305 84.75097L292.09305 85.93847L288.09305 85.93847L287.5618 88.62597Q288.46805 88.00097 289.45242 88.00097Q290.76492 88.00097 291.65555 88.90722Q292.5618 89.81347 292.5618 91.25097Q292.5618 92.610344 291.78055 93.59472Q290.8118 94.81347 289.13992 94.81347Q287.78055 94.81347 286.90555 94.047844Q286.04617 93.28222 285.92117 92.016594ZM294.26492 94.641594L294.26492 84.62597L295.4993 84.62597L295.4993 88.21972Q296.35867 87.21972 297.67117 87.21972Q298.48367 87.21972 299.07742 87.547844Q299.67117 87.860344 299.92117 88.422844Q300.1868 88.96972 300.1868 90.047844L300.1868 94.641594L298.95242 94.641594L298.95242 90.047844Q298.95242 89.110344 298.54617 88.704094Q298.15555 88.28222 297.42117 88.28222Q296.8743 88.28222 296.38992 88.56347Q295.90555 88.84472 295.70242 89.329094Q295.4993 89.81347 295.4993 90.672844L295.4993 94.641594L294.26492 94.641594Z" fill-rule="nonzero"/><path fill="#1a1a1a" d="M19.846874 64.40104L20.909374 64.30729Q20.9875 64.96354 21.26875 65.36979Q21.55 65.77604 22.128124 66.041664Q22.721874 66.291664 23.45625 66.291664Q24.096874 66.291664 24.596874 66.104164Q25.096874 65.90104 25.33125 65.572914Q25.58125 65.229164 25.58125 64.83854Q25.58125 64.43229 25.346874 64.135414Q25.1125 63.822914 24.58125 63.61979Q24.221874 63.479164 23.034374 63.197914Q21.8625 62.916664 21.39375 62.666664Q20.76875 62.33854 20.471874 61.86979Q20.175 61.385414 20.175 60.791664Q20.175 60.15104 20.534374 59.58854Q20.909374 59.010414 21.6125 58.729164Q22.33125 58.43229 23.190624 58.43229Q24.14375 58.43229 24.878124 58.74479Q25.6125 59.041664 26.003124 59.65104Q26.39375 60.24479 26.425 60.99479L25.33125 61.072914Q25.2375 60.260414 24.721874 59.854164Q24.221874 59.43229 23.2375 59.43229Q22.20625 59.43229 21.7375 59.80729Q21.26875 60.18229 21.26875 60.71354Q21.26875 61.18229 21.596874 61.479164Q21.925 61.77604 23.3 62.08854Q24.690624 62.40104 25.20625 62.635414Q25.95625 62.99479 26.315624 63.52604Q26.675 64.041664 26.675 64.74479Q26.675 65.43229 26.284374 66.041664Q25.89375 66.635414 25.159374 66.979164Q24.425 67.30729 23.503124 67.30729Q22.33125 67.30729 21.534374 66.979164Q20.753124 66.635414 20.3 65.947914Q19.8625 65.260414 19.846874 64.40104ZM30.39375 66.229164L30.55 67.15104Q30.096874 67.24479 29.753124 67.24479Q29.175 67.24479 28.8625 67.072914Q28.55 66.885414 28.409374 66.58854Q28.284374 66.291664 28.284374 65.33854L28.284374 61.760414L27.51875 61.760414L27.51875 60.947914L28.284374 60.947914L28.284374 59.40104L29.33125 58.77604L29.33125 60.947914L30.39375 60.947914L30.39375 61.760414L29.33125 61.760414L29.33125 65.40104Q29.33125 65.854164 29.378124 65.979164Q29.440624 66.104164 29.565624 66.18229Q29.690624 66.260414 29.925 66.260414Q30.1125 66.260414 30.39375 66.229164ZM35.175 67.166664L35.175 66.24479Q34.440624 67.30729 33.190624 67.30729Q32.64375 67.30729 32.159374 67.104164Q31.690624 66.885414 31.45625 66.572914Q31.221874 66.24479 31.128124 65.77604Q31.065624 65.479164 31.065624 64.791664L31.065624 60.947914L32.128124 60.947914L32.128124 64.40104Q32.128124 65.21354 32.190624 65.510414Q32.284374 65.916664 32.596874 66.166664Q32.925 66.40104 33.409374 66.40104Q33.878124 66.40104 34.284374 66.166664Q34.70625 65.916664 34.878124 65.49479Q35.065624 65.072914 35.065624 64.27604L35.065624 60.947914L36.1125 60.947914L36.1125 67.166664L35.175 67.166664ZM42.128124 67.166664L42.128124 66.385414Q41.534374 67.30729 40.39375 67.30729Q39.64375 67.30729 39.01875 66.90104Q38.39375 66.479164 38.05 65.74479Q37.70625 65.010414 37.70625 64.05729Q37.70625 63.135414 38.01875 62.36979Q38.33125 61.604164 38.95625 61.21354Q39.58125 60.80729 40.346874 60.80729Q40.909374 60.80729 41.346874 61.041664Q41.784374 61.27604 42.065624 61.65104L42.065624 58.572914L43.1125 58.572914L43.1125 67.166664L42.128124 67.166664ZM38.8 64.05729Q38.8 65.260414 39.3 65.854164Q39.8 66.43229 40.4875 66.43229Q41.175 66.43229 41.659374 65.86979Q42.14375 65.30729 42.14375 64.15104Q42.14375 62.86979 41.64375 62.27604Q41.159374 61.68229 40.440624 61.68229Q39.7375 61.68229 39.26875 62.260414Q38.8 62.822914 38.8 64.05729ZM45.05 69.55729L44.925 68.572914Q45.26875 68.666664 45.534374 68.666664Q45.878124 68.666664 46.08125 68.541664Q46.3 68.43229 46.440624 68.229164Q46.534374 68.05729 46.76875 67.43229Q46.784374 67.354164 46.8625 67.18229L44.4875 60.947914L45.628124 60.947914L46.925 64.541664Q47.175 65.229164 47.378124 65.99479Q47.565624 65.260414 47.815624 64.572914L49.14375 60.947914L50.190624 60.947914L47.83125 67.27604Q47.440624 68.291664 47.2375 68.68229Q46.95625 69.21354 46.58125 69.447914Q46.221874 69.697914 45.721874 69.697914Q45.425 69.697914 45.05 69.55729ZM50.096874 59.791664L50.096874 58.572914L51.159374 58.572914L51.159374 59.791664L50.096874 59.791664ZM50.096874 67.166664L50.096874 60.947914L51.159374 60.947914L51.159374 67.166664L50.096874 67.166664ZM53.096874 67.166664L53.096874 60.947914L54.034374 60.947914L54.034374 61.822914Q54.721874 60.80729 56.01875 60.80729Q56.58125 60.80729 57.05 61.010414Q57.534374 61.21354 57.76875 61.541664Q58.003124 61.86979 58.096874 62.30729Q58.14375 62.604164 58.14375 63.33854L58.14375 67.166664L57.096874 67.166664L57.096874 63.385414Q57.096874 62.729164 56.971874 62.416664Q56.846874 62.104164 56.534374 61.916664Q56.221874 61.71354 55.8 61.71354Q55.128124 61.71354 54.628124 62.15104Q54.14375 62.572914 54.14375 63.760414L54.14375 67.166664L53.096874 67.166664ZM59.89375 67.68229L60.925 67.83854Q60.9875 68.30729 61.284374 68.52604Q61.675 68.822914 62.346874 68.822914Q63.08125 68.822914 63.471874 68.52604Q63.878124 68.229164 64.01875 67.71354Q64.1125 67.385414 64.09688 66.354164Q63.409374 67.166664 62.378124 67.166664Q61.096874 67.166664 60.39375 66.24479Q59.690624 65.30729 59.690624 64.02604Q59.690624 63.135414 60.003124 62.385414Q60.33125 61.61979 60.940624 61.21354Q61.55 60.80729 62.378124 60.80729Q63.4875 60.80729 64.20625 61.697914L64.20625 60.947914L65.175 60.947914L65.175 66.322914Q65.175 67.77604 64.87813 68.385414Q64.58125 68.99479 63.940624 69.33854Q63.3 69.697914 62.3625 69.697914Q61.253124 69.697914 60.565624 69.197914Q59.878124 68.697914 59.89375 67.68229ZM60.76875 63.947914Q60.76875 65.166664 61.253124 65.729164Q61.7375 66.291664 62.471874 66.291664Q63.20625 66.291664 63.690624 65.729164Q64.19063 65.166664 64.19063 63.979164Q64.19063 62.83854 63.675 62.260414Q63.175 61.68229 62.45625 61.68229Q61.753124 61.68229 61.253124 62.260414Q60.76875 62.822914 60.76875 63.947914ZM69.3 67.30729L71.78438 58.43229L72.62813 58.43229L70.14375 67.30729L69.3 67.30729ZM76.2375 67.166664L76.2375 58.572914L80.05 58.572914Q81.20625 58.572914 81.8 58.80729Q82.39375 59.041664 82.75313 59.635414Q83.1125 60.21354 83.1125 60.916664Q83.1125 61.83854 82.51875 62.46354Q81.925 63.08854 80.69063 63.260414Q81.14375 63.479164 81.37813 63.68229Q81.87813 64.135414 82.31563 64.822914L83.81563 67.166664L82.37813 67.166664L81.25313 65.385414Q80.75313 64.604164 80.425 64.197914Q80.1125 63.791664 79.84688 63.635414Q79.59688 63.46354 79.33125 63.385414Q79.14375 63.354164 78.70625 63.354164L77.37813 63.354164L77.37813 67.166664L76.2375 67.166664ZM77.37813 62.36979L79.83125 62.36979Q80.59688 62.36979 81.03438 62.21354Q81.4875 62.041664 81.70625 61.697914Q81.94063 61.33854 81.94063 60.916664Q81.94063 60.30729 81.4875 59.916664Q81.05 59.52604 80.09688 59.52604L77.37813 59.52604L77.37813 62.36979ZM89.34688 65.166664L90.44063 65.291664Q90.19063 66.24479 89.4875 66.77604Q88.78438 67.30729 87.70625 67.30729Q86.34688 67.30729 85.53438 66.46354Q84.7375 65.61979 84.7375 64.104164Q84.7375 62.541664 85.55 61.68229Q86.3625 60.80729 87.64375 60.80729Q88.89375 60.80729 89.675 61.65104Q90.47188 62.49479 90.47188 64.041664Q90.47188 64.135414 90.47188 64.322914L85.83125 64.322914Q85.89375 65.354164 86.40938 65.90104Q86.925 66.43229 87.70625 66.43229Q88.28438 66.43229 88.69063 66.135414Q89.1125 65.822914 89.34688 65.166664ZM85.89375 63.46354L89.3625 63.46354Q89.3 62.666664 88.97188 62.27604Q88.45625 61.666664 87.65938 61.666664Q86.925 61.666664 86.425 62.15104Q85.94063 62.635414 85.89375 63.46354ZM91.675 65.30729L92.70625 65.15104Q92.8 65.77604 93.19063 66.104164Q93.59688 66.43229 94.33125 66.43229Q95.05 66.43229 95.39375 66.15104Q95.75313 65.854164 95.75313 65.447914Q95.75313 65.08854 95.44063 64.885414Q95.22188 64.74479 94.3625 64.52604Q93.20625 64.229164 92.75313 64.02604Q92.31563 63.80729 92.08125 63.43229Q91.84688 63.05729 91.84688 62.58854Q91.84688 62.18229 92.03438 61.822914Q92.22188 61.46354 92.55 61.229164Q92.8 61.05729 93.22188 60.93229Q93.64375 60.80729 94.14375 60.80729Q94.8625 60.80729 95.40938 61.02604Q95.97188 61.229164 96.2375 61.58854Q96.50313 61.947914 96.59688 62.541664L95.56563 62.68229Q95.50313 62.21354 95.15938 61.947914Q94.83125 61.666664 94.20625 61.666664Q93.4875 61.666664 93.175 61.916664Q92.8625 62.15104 92.8625 62.479164Q92.8625 62.68229 92.9875 62.83854Q93.12813 63.010414 93.39375 63.11979Q93.55 63.18229 94.33125 63.385414Q95.45625 63.697914 95.89375 63.885414Q96.33125 64.072914 96.58125 64.43229Q96.83125 64.791664 96.83125 65.33854Q96.83125 65.86979 96.51875 66.33854Q96.22188 66.791664 95.64375 67.05729Q95.06563 67.30729 94.33125 67.30729Q93.1125 67.30729 92.47188 66.80729Q91.84688 66.291664 91.675 65.30729ZM103.34688 65.166664L104.44063 65.291664Q104.19063 66.24479 103.4875 66.77604Q102.78438 67.30729 101.70625 67.30729Q100.34688 67.30729 99.53438 66.46354Q98.7375 65.61979 98.7375 64.104164Q98.7375 62.541664 99.55 61.68229Q100.3625 60.80729 101.64375 60.80729Q102.89375 60.80729 103.675 61.65104Q104.47188 62.49479 104.47188 64.041664Q104.47188 64.135414 104.47188 64.322914L99.83125 64.322914Q99.89375 65.354164 100.40938 65.90104Q100.925 66.43229 101.70625 66.43229Q102.28438 66.43229 102.69063 66.135414Q103.1125 65.822914 103.34688 65.166664ZM99.89375 63.46354L103.3625 63.46354Q103.3 62.666664 102.97188 62.27604Q102.45625 61.666664 101.65938 61.666664Q100.925 61.666664 100.425 62.15104Q99.94063 62.635414 99.89375 63.46354ZM110.15938 66.40104Q109.56563 66.90104 109.01875 67.104164Q108.4875 67.30729 107.8625 67.30729Q106.83125 67.30729 106.28438 66.80729Q105.7375 66.30729 105.7375 65.52604Q105.7375 65.072914 105.94063 64.697914Q106.14375 64.30729 106.4875 64.08854Q106.83125 63.854164 107.25313 63.74479Q107.55 63.65104 108.19063 63.572914Q109.45625 63.43229 110.06563 63.21354Q110.06563 62.99479 110.06563 62.947914Q110.06563 62.291664 109.76875 62.02604Q109.3625 61.68229 108.56563 61.68229Q107.83125 61.68229 107.47188 61.947914Q107.1125 62.197914 106.94063 62.854164L105.90938 62.71354Q106.05 62.05729 106.37813 61.65104Q106.70625 61.24479 107.31563 61.02604Q107.925 60.80729 108.72188 60.80729Q109.51875 60.80729 110.01875 60.99479Q110.51875 61.18229 110.75313 61.46354Q110.9875 61.74479 111.08125 62.18229Q111.12813 62.447914 111.12813 63.15104L111.12813 64.55729Q111.12813 66.02604 111.19063 66.416664Q111.26875 66.80729 111.47188 67.166664L110.3625 67.166664Q110.20625 66.83854 110.15938 66.40104ZM110.06563 64.041664Q109.4875 64.27604 108.34688 64.447914Q107.69063 64.541664 107.425 64.666664Q107.15938 64.77604 107.00313 64.99479Q106.8625 65.21354 106.8625 65.49479Q106.8625 65.916664 107.175 66.197914Q107.50313 66.479164 108.1125 66.479164Q108.72188 66.479164 109.19063 66.21354Q109.675 65.947914 109.89375 65.479164Q110.06563 65.11979 110.06563 64.43229L110.06563 64.041664ZM113.08125 67.166664L113.08125 60.947914L114.03438 60.947914L114.03438 61.885414Q114.39375 61.229164 114.69063 61.02604Q115.00313 60.80729 115.37813 60.80729Q115.90938 60.80729 116.45625 61.135414L116.09688 62.11979Q115.70625 61.885414 115.33125 61.885414Q114.97188 61.885414 114.69063 62.104164Q114.425 62.30729 114.31563 62.68229Q114.12813 63.24479 114.12813 63.90104L114.12813 67.166664L113.08125 67.166664ZM121.15938 64.885414L122.19063 65.02604Q122.01875 66.08854 121.31563 66.697914Q120.6125 67.30729 119.59688 67.30729Q118.31563 67.30729 117.53438 66.479164Q116.76875 65.635414 116.76875 64.072914Q116.76875 63.072914 117.09688 62.322914Q117.44063 61.55729 118.1125 61.18229Q118.8 60.80729 119.6125 60.80729Q120.6125 60.80729 121.25313 61.322914Q121.90938 61.822914 122.09688 62.77604L121.06563 62.93229Q120.925 62.30729 120.55 61.99479Q120.175 61.666664 119.64375 61.666664Q118.84688 61.666664 118.34688 62.24479Q117.84688 62.80729 117.84688 64.041664Q117.84688 65.30729 118.33125 65.86979Q118.81563 66.43229 119.58125 66.43229Q120.20625 66.43229 120.6125 66.05729Q121.03438 65.68229 121.15938 64.885414ZM123.09688 67.166664L123.09688 58.572914L124.14375 58.572914L124.14375 61.65104Q124.87813 60.80729 126.00313 60.80729Q126.70625 60.80729 127.20625 61.08854Q127.72188 61.354164 127.94063 61.83854Q128.15938 62.30729 128.15938 63.229164L128.15938 67.166664L127.1125 67.166664L127.1125 63.229164Q127.1125 62.43229 126.76875 62.072914Q126.425 61.71354 125.8 61.71354Q125.33125 61.71354 124.90938 61.96354Q124.50313 62.197914 124.31563 62.61979Q124.14375 63.02604 124.14375 63.760414L124.14375 67.166664L123.09688 67.166664Z" fill-rule="nonzero"/><path fill="#9e9e9e" d="M19.8 81.916664L20.909374 81.822914Q21.034374 82.635414 21.471874 83.041664Q21.925 83.447914 22.565624 83.447914Q23.315624 83.447914 23.846874 82.86979Q24.378124 82.291664 24.378124 81.354164Q24.378124 80.447914 23.8625 79.93229Q23.3625 79.40104 22.534374 79.40104Q22.034374 79.40104 21.6125 79.635414Q21.20625 79.86979 20.971874 80.229164L19.9875 80.104164L20.815624 75.697914L25.096874 75.697914L25.096874 76.697914L21.659374 76.697914L21.20625 79.010414Q21.971874 78.46354 22.815624 78.46354Q23.940624 78.46354 24.70625 79.24479Q25.4875 80.02604 25.4875 81.260414Q25.4875 82.416664 24.815624 83.27604Q23.9875 84.30729 22.565624 84.30729Q21.39375 84.30729 20.64375 83.65104Q19.909374 82.99479 19.8 81.916664ZM27.39375 84.166664L27.39375 82.96354L28.596874 82.96354L28.596874 84.166664L27.39375 84.166664ZM29.8 81.916664L30.909374 81.822914Q31.034374 82.635414 31.471874 83.041664Q31.925 83.447914 32.565624 83.447914Q33.315624 83.447914 33.846874 82.86979Q34.378124 82.291664 34.378124 81.354164Q34.378124 80.447914 33.8625 79.93229Q33.3625 79.40104 32.534374 79.40104Q32.034374 79.40104 31.6125 79.635414Q31.20625 79.86979 30.971874 80.229164L29.9875 80.104164L30.815624 75.697914L35.096874 75.697914L35.096874 76.697914L31.659374 76.697914L31.20625 79.010414Q31.971874 78.46354 32.815624 78.46354Q33.940624 78.46354 34.70625 79.24479Q35.4875 80.02604 35.4875 81.260414Q35.4875 82.416664 34.815624 83.27604Q33.9875 84.30729 32.565624 84.30729Q31.39375 84.30729 30.64375 83.65104Q29.909374 82.99479 29.8 81.916664ZM37.003124 77.635414Q37.003124 76.71354 37.45625 76.072914Q37.925 75.43229 38.8 75.43229Q39.6125 75.43229 40.14375 76.010414Q40.675 76.58854 40.675 77.697914Q40.675 78.791664 40.128124 79.385414Q39.596874 79.96354 38.815624 79.96354Q38.034374 79.96354 37.51875 79.385414Q37.003124 78.80729 37.003124 77.635414ZM38.83125 76.15104Q38.440624 76.15104 38.175 76.49479Q37.925 76.83854 37.925 77.74479Q37.925 78.572914 38.175 78.916664Q38.440624 79.24479 38.83125 79.24479Q39.2375 79.24479 39.4875 78.90104Q39.753124 78.55729 39.753124 77.666664Q39.753124 76.822914 39.4875 76.49479Q39.221874 76.15104 38.83125 76.15104ZM38.83125 84.479164L43.534374 75.43229L44.39375 75.43229L39.70625 84.479164L38.83125 84.479164ZM42.55 82.15104Q42.55 81.229164 43.003124 80.58854Q43.471874 79.947914 44.3625 79.947914Q45.175 79.947914 45.70625 80.52604Q46.2375 81.08854 46.2375 82.21354Q46.2375 83.30729 45.690624 83.90104Q45.159374 84.479164 44.3625 84.479164Q43.596874 84.479164 43.065624 83.90104Q42.55 83.322914 42.55 82.15104ZM44.39375 80.666664Q43.9875 80.666664 43.721874 81.010414Q43.471874 81.354164 43.471874 82.260414Q43.471874 83.072914 43.7375 83.416664Q44.003124 83.760414 44.39375 83.760414Q44.784374 83.760414 45.05 83.416664Q45.315624 83.072914 45.315624 82.166664Q45.315624 81.33854 45.05 81.010414Q44.784374 80.666664 44.39375 80.666664Z" fill-rule="nonzero"/><path stroke="#757575" stroke-width="1.0" stroke-linecap="butt" d="M19.3 71.666664L143.23334 71.666664L279.25464 66.10644" fill-rule="nonzero"/><path fill="#9e9e9e" d="M281.25464 66.10644C281.25464 65.00187 280.35922 64.10644 279.25464 64.10644C278.1501 64.10644 277.25464 65.00187 277.25464 66.10644C277.25464 67.211006 278.1501 68.10644 279.25464 68.10644C280.35922 68.10644 281.25464 67.211006 281.25464 66.10644" fill-rule="nonzero"/><path fill="#1a1a1a" d="M20.190624 98.166664L20.190624 89.572914L21.909374 89.572914L23.940624 95.65104Q24.221874 96.510414 24.346874 96.93229Q24.4875 96.46354 24.8 95.55729L26.8625 89.572914L28.39375 89.572914L28.39375 98.166664L27.3 98.166664L27.3 90.979164L24.8 98.166664L23.76875 98.166664L21.284374 90.854164L21.284374 98.166664L20.190624 98.166664ZM33.346874 96.166664L34.440624 96.291664Q34.190624 97.24479 33.4875 97.77604Q32.784374 98.30729 31.70625 98.30729Q30.346874 98.30729 29.534374 97.46354Q28.7375 96.61979 28.7375 95.104164Q28.7375 93.541664 29.55 92.68229Q30.3625 91.80729 31.64375 91.80729Q32.89375 91.80729 33.675 92.65104Q34.471874 93.49479 34.471874 95.041664Q34.471874 95.135414 34.471874 95.322914L29.83125 95.322914Q29.89375 96.354164 30.409374 96.90104Q30.925 97.43229 31.70625 97.43229Q32.284374 97.43229 32.690624 97.135414Q33.1125 96.822914 33.346874 96.166664ZM29.89375 94.46354L33.3625 94.46354Q33.3 93.666664 32.971874 93.27604Q32.45625 92.666664 31.659374 92.666664Q30.925 92.666664 30.425 93.15104Q29.940624 93.635414 29.89375 94.46354ZM40.346874 96.166664L41.440624 96.291664Q41.190624 97.24479 40.4875 97.77604Q39.784374 98.30729 38.70625 98.30729Q37.346874 98.30729 36.534374 97.46354Q35.7375 96.61979 35.7375 95.104164Q35.7375 93.541664 36.55 92.68229Q37.3625 91.80729 38.64375 91.80729Q39.89375 91.80729 40.675 92.65104Q41.471874 93.49479 41.471874 95.041664Q41.471874 95.135414 41.471874 95.322914L36.83125 95.322914Q36.89375 96.354164 37.409374 96.90104Q37.925 97.43229 38.70625 97.43229Q39.284374 97.43229 39.690624 97.135414Q40.1125 96.822914 40.346874 96.166664ZM36.89375 94.46354L40.3625 94.46354Q40.3 93.666664 39.971874 93.27604Q39.45625 92.666664 38.659374 92.666664Q37.925 92.666664 37.425 93.15104Q36.940624 93.635414 36.89375 94.46354ZM45.39375 97.229164L45.55 98.15104Q45.096874 98.24479 44.753124 98.24479Q44.175 98.24479 43.8625 98.072914Q43.55 97.885414 43.409374 97.58854Q43.284374 97.291664 43.284374 96.33854L43.284374 92.760414L42.51875 92.760414L42.51875 91.947914L43.284374 91.947914L43.284374 90.40104L44.33125 89.77604L44.33125 91.947914L45.39375 91.947914L45.39375 92.760414L44.33125 92.760414L44.33125 96.40104Q44.33125 96.854164 44.378124 96.979164Q44.440624 97.104164 44.565624 97.18229Q44.690624 97.260414 44.925 97.260414Q45.1125 97.260414 45.39375 97.229164ZM46.096874 90.791664L46.096874 89.572914L47.159374 89.572914L47.159374 90.791664L46.096874 90.791664ZM46.096874 98.166664L46.096874 91.947914L47.159374 91.947914L47.159374 98.166664L46.096874 98.166664ZM49.096874 98.166664L49.096874 91.947914L50.034374 91.947914L50.034374 92.822914Q50.721874 91.80729 52.01875 91.80729Q52.58125 91.80729 53.05 92.010414Q53.534374 92.21354 53.76875 92.541664Q54.003124 92.86979 54.096874 93.30729Q54.14375 93.604164 54.14375 94.33854L54.14375 98.166664L53.096874 98.166664L53.096874 94.385414Q53.096874 93.729164 52.971874 93.416664Q52.846874 93.104164 52.534374 92.916664Q52.221874 92.71354 51.8 92.71354Q51.128124 92.71354 50.628124 93.15104Q50.14375 93.572914 50.14375 94.760414L50.14375 98.166664L49.096874 98.166664ZM55.89375 98.68229L56.925 98.83854Q56.9875 99.30729 57.284374 99.52604Q57.675 99.822914 58.346874 99.822914Q59.08125 99.822914 59.471874 99.52604Q59.878124 99.229164 60.01875 98.71354Q60.1125 98.385414 60.096874 97.354164Q59.409374 98.166664 58.378124 98.166664Q57.096874 98.166664 56.39375 97.24479Q55.690624 96.30729 55.690624 95.02604Q55.690624 94.135414 56.003124 93.385414Q56.33125 92.61979 56.940624 92.21354Q57.55 91.80729 58.378124 91.80729Q59.4875 91.80729 60.20625 92.697914L60.20625 91.947914L61.175 91.947914L61.175 97.322914Q61.175 98.77604 60.878124 99.385414Q60.58125 99.99479 59.940624 100.33854Q59.3 100.697914 58.3625 100.697914Q57.253124 100.697914 56.565624 100.197914Q55.878124 99.697914 55.89375 98.68229ZM56.76875 94.947914Q56.76875 96.166664 57.253124 96.729164Q57.7375 97.291664 58.471874 97.291664Q59.20625 97.291664 59.690624 96.729164Q60.190624 96.166664 60.190624 94.979164Q60.190624 93.83854 59.675 93.260414Q59.175 92.68229 58.45625 92.68229Q57.753124 92.68229 57.253124 93.260414Q56.76875 93.822914 56.76875 94.947914Z" fill-rule="nonzero"/><path fill="#9e9e9e" d="M25.26875 108.68229L24.221874 108.760414Q24.08125 108.135414 23.83125 107.854164Q23.39375 107.40104 22.76875 107.40104Q22.26875 107.40104 21.878124 107.68229Q21.39375 108.05729 21.096874 108.760414Q20.815624 109.447914 20.8 110.729164Q21.175 110.15104 21.721874 109.86979Q22.284374 109.58854 22.89375 109.58854Q23.940624 109.58854 24.675 110.36979Q25.425 111.15104 25.425 112.36979Q25.425 113.18229 25.065624 113.885414Q24.721874 114.572914 24.1125 114.947914Q23.503124 115.30729 22.7375 115.30729Q21.409374 115.30729 20.58125 114.33854Q19.753124 113.36979 19.753124 111.15104Q19.753124 108.65104 20.675 107.52604Q21.471874 106.541664 22.83125 106.541664Q23.846874 106.541664 24.4875 107.11979Q25.14375 107.68229 25.26875 108.68229ZM20.971874 112.385414Q20.971874 112.93229 21.190624 113.43229Q21.425 113.916664 21.83125 114.18229Q22.253124 114.447914 22.721874 114.447914Q23.378124 114.447914 23.8625 113.916664Q24.346874 113.36979 24.346874 112.447914Q24.346874 111.55729 23.8625 111.041664Q23.39375 110.52604 22.675 110.52604Q21.95625 110.52604 21.45625 111.041664Q20.971874 111.55729 20.971874 112.385414ZM27.39375 115.166664L27.39375 113.96354L28.596874 113.96354L28.596874 115.166664L27.39375 115.166664ZM33.76875 115.166664L32.721874 115.166664L32.721874 108.447914Q32.33125 108.80729 31.70625 109.18229Q31.096874 109.541664 30.6125 109.71354L30.6125 108.697914Q31.4875 108.27604 32.14375 107.697914Q32.815624 107.104164 33.096874 106.541664L33.76875 106.541664L33.76875 115.166664ZM37.003124 108.635414Q37.003124 107.71354 37.45625 107.072914Q37.925 106.43229 38.8 106.43229Q39.6125 106.43229 40.14375 107.010414Q40.675 107.58854 40.675 108.697914Q40.675 109.791664 40.128124 110.385414Q39.596874 110.96354 38.815624 110.96354Q38.034374 110.96354 37.51875 110.385414Q37.003124 109.80729 37.003124 108.635414ZM38.83125 107.15104Q38.440624 107.15104 38.175 107.49479Q37.925 107.83854 37.925 108.74479Q37.925 109.572914 38.175 109.916664Q38.440624 110.24479 38.83125 110.24479Q39.2375 110.24479 39.4875 109.90104Q39.753124 109.55729 39.753124 108.666664Q39.753124 107.822914 39.4875 107.49479Q39.221874 107.15104 38.83125 107.15104ZM38.83125 115.479164L43.534374 106.43229L44.39375 106.43229L39.70625 115.479164L38.83125 115.479164ZM42.55 113.15104Q42.55 112.229164 43.003124 111.58854Q43.471874 110.947914 44.3625 110.947914Q45.175 110.947914 45.70625 111.52604Q46.2375 112.08854 46.2375 113.21354Q46.2375 114.30729 45.690624 114.90104Q45.159374 115.479164 44.3625 115.479164Q43.596874 115.479164 43.065624 114.90104Q42.55 114.322914 42.55 113.15104ZM44.39375 111.666664Q43.9875 111.666664 43.721874 112.010414Q43.471874 112.354164 43.471874 113.260414Q43.471874 114.072914 43.7375 114.416664Q44.003124 114.760414 44.39375 114.760414Q44.784374 114.760414 45.05 114.416664Q45.315624 114.072914 45.315624 113.166664Q45.315624 112.33854 45.05 112.010414Q44.784374 111.666664 44.39375 111.666664Z" fill-rule="nonzero"/><path stroke="#757575" stroke-width="1.0" stroke-linecap="butt" d="M19.3 102.666664L143.23334 102.666664L229.03622 84.69561" fill-rule="nonzero"/><path fill="#9e9e9e" d="M231.03622 84.69561C231.03622 83.591034 230.1408 82.69561 229.03622 82.69561C227.93166 82.69561 227.03622 83.591034 227.03622 84.69561C227.03622 85.80018 227.93166 86.69561 229.03622 86.69561C230.1408 86.69561 231.03622 85.80018 231.03622 84.69561" fill-rule="nonzero"/><path fill="#1a1a1a" d="M20.425 214.43762L20.425 205.84387L21.55 205.84387L21.55 214.43762L20.425 214.43762ZM23.096874 214.43762L23.096874 208.21887L24.034374 208.21887L24.034374 209.09387Q24.33125 208.62512 24.815624 208.3595Q25.3 208.07825 25.925 208.07825Q26.6125 208.07825 27.05 208.3595Q27.503124 208.64075 27.675 209.15637Q28.425 208.07825 29.596874 208.07825Q30.534374 208.07825 31.01875 208.59387Q31.51875 209.09387 31.51875 210.172L31.51875 214.43762L30.471874 214.43762L30.471874 210.51575Q30.471874 209.89075 30.3625 209.6095Q30.26875 209.32825 30.003124 209.15637Q29.7375 208.9845 29.3625 208.9845Q28.70625 208.9845 28.26875 209.422Q27.846874 209.8595 27.846874 210.82825L27.846874 214.43762L26.784374 214.43762L26.784374 210.39075Q26.784374 209.68762 26.51875 209.34387Q26.26875 208.9845 25.690624 208.9845Q25.2375 208.9845 24.8625 209.21887Q24.4875 209.45325 24.315624 209.90637Q24.14375 210.3595 24.14375 211.20325L24.14375 214.43762L23.096874 214.43762ZM34.096874 216.82825L34.096874 208.21887L35.05 208.21887L35.05 209.01575Q35.39375 208.547 35.815624 208.31262Q36.253124 208.07825 36.8625 208.07825Q37.659374 208.07825 38.26875 208.4845Q38.878124 208.89075 39.175 209.64075Q39.4875 210.39075 39.4875 211.28137Q39.4875 212.2345 39.14375 213.00012Q38.815624 213.76575 38.159374 214.172Q37.503124 214.57825 36.784374 214.57825Q36.253124 214.57825 35.83125 214.3595Q35.409374 214.12512 35.14375 213.797L35.14375 216.82825L34.096874 216.82825ZM35.05 211.3595Q35.05 212.56262 35.534374 213.14075Q36.01875 213.70325 36.70625 213.70325Q37.409374 213.70325 37.909374 213.1095Q38.409374 212.51575 38.409374 211.26575Q38.409374 210.07825 37.925 209.50012Q37.440624 208.90637 36.753124 208.90637Q36.08125 208.90637 35.565624 209.53137Q35.05 210.15637 35.05 211.3595ZM41.065624 214.43762L41.065624 205.84387L42.128124 205.84387L42.128124 214.43762L41.065624 214.43762ZM48.346874 212.43762L49.440624 212.56262Q49.190624 213.51575 48.4875 214.047Q47.784374 214.57825 46.70625 214.57825Q45.346874 214.57825 44.534374 213.7345Q43.7375 212.89075 43.7375 211.37512Q43.7375 209.81262 44.55 208.95325Q45.3625 208.07825 46.64375 208.07825Q47.89375 208.07825 48.675 208.922Q49.471874 209.76575 49.471874 211.31262Q49.471874 211.40637 49.471874 211.59387L44.83125 211.59387Q44.89375 212.62512 45.409374 213.172Q45.925 213.70325 46.70625 213.70325Q47.284374 213.70325 47.690624 213.40637Q48.1125 213.09387 48.346874 212.43762ZM44.89375 210.7345L48.3625 210.7345Q48.3 209.93762 47.971874 209.547Q47.45625 208.93762 46.659374 208.93762Q45.925 208.93762 45.425 209.422Q44.940624 209.90637 44.89375 210.7345ZM51.096874 214.43762L51.096874 208.21887L52.034374 208.21887L52.034374 209.09387Q52.33125 208.62512 52.815624 208.3595Q53.3 208.07825 53.925 208.07825Q54.6125 208.07825 55.05 208.3595Q55.503124 208.64075 55.675 209.15637Q56.425 208.07825 57.596874 208.07825Q58.534374 208.07825 59.01875 208.59387Q59.51875 209.09387 59.51875 210.172L59.51875 214.43762L58.471874 214.43762L58.471874 210.51575Q58.471874 209.89075 58.3625 209.6095Q58.26875 209.32825 58.003124 209.15637Q57.7375 208.9845 57.3625 208.9845Q56.70625 208.9845 56.26875 209.422Q55.846874 209.8595 55.846874 210.82825L55.846874 214.43762L54.784374 214.43762L54.784374 210.39075Q54.784374 209.68762 54.51875 209.34387Q54.26875 208.9845 53.690624 208.9845Q53.2375 208.9845 52.8625 209.21887Q52.4875 209.45325 52.315624 209.90637Q52.14375 210.3595 52.14375 211.20325L52.14375 214.43762L51.096874 214.43762ZM66.34688 212.43762L67.44063 212.56262Q67.19063 213.51575 66.4875 214.047Q65.78438 214.57825 64.70625 214.57825Q63.346874 214.57825 62.534374 213.7345Q61.7375 212.89075 61.7375 211.37512Q61.7375 209.81262 62.55 208.95325Q63.3625 208.07825 64.64375 208.07825Q65.89375 208.07825 66.675 208.922Q67.47188 209.76575 67.47188 211.31262Q67.47188 211.40637 67.47188 211.59387L62.83125 211.59387Q62.89375 212.62512 63.409374 213.172Q63.925 213.70325 64.70625 213.70325Q65.28438 213.70325 65.69063 213.40637Q66.1125 213.09387 66.34688 212.43762ZM62.89375 210.7345L66.3625 210.7345Q66.3 209.93762 65.97188 209.547Q65.45625 208.93762 64.65938 208.93762Q63.925 208.93762 63.425 209.422Q62.940624 209.90637 62.89375 210.7345ZM69.09688 214.43762L69.09688 208.21887L70.03438 208.21887L70.03438 209.09387Q70.72188 208.07825 72.01875 208.07825Q72.58125 208.07825 73.05 208.28137Q73.53438 208.4845 73.76875 208.81262Q74.00313 209.14075 74.09688 209.57825Q74.14375 209.87512 74.14375 210.6095L74.14375 214.43762L73.09688 214.43762L73.09688 210.65637Q73.09688 210.00012 72.97188 209.68762Q72.84688 209.37512 72.53438 209.18762Q72.22188 208.9845 71.8 208.9845Q71.12813 208.9845 70.62813 209.422Q70.14375 209.84387 70.14375 211.03137L70.14375 214.43762L69.09688 214.43762ZM78.39375 213.50012L78.55 214.422Q78.09688 214.51575 77.75313 214.51575Q77.175 214.51575 76.8625 214.34387Q76.55 214.15637 76.40938 213.8595Q76.28438 213.56262 76.28438 212.6095L76.28438 209.03137L75.51875 209.03137L75.51875 208.21887L76.28438 208.21887L76.28438 206.672L77.33125 206.047L77.33125 208.21887L78.39375 208.21887L78.39375 209.03137L77.33125 209.03137L77.33125 212.672Q77.33125 213.12512 77.37813 213.25012Q77.44063 213.37512 77.56563 213.45325Q77.69063 213.53137 77.925 213.53137Q78.1125 213.53137 78.39375 213.50012ZM83.15938 213.672Q82.56563 214.172 82.01875 214.37512Q81.4875 214.57825 80.8625 214.57825Q79.83125 214.57825 79.28438 214.07825Q78.7375 213.57825 78.7375 212.797Q78.7375 212.34387 78.94063 211.96887Q79.14375 211.57825 79.4875 211.3595Q79.83125 211.12512 80.25313 211.01575Q80.55 210.922 81.19063 210.84387Q82.45625 210.70325 83.06563 210.4845Q83.06563 210.26575 83.06563 210.21887Q83.06563 209.56262 82.76875 209.297Q82.3625 208.95325 81.56563 208.95325Q80.83125 208.95325 80.47188 209.21887Q80.1125 209.46887 79.94063 210.12512L78.90938 209.9845Q79.05 209.32825 79.37813 208.922Q79.70625 208.51575 80.31563 208.297Q80.925 208.07825 81.72188 208.07825Q82.51875 208.07825 83.01875 208.26575Q83.51875 208.45325 83.75313 208.7345Q83.9875 209.01575 84.08125 209.45325Q84.12813 209.71887 84.12813 210.422L84.12813 211.82825Q84.12813 213.297 84.19063 213.68762Q84.26875 214.07825 84.47188 214.43762L83.3625 214.43762Q83.20625 214.1095 83.15938 213.672ZM83.06563 211.31262Q82.4875 211.547 81.34688 211.71887Q80.69063 211.81262 80.425 211.93762Q80.15938 212.047 80.00313 212.26575Q79.8625 212.4845 79.8625 212.76575Q79.8625 213.18762 80.175 213.46887Q80.50313 213.75012 81.1125 213.75012Q81.72188 213.75012 82.19063 213.4845Q82.675 213.21887 82.89375 212.75012Q83.06563 212.39075 83.06563 211.70325L83.06563 211.31262ZM88.39375 213.50012L88.55 214.422Q88.09688 214.51575 87.75313 214.51575Q87.175 214.51575 86.8625 214.34387Q86.55 214.15637 86.40938 213.8595Q86.28438 213.56262 86.28438 212.6095L86.28438 209.03137L85.51875 209.03137L85.51875 208.21887L86.28438 208.21887L86.28438 206.672L87.33125 206.047L87.33125 208.21887L88.39375 208.21887L88.39375 209.03137L87.33125 209.03137L87.33125 212.672Q87.33125 213.12512 87.37813 213.25012Q87.44063 213.37512 87.56563 213.45325Q87.69063 213.53137 87.925 213.53137Q88.1125 213.53137 88.39375 213.50012ZM89.09688 207.06262L89.09688 205.84387L90.15938 205.84387L90.15938 207.06262L89.09688 207.06262ZM89.09688 214.43762L89.09688 208.21887L90.15938 208.21887L90.15938 214.43762L89.09688 214.43762ZM91.70625 211.32825Q91.70625 209.59387 92.65938 208.76575Q93.45625 208.07825 94.6125 208.07825Q95.89375 208.07825 96.70625 208.922Q97.53438 209.75012 97.53438 211.2345Q97.53438 212.43762 97.175 213.12512Q96.81563 213.81262 96.1125 214.20325Q95.425 214.57825 94.6125 214.57825Q93.31563 214.57825 92.50313 213.75012Q91.70625 212.90637 91.70625 211.32825ZM92.78438 211.32825Q92.78438 212.51575 93.3 213.1095Q93.83125 213.70325 94.6125 213.70325Q95.40938 213.70325 95.925 213.1095Q96.44063 212.51575 96.44063 211.297Q96.44063 210.14075 95.90938 209.547Q95.39375 208.95325 94.6125 208.95325Q93.83125 208.95325 93.3 209.547Q92.78438 210.12512 92.78438 211.32825ZM99.09688 214.43762L99.09688 208.21887L100.03438 208.21887L100.03438 209.09387Q100.72188 208.07825 102.01875 208.07825Q102.58125 208.07825 103.05 208.28137Q103.53438 208.4845 103.76875 208.81262Q104.00313 209.14075 104.09688 209.57825Q104.14375 209.87512 104.14375 210.6095L104.14375 214.43762L103.09688 214.43762L103.09688 210.65637Q103.09688 210.00012 102.97188 209.68762Q102.84688 209.37512 102.53438 209.18762Q102.22188 208.9845 101.8 208.9845Q101.12813 208.9845 100.62813 209.422Q100.14375 209.84387 100.14375 211.03137L100.14375 214.43762L99.09688 214.43762Z" fill-rule="nonzero"/><path fill="#9e9e9e" d="M25.346874 230.422L25.346874 231.43762L19.659374 231.43762Q19.659374 231.06262 19.784374 230.70325Q20.003124 230.12512 20.471874 229.56262Q20.95625 229.00012 21.8625 228.26575Q23.26875 227.1095 23.753124 226.43762Q24.253124 225.76575 24.253124 225.172Q24.253124 224.547 23.8 224.12512Q23.346874 223.68762 22.628124 223.68762Q21.8625 223.68762 21.409374 224.14075Q20.95625 224.59387 20.940624 225.40637L19.8625 225.297Q19.971874 224.07825 20.690624 223.45325Q21.425 222.81262 22.659374 222.81262Q23.89375 222.81262 24.6125 223.50012Q25.33125 224.18762 25.33125 225.20325Q25.33125 225.71887 25.1125 226.21887Q24.909374 226.70325 24.409374 227.26575Q23.925 227.81262 22.8 228.76575Q21.846874 229.56262 21.565624 229.8595Q21.3 230.14075 21.128124 230.422L25.346874 230.422ZM28.425 226.78137Q27.76875 226.53137 27.440624 226.09387Q27.128124 225.64075 27.128124 225.03137Q27.128124 224.09387 27.8 223.45325Q28.4875 222.81262 29.596874 222.81262Q30.721874 222.81262 31.409374 223.46887Q32.096874 224.12512 32.096874 225.06262Q32.096874 225.65637 31.784374 226.09387Q31.471874 226.53137 30.83125 226.78137Q31.628124 227.03137 32.034374 227.6095Q32.440624 228.18762 32.440624 228.9845Q32.440624 230.07825 31.659374 230.82825Q30.89375 231.57825 29.6125 231.57825Q28.346874 231.57825 27.565624 230.82825Q26.784374 230.07825 26.784374 228.95325Q26.784374 228.1095 27.20625 227.547Q27.64375 226.9845 28.425 226.78137ZM28.20625 224.9845Q28.20625 225.59387 28.596874 225.9845Q29.003124 226.37512 29.628124 226.37512Q30.2375 226.37512 30.628124 226.00012Q31.01875 225.6095 31.01875 225.047Q31.01875 224.46887 30.6125 224.07825Q30.20625 223.672 29.6125 223.672Q29.003124 223.672 28.596874 224.06262Q28.20625 224.45325 28.20625 224.9845ZM27.878124 228.95325Q27.878124 229.40637 28.08125 229.82825Q28.3 230.25012 28.721874 230.4845Q29.14375 230.71887 29.628124 230.71887Q30.378124 230.71887 30.8625 230.2345Q31.3625 229.75012 31.3625 229.00012Q31.3625 228.2345 30.8625 227.7345Q30.3625 227.2345 29.596874 227.2345Q28.846874 227.2345 28.3625 227.7345Q27.878124 228.21887 27.878124 228.95325ZM34.39375 231.43762L34.39375 230.2345L35.596874 230.2345L35.596874 231.43762L34.39375 231.43762ZM40.175 231.43762L40.175 229.37512L36.45625 229.37512L36.45625 228.40637L40.378124 222.84387L41.2375 222.84387L41.2375 228.40637L42.39375 228.40637L42.39375 229.37512L41.2375 229.37512L41.2375 231.43762L40.175 231.43762ZM40.175 228.40637L40.175 224.547L37.4875 228.40637L40.175 228.40637ZM44.003124 224.90637Q44.003124 223.9845 44.45625 223.34387Q44.925 222.70325 45.8 222.70325Q46.6125 222.70325 47.14375 223.28137Q47.675 223.8595 47.675 224.96887Q47.675 226.06262 47.128124 226.65637Q46.596874 227.2345 45.815624 227.2345Q45.034374 227.2345 44.51875 226.65637Q44.003124 226.07825 44.003124 224.90637ZM45.83125 223.422Q45.440624 223.422 45.175 223.76575Q44.925 224.1095 44.925 225.01575Q44.925 225.84387 45.175 226.18762Q45.440624 226.51575 45.83125 226.51575Q46.2375 226.51575 46.4875 226.172Q46.753124 225.82825 46.753124 224.93762Q46.753124 224.09387 46.4875 223.76575Q46.221874 223.422 45.83125 223.422ZM45.83125 231.75012L50.534374 222.70325L51.39375 222.70325L46.70625 231.75012L45.83125 231.75012ZM49.55 229.422Q49.55 228.50012 50.003124 227.8595Q50.471874 227.21887 51.3625 227.21887Q52.175 227.21887 52.70625 227.797Q53.2375 228.3595 53.2375 229.4845Q53.2375 230.57825 52.690624 231.172Q52.159374 231.75012 51.3625 231.75012Q50.596874 231.75012 50.065624 231.172Q49.55 230.59387 49.55 229.422ZM51.39375 227.93762Q50.9875 227.93762 50.721874 228.28137Q50.471874 228.62512 50.471874 229.53137Q50.471874 230.34387 50.7375 230.68762Q51.003124 231.03137 51.39375 231.03137Q51.784374 231.03137 52.05 230.68762Q52.315624 230.34387 52.315624 229.43762Q52.315624 228.6095 52.05 228.28137Q51.784374 227.93762 51.39375 227.93762Z" fill-rule="nonzero"/><path stroke="#757575" stroke-width="1.0" stroke-linecap="butt" d="M19.3 218.93762L143.23334 218.93762L157.18768 218.93762" fill-rule="nonzero"/><path fill="#9e9e9e" d="M159.18768 218.93762C159.18768 217.83304 158.29225 216.93762 157.18768 216.93762C156.08311 216.93762 155.18768 217.83304 155.18768 218.93762C155.18768 220.04219 156.08311 220.93762 157.18768 220.93762C158.29225 220.93762 159.18768 220.04219 159.18768 218.93762" fill-rule="nonzero"/><path fill="#1a1a1a" d="M554.6844 67.166664L557.98126 58.572914L559.2 58.572914L562.71564 67.166664L561.4344 67.166664L560.41876 64.55729L556.84064 64.55729L555.8875 67.166664L554.6844 67.166664ZM557.16876 63.635414L560.075 63.635414L559.1844 61.260414Q558.7625 60.18229 558.575 59.479164Q558.40314 60.30729 558.10626 61.11979L557.16876 63.635414ZM566.52814 67.166664L566.52814 66.385414Q565.9344 67.30729 564.79376 67.30729Q564.04376 67.30729 563.41876 66.90104Q562.79376 66.479164 562.45 65.74479Q562.10626 65.010414 562.10626 64.05729Q562.10626 63.135414 562.41876 62.36979Q562.73126 61.604164 563.35626 61.21354Q563.98126 60.80729 564.7469 60.80729Q565.3094 60.80729 565.7469 61.041664Q566.1844 61.27604 566.46564 61.65104L566.46564 58.572914L567.5125 58.572914L567.5125 67.166664L566.52814 67.166664ZM563.2 64.05729Q563.2 65.260414 563.7 65.854164Q564.2 66.43229 564.8875 66.43229Q565.575 66.43229 566.0594 65.86979Q566.54376 65.30729 566.54376 64.15104Q566.54376 62.86979 566.04376 62.27604Q565.5594 61.68229 564.84064 61.68229Q564.1375 61.68229 563.66876 62.260414Q563.2 62.822914 563.2 64.05729ZM569.4969 67.166664L569.4969 60.947914L570.4344 60.947914L570.4344 61.822914Q570.73126 61.354164 571.21564 61.08854Q571.7 60.80729 572.325 60.80729Q573.0125 60.80729 573.45 61.08854Q573.90314 61.36979 574.075 61.885414Q574.825 60.80729 575.9969 60.80729Q576.9344 60.80729 577.41876 61.322914Q577.91876 61.822914 577.91876 62.90104L577.91876 67.166664L576.8719 67.166664L576.8719 63.24479Q576.8719 62.61979 576.7625 62.33854Q576.66876 62.05729 576.40314 61.885414Q576.1375 61.71354 575.7625 61.71354Q575.10626 61.71354 574.66876 62.15104Q574.2469 62.58854 574.2469 63.55729L574.2469 67.166664L573.1844 67.166664L573.1844 63.11979Q573.1844 62.416664 572.91876 62.072914Q572.66876 61.71354 572.09064 61.71354Q571.6375 61.71354 571.2625 61.947914Q570.8875 62.18229 570.71564 62.635414Q570.54376 63.08854 570.54376 63.93229L570.54376 67.166664L569.4969 67.166664ZM580.4969 59.791664L580.4969 58.572914L581.5594 58.572914L581.5594 59.791664L580.4969 59.791664ZM580.4969 67.166664L580.4969 60.947914L581.5594 60.947914L581.5594 67.166664L580.4969 67.166664ZM583.4969 67.166664L583.4969 60.947914L584.4344 60.947914L584.4344 61.822914Q585.1219 60.80729 586.41876 60.80729Q586.98126 60.80729 587.45 61.010414Q587.9344 61.21354 588.16876 61.541664Q588.40314 61.86979 588.4969 62.30729Q588.54376 62.604164 588.54376 63.33854L588.54376 67.166664L587.4969 67.166664L587.4969 63.385414Q587.4969 62.729164 587.3719 62.416664Q587.2469 62.104164 586.9344 61.916664Q586.6219 61.71354 586.2 61.71354Q585.52814 61.71354 585.02814 62.15104Q584.54376 62.572914 584.54376 63.760414L584.54376 67.166664L583.4969 67.166664Z" fill-rule="nonzero"/><path fill="#9e9e9e" d="M562.2 81.916664L563.3094 81.822914Q563.4344 82.635414 563.8719 83.041664Q564.325 83.447914 564.96564 83.447914Q565.71564 83.447914 566.2469 82.86979Q566.77814 82.291664 566.77814 81.354164Q566.77814 80.447914 566.2625 79.93229Q565.7625 79.40104 564.9344 79.40104Q564.4344 79.40104 564.0125 79.635414Q563.60626 79.86979 563.3719 80.229164L562.3875 80.104164L563.21564 75.697914L567.4969 75.697914L567.4969 76.697914L564.0594 76.697914L563.60626 79.010414Q564.3719 78.46354 565.21564 78.46354Q566.34064 78.46354 567.10626 79.24479Q567.8875 80.02604 567.8875 81.260414Q567.8875 82.416664 567.21564 83.27604Q566.3875 84.30729 564.96564 84.30729Q563.79376 84.30729 563.04376 83.65104Q562.3094 82.99479 562.2 81.916664ZM569.79376 84.166664L569.79376 82.96354L570.9969 82.96354L570.9969 84.166664L569.79376 84.166664ZM572.2625 76.697914L572.2625 75.68229L577.825 75.68229L577.825 76.510414Q577.0125 77.385414 576.2 78.83854Q575.40314 80.27604 574.96564 81.80729Q574.6375 82.885414 574.5594 84.166664L573.46564 84.166664Q573.48126 83.15104 573.85626 81.71354Q574.2469 80.27604 574.95 78.947914Q575.66876 77.61979 576.48126 76.697914L572.2625 76.697914ZM579.40314 77.635414Q579.40314 76.71354 579.85626 76.072914Q580.325 75.43229 581.2 75.43229Q582.0125 75.43229 582.54376 76.010414Q583.075 76.58854 583.075 77.697914Q583.075 78.791664 582.52814 79.385414Q581.9969 79.96354 581.21564 79.96354Q580.4344 79.96354 579.91876 79.385414Q579.40314 78.80729 579.40314 77.635414ZM581.23126 76.15104Q580.84064 76.15104 580.575 76.49479Q580.325 76.83854 580.325 77.74479Q580.325 78.572914 580.575 78.916664Q580.84064 79.24479 581.23126 79.24479Q581.6375 79.24479 581.8875 78.90104Q582.15314 78.55729 582.15314 77.666664Q582.15314 76.822914 581.8875 76.49479Q581.6219 76.15104 581.23126 76.15104ZM581.23126 84.479164L585.9344 75.43229L586.79376 75.43229L582.10626 84.479164L581.23126 84.479164ZM584.95 82.15104Q584.95 81.229164 585.40314 80.58854Q585.8719 79.947914 586.7625 79.947914Q587.575 79.947914 588.10626 80.52604Q588.6375 81.08854 588.6375 82.21354Q588.6375 83.30729 588.09064 83.90104Q587.5594 84.479164 586.7625 84.479164Q585.9969 84.479164 585.46564 83.90104Q584.95 83.322914 584.95 82.15104ZM586.79376 80.666664Q586.3875 80.666664 586.1219 81.010414Q585.8719 81.354164 585.8719 82.260414Q585.8719 83.072914 586.1375 83.416664Q586.40314 83.760414 586.79376 83.760414Q587.1844 83.760414 587.45 83.416664Q587.71564 83.072914 587.71564 82.166664Q587.71564 81.33854 587.45 81.010414Q587.1844 80.666664 586.79376 80.666664Z" fill-rule="nonzero"/><path stroke="#757575" stroke-width="1.0" stroke-linecap="butt" d="M589.7 71.666664L465.76666 71.666664L330.76495 66.28725" fill-rule="nonzero"/><path fill="#9e9e9e" d="M332.76495 66.28725C332.76495 65.18268 331.86954 64.28725 330.76495 64.28725C329.6604 64.28725 328.76495 65.18268 328.76495 66.28725C328.76495 67.39182 329.6604 68.28725 330.76495 68.28725C331.86954 68.28725 332.76495 67.39182 332.76495 66.28725" fill-rule="nonzero"/><path fill="#1a1a1a" d="M506.6219 276.7654L506.6219 268.17166L509.59064 268.17166Q510.59064 268.17166 511.1219 268.29666Q511.85626 268.46854 512.3719 268.90604Q513.0594 269.48416 513.3875 270.3904Q513.73126 271.28104 513.73126 272.42166Q513.73126 273.40604 513.4969 274.15604Q513.27814 274.90604 512.91876 275.40604Q512.5594 275.90604 512.1219 276.1873Q511.7 276.46854 511.10626 276.6248Q510.5125 276.7654 509.73126 276.7654L506.6219 276.7654ZM507.7625 275.7498L509.59064 275.7498Q510.45 275.7498 510.9344 275.59354Q511.41876 275.4373 511.7 275.1404Q512.10626 274.7498 512.325 274.0623Q512.5594 273.3748 512.5594 272.40604Q512.5594 271.0623 512.10626 270.34354Q511.66876 269.60916 511.04376 269.35916Q510.575 269.1873 509.575 269.1873L507.7625 269.1873L507.7625 275.7498ZM515.10626 273.65604Q515.10626 271.92166 516.0594 271.09354Q516.85626 270.40604 518.0125 270.40604Q519.29376 270.40604 520.10626 271.2498Q520.9344 272.0779 520.9344 273.5623Q520.9344 274.7654 520.575 275.4529Q520.21564 276.1404 519.5125 276.53104Q518.825 276.90604 518.0125 276.90604Q516.71564 276.90604 515.90314 276.0779Q515.10626 275.23416 515.10626 273.65604ZM516.1844 273.65604Q516.1844 274.84354 516.7 275.4373Q517.23126 276.03104 518.0125 276.03104Q518.8094 276.03104 519.325 275.4373Q519.84064 274.84354 519.84064 273.6248Q519.84064 272.46854 519.3094 271.8748Q518.79376 271.28104 518.0125 271.28104Q517.23126 271.28104 516.7 271.8748Q516.1844 272.4529 516.1844 273.65604ZM526.5594 274.48416L527.59064 274.6248Q527.41876 275.6873 526.71564 276.29666Q526.0125 276.90604 524.9969 276.90604Q523.71564 276.90604 522.9344 276.0779Q522.16876 275.23416 522.16876 273.67166Q522.16876 272.67166 522.4969 271.92166Q522.84064 271.15604 523.5125 270.78104Q524.2 270.40604 525.0125 270.40604Q526.0125 270.40604 526.65314 270.92166Q527.3094 271.42166 527.4969 272.3748L526.46564 272.53104Q526.325 271.90604 525.95 271.59354Q525.575 271.2654 525.04376 271.2654Q524.2469 271.2654 523.7469 271.84354Q523.2469 272.40604 523.2469 273.6404Q523.2469 274.90604 523.73126 275.46854Q524.21564 276.03104 524.98126 276.03104Q525.60626 276.03104 526.0125 275.65604Q526.4344 275.28104 526.5594 274.48416ZM532.575 276.7654L532.575 275.84354Q531.84064 276.90604 530.59064 276.90604Q530.04376 276.90604 529.5594 276.7029Q529.09064 276.48416 528.85626 276.17166Q528.6219 275.84354 528.52814 275.3748Q528.46564 275.0779 528.46564 274.3904L528.46564 270.54666L529.52814 270.54666L529.52814 273.9998Q529.52814 274.8123 529.59064 275.10916Q529.6844 275.5154 529.9969 275.7654Q530.325 275.9998 530.8094 275.9998Q531.27814 275.9998 531.6844 275.7654Q532.10626 275.5154 532.27814 275.09354Q532.46564 274.67166 532.46564 273.8748L532.46564 270.54666L533.5125 270.54666L533.5125 276.7654L532.575 276.7654ZM535.4969 276.7654L535.4969 270.54666L536.4344 270.54666L536.4344 271.42166Q536.73126 270.9529 537.21564 270.6873Q537.7 270.40604 538.325 270.40604Q539.0125 270.40604 539.45 270.6873Q539.90314 270.96854 540.075 271.48416Q540.825 270.40604 541.9969 270.40604Q542.9344 270.40604 543.41876 270.92166Q543.91876 271.42166 543.91876 272.4998L543.91876 276.7654L542.8719 276.7654L542.8719 272.84354Q542.8719 272.21854 542.7625 271.9373Q542.66876 271.65604 542.40314 271.48416Q542.1375 271.3123 541.7625 271.3123Q541.10626 271.3123 540.66876 271.7498Q540.2469 272.1873 540.2469 273.15604L540.2469 276.7654L539.1844 276.7654L539.1844 272.71854Q539.1844 272.0154 538.91876 271.67166Q538.66876 271.3123 538.09064 271.3123Q537.6375 271.3123 537.2625 271.54666Q536.8875 271.78104 536.71564 272.23416Q536.54376 272.6873 536.54376 273.53104L536.54376 276.7654L535.4969 276.7654ZM550.7469 274.7654L551.84064 274.8904Q551.59064 275.84354 550.8875 276.3748Q550.1844 276.90604 549.10626 276.90604Q547.7469 276.90604 546.9344 276.0623Q546.1375 275.21854 546.1375 273.7029Q546.1375 272.1404 546.95 271.28104Q547.7625 270.40604 549.04376 270.40604Q550.29376 270.40604 551.075 271.2498Q551.8719 272.09354 551.8719 273.6404Q551.8719 273.73416 551.8719 273.92166L547.23126 273.92166Q547.29376 274.9529 547.8094 275.4998Q548.325 276.03104 549.10626 276.03104Q549.6844 276.03104 550.09064 275.73416Q550.5125 275.42166 550.7469 274.7654ZM547.29376 273.0623L550.7625 273.0623Q550.7 272.2654 550.3719 271.8748Q549.85626 271.2654 549.0594 271.2654Q548.325 271.2654 547.825 271.7498Q547.34064 272.23416 547.29376 273.0623ZM553.4969 276.7654L553.4969 270.54666L554.4344 270.54666L554.4344 271.42166Q555.1219 270.40604 556.41876 270.40604Q556.98126 270.40604 557.45 270.60916Q557.9344 270.8123 558.16876 271.1404Q558.40314 271.46854 558.4969 271.90604Q558.54376 272.2029 558.54376 272.9373L558.54376 276.7654L557.4969 276.7654L557.4969 272.98416Q557.4969 272.3279 557.3719 272.0154Q557.2469 271.7029 556.9344 271.5154Q556.6219 271.3123 556.2 271.3123Q555.52814 271.3123 555.02814 271.7498Q554.54376 272.17166 554.54376 273.35916L554.54376 276.7654L553.4969 276.7654ZM562.79376 275.8279L562.95 276.7498Q562.4969 276.84354 562.15314 276.84354Q561.575 276.84354 561.2625 276.67166Q560.95 276.48416 560.8094 276.1873Q560.6844 275.8904 560.6844 274.9373L560.6844 271.35916L559.91876 271.35916L559.91876 270.54666L560.6844 270.54666L560.6844 268.9998L561.73126 268.3748L561.73126 270.54666L562.79376 270.54666L562.79376 271.35916L561.73126 271.35916L561.73126 274.9998Q561.73126 275.4529 561.77814 275.5779Q561.84064 275.7029 561.96564 275.78104Q562.09064 275.85916 562.325 275.85916Q562.5125 275.85916 562.79376 275.8279ZM567.5594 275.9998Q566.96564 276.4998 566.41876 276.7029Q565.8875 276.90604 565.2625 276.90604Q564.23126 276.90604 563.6844 276.40604Q563.1375 275.90604 563.1375 275.1248Q563.1375 274.67166 563.34064 274.29666Q563.54376 273.90604 563.8875 273.6873Q564.23126 273.4529 564.65314 273.34354Q564.95 273.2498 565.59064 273.17166Q566.85626 273.03104 567.46564 272.8123Q567.46564 272.59354 567.46564 272.54666Q567.46564 271.8904 567.16876 271.6248Q566.7625 271.28104 565.96564 271.28104Q565.23126 271.28104 564.8719 271.54666Q564.5125 271.79666 564.34064 272.4529L563.3094 272.3123Q563.45 271.65604 563.77814 271.2498Q564.10626 270.84354 564.71564 270.6248Q565.325 270.40604 566.1219 270.40604Q566.91876 270.40604 567.41876 270.59354Q567.91876 270.78104 568.15314 271.0623Q568.3875 271.34354 568.48126 271.78104Q568.52814 272.04666 568.52814 272.7498L568.52814 274.15604Q568.52814 275.6248 568.59064 276.0154Q568.66876 276.40604 568.8719 276.7654L567.7625 276.7654Q567.60626 276.4373 567.5594 275.9998ZM567.46564 273.6404Q566.8875 273.8748 565.7469 274.04666Q565.09064 274.1404 564.825 274.2654Q564.5594 274.3748 564.40314 274.59354Q564.2625 274.8123 564.2625 275.09354Q564.2625 275.5154 564.575 275.79666Q564.90314 276.0779 565.5125 276.0779Q566.1219 276.0779 566.59064 275.8123Q567.075 275.54666 567.29376 275.0779Q567.46564 274.71854 567.46564 274.03104L567.46564 273.6404ZM572.79376 275.8279L572.95 276.7498Q572.4969 276.84354 572.15314 276.84354Q571.575 276.84354 571.2625 276.67166Q570.95 276.48416 570.8094 276.1873Q570.6844 275.8904 570.6844 274.9373L570.6844 271.35916L569.91876 271.35916L569.91876 270.54666L570.6844 270.54666L570.6844 268.9998L571.73126 268.3748L571.73126 270.54666L572.79376 270.54666L572.79376 271.35916L571.73126 271.35916L571.73126 274.9998Q571.73126 275.4529 571.77814 275.5779Q571.84064 275.7029 571.96564 275.78104Q572.09064 275.85916 572.325 275.85916Q572.5125 275.85916 572.79376 275.8279ZM573.4969 269.3904L573.4969 268.17166L574.5594 268.17166L574.5594 269.3904L573.4969 269.3904ZM573.4969 276.7654L573.4969 270.54666L574.5594 270.54666L574.5594 276.7654L573.4969 276.7654ZM576.10626 273.65604Q576.10626 271.92166 577.0594 271.09354Q577.85626 270.40604 579.0125 270.40604Q580.29376 270.40604 581.10626 271.2498Q581.9344 272.0779 581.9344 273.5623Q581.9344 274.7654 581.575 275.4529Q581.21564 276.1404 580.5125 276.53104Q579.825 276.90604 579.0125 276.90604Q577.71564 276.90604 576.90314 276.0779Q576.10626 275.23416 576.10626 273.65604ZM577.1844 273.65604Q577.1844 274.84354 577.7 275.4373Q578.23126 276.03104 579.0125 276.03104Q579.8094 276.03104 580.325 275.4373Q580.84064 274.84354 580.84064 273.6248Q580.84064 272.46854 580.3094 271.8748Q579.79376 271.28104 579.0125 271.28104Q578.23126 271.28104 577.7 271.8748Q577.1844 272.4529 577.1844 273.65604ZM583.4969 276.7654L583.4969 270.54666L584.4344 270.54666L584.4344 271.42166Q585.1219 270.40604 586.41876 270.40604Q586.98126 270.40604 587.45 270.60916Q587.9344 270.8123 588.16876 271.1404Q588.40314 271.46854 588.4969 271.90604Q588.54376 272.2029 588.54376 272.9373L588.54376 276.7654L587.4969 276.7654L587.4969 272.98416Q587.4969 272.3279 587.3719 272.0154Q587.2469 271.7029 586.9344 271.5154Q586.6219 271.3123 586.2 271.3123Q585.52814 271.3123 585.02814 271.7498Q584.54376 272.17166 584.54376 273.35916L584.54376 276.7654L583.4969 276.7654Z" fill-rule="nonzero"/><path fill="#9e9e9e" d="M555.2 291.5154L556.3094 291.42166Q556.4344 292.23416 556.8719 292.6404Q557.325 293.04666 557.96564 293.04666Q558.71564 293.04666 559.2469 292.46854Q559.77814 291.8904 559.77814 290.9529Q559.77814 290.04666 559.2625 289.53104Q558.7625 288.9998 557.9344 288.9998Q557.4344 288.9998 557.0125 289.23416Q556.60626 289.46854 556.3719 289.8279L555.3875 289.7029L556.21564 285.29666L560.4969 285.29666L560.4969 286.29666L557.0594 286.29666L556.60626 288.60916Q557.3719 288.0623 558.21564 288.0623Q559.34064 288.0623 560.10626 288.84354Q560.8875 289.6248 560.8875 290.85916Q560.8875 292.0154 560.21564 292.8748Q559.3875 293.90604 557.96564 293.90604Q556.79376 293.90604 556.04376 293.2498Q555.3094 292.59354 555.2 291.5154ZM565.575 293.7654L565.575 291.7029L561.85626 291.7029L561.85626 290.73416L565.77814 285.17166L566.6375 285.17166L566.6375 290.73416L567.79376 290.73416L567.79376 291.7029L566.6375 291.7029L566.6375 293.7654L565.575 293.7654ZM565.575 290.73416L565.575 286.8748L562.8875 290.73416L565.575 290.73416ZM569.79376 293.7654L569.79376 292.5623L570.9969 292.5623L570.9969 293.7654L569.79376 293.7654ZM572.2 291.4998L573.2625 291.35916Q573.4344 292.2498 573.8719 292.65604Q574.3094 293.04666 574.9344 293.04666Q575.6844 293.04666 576.2 292.53104Q576.71564 292.0154 576.71564 291.2498Q576.71564 290.53104 576.23126 290.0623Q575.7625 289.5779 575.02814 289.5779Q574.73126 289.5779 574.27814 289.7029L574.40314 288.7654Q574.5125 288.78104 574.575 288.78104Q575.2469 288.78104 575.77814 288.4373Q576.325 288.0779 576.325 287.34354Q576.325 286.7654 575.9344 286.3904Q575.54376 285.9998 574.91876 285.9998Q574.3094 285.9998 573.8875 286.3904Q573.48126 286.78104 573.3719 287.54666L572.3094 287.35916Q572.4969 286.3123 573.1844 285.73416Q573.8719 285.1404 574.8875 285.1404Q575.59064 285.1404 576.1844 285.4529Q576.77814 285.7498 577.09064 286.2654Q577.40314 286.78104 577.40314 287.3748Q577.40314 287.92166 577.10626 288.3904Q576.8094 288.84354 576.23126 289.10916Q576.98126 289.28104 577.40314 289.84354Q577.825 290.3904 577.825 291.23416Q577.825 292.35916 576.9969 293.1404Q576.1844 293.92166 574.9344 293.92166Q573.8094 293.92166 573.0594 293.2498Q572.3094 292.5623 572.2 291.4998ZM579.40314 287.23416Q579.40314 286.3123 579.85626 285.67166Q580.325 285.03104 581.2 285.03104Q582.0125 285.03104 582.54376 285.60916Q583.075 286.1873 583.075 287.29666Q583.075 288.3904 582.52814 288.98416Q581.9969 289.5623 581.21564 289.5623Q580.4344 289.5623 579.91876 288.98416Q579.40314 288.40604 579.40314 287.23416ZM581.23126 285.7498Q580.84064 285.7498 580.575 286.09354Q580.325 286.4373 580.325 287.34354Q580.325 288.17166 580.575 288.5154Q580.84064 288.84354 581.23126 288.84354Q581.6375 288.84354 581.8875 288.4998Q582.15314 288.15604 582.15314 287.2654Q582.15314 286.42166 581.8875 286.09354Q581.6219 285.7498 581.23126 285.7498ZM581.23126 294.0779L585.9344 285.03104L586.79376 285.03104L582.10626 294.0779L581.23126 294.0779ZM584.95 291.7498Q584.95 290.8279 585.40314 290.1873Q585.8719 289.54666 586.7625 289.54666Q587.575 289.54666 588.10626 290.1248Q588.6375 290.6873 588.6375 291.8123Q588.6375 292.90604 588.09064 293.4998Q587.5594 294.0779 586.7625 294.0779Q585.9969 294.0779 585.46564 293.4998Q584.95 292.92166 584.95 291.7498ZM586.79376 290.2654Q586.3875 290.2654 586.1219 290.60916Q585.8719 290.9529 585.8719 291.85916Q585.8719 292.67166 586.1375 293.0154Q586.40314 293.35916 586.79376 293.35916Q587.1844 293.35916 587.45 293.0154Q587.71564 292.67166 587.71564 291.7654Q587.71564 290.9373 587.45 290.60916Q587.1844 290.2654 586.79376 290.2654Z" fill-rule="nonzero"/><path stroke="#757575" stroke-width="1.0" stroke-linecap="butt" d="M589.7 281.2654L465.76666 281.2654L434.4258 281.2654" fill-rule="nonzero"/><path fill="#9e9e9e" d="M436.4258 281.2654C436.4258 280.16083 435.53036 279.2654 434.4258 279.2654C433.32123 279.2654 432.4258 280.16083 432.4258 281.2654C432.4258 282.36996 433.32123 283.2654 434.4258 283.2654C435.53036 283.2654 436.4258 282.36996 436.4258 281.2654" fill-rule="nonzero"/><path fill="#757575" d="M24.4875 38.3L24.4875 25.675L19.76875 25.675L19.76875 23.9875L31.1125 23.9875L31.1125 25.675L26.378124 25.675L26.378124 38.3L24.4875 38.3ZM32.628124 26.003124L32.628124 23.9875L34.39375 23.9875L34.39375 26.003124L32.628124 26.003124ZM32.628124 38.3L32.628124 27.925L34.39375 27.925L34.39375 38.3L32.628124 38.3ZM36.6125 38.3L36.6125 27.925L38.190624 27.925L38.190624 29.378124Q38.675 28.628124 39.4875 28.159374Q40.3 27.690624 41.33125 27.690624Q42.4875 27.690624 43.221874 28.175Q43.95625 28.64375 44.26875 29.503124Q45.503124 27.690624 47.471874 27.690624Q49.01875 27.690624 49.846874 28.55Q50.675 29.409374 50.675 31.175L50.675 38.3L48.925 38.3L48.925 31.76875Q48.925 30.70625 48.753124 30.253124Q48.58125 29.784374 48.128124 29.503124Q47.690624 29.221874 47.08125 29.221874Q45.9875 29.221874 45.253124 29.95625Q44.534374 30.675 44.534374 32.26875L44.534374 38.3L42.784374 38.3L42.784374 31.565624Q42.784374 30.39375 42.346874 29.815624Q41.925 29.221874 40.940624 29.221874Q40.20625 29.221874 39.565624 29.6125Q38.940624 30.003124 38.659374 30.753124Q38.378124 31.503124 38.378124 32.925L38.378124 38.3L36.6125 38.3ZM59.721874 34.95625L61.534374 35.190624Q61.1125 36.76875 59.940624 37.659374Q58.784374 38.534374 56.971874 38.534374Q54.70625 38.534374 53.3625 37.14375Q52.034374 35.7375 52.034374 33.20625Q52.034374 30.58125 53.378124 29.14375Q54.721874 27.690624 56.878124 27.690624Q58.95625 27.690624 60.26875 29.1125Q61.596874 30.51875 61.596874 33.096874Q61.596874 33.253124 61.58125 33.565624L53.846874 33.565624Q53.940624 35.26875 54.815624 36.175Q55.690624 37.08125 56.9875 37.08125Q57.95625 37.08125 58.628124 36.58125Q59.315624 36.065624 59.721874 34.95625ZM53.940624 32.1125L59.7375 32.1125Q59.628124 30.815624 59.08125 30.159374Q58.2375 29.14375 56.89375 29.14375Q55.690624 29.14375 54.8625 29.95625Q54.034374 30.753124 53.940624 32.1125ZM70.15938 38.3L70.15938 23.9875L72.06563 23.9875L72.06563 38.3L70.15938 38.3ZM75.6125 38.3L75.6125 27.925L77.20625 27.925L77.20625 29.409374Q78.34688 27.690624 80.50313 27.690624Q81.44063 27.690624 82.22188 28.034374Q83.01875 28.3625 83.40938 28.909374Q83.8 29.45625 83.95625 30.20625Q84.05 30.70625 84.05 31.925L84.05 38.3L82.28438 38.3L82.28438 31.9875Q82.28438 30.909374 82.08125 30.378124Q81.87813 29.846874 81.34688 29.534374Q80.83125 29.221874 80.12813 29.221874Q79.00313 29.221874 78.19063 29.940624Q77.37813 30.64375 77.37813 32.628124L77.37813 38.3L75.6125 38.3ZM88.50313 38.3L84.55 27.925L86.40938 27.925L88.64375 34.14375Q89.00313 35.14375 89.3 36.221874Q89.53438 35.409374 89.95625 34.253124L92.25313 27.925L94.06563 27.925L90.14375 38.3L88.50313 38.3ZM101.72188 34.95625L103.53438 35.190624Q103.1125 36.76875 101.94063 37.659374Q100.78438 38.534374 98.97188 38.534374Q96.70625 38.534374 95.3625 37.14375Q94.03438 35.7375 94.03438 33.20625Q94.03438 30.58125 95.37813 29.14375Q96.72188 27.690624 98.87813 27.690624Q100.95625 27.690624 102.26875 29.1125Q103.59688 30.51875 103.59688 33.096874Q103.59688 33.253124 103.58125 33.565624L95.84688 33.565624Q95.94063 35.26875 96.81563 36.175Q97.69063 37.08125 98.9875 37.08125Q99.95625 37.08125 100.62813 36.58125Q101.31563 36.065624 101.72188 34.95625ZM95.94063 32.1125L101.7375 32.1125Q101.62813 30.815624 101.08125 30.159374Q100.2375 29.14375 98.89375 29.14375Q97.69063 29.14375 96.8625 29.95625Q96.03438 30.753124 95.94063 32.1125ZM104.90938 35.20625L106.65938 34.925Q106.8 35.971874 107.47188 36.534374Q108.14375 37.08125 109.34688 37.08125Q110.55 37.08125 111.12813 36.596874Q111.72188 36.096874 111.72188 35.440624Q111.72188 34.846874 111.20625 34.503124Q110.84688 34.26875 109.40938 33.909374Q107.47188 33.409374 106.72188 33.065624Q105.9875 32.70625 105.59688 32.08125Q105.20625 31.440624 105.20625 30.675Q105.20625 29.9875 105.51875 29.39375Q105.84688 28.8 106.39375 28.409374Q106.8 28.1125 107.50313 27.909374Q108.22188 27.690624 109.03438 27.690624Q110.25313 27.690624 111.175 28.05Q112.09688 28.39375 112.53438 29.003124Q112.97188 29.596874 113.14375 30.596874L111.425 30.83125Q111.3 30.034374 110.7375 29.596874Q110.175 29.14375 109.15938 29.14375Q107.94063 29.14375 107.425 29.55Q106.90938 29.940624 106.90938 30.471874Q106.90938 30.815624 107.12813 31.096874Q107.33125 31.378124 107.8 31.565624Q108.06563 31.659374 109.34688 32.003124Q111.22188 32.503124 111.95625 32.83125Q112.69063 33.14375 113.1125 33.753124Q113.53438 34.346874 113.53438 35.253124Q113.53438 36.128124 113.01875 36.909374Q112.50313 37.690624 111.53438 38.1125Q110.56563 38.534374 109.34688 38.534374Q107.33125 38.534374 106.26875 37.690624Q105.20625 36.846874 104.90938 35.20625ZM119.45625 36.721874L119.70625 38.284374Q118.97188 38.440624 118.37813 38.440624Q117.425 38.440624 116.89375 38.14375Q116.37813 37.83125 116.15938 37.346874Q115.94063 36.846874 115.94063 35.26875L115.94063 29.3L114.65938 29.3L114.65938 27.925L115.94063 27.925L115.94063 25.3625L117.69063 24.3L117.69063 27.925L119.45625 27.925L119.45625 29.3L117.69063 29.3L117.69063 35.3625Q117.69063 36.1125 117.78438 36.33125Q117.87813 36.534374 118.08125 36.675Q118.3 36.8 118.69063 36.8Q118.97188 36.8 119.45625 36.721874ZM128.72188 34.95625L130.53438 35.190624Q130.1125 36.76875 128.94063 37.659374Q127.78438 38.534374 125.97188 38.534374Q123.70625 38.534374 122.3625 37.14375Q121.03438 35.7375 121.03438 33.20625Q121.03438 30.58125 122.37813 29.14375Q123.72188 27.690624 125.87813 27.690624Q127.95625 27.690624 129.26875 29.1125Q130.59688 30.51875 130.59688 33.096874Q130.59688 33.253124 130.58125 33.565624L122.84688 33.565624Q122.94063 35.26875 123.81563 36.175Q124.69063 37.08125 125.9875 37.08125Q126.95625 37.08125 127.62813 36.58125Q128.31563 36.065624 128.72188 34.95625ZM122.94063 32.1125L128.7375 32.1125Q128.62813 30.815624 128.08125 30.159374Q127.2375 29.14375 125.89375 29.14375Q124.69063 29.14375 123.8625 29.95625Q123.03438 30.753124 122.94063 32.1125ZM139.34688 38.3L139.34688 36.9875Q138.3625 38.534374 136.44063 38.534374Q135.20625 38.534374 134.15938 37.846874Q133.12813 37.159374 132.55 35.940624Q131.9875 34.721874 131.9875 33.128124Q131.9875 31.565624 132.50313 30.3Q133.01875 29.034374 134.05 28.3625Q135.09688 27.690624 136.3625 27.690624Q137.3 27.690624 138.03438 28.096874Q138.76875 28.4875 139.2375 29.1125L139.2375 23.9875L140.97188 23.9875L140.97188 38.3L139.34688 38.3ZM133.78438 33.128124Q133.78438 35.1125 134.62813 36.096874Q135.47188 37.08125 136.6125 37.08125Q137.76875 37.08125 138.56563 36.14375Q139.37813 35.20625 139.37813 33.26875Q139.37813 31.14375 138.55 30.14375Q137.7375 29.14375 136.53438 29.14375Q135.3625 29.14375 134.56563 30.1125Q133.78438 31.065624 133.78438 33.128124ZM149.6125 42.26875L149.6125 27.925L151.22188 27.925L151.22188 29.26875Q151.78438 28.4875 152.4875 28.096874Q153.20625 27.690624 154.22188 27.690624Q155.55 27.690624 156.56563 28.378124Q157.58125 29.065624 158.09688 30.315624Q158.62813 31.55 158.62813 33.034374Q158.62813 34.628124 158.05 35.909374Q157.4875 37.175 156.39375 37.8625Q155.3 38.534374 154.09688 38.534374Q153.22188 38.534374 152.51875 38.159374Q151.83125 37.784374 151.37813 37.221874L151.37813 42.26875L149.6125 42.26875ZM151.20625 33.175Q151.20625 35.175 152.01875 36.128124Q152.83125 37.08125 153.9875 37.08125Q155.15938 37.08125 155.9875 36.096874Q156.83125 35.1125 156.83125 33.01875Q156.83125 31.05 156.00313 30.065624Q155.19063 29.065624 154.06563 29.065624Q152.94063 29.065624 152.06563 30.128124Q151.20625 31.175 151.20625 33.175ZM167.72188 34.95625L169.53438 35.190624Q169.1125 36.76875 167.94063 37.659374Q166.78438 38.534374 164.97188 38.534374Q162.70625 38.534374 161.3625 37.14375Q160.03438 35.7375 160.03438 33.20625Q160.03438 30.58125 161.37813 29.14375Q162.72188 27.690624 164.87813 27.690624Q166.95625 27.690624 168.26875 29.1125Q169.59688 30.51875 169.59688 33.096874Q169.59688 33.253124 169.58125 33.565624L161.84688 33.565624Q161.94063 35.26875 162.81563 36.175Q163.69063 37.08125 164.9875 37.08125Q165.95625 37.08125 166.62813 36.58125Q167.31563 36.065624 167.72188 34.95625ZM161.94063 32.1125L167.7375 32.1125Q167.62813 30.815624 167.08125 30.159374Q166.2375 29.14375 164.89375 29.14375Q163.69063 29.14375 162.8625 29.95625Q162.03438 30.753124 161.94063 32.1125ZM171.59688 38.3L171.59688 27.925L173.175 27.925L173.175 29.503124Q173.78438 28.39375 174.3 28.05Q174.81563 27.690624 175.425 27.690624Q176.31563 27.690624 177.2375 28.253124L176.62813 29.89375Q175.9875 29.503124 175.34688 29.503124Q174.76875 29.503124 174.3 29.8625Q173.84688 30.20625 173.64375 30.815624Q173.3625 31.753124 173.3625 32.8625L173.3625 38.3L171.59688 38.3ZM195.06563 33.284374L196.95625 33.753124Q196.3625 36.096874 194.81563 37.33125Q193.26875 38.55 191.01875 38.55Q188.70625 38.55 187.25313 37.6125Q185.81563 36.659374 185.05 34.878124Q184.3 33.08125 184.3 31.034374Q184.3 28.8 185.14375 27.14375Q186.00313 25.471874 187.58125 24.6125Q189.15938 23.7375 191.05 23.7375Q193.20625 23.7375 194.65938 24.83125Q196.12813 25.925 196.70625 27.909374L194.84688 28.346874Q194.34688 26.784374 193.39375 26.08125Q192.45625 25.3625 191.01875 25.3625Q189.3625 25.3625 188.25313 26.159374Q187.14375 26.940624 186.69063 28.284374Q186.25313 29.6125 186.25313 31.01875Q186.25313 32.846874 186.78438 34.221874Q187.31563 35.58125 188.44063 36.253124Q189.56563 36.925 190.8625 36.925Q192.45625 36.925 193.56563 36.003124Q194.675 35.08125 195.06563 33.284374ZM205.39375 37.01875Q204.40938 37.846874 203.50313 38.190624Q202.59688 38.534374 201.56563 38.534374Q199.8625 38.534374 198.94063 37.70625Q198.01875 36.8625 198.01875 35.565624Q198.01875 34.8 198.3625 34.175Q198.72188 33.55 199.28438 33.175Q199.84688 32.784374 200.55 32.58125Q201.06563 32.45625 202.1125 32.315624Q204.2375 32.065624 205.2375 31.721874Q205.25313 31.3625 205.25313 31.253124Q205.25313 30.190624 204.75313 29.7375Q204.08125 29.14375 202.75313 29.14375Q201.50313 29.14375 200.90938 29.58125Q200.33125 30.01875 200.05 31.128124L198.33125 30.89375Q198.56563 29.784374 199.09688 29.1125Q199.62813 28.425 200.64375 28.065624Q201.65938 27.690624 203.00313 27.690624Q204.33125 27.690624 205.15938 28.003124Q205.9875 28.315624 206.37813 28.8Q206.76875 29.26875 206.925 29.9875Q207.01875 30.440624 207.01875 31.6125L207.01875 33.95625Q207.01875 36.409374 207.12813 37.065624Q207.2375 37.70625 207.58125 38.3L205.7375 38.3Q205.47188 37.753124 205.39375 37.01875ZM205.2375 33.096874Q204.28438 33.4875 202.3625 33.753124Q201.28438 33.909374 200.83125 34.1125Q200.39375 34.3 200.14375 34.675Q199.89375 35.05 199.89375 35.51875Q199.89375 36.221874 200.425 36.690624Q200.95625 37.159374 201.9875 37.159374Q203.00313 37.159374 203.78438 36.721874Q204.58125 36.26875 204.95625 35.503124Q205.2375 34.89375 205.2375 33.7375L205.2375 33.096874ZM213.45625 36.721874L213.70625 38.284374Q212.97188 38.440624 212.37813 38.440624Q211.425 38.440624 210.89375 38.14375Q210.37813 37.83125 210.15938 37.346874Q209.94063 36.846874 209.94063 35.26875L209.94063 29.3L208.65938 29.3L208.65938 27.925L209.94063 27.925L209.94063 25.3625L211.69063 24.3L211.69063 27.925L213.45625 27.925L213.45625 29.3L211.69063 29.3L211.69063 35.3625Q211.69063 36.1125 211.78438 36.33125Q211.87813 36.534374 212.08125 36.675Q212.3 36.8 212.69063 36.8Q212.97188 36.8 213.45625 36.721874ZM222.72188 34.95625L224.53438 35.190624Q224.1125 36.76875 222.94063 37.659374Q221.78438 38.534374 219.97188 38.534374Q217.70625 38.534374 216.3625 37.14375Q215.03438 35.7375 215.03438 33.20625Q215.03438 30.58125 216.37813 29.14375Q217.72188 27.690624 219.87813 27.690624Q221.95625 27.690624 223.26875 29.1125Q224.59688 30.51875 224.59688 33.096874Q224.59688 33.253124 224.58125 33.565624L216.84688 33.565624Q216.94063 35.26875 217.81563 36.175Q218.69063 37.08125 219.9875 37.08125Q220.95625 37.08125 221.62813 36.58125Q222.31563 36.065624 222.72188 34.95625ZM216.94063 32.1125L222.7375 32.1125Q222.62813 30.815624 222.08125 30.159374Q221.2375 29.14375 219.89375 29.14375Q218.69063 29.14375 217.8625 29.95625Q217.03438 30.753124 216.94063 32.1125ZM226.3 39.159374L228.00313 39.409374Q228.1125 40.20625 228.59688 40.565624Q229.25313 41.05 230.39375 41.05Q231.6125 41.05 232.26875 40.565624Q232.94063 40.08125 233.175 39.20625Q233.31563 38.659374 233.3 36.940624Q232.14375 38.3 230.425 38.3Q228.28438 38.3 227.1125 36.753124Q225.94063 35.20625 225.94063 33.05Q225.94063 31.565624 226.47188 30.315624Q227.01875 29.065624 228.03438 28.378124Q229.06563 27.690624 230.44063 27.690624Q232.26875 27.690624 233.47188 29.175L233.47188 27.925L235.08125 27.925L235.08125 36.89375Q235.08125 39.315624 234.58125 40.315624Q234.09688 41.33125 233.01875 41.909374Q231.95625 42.503124 230.39375 42.503124Q228.55 42.503124 227.39375 41.675Q226.25313 40.846874 226.3 39.159374ZM227.75313 32.925Q227.75313 34.971874 228.56563 35.909374Q229.37813 36.846874 230.59688 36.846874Q231.8 36.846874 232.6125 35.909374Q233.44063 34.971874 233.44063 32.9875Q233.44063 31.08125 232.59688 30.1125Q231.75313 29.14375 230.56563 29.14375Q229.39375 29.14375 228.56563 30.096874Q227.75313 31.05 227.75313 32.925ZM236.97188 33.1125Q236.97188 30.2375 238.56563 28.846874Q239.90938 27.690624 241.83125 27.690624Q243.97188 27.690624 245.31563 29.096874Q246.675 30.503124 246.675 32.971874Q246.675 34.971874 246.08125 36.128124Q245.4875 37.26875 244.33125 37.909374Q243.19063 38.534374 241.83125 38.534374Q239.64375 38.534374 238.3 37.14375Q236.97188 35.7375 236.97188 33.1125ZM238.76875 33.1125Q238.76875 35.1125 239.62813 36.096874Q240.50313 37.08125 241.83125 37.08125Q243.14375 37.08125 244.00313 36.096874Q244.87813 35.096874 244.87813 33.05Q244.87813 31.128124 244.00313 30.14375Q243.12813 29.14375 241.83125 29.14375Q240.50313 29.14375 239.62813 30.14375Q238.76875 31.128124 238.76875 33.1125ZM248.59688 38.3L248.59688 27.925L250.175 27.925L250.175 29.503124Q250.78438 28.39375 251.3 28.05Q251.81563 27.690624 252.425 27.690624Q253.31563 27.690624 254.2375 28.253124L253.62813 29.89375Q252.9875 29.503124 252.34688 29.503124Q251.76875 29.503124 251.3 29.8625Q250.84688 30.20625 250.64375 30.815624Q250.3625 31.753124 250.3625 32.8625L250.3625 38.3L248.59688 38.3ZM255.53438 42.3L255.34688 40.64375Q255.925 40.8 256.34686 40.8Q256.9406 40.8 257.28436 40.596874Q257.64374 40.409374 257.8625 40.065624Q258.03436 39.8 258.40936 38.753124Q258.45624 38.596874 258.5656 38.315624L254.62813 27.925L256.51874 27.925L258.675 33.940624Q259.09686 35.08125 259.425 36.33125Q259.7375 35.128124 260.14374 33.971874L262.3625 27.925L264.1281 27.925L260.175 38.471874Q259.55 40.190624 259.1906 40.83125Q258.72186 41.70625 258.1125 42.096874Q257.51874 42.503124 256.675 42.503124Q256.15936 42.503124 255.53438 42.3Z" fill-rule="nonzero"/></svg>